<svg width="360" height="800" viewBox="0 0 360 800" fill="none" xmlns="http://www.w3.org/2000/svg">
<g clip-path="url(#clip0_255_4090)">
<rect width="360" height="800" fill="white"/>
<rect width="360" height="800" fill="#E6F8E8"/>
<g filter="url(#filter0_d_255_4090)">
<rect x="21" y="205" width="318.753" height="390.309" rx="17.3471" fill="white" shape-rendering="crispEdges"/>
<path fill-rule="evenodd" clip-rule="evenodd" d="M180.499 280.292C142.277 280.292 111.291 311.279 111.291 349.501C111.291 387.722 142.277 418.709 180.499 418.709C218.721 418.709 249.708 387.722 249.708 349.501C249.708 311.279 218.721 280.292 180.499 280.292ZM210.498 337.798C211.05 337.167 211.471 336.431 211.735 335.635C211.999 334.838 212.101 333.997 212.035 333.161C211.969 332.325 211.736 331.51 211.351 330.765C210.966 330.02 210.435 329.359 209.791 328.822C209.146 328.285 208.401 327.882 207.598 327.637C206.796 327.393 205.952 327.311 205.118 327.397C204.283 327.483 203.474 327.735 202.739 328.138C202.003 328.541 201.355 329.088 200.834 329.745L173.78 362.203L159.781 348.198C158.594 347.052 157.005 346.418 155.355 346.432C153.706 346.447 152.128 347.108 150.961 348.275C149.795 349.441 149.133 351.019 149.119 352.669C149.104 354.319 149.738 355.908 150.884 357.095L169.759 375.97C170.378 376.587 171.118 377.07 171.933 377.386C172.748 377.702 173.619 377.844 174.493 377.805C175.366 377.765 176.221 377.544 177.004 377.155C177.787 376.767 178.48 376.219 179.04 375.548L210.498 337.798Z" fill="#009611"/>
<path d="M40.7054 466.766V450.996H46.9272C48.1233 450.996 49.1423 451.225 49.9842 451.682C50.8261 452.133 51.4678 452.762 51.9093 453.568C52.3559 454.369 52.5792 455.293 52.5792 456.34C52.5792 457.387 52.3533 458.312 51.9016 459.112C51.4498 459.913 50.7953 460.537 49.938 460.983C49.0859 461.43 48.054 461.653 46.8425 461.653H42.8769V458.981H46.3035C46.9452 458.981 47.474 458.871 47.8898 458.65C48.3107 458.424 48.6239 458.114 48.8292 457.719C49.0397 457.318 49.1449 456.859 49.1449 456.34C49.1449 455.817 49.0397 455.36 48.8292 454.97C48.6239 454.574 48.3107 454.269 47.8898 454.053C47.4688 453.833 46.9349 453.722 46.2881 453.722H44.0397V466.766H40.7054ZM57.7384 466.99C56.9837 466.99 56.3113 466.859 55.7209 466.597C55.1306 466.33 54.6634 465.937 54.3195 465.419C53.9806 464.895 53.8112 464.243 53.8112 463.463C53.8112 462.806 53.9319 462.254 54.1732 461.807C54.4144 461.361 54.743 461.001 55.1588 460.729C55.5746 460.457 56.0469 460.252 56.5756 460.113C57.1095 459.975 57.6691 459.877 58.2543 459.821C58.9422 459.749 59.4966 459.682 59.9175 459.621C60.3385 459.554 60.6439 459.456 60.8339 459.328C61.0238 459.2 61.1188 459.01 61.1188 458.758V458.712C61.1188 458.224 60.9648 457.847 60.6568 457.58C60.3539 457.313 59.9227 457.18 59.3631 457.18C58.7728 457.18 58.303 457.31 57.954 457.572C57.6049 457.829 57.3739 458.152 57.2609 458.543L54.2271 458.296C54.3811 457.577 54.6839 456.956 55.1357 456.433C55.5874 455.904 56.1701 455.498 56.8836 455.216C57.6023 454.929 58.434 454.785 59.3785 454.785C60.0356 454.785 60.6645 454.862 61.2651 455.016C61.8708 455.17 62.4073 455.409 62.8744 455.732C63.3467 456.055 63.7189 456.471 63.991 456.979C64.263 457.482 64.3991 458.086 64.3991 458.789V466.766H61.2882V465.126H61.1958C61.0058 465.496 60.7517 465.822 60.4334 466.104C60.1152 466.381 59.7327 466.6 59.2861 466.759C58.8395 466.913 58.3236 466.99 57.7384 466.99ZM58.6778 464.726C59.1603 464.726 59.5864 464.631 59.956 464.441C60.3256 464.246 60.6157 463.984 60.8262 463.655C61.0366 463.327 61.1419 462.955 61.1419 462.539V461.284C61.0392 461.351 60.898 461.412 60.7184 461.469C60.5438 461.52 60.3462 461.569 60.1254 461.615C59.9047 461.656 59.684 461.694 59.4632 461.73C59.2425 461.761 59.0423 461.789 58.8626 461.815C58.4776 461.872 58.1413 461.961 57.8539 462.085C57.5664 462.208 57.3431 462.375 57.1839 462.585C57.0248 462.79 56.9452 463.047 56.9452 463.355C56.9452 463.802 57.1069 464.143 57.4304 464.379C57.7589 464.61 58.1747 464.726 58.6778 464.726ZM76.7849 458.312L73.7818 458.496C73.7305 458.24 73.6201 458.009 73.4507 457.803C73.2813 457.593 73.058 457.426 72.7808 457.303C72.5087 457.174 72.1827 457.11 71.8028 457.11C71.2946 457.11 70.866 457.218 70.5169 457.434C70.1678 457.644 69.9933 457.926 69.9933 458.281C69.9933 458.563 70.1062 458.802 70.3321 458.997C70.558 459.192 70.9455 459.348 71.4948 459.467L73.6355 459.898C74.7854 460.134 75.6427 460.514 76.2074 461.037C76.7721 461.561 77.0544 462.249 77.0544 463.101C77.0544 463.876 76.826 464.556 76.3691 465.142C75.9173 465.727 75.2962 466.184 74.5056 466.512C73.7202 466.836 72.8141 466.997 71.7874 466.997C70.2217 466.997 68.9743 466.671 68.0451 466.019C67.1211 465.362 66.5795 464.469 66.4204 463.34L69.6468 463.17C69.7443 463.648 69.9804 464.012 70.3552 464.264C70.7299 464.51 71.2099 464.633 71.7951 464.633C72.3701 464.633 72.8321 464.523 73.1812 464.302C73.5354 464.076 73.7151 463.786 73.7202 463.432C73.7151 463.134 73.5893 462.891 73.3429 462.701C73.0965 462.506 72.7166 462.357 72.2032 462.254L70.155 461.846C69 461.615 68.1401 461.214 67.5754 460.645C67.0159 460.075 66.7361 459.348 66.7361 458.466C66.7361 457.706 66.9414 457.051 67.3521 456.502C67.7679 455.953 68.3506 455.529 69.1001 455.231C69.8547 454.934 70.7376 454.785 71.7489 454.785C73.2428 454.785 74.4183 455.101 75.2756 455.732C76.1381 456.363 76.6411 457.223 76.7849 458.312ZM88.9609 458.312L85.9578 458.496C85.9065 458.24 85.7961 458.009 85.6267 457.803C85.4573 457.593 85.234 457.426 84.9568 457.303C84.6847 457.174 84.3587 457.11 83.9788 457.11C83.4706 457.11 83.042 457.218 82.6929 457.434C82.3438 457.644 82.1693 457.926 82.1693 458.281C82.1693 458.563 82.2822 458.802 82.5081 458.997C82.734 459.192 83.1215 459.348 83.6708 459.467L85.8115 459.898C86.9614 460.134 87.8187 460.514 88.3834 461.037C88.948 461.561 89.2304 462.249 89.2304 463.101C89.2304 463.876 89.0019 464.556 88.5451 465.142C88.0933 465.727 87.4722 466.184 86.6816 466.512C85.8962 466.836 84.9901 466.997 83.9634 466.997C82.3977 466.997 81.1503 466.671 80.2211 466.019C79.2971 465.362 78.7555 464.469 78.5964 463.34L81.8228 463.17C81.9203 463.648 82.1564 464.012 82.5312 464.264C82.9059 464.51 83.3859 464.633 83.9711 464.633C84.5461 464.633 85.0081 464.523 85.3572 464.302C85.7114 464.076 85.8911 463.786 85.8962 463.432C85.8911 463.134 85.7653 462.891 85.5189 462.701C85.2725 462.506 84.8926 462.357 84.3792 462.254L82.331 461.846C81.1759 461.615 80.3161 461.214 79.7514 460.645C79.1919 460.075 78.9121 459.348 78.9121 458.466C78.9121 457.706 79.1174 457.051 79.5281 456.502C79.9439 455.953 80.5266 455.529 81.276 455.231C82.0307 454.934 82.9136 454.785 83.9249 454.785C85.4188 454.785 86.5943 455.101 87.4516 455.732C88.3141 456.363 88.8171 457.223 88.9609 458.312ZM93.6291 466.766L90.4104 454.939H93.7292L95.5619 462.885H95.6697L97.5794 454.939H100.837L102.777 462.839H102.877L104.679 454.939H107.99L104.779 466.766H101.306L99.2734 459.328H99.1271L97.0942 466.766H93.6291ZM114.787 466.997C113.591 466.997 112.557 466.743 111.684 466.235C110.817 465.722 110.147 465.008 109.675 464.094C109.202 463.175 108.966 462.11 108.966 460.899C108.966 459.677 109.202 458.609 109.675 457.695C110.147 456.777 110.817 456.063 111.684 455.555C112.557 455.041 113.591 454.785 114.787 454.785C115.984 454.785 117.015 455.041 117.883 455.555C118.756 456.063 119.428 456.777 119.9 457.695C120.373 458.609 120.609 459.677 120.609 460.899C120.609 462.11 120.373 463.175 119.9 464.094C119.428 465.008 118.756 465.722 117.883 466.235C117.015 466.743 115.984 466.997 114.787 466.997ZM114.803 464.456C115.347 464.456 115.801 464.302 116.166 463.994C116.53 463.681 116.805 463.255 116.99 462.716C117.18 462.177 117.275 461.564 117.275 460.876C117.275 460.188 117.18 459.574 116.99 459.035C116.805 458.496 116.53 458.07 116.166 457.757C115.801 457.444 115.347 457.287 114.803 457.287C114.254 457.287 113.792 457.444 113.417 457.757C113.047 458.07 112.767 458.496 112.577 459.035C112.393 459.574 112.3 460.188 112.3 460.876C112.3 461.564 112.393 462.177 112.577 462.716C112.767 463.255 113.047 463.681 113.417 463.994C113.792 464.302 114.254 464.456 114.803 464.456ZM122.742 466.766V454.939H125.922V457.002H126.045C126.261 456.268 126.623 455.714 127.131 455.339C127.639 454.959 128.224 454.769 128.887 454.769C129.051 454.769 129.228 454.78 129.418 454.8C129.608 454.821 129.775 454.849 129.918 454.885V457.796C129.764 457.749 129.551 457.708 129.279 457.672C129.007 457.636 128.758 457.618 128.532 457.618C128.05 457.618 127.619 457.724 127.239 457.934C126.864 458.14 126.566 458.427 126.346 458.797C126.13 459.166 126.022 459.592 126.022 460.075V466.766H122.742ZM135.422 466.959C134.524 466.959 133.71 466.728 132.981 466.266C132.257 465.799 131.682 465.113 131.256 464.21C130.835 463.301 130.625 462.187 130.625 460.868C130.625 459.513 130.843 458.386 131.279 457.488C131.716 456.584 132.296 455.909 133.02 455.462C133.749 455.011 134.547 454.785 135.414 454.785C136.077 454.785 136.629 454.898 137.07 455.124C137.517 455.344 137.876 455.622 138.148 455.955C138.425 456.284 138.636 456.607 138.779 456.925H138.88V450.996H142.152V466.766H138.918V464.872H138.779C138.625 465.201 138.407 465.527 138.125 465.85C137.848 466.168 137.486 466.433 137.039 466.643C136.598 466.854 136.059 466.959 135.422 466.959ZM136.462 464.348C136.99 464.348 137.437 464.205 137.802 463.917C138.171 463.625 138.453 463.217 138.649 462.693C138.849 462.169 138.949 461.556 138.949 460.853C138.949 460.149 138.851 459.538 138.656 459.02C138.461 458.501 138.179 458.101 137.809 457.819C137.44 457.536 136.99 457.395 136.462 457.395C135.923 457.395 135.468 457.541 135.099 457.834C134.729 458.127 134.449 458.532 134.259 459.051C134.069 459.569 133.975 460.17 133.975 460.853C133.975 461.54 134.069 462.149 134.259 462.678C134.454 463.201 134.734 463.612 135.099 463.91C135.468 464.202 135.923 464.348 136.462 464.348ZM149.929 466.766V450.996H156.244C157.404 450.996 158.371 451.168 159.147 451.512C159.922 451.856 160.504 452.334 160.895 452.944C161.285 453.55 161.48 454.248 161.48 455.039C161.48 455.655 161.357 456.197 161.11 456.664C160.864 457.126 160.525 457.506 160.094 457.803C159.668 458.096 159.18 458.304 158.631 458.427V458.581C159.231 458.607 159.793 458.776 160.317 459.089C160.846 459.402 161.274 459.841 161.603 460.406C161.931 460.966 162.096 461.633 162.096 462.408C162.096 463.245 161.888 463.992 161.472 464.649C161.061 465.301 160.453 465.817 159.647 466.197C158.841 466.576 157.848 466.766 156.667 466.766H149.929ZM153.264 464.04H155.982C156.911 464.04 157.589 463.863 158.015 463.509C158.441 463.15 158.654 462.672 158.654 462.077C158.654 461.641 158.549 461.256 158.338 460.922C158.128 460.588 157.827 460.326 157.437 460.136C157.052 459.947 156.593 459.852 156.059 459.852H153.264V464.04ZM153.264 457.595H155.735C156.192 457.595 156.598 457.516 156.952 457.357C157.311 457.192 157.594 456.961 157.799 456.664C158.009 456.366 158.115 456.009 158.115 455.593C158.115 455.024 157.912 454.564 157.506 454.215C157.106 453.866 156.536 453.691 155.797 453.691H153.264V457.595ZM169.594 466.997C168.377 466.997 167.33 466.751 166.452 466.258C165.579 465.76 164.907 465.057 164.435 464.148C163.962 463.235 163.726 462.154 163.726 460.906C163.726 459.69 163.962 458.622 164.435 457.703C164.907 456.784 165.572 456.068 166.429 455.555C167.291 455.041 168.303 454.785 169.463 454.785C170.243 454.785 170.97 454.911 171.642 455.162C172.32 455.409 172.91 455.781 173.413 456.279C173.921 456.777 174.317 457.403 174.599 458.157C174.881 458.907 175.023 459.785 175.023 460.791V461.692H165.035V459.659H171.935C171.935 459.187 171.832 458.768 171.627 458.404C171.421 458.039 171.136 457.755 170.772 457.549C170.413 457.339 169.994 457.233 169.517 457.233C169.019 457.233 168.577 457.349 168.192 457.58C167.813 457.806 167.515 458.111 167.299 458.496C167.084 458.876 166.973 459.3 166.968 459.767V461.7C166.968 462.285 167.076 462.79 167.291 463.217C167.512 463.643 167.823 463.971 168.223 464.202C168.624 464.433 169.098 464.549 169.648 464.549C170.012 464.549 170.346 464.497 170.649 464.395C170.952 464.292 171.211 464.138 171.427 463.933C171.642 463.727 171.806 463.476 171.919 463.178L174.953 463.378C174.799 464.107 174.484 464.744 174.006 465.288C173.534 465.827 172.923 466.248 172.173 466.551C171.429 466.848 170.569 466.997 169.594 466.997ZM177.163 466.766V454.939H180.343V457.002H180.467C180.682 456.268 181.044 455.714 181.552 455.339C182.061 454.959 182.646 454.769 183.308 454.769C183.472 454.769 183.649 454.78 183.839 454.8C184.029 454.821 184.196 454.849 184.34 454.885V457.796C184.186 457.749 183.973 457.708 183.701 457.672C183.429 457.636 183.18 457.618 182.954 457.618C182.471 457.618 182.04 457.724 181.66 457.934C181.285 458.14 180.988 458.427 180.767 458.797C180.551 459.166 180.443 459.592 180.443 460.075V466.766H177.163ZM189.316 459.929V466.766H186.036V450.996H189.224V457.026H189.362C189.629 456.327 190.06 455.781 190.656 455.385C191.251 454.985 191.998 454.785 192.897 454.785C193.718 454.785 194.434 454.964 195.045 455.324C195.661 455.678 196.138 456.189 196.477 456.856C196.821 457.518 196.991 458.312 196.986 459.236V466.766H193.705V459.821C193.71 459.092 193.526 458.525 193.151 458.119C192.781 457.713 192.263 457.511 191.595 457.511C191.149 457.511 190.753 457.606 190.41 457.796C190.071 457.986 189.804 458.263 189.609 458.627C189.419 458.987 189.321 459.42 189.316 459.929ZM202.94 466.99C202.185 466.99 201.513 466.859 200.922 466.597C200.332 466.33 199.865 465.937 199.521 465.419C199.182 464.895 199.013 464.243 199.013 463.463C199.013 462.806 199.133 462.254 199.374 461.807C199.616 461.361 199.944 461.001 200.36 460.729C200.776 460.457 201.248 460.252 201.777 460.113C202.311 459.975 202.87 459.877 203.456 459.821C204.144 459.749 204.698 459.682 205.119 459.621C205.54 459.554 205.845 459.456 206.035 459.328C206.225 459.2 206.32 459.01 206.32 458.758V458.712C206.32 458.224 206.166 457.847 205.858 457.58C205.555 457.313 205.124 457.18 204.564 457.18C203.974 457.18 203.504 457.31 203.155 457.572C202.806 457.829 202.575 458.152 202.462 458.543L199.428 458.296C199.582 457.577 199.885 456.956 200.337 456.433C200.789 455.904 201.371 455.498 202.085 455.216C202.804 454.929 203.635 454.785 204.58 454.785C205.237 454.785 205.866 454.862 206.466 455.016C207.072 455.17 207.609 455.409 208.076 455.732C208.548 456.055 208.92 456.471 209.192 456.979C209.464 457.482 209.6 458.086 209.6 458.789V466.766H206.49V465.126H206.397C206.207 465.496 205.953 465.822 205.635 466.104C205.317 466.381 204.934 466.6 204.487 466.759C204.041 466.913 203.525 466.99 202.94 466.99ZM203.879 464.726C204.362 464.726 204.788 464.631 205.157 464.441C205.527 464.246 205.817 463.984 206.027 463.655C206.238 463.327 206.343 462.955 206.343 462.539V461.284C206.241 461.351 206.099 461.412 205.92 461.469C205.745 461.52 205.548 461.569 205.327 461.615C205.106 461.656 204.885 461.694 204.665 461.73C204.444 461.761 204.244 461.789 204.064 461.815C203.679 461.872 203.343 461.961 203.055 462.085C202.768 462.208 202.544 462.375 202.385 462.585C202.226 462.79 202.147 463.047 202.147 463.355C202.147 463.802 202.308 464.143 202.632 464.379C202.96 464.61 203.376 464.726 203.879 464.726ZM221.986 458.312L218.983 458.496C218.932 458.24 218.821 458.009 218.652 457.803C218.483 457.593 218.259 457.426 217.982 457.303C217.71 457.174 217.384 457.11 217.004 457.11C216.496 457.11 216.067 457.218 215.718 457.434C215.369 457.644 215.195 457.926 215.195 458.281C215.195 458.563 215.308 458.802 215.533 458.997C215.759 459.192 216.147 459.348 216.696 459.467L218.837 459.898C219.987 460.134 220.844 460.514 221.409 461.037C221.973 461.561 222.256 462.249 222.256 463.101C222.256 463.876 222.027 464.556 221.57 465.142C221.119 465.727 220.498 466.184 219.707 466.512C218.922 466.836 218.015 466.997 216.989 466.997C215.423 466.997 214.176 466.671 213.246 466.019C212.322 465.362 211.781 464.469 211.622 463.34L214.848 463.17C214.946 463.648 215.182 464.012 215.557 464.264C215.931 464.51 216.411 464.633 216.996 464.633C217.571 464.633 218.033 464.523 218.383 464.302C218.737 464.076 218.916 463.786 218.922 463.432C218.916 463.134 218.791 462.891 218.544 462.701C218.298 462.506 217.918 462.357 217.405 462.254L215.356 461.846C214.201 461.615 213.341 461.214 212.777 460.645C212.217 460.075 211.937 459.348 211.937 458.466C211.937 457.706 212.143 457.051 212.553 456.502C212.969 455.953 213.552 455.529 214.301 455.231C215.056 454.934 215.939 454.785 216.95 454.785C218.444 454.785 219.62 455.101 220.477 455.732C221.339 456.363 221.843 457.223 221.986 458.312ZM224.321 466.766V454.939H227.602V466.766H224.321ZM225.969 453.414C225.482 453.414 225.063 453.252 224.714 452.929C224.37 452.6 224.198 452.208 224.198 451.751C224.198 451.299 224.37 450.912 224.714 450.588C225.063 450.26 225.482 450.095 225.969 450.095C226.457 450.095 226.873 450.26 227.217 450.588C227.566 450.912 227.74 451.299 227.74 451.751C227.74 452.208 227.566 452.6 227.217 452.929C226.873 453.252 226.457 453.414 225.969 453.414ZM233.51 450.996V466.766H230.229V450.996H233.51ZM245.514 466.959C244.616 466.959 243.802 466.728 243.073 466.266C242.349 465.799 241.775 465.113 241.348 464.21C240.928 463.301 240.717 462.187 240.717 460.868C240.717 459.513 240.935 458.386 241.372 457.488C241.808 456.584 242.388 455.909 243.112 455.462C243.841 455.011 244.639 454.785 245.507 454.785C246.169 454.785 246.721 454.898 247.162 455.124C247.609 455.344 247.968 455.622 248.24 455.955C248.517 456.284 248.728 456.607 248.872 456.925H248.972V450.996H252.244V466.766H249.01V464.872H248.872C248.718 465.201 248.499 465.527 248.217 465.85C247.94 466.168 247.578 466.433 247.131 466.643C246.69 466.854 246.151 466.959 245.514 466.959ZM246.554 464.348C247.083 464.348 247.529 464.205 247.894 463.917C248.263 463.625 248.546 463.217 248.741 462.693C248.941 462.169 249.041 461.556 249.041 460.853C249.041 460.149 248.943 459.538 248.748 459.02C248.553 458.501 248.271 458.101 247.901 457.819C247.532 457.536 247.083 457.395 246.554 457.395C246.015 457.395 245.56 457.541 245.191 457.834C244.821 458.127 244.541 458.532 244.352 459.051C244.162 459.569 244.067 460.17 244.067 460.853C244.067 461.54 244.162 462.149 244.352 462.678C244.547 463.201 244.826 463.612 245.191 463.91C245.56 464.202 246.015 464.348 246.554 464.348ZM254.941 466.766V454.939H258.222V466.766H254.941ZM256.589 453.414C256.101 453.414 255.683 453.252 255.334 452.929C254.99 452.6 254.818 452.208 254.818 451.751C254.818 451.299 254.99 450.912 255.334 450.588C255.683 450.26 256.101 450.095 256.589 450.095C257.077 450.095 257.493 450.26 257.837 450.588C258.186 450.912 258.36 451.299 258.36 451.751C258.36 452.208 258.186 452.6 257.837 452.929C257.493 453.252 257.077 453.414 256.589 453.414ZM266.178 471.448C265.115 471.448 264.204 471.302 263.444 471.009C262.69 470.722 262.089 470.329 261.642 469.831C261.196 469.333 260.906 468.774 260.772 468.152L263.806 467.744C263.899 467.98 264.045 468.201 264.245 468.407C264.445 468.612 264.71 468.776 265.038 468.899C265.372 469.028 265.777 469.092 266.255 469.092C266.968 469.092 267.556 468.917 268.018 468.568C268.485 468.224 268.719 467.647 268.719 466.836V464.672H268.58C268.437 465 268.221 465.311 267.934 465.604C267.646 465.896 267.276 466.135 266.825 466.32C266.373 466.505 265.834 466.597 265.208 466.597C264.32 466.597 263.511 466.392 262.782 465.981C262.058 465.565 261.481 464.931 261.05 464.079C260.623 463.222 260.41 462.139 260.41 460.829C260.41 459.49 260.629 458.371 261.065 457.472C261.501 456.574 262.081 455.901 262.805 455.455C263.534 455.008 264.332 454.785 265.2 454.785C265.862 454.785 266.417 454.898 266.863 455.124C267.31 455.344 267.669 455.622 267.941 455.955C268.218 456.284 268.431 456.607 268.58 456.925H268.704V454.939H271.961V466.882C271.961 467.888 271.714 468.73 271.222 469.408C270.729 470.085 270.046 470.593 269.173 470.932C268.306 471.276 267.307 471.448 266.178 471.448ZM266.247 464.133C266.776 464.133 267.223 464.002 267.587 463.74C267.957 463.473 268.239 463.093 268.434 462.601C268.634 462.103 268.734 461.507 268.734 460.814C268.734 460.121 268.637 459.52 268.442 459.012C268.247 458.499 267.964 458.101 267.595 457.819C267.225 457.536 266.776 457.395 266.247 457.395C265.708 457.395 265.254 457.541 264.884 457.834C264.515 458.122 264.235 458.522 264.045 459.035C263.855 459.549 263.76 460.142 263.76 460.814C263.76 461.497 263.855 462.087 264.045 462.585C264.24 463.078 264.52 463.46 264.884 463.732C265.254 463.999 265.708 464.133 266.247 464.133ZM277.944 466.99C277.189 466.99 276.517 466.859 275.926 466.597C275.336 466.33 274.869 465.937 274.525 465.419C274.186 464.895 274.017 464.243 274.017 463.463C274.017 462.806 274.137 462.254 274.379 461.807C274.62 461.361 274.948 461.001 275.364 460.729C275.78 460.457 276.252 460.252 276.781 460.113C277.315 459.975 277.875 459.877 278.46 459.821C279.148 459.749 279.702 459.682 280.123 459.621C280.544 459.554 280.849 459.456 281.039 459.328C281.229 459.2 281.324 459.01 281.324 458.758V458.712C281.324 458.224 281.17 457.847 280.862 457.58C280.559 457.313 280.128 457.18 279.569 457.18C278.978 457.18 278.509 457.31 278.159 457.572C277.81 457.829 277.579 458.152 277.466 458.543L274.433 458.296C274.587 457.577 274.889 456.956 275.341 456.433C275.793 455.904 276.376 455.498 277.089 455.216C277.808 454.929 278.639 454.785 279.584 454.785C280.241 454.785 280.87 454.862 281.471 455.016C282.076 455.17 282.613 455.409 283.08 455.732C283.552 456.055 283.924 456.471 284.196 456.979C284.468 457.482 284.605 458.086 284.605 458.789V466.766H281.494V465.126H281.401C281.211 465.496 280.957 465.822 280.639 466.104C280.321 466.381 279.938 466.6 279.492 466.759C279.045 466.913 278.529 466.99 277.944 466.99ZM278.883 464.726C279.366 464.726 279.792 464.631 280.161 464.441C280.531 464.246 280.821 463.984 281.032 463.655C281.242 463.327 281.347 462.955 281.347 462.539V461.284C281.245 461.351 281.103 461.412 280.924 461.469C280.749 461.52 280.552 461.569 280.331 461.615C280.11 461.656 279.889 461.694 279.669 461.73C279.448 461.761 279.248 461.789 279.068 461.815C278.683 461.872 278.347 461.961 278.059 462.085C277.772 462.208 277.549 462.375 277.389 462.585C277.23 462.79 277.151 463.047 277.151 463.355C277.151 463.802 277.312 464.143 277.636 464.379C277.964 464.61 278.38 464.726 278.883 464.726ZM290.43 459.929V466.766H287.149V454.939H290.276V457.026H290.414C290.676 456.338 291.115 455.794 291.731 455.393C292.347 454.988 293.094 454.785 293.972 454.785C294.793 454.785 295.509 454.964 296.12 455.324C296.731 455.683 297.206 456.197 297.545 456.864C297.884 457.526 298.053 458.317 298.053 459.236V466.766H294.773V459.821C294.778 459.097 294.593 458.532 294.218 458.127C293.844 457.716 293.328 457.511 292.671 457.511C292.229 457.511 291.839 457.606 291.5 457.796C291.166 457.986 290.905 458.263 290.715 458.627C290.53 458.987 290.435 459.42 290.43 459.929ZM306.929 454.939V457.403H299.807V454.939H306.929ZM301.424 452.105H304.704V463.132C304.704 463.435 304.75 463.671 304.843 463.84C304.935 464.005 305.063 464.12 305.228 464.187C305.397 464.254 305.592 464.287 305.813 464.287C305.967 464.287 306.121 464.274 306.275 464.248C306.429 464.218 306.547 464.194 306.629 464.179L307.145 466.62C306.981 466.671 306.75 466.73 306.452 466.797C306.154 466.869 305.792 466.913 305.366 466.928C304.576 466.959 303.883 466.854 303.287 466.612C302.697 466.371 302.237 465.996 301.909 465.488C301.58 464.98 301.419 464.338 301.424 463.563V452.105ZM309.066 466.766V454.939H312.347V466.766H309.066ZM310.714 453.414C310.226 453.414 309.808 453.252 309.459 452.929C309.115 452.6 308.943 452.208 308.943 451.751C308.943 451.299 309.115 450.912 309.459 450.588C309.808 450.26 310.226 450.095 310.714 450.095C311.202 450.095 311.618 450.26 311.962 450.588C312.311 450.912 312.485 451.299 312.485 451.751C312.485 452.208 312.311 452.6 311.962 452.929C311.618 453.252 311.202 453.414 310.714 453.414Z" fill="black"/>
</g>
</g>
<defs>
<filter id="filter0_d_255_4090" x="17" y="205" width="326.753" height="398.309" filterUnits="userSpaceOnUse" color-interpolation-filters="sRGB">
<feFlood flood-opacity="0" result="BackgroundImageFix"/>
<feColorMatrix in="SourceAlpha" type="matrix" values="0 0 0 0 0 0 0 0 0 0 0 0 0 0 0 0 0 0 127 0" result="hardAlpha"/>
<feOffset dy="4"/>
<feGaussianBlur stdDeviation="2"/>
<feComposite in2="hardAlpha" operator="out"/>
<feColorMatrix type="matrix" values="0 0 0 0 0 0 0 0 0 0 0 0 0 0 0 0 0 0 0.25 0"/>
<feBlend mode="normal" in2="BackgroundImageFix" result="effect1_dropShadow_255_4090"/>
<feBlend mode="normal" in="SourceGraphic" in2="effect1_dropShadow_255_4090" result="shape"/>
</filter>
<clipPath id="clip0_255_4090">
<rect width="360" height="800" fill="white"/>
</clipPath>
</defs>
</svg>
