<svg width="360" height="800" viewBox="0 0 360 800" fill="none" xmlns="http://www.w3.org/2000/svg">
<g clip-path="url(#clip0_199_2928)">
<rect width="360" height="800" fill="white"/>
<rect width="360" height="800" fill="#E6F8E8"/>
<g filter="url(#filter0_d_199_2928)">
<rect x="21" y="205" width="318.753" height="390.309" rx="17.3471" fill="white" shape-rendering="crispEdges"/>
<path fill-rule="evenodd" clip-rule="evenodd" d="M180.499 280.292C142.277 280.292 111.291 311.279 111.291 349.501C111.291 387.723 142.277 418.709 180.499 418.709C218.721 418.709 249.708 387.723 249.708 349.501C249.708 311.279 218.721 280.292 180.499 280.292ZM210.498 337.798C211.05 337.167 211.471 336.431 211.735 335.635C211.999 334.839 212.101 333.998 212.035 333.161C211.969 332.325 211.736 331.51 211.351 330.765C210.966 330.02 210.435 329.359 209.791 328.822C209.146 328.285 208.401 327.882 207.598 327.638C206.796 327.393 205.952 327.311 205.118 327.397C204.283 327.483 203.474 327.735 202.739 328.138C202.003 328.542 201.355 329.088 200.834 329.745L173.78 362.204L159.781 348.198C158.594 347.052 157.005 346.418 155.355 346.433C153.706 346.447 152.128 347.109 150.961 348.275C149.795 349.442 149.133 351.02 149.119 352.669C149.104 354.319 149.738 355.908 150.884 357.095L169.759 375.97C170.378 376.588 171.118 377.07 171.933 377.386C172.748 377.702 173.619 377.844 174.493 377.805C175.366 377.765 176.221 377.544 177.004 377.156C177.787 376.767 178.48 376.22 179.04 375.548L210.498 337.798Z" fill="#009611"/>
<path d="M89.2704 450.997L93.082 462.978H93.2283L97.0476 450.997H100.744L95.3073 466.767H91.0106L85.5666 450.997H89.2704ZM106.636 466.998C105.42 466.998 104.372 466.751 103.495 466.258C102.622 465.76 101.949 465.057 101.477 464.149C101.005 463.235 100.769 462.154 100.769 460.907C100.769 459.69 101.005 458.622 101.477 457.703C101.949 456.785 102.614 456.068 103.472 455.555C104.334 455.042 105.345 454.785 106.505 454.785C107.286 454.785 108.012 454.911 108.685 455.162C109.362 455.409 109.953 455.781 110.456 456.279C110.964 456.777 111.359 457.403 111.641 458.158C111.924 458.907 112.065 459.785 112.065 460.791V461.692H102.078V459.659H108.977C108.977 459.187 108.875 458.769 108.669 458.404C108.464 458.04 108.179 457.755 107.814 457.549C107.455 457.339 107.037 457.234 106.559 457.234C106.061 457.234 105.62 457.349 105.235 457.58C104.855 457.806 104.557 458.112 104.342 458.497C104.126 458.876 104.016 459.3 104.011 459.767V461.7C104.011 462.285 104.118 462.791 104.334 463.217C104.555 463.643 104.865 463.971 105.266 464.202C105.666 464.433 106.141 464.549 106.69 464.549C107.055 464.549 107.388 464.498 107.691 464.395C107.994 464.292 108.253 464.138 108.469 463.933C108.685 463.728 108.849 463.476 108.962 463.178L111.996 463.378C111.842 464.107 111.526 464.744 111.049 465.288C110.576 465.827 109.965 466.248 109.216 466.551C108.472 466.849 107.612 466.998 106.636 466.998ZM114.206 466.767V454.939H117.386V457.003H117.509C117.725 456.269 118.087 455.714 118.595 455.339C119.103 454.96 119.688 454.77 120.35 454.77C120.515 454.77 120.692 454.78 120.882 454.8C121.072 454.821 121.239 454.849 121.382 454.885V457.796C121.228 457.75 121.015 457.709 120.743 457.673C120.471 457.637 120.222 457.619 119.996 457.619C119.514 457.619 119.082 457.724 118.703 457.934C118.328 458.14 118.03 458.427 117.809 458.797C117.594 459.166 117.486 459.593 117.486 460.075V466.767H114.206ZM123.078 466.767V454.939H126.359V466.767H123.078ZM124.726 453.414C124.238 453.414 123.82 453.253 123.471 452.929C123.127 452.601 122.955 452.208 122.955 451.751C122.955 451.299 123.127 450.912 123.471 450.588C123.82 450.26 124.238 450.096 124.726 450.096C125.214 450.096 125.63 450.26 125.974 450.588C126.323 450.912 126.497 451.299 126.497 451.751C126.497 452.208 126.323 452.601 125.974 452.929C125.63 453.253 125.214 453.414 124.726 453.414ZM135.347 454.939V457.403H128.047V454.939H135.347ZM129.718 466.767V454.084C129.718 453.227 129.885 452.516 130.218 451.951C130.557 451.387 131.019 450.963 131.604 450.681C132.19 450.398 132.854 450.257 133.599 450.257C134.102 450.257 134.561 450.296 134.977 450.373C135.398 450.45 135.711 450.519 135.916 450.581L135.331 453.045C135.203 453.004 135.044 452.965 134.854 452.929C134.669 452.893 134.479 452.875 134.284 452.875C133.801 452.875 133.465 452.988 133.275 453.214C133.085 453.435 132.99 453.746 132.99 454.146V466.767H129.718ZM137.351 466.767V454.939H140.631V466.767H137.351ZM138.998 453.414C138.511 453.414 138.092 453.253 137.743 452.929C137.399 452.601 137.227 452.208 137.227 451.751C137.227 451.299 137.399 450.912 137.743 450.588C138.092 450.26 138.511 450.096 138.998 450.096C139.486 450.096 139.902 450.26 140.246 450.588C140.595 450.912 140.77 451.299 140.77 451.751C140.77 452.208 140.595 452.601 140.246 452.929C139.902 453.253 139.486 453.414 138.998 453.414ZM146.231 463.363L146.239 459.428H146.716L150.505 454.939H154.27L149.18 460.884H148.402L146.231 463.363ZM143.259 466.767V450.997H146.539V466.767H143.259ZM150.651 466.767L147.17 461.615L149.357 459.297L154.493 466.767H150.651ZM159.252 466.99C158.497 466.99 157.825 466.859 157.235 466.597C156.644 466.33 156.177 465.938 155.833 465.419C155.494 464.895 155.325 464.243 155.325 463.463C155.325 462.806 155.446 462.254 155.687 461.808C155.928 461.361 156.257 461.002 156.672 460.73C157.088 460.458 157.561 460.252 158.089 460.114C158.623 459.975 159.183 459.877 159.768 459.821C160.456 459.749 161.01 459.682 161.431 459.621C161.852 459.554 162.158 459.457 162.347 459.328C162.537 459.2 162.632 459.01 162.632 458.758V458.712C162.632 458.224 162.478 457.847 162.17 457.58C161.868 457.313 161.436 457.18 160.877 457.18C160.286 457.18 159.817 457.311 159.468 457.573C159.119 457.829 158.888 458.153 158.775 458.543L155.741 458.296C155.895 457.578 156.198 456.957 156.649 456.433C157.101 455.904 157.684 455.499 158.397 455.216C159.116 454.929 159.948 454.785 160.892 454.785C161.549 454.785 162.178 454.862 162.779 455.016C163.384 455.17 163.921 455.409 164.388 455.732C164.86 456.056 165.233 456.471 165.505 456.98C165.777 457.483 165.913 458.086 165.913 458.789V466.767H162.802V465.126H162.709C162.519 465.496 162.265 465.822 161.947 466.104C161.629 466.382 161.246 466.6 160.8 466.759C160.353 466.913 159.837 466.99 159.252 466.99ZM160.191 464.726C160.674 464.726 161.1 464.631 161.47 464.441C161.839 464.246 162.129 463.984 162.34 463.656C162.55 463.327 162.656 462.955 162.656 462.539V461.284C162.553 461.351 162.412 461.412 162.232 461.469C162.057 461.52 161.86 461.569 161.639 461.615C161.418 461.656 161.198 461.695 160.977 461.731C160.756 461.761 160.556 461.79 160.376 461.815C159.991 461.872 159.655 461.962 159.368 462.085C159.08 462.208 158.857 462.375 158.698 462.585C158.538 462.791 158.459 463.047 158.459 463.355C158.459 463.802 158.621 464.143 158.944 464.38C159.273 464.611 159.688 464.726 160.191 464.726ZM178.299 458.312L175.295 458.497C175.244 458.24 175.134 458.009 174.964 457.804C174.795 457.593 174.572 457.426 174.294 457.303C174.022 457.175 173.696 457.111 173.316 457.111C172.808 457.111 172.38 457.218 172.031 457.434C171.681 457.644 171.507 457.927 171.507 458.281C171.507 458.563 171.62 458.802 171.846 458.997C172.072 459.192 172.459 459.349 173.008 459.467L175.149 459.898C176.299 460.134 177.156 460.514 177.721 461.038C178.286 461.561 178.568 462.249 178.568 463.101C178.568 463.876 178.34 464.557 177.883 465.142C177.431 465.727 176.81 466.184 176.019 466.512C175.234 466.836 174.328 466.998 173.301 466.998C171.735 466.998 170.488 466.672 169.559 466.02C168.635 465.363 168.093 464.469 167.934 463.34L171.16 463.171C171.258 463.648 171.494 464.012 171.869 464.264C172.244 464.51 172.724 464.634 173.309 464.634C173.884 464.634 174.346 464.523 174.695 464.303C175.049 464.077 175.229 463.787 175.234 463.432C175.229 463.135 175.103 462.891 174.857 462.701C174.61 462.506 174.23 462.357 173.717 462.254L171.669 461.846C170.514 461.615 169.654 461.215 169.089 460.645C168.529 460.075 168.25 459.349 168.25 458.466C168.25 457.706 168.455 457.051 168.866 456.502C169.282 455.953 169.864 455.529 170.614 455.232C171.368 454.934 172.251 454.785 173.263 454.785C174.756 454.785 175.932 455.101 176.789 455.732C177.652 456.364 178.155 457.223 178.299 458.312ZM180.634 466.767V454.939H183.914V466.767H180.634ZM182.281 453.414C181.794 453.414 181.375 453.253 181.026 452.929C180.682 452.601 180.51 452.208 180.51 451.751C180.51 451.299 180.682 450.912 181.026 450.588C181.375 450.26 181.794 450.096 182.281 450.096C182.769 450.096 183.185 450.26 183.529 450.588C183.878 450.912 184.053 451.299 184.053 451.751C184.053 452.208 183.878 452.601 183.529 452.929C183.185 453.253 182.769 453.414 182.281 453.414ZM200.177 455.532C200.115 454.911 199.851 454.428 199.384 454.084C198.917 453.74 198.283 453.568 197.482 453.568C196.938 453.568 196.478 453.645 196.103 453.799C195.729 453.948 195.441 454.156 195.241 454.423C195.046 454.69 194.948 454.993 194.948 455.332C194.938 455.614 194.997 455.861 195.125 456.071C195.259 456.281 195.441 456.464 195.672 456.618C195.903 456.767 196.17 456.897 196.473 457.01C196.776 457.118 197.099 457.211 197.443 457.288L198.86 457.626C199.548 457.78 200.179 457.986 200.754 458.242C201.329 458.499 201.827 458.815 202.248 459.19C202.669 459.564 202.995 460.006 203.226 460.514C203.462 461.022 203.583 461.605 203.588 462.262C203.583 463.227 203.336 464.064 202.849 464.772C202.366 465.476 201.668 466.022 200.754 466.412C199.846 466.797 198.75 466.99 197.466 466.99C196.193 466.99 195.084 466.795 194.14 466.405C193.2 466.015 192.466 465.437 191.938 464.672C191.414 463.902 191.139 462.95 191.114 461.815H194.34C194.376 462.344 194.527 462.786 194.794 463.14C195.066 463.489 195.428 463.753 195.88 463.933C196.337 464.107 196.853 464.195 197.428 464.195C197.993 464.195 198.483 464.113 198.899 463.948C199.32 463.784 199.645 463.556 199.876 463.263C200.108 462.97 200.223 462.634 200.223 462.254C200.223 461.9 200.118 461.602 199.907 461.361C199.702 461.12 199.399 460.914 198.999 460.745C198.603 460.576 198.118 460.422 197.543 460.283L195.826 459.852C194.497 459.528 193.447 459.023 192.677 458.335C191.907 457.647 191.524 456.72 191.529 455.555C191.524 454.6 191.778 453.766 192.292 453.052C192.81 452.339 193.521 451.782 194.425 451.382C195.328 450.981 196.355 450.781 197.505 450.781C198.675 450.781 199.697 450.981 200.57 451.382C201.447 451.782 202.13 452.339 202.618 453.052C203.105 453.766 203.357 454.593 203.372 455.532H200.177ZM211.159 466.998C209.943 466.998 208.895 466.751 208.018 466.258C207.145 465.76 206.472 465.057 206 464.149C205.528 463.235 205.292 462.154 205.292 460.907C205.292 459.69 205.528 458.622 206 457.703C206.472 456.785 207.137 456.068 207.994 455.555C208.857 455.042 209.868 454.785 211.028 454.785C211.809 454.785 212.535 454.911 213.208 455.162C213.885 455.409 214.475 455.781 214.979 456.279C215.487 456.777 215.882 457.403 216.164 458.158C216.447 458.907 216.588 459.785 216.588 460.791V461.692H206.601V459.659H213.5C213.5 459.187 213.397 458.769 213.192 458.404C212.987 458.04 212.702 457.755 212.337 457.549C211.978 457.339 211.56 457.234 211.082 457.234C210.584 457.234 210.143 457.349 209.758 457.58C209.378 457.806 209.08 458.112 208.865 458.497C208.649 458.876 208.539 459.3 208.533 459.767V461.7C208.533 462.285 208.641 462.791 208.857 463.217C209.078 463.643 209.388 463.971 209.789 464.202C210.189 464.433 210.664 464.549 211.213 464.549C211.578 464.549 211.911 464.498 212.214 464.395C212.517 464.292 212.776 464.138 212.992 463.933C213.208 463.728 213.372 463.476 213.485 463.178L216.519 463.378C216.365 464.107 216.049 464.744 215.571 465.288C215.099 465.827 214.488 466.248 213.739 466.551C212.994 466.849 212.135 466.998 211.159 466.998ZM222.009 450.997V466.767H218.729V450.997H222.009ZM230.027 466.998C228.81 466.998 227.763 466.751 226.885 466.258C226.012 465.76 225.34 465.057 224.868 464.149C224.395 463.235 224.159 462.154 224.159 460.907C224.159 459.69 224.395 458.622 224.868 457.703C225.34 456.785 226.005 456.068 226.862 455.555C227.724 455.042 228.736 454.785 229.896 454.785C230.676 454.785 231.403 454.911 232.075 455.162C232.753 455.409 233.343 455.781 233.846 456.279C234.354 456.777 234.75 457.403 235.032 458.158C235.314 458.907 235.455 459.785 235.455 460.791V461.692H225.468V459.659H232.368C232.368 459.187 232.265 458.769 232.06 458.404C231.854 458.04 231.569 457.755 231.205 457.549C230.846 457.339 230.427 457.234 229.95 457.234C229.452 457.234 229.01 457.349 228.625 457.58C228.245 457.806 227.948 458.112 227.732 458.497C227.516 458.876 227.406 459.3 227.401 459.767V461.7C227.401 462.285 227.509 462.791 227.724 463.217C227.945 463.643 228.256 463.971 228.656 464.202C229.057 464.433 229.531 464.549 230.081 464.549C230.445 464.549 230.779 464.498 231.082 464.395C231.385 464.292 231.644 464.138 231.859 463.933C232.075 463.728 232.239 463.476 232.352 463.178L235.386 463.378C235.232 464.107 234.916 464.744 234.439 465.288C233.967 465.827 233.356 466.248 232.606 466.551C231.862 466.849 231.002 466.998 230.027 466.998ZM247.437 458.312L244.434 458.497C244.383 458.24 244.272 458.009 244.103 457.804C243.933 457.593 243.71 457.426 243.433 457.303C243.161 457.175 242.835 457.111 242.455 457.111C241.947 457.111 241.518 457.218 241.169 457.434C240.82 457.644 240.645 457.927 240.645 458.281C240.645 458.563 240.758 458.802 240.984 458.997C241.21 459.192 241.598 459.349 242.147 459.467L244.288 459.898C245.437 460.134 246.295 460.514 246.859 461.038C247.424 461.561 247.706 462.249 247.706 463.101C247.706 463.876 247.478 464.557 247.021 465.142C246.569 465.727 245.948 466.184 245.158 466.512C244.372 466.836 243.466 466.998 242.44 466.998C240.874 466.998 239.626 466.672 238.697 466.02C237.773 465.363 237.232 464.469 237.072 463.34L240.299 463.171C240.396 463.648 240.633 464.012 241.007 464.264C241.382 464.51 241.862 464.634 242.447 464.634C243.022 464.634 243.484 464.523 243.833 464.303C244.187 464.077 244.367 463.787 244.372 463.432C244.367 463.135 244.241 462.891 243.995 462.701C243.749 462.506 243.369 462.357 242.855 462.254L240.807 461.846C239.652 461.615 238.792 461.215 238.228 460.645C237.668 460.075 237.388 459.349 237.388 458.466C237.388 457.706 237.594 457.051 238.004 456.502C238.42 455.953 239.003 455.529 239.752 455.232C240.507 454.934 241.39 454.785 242.401 454.785C243.895 454.785 245.07 455.101 245.928 455.732C246.79 456.364 247.293 457.223 247.437 458.312ZM253.145 466.99C252.39 466.99 251.718 466.859 251.127 466.597C250.537 466.33 250.07 465.938 249.726 465.419C249.387 464.895 249.218 464.243 249.218 463.463C249.218 462.806 249.338 462.254 249.58 461.808C249.821 461.361 250.149 461.002 250.565 460.73C250.981 460.458 251.453 460.252 251.982 460.114C252.516 459.975 253.075 459.877 253.661 459.821C254.349 459.749 254.903 459.682 255.324 459.621C255.745 459.554 256.05 459.457 256.24 459.328C256.43 459.2 256.525 459.01 256.525 458.758V458.712C256.525 458.224 256.371 457.847 256.063 457.58C255.76 457.313 255.329 457.18 254.77 457.18C254.179 457.18 253.709 457.311 253.36 457.573C253.011 457.829 252.78 458.153 252.667 458.543L249.633 458.296C249.787 457.578 250.09 456.957 250.542 456.433C250.994 455.904 251.577 455.499 252.29 455.216C253.009 454.929 253.84 454.785 254.785 454.785C255.442 454.785 256.071 454.862 256.671 455.016C257.277 455.17 257.814 455.409 258.281 455.732C258.753 456.056 259.125 456.471 259.397 456.98C259.669 457.483 259.805 458.086 259.805 458.789V466.767H256.695V465.126H256.602C256.412 465.496 256.158 465.822 255.84 466.104C255.522 466.382 255.139 466.6 254.693 466.759C254.246 466.913 253.73 466.99 253.145 466.99ZM254.084 464.726C254.567 464.726 254.993 464.631 255.362 464.441C255.732 464.246 256.022 463.984 256.233 463.656C256.443 463.327 256.548 462.955 256.548 462.539V461.284C256.446 461.351 256.304 461.412 256.125 461.469C255.95 461.52 255.753 461.569 255.532 461.615C255.311 461.656 255.09 461.695 254.87 461.731C254.649 461.761 254.449 461.79 254.269 461.815C253.884 461.872 253.548 461.962 253.26 462.085C252.973 462.208 252.75 462.375 252.59 462.585C252.431 462.791 252.352 463.047 252.352 463.355C252.352 463.802 252.513 464.143 252.837 464.38C253.165 464.611 253.581 464.726 254.084 464.726ZM262.35 466.767V454.939H265.631V466.767H262.35ZM263.998 453.414C263.511 453.414 263.092 453.253 262.743 452.929C262.399 452.601 262.227 452.208 262.227 451.751C262.227 451.299 262.399 450.912 262.743 450.588C263.092 450.26 263.511 450.096 263.998 450.096C264.486 450.096 264.902 450.26 265.246 450.588C265.595 450.912 265.769 451.299 265.769 451.751C265.769 452.208 265.595 452.601 265.246 452.929C264.902 453.253 264.486 453.414 263.998 453.414Z" fill="black"/>
</g>
</g>
<defs>
<filter id="filter0_d_199_2928" x="17" y="205" width="326.753" height="398.31" filterUnits="userSpaceOnUse" color-interpolation-filters="sRGB">
<feFlood flood-opacity="0" result="BackgroundImageFix"/>
<feColorMatrix in="SourceAlpha" type="matrix" values="0 0 0 0 0 0 0 0 0 0 0 0 0 0 0 0 0 0 127 0" result="hardAlpha"/>
<feOffset dy="4"/>
<feGaussianBlur stdDeviation="2"/>
<feComposite in2="hardAlpha" operator="out"/>
<feColorMatrix type="matrix" values="0 0 0 0 0 0 0 0 0 0 0 0 0 0 0 0 0 0 0.25 0"/>
<feBlend mode="normal" in2="BackgroundImageFix" result="effect1_dropShadow_199_2928"/>
<feBlend mode="normal" in="SourceGraphic" in2="effect1_dropShadow_199_2928" result="shape"/>
</filter>
<clipPath id="clip0_199_2928">
<rect width="360" height="800" fill="white"/>
</clipPath>
</defs>
</svg>
