<svg width="360" height="800" viewBox="0 0 360 800" fill="none" xmlns="http://www.w3.org/2000/svg">
<g clip-path="url(#clip0_334_3315)">
<rect width="360" height="800" fill="white"/>
<rect opacity="0.35" x="324.449" y="9.33458" width="22.768" height="11.2033" rx="2.34908" stroke="black" stroke-width="1.08419"/>
<path opacity="0.4" d="M348.844 12.7681V17.1048C349.72 16.7375 350.289 15.8831 350.289 14.9365C350.289 13.9898 349.72 13.1354 348.844 12.7681Z" fill="black"/>
<rect x="326.076" y="10.9609" width="19.5155" height="7.95075" rx="1.44559" fill="black"/>
<path d="M307.483 17.9707C308.878 16.8155 310.921 16.8153 312.316 17.9707C312.387 18.0329 312.428 18.1212 312.43 18.2139C312.431 18.3063 312.394 18.3952 312.326 18.46L310.142 20.6191C310.078 20.6824 309.99 20.7178 309.899 20.7178C309.808 20.7177 309.721 20.6825 309.657 20.6191L307.473 18.46C307.405 18.3951 307.368 18.3063 307.37 18.2139C307.372 18.1212 307.413 18.0328 307.483 17.9707ZM304.586 14.8652C307.581 12.0687 312.218 12.0688 315.213 14.8652C315.28 14.9308 315.319 15.0209 315.32 15.1152C315.321 15.2094 315.285 15.3003 315.219 15.3672L313.96 16.6436C313.83 16.7736 313.621 16.7761 313.488 16.6494C312.505 15.7555 311.225 15.2607 309.898 15.2607C308.573 15.2613 307.294 15.7562 306.312 16.6494C306.179 16.7763 305.969 16.7738 305.839 16.6436L304.581 15.3672C304.515 15.3004 304.478 15.2095 304.479 15.1152C304.479 15.0209 304.518 14.9308 304.586 14.8652ZM301.692 12.0234C306.281 7.71479 313.519 7.7146 318.107 12.0234C318.174 12.0875 318.211 12.1753 318.212 12.2666C318.212 12.3578 318.176 12.446 318.11 12.5107L316.852 13.7549C316.722 13.8825 316.511 13.8835 316.38 13.7578C314.632 12.1294 312.312 11.2219 309.9 11.2217C307.488 11.2217 305.167 12.1291 303.419 13.7578C303.287 13.8837 303.077 13.8828 302.947 13.7549L301.688 12.5107C301.623 12.446 301.586 12.3578 301.587 12.2666C301.588 12.1753 301.626 12.0874 301.692 12.0234Z" fill="black"/>
<path d="M280.178 16.3813C280.777 16.3813 281.262 16.8675 281.262 17.4663V19.6343C281.262 20.2331 280.777 20.7183 280.178 20.7183H279.094C278.495 20.7182 278.01 20.233 278.01 19.6343V17.4663C278.01 16.8675 278.495 16.3814 279.094 16.3813H280.178ZM285.238 14.2134C285.837 14.2134 286.322 14.6987 286.322 15.2974V19.6343C286.322 20.2331 285.837 20.7183 285.238 20.7183H284.154C283.555 20.7182 283.07 20.233 283.07 19.6343V15.2974C283.07 14.6987 283.555 14.2134 284.154 14.2134H285.238ZM290.297 11.6831C290.896 11.6831 291.381 12.1693 291.381 12.7681V19.6343C291.381 20.2331 290.896 20.7183 290.297 20.7183H289.213C288.615 20.7182 288.129 20.233 288.129 19.6343V12.7681C288.129 12.1693 288.615 11.6831 289.213 11.6831H290.297ZM295.357 9.15381C295.956 9.15381 296.441 9.63911 296.441 10.2378V19.6343C296.441 20.2331 295.956 20.7183 295.357 20.7183H294.273C293.674 20.7182 293.189 20.233 293.189 19.6343V10.2378C293.189 9.63912 293.674 9.15383 294.273 9.15381H295.357Z" fill="black"/>
<path d="M22.044 21.4597C24.9959 21.4597 26.7494 19.1513 26.7494 15.2422C26.7494 13.7702 26.4679 12.5316 25.9289 11.5744C25.1487 10.0864 23.8055 9.28201 22.1083 9.28201C19.5827 9.28201 17.7971 10.9792 17.7971 13.36C17.7971 15.5961 19.4057 17.2209 21.6177 17.2209C22.977 17.2209 24.079 16.5854 24.6259 15.4835H24.65C24.65 15.4835 24.6822 15.4835 24.6903 15.4835C24.7063 15.4835 24.7627 15.4835 24.7627 15.4835C24.7627 18.1378 23.7572 19.7224 22.0601 19.7224C21.0627 19.7224 20.2905 19.1754 20.0251 18.2987H17.9579C18.3038 20.205 19.9205 21.4597 22.044 21.4597ZM22.1164 15.572C20.7812 15.572 19.832 14.6228 19.832 13.2957C19.832 12.0007 20.8294 11.0113 22.1244 11.0113C23.4194 11.0113 24.4168 12.0168 24.4168 13.3279C24.4168 14.6228 23.4435 15.572 22.1164 15.572ZM30.027 19.9476C30.7911 19.9476 31.3139 19.4006 31.3139 18.6767C31.3139 17.9448 30.7911 17.4059 30.027 17.4059C29.2709 17.4059 28.74 17.9448 28.74 18.6767C28.74 19.4006 29.2709 19.9476 30.027 19.9476ZM30.027 13.915C30.7911 13.915 31.3139 13.3761 31.3139 12.6522C31.3139 11.9203 30.7911 11.3813 30.027 11.3813C29.2709 11.3813 28.74 11.9203 28.74 12.6522C28.74 13.3761 29.2709 13.915 30.027 13.915ZM33.5378 12.9659V12.9981H35.4843V12.9659C35.4843 11.7835 36.3048 10.9872 37.5193 10.9872C38.6615 10.9872 39.498 11.7272 39.498 12.7487C39.498 13.5692 39.1039 14.1724 37.5193 15.7811L33.6504 19.7385V21.1782H41.7099V19.4167H36.4978V19.28L38.9269 16.8428C40.8976 14.8963 41.533 13.8668 41.533 12.62C41.533 10.6816 39.876 9.28201 37.5837 9.28201C35.2028 9.28201 33.5378 10.7942 33.5378 12.9659ZM44.1671 21.1782H46.3388L51.3016 11.3411V9.57158H43.226V11.317H49.2103V11.4457L44.1671 21.1782Z" fill="black"/>
<rect x="17" y="146.944" width="52.112" height="52.112" rx="15" fill="#00AA13"/>
<path fill-rule="evenodd" clip-rule="evenodd" d="M37.1994 165.754C38.741 164.235 40.8169 163.381 42.9811 163.376C45.1454 163.371 47.2253 164.215 48.7741 165.726H48.776L48.8053 165.754C52.0549 168.95 52.0613 174.085 48.8438 177.249L43.6454 182.362C43.4739 182.531 43.243 182.626 43.0023 182.626C42.7617 182.626 42.5308 182.531 42.3593 182.362L37.1609 177.249C36.3977 176.503 35.7913 175.612 35.3773 174.628C34.9633 173.644 34.75 172.588 34.75 171.52C34.75 170.453 34.9633 169.396 35.3773 168.413C35.7913 167.429 36.3977 166.538 37.1609 165.792L37.1994 165.754ZM43.0001 167.959C42.6389 167.959 42.2813 168.03 41.9477 168.168C41.614 168.306 41.3109 168.509 41.0555 168.764C40.8002 169.019 40.5976 169.323 40.4594 169.656C40.3212 169.99 40.2501 170.347 40.2501 170.709C40.2501 171.07 40.3212 171.427 40.4594 171.761C40.5976 172.095 40.8002 172.398 41.0555 172.653C41.3109 172.908 41.614 173.111 41.9477 173.249C42.2813 173.387 42.6389 173.459 43.0001 173.459C43.7294 173.459 44.4289 173.169 44.9446 172.653C45.4603 172.137 45.7501 171.438 45.7501 170.709C45.7501 169.979 45.4603 169.28 44.9446 168.764C44.4289 168.248 43.7294 167.959 43.0001 167.959Z" fill="white"/>
<path d="M89.4872 164.464C89.4872 165.03 89.3539 165.563 89.0872 166.064C88.8206 166.566 88.3939 166.976 87.8072 167.296C87.2206 167.606 86.4686 167.76 85.5512 167.76H83.5352V172.272H81.7112V161.152H85.5512C86.4046 161.152 87.1246 161.302 87.7112 161.6C88.3086 161.888 88.7512 162.283 89.0392 162.784C89.3379 163.286 89.4872 163.846 89.4872 164.464ZM85.5512 166.272C86.2446 166.272 86.7619 166.118 87.1032 165.808C87.4446 165.488 87.6152 165.04 87.6152 164.464C87.6152 163.248 86.9272 162.64 85.5512 162.64H83.5352V166.272H85.5512ZM95.0509 172.416C94.2189 172.416 93.4669 172.23 92.7949 171.856C92.1229 171.472 91.5949 170.939 91.2109 170.256C90.8269 169.563 90.6349 168.763 90.6349 167.856C90.6349 166.96 90.8322 166.166 91.2269 165.472C91.6215 164.779 92.1602 164.246 92.8429 163.872C93.5255 163.499 94.2882 163.312 95.1309 163.312C95.9735 163.312 96.7362 163.499 97.4189 163.872C98.1015 164.246 98.6402 164.779 99.0349 165.472C99.4295 166.166 99.6269 166.96 99.6269 167.856C99.6269 168.752 99.4242 169.547 99.0189 170.24C98.6135 170.934 98.0589 171.472 97.3549 171.856C96.6615 172.23 95.8935 172.416 95.0509 172.416ZM95.0509 170.832C95.5202 170.832 95.9575 170.72 96.3629 170.496C96.7789 170.272 97.1149 169.936 97.3709 169.488C97.6269 169.04 97.7549 168.496 97.7549 167.856C97.7549 167.216 97.6322 166.678 97.3869 166.24C97.1415 165.792 96.8162 165.456 96.4109 165.232C96.0055 165.008 95.5682 164.896 95.0989 164.896C94.6295 164.896 94.1922 165.008 93.7869 165.232C93.3922 165.456 93.0775 165.792 92.8429 166.24C92.6082 166.678 92.4909 167.216 92.4909 167.856C92.4909 168.806 92.7309 169.542 93.2109 170.064C93.7015 170.576 94.3149 170.832 95.0509 170.832ZM103.254 160.432V172.272H101.43V160.432H103.254ZM106.577 162.288C106.246 162.288 105.969 162.176 105.745 161.952C105.521 161.728 105.409 161.451 105.409 161.12C105.409 160.79 105.521 160.512 105.745 160.288C105.969 160.064 106.246 159.952 106.577 159.952C106.897 159.952 107.169 160.064 107.393 160.288C107.617 160.512 107.729 160.79 107.729 161.12C107.729 161.451 107.617 161.728 107.393 161.952C107.169 162.176 106.897 162.288 106.577 162.288ZM107.473 163.456V172.272H105.649V163.456H107.473ZM111.995 164.944V169.824C111.995 170.155 112.07 170.395 112.219 170.544C112.379 170.683 112.646 170.752 113.019 170.752H114.139V172.272H112.699C111.878 172.272 111.249 172.08 110.811 171.696C110.374 171.312 110.155 170.688 110.155 169.824V164.944H109.115V163.456H110.155V161.264H111.995V163.456H114.139V164.944H111.995ZM123.901 167.648C123.901 167.979 123.879 168.278 123.837 168.544H117.101C117.154 169.248 117.415 169.814 117.885 170.24C118.354 170.667 118.93 170.88 119.613 170.88C120.594 170.88 121.287 170.47 121.693 169.648H123.661C123.394 170.459 122.909 171.126 122.205 171.648C121.511 172.16 120.647 172.416 119.613 172.416C118.77 172.416 118.013 172.23 117.341 171.856C116.679 171.472 116.157 170.939 115.773 170.256C115.399 169.563 115.213 168.763 115.213 167.856C115.213 166.95 115.394 166.155 115.757 165.472C116.13 164.779 116.647 164.246 117.309 163.872C117.981 163.499 118.749 163.312 119.613 163.312C120.445 163.312 121.186 163.494 121.837 163.856C122.487 164.219 122.994 164.731 123.357 165.392C123.719 166.043 123.901 166.795 123.901 167.648ZM121.997 167.072C121.986 166.4 121.746 165.862 121.277 165.456C120.807 165.051 120.226 164.848 119.533 164.848C118.903 164.848 118.365 165.051 117.917 165.456C117.469 165.851 117.202 166.39 117.117 167.072H121.997ZM129.184 167.872L133.248 172.272H130.784L127.52 168.48V172.272H125.696V160.432H127.52V167.312L130.72 163.456H133.248L129.184 167.872ZM139.003 163.312C139.696 163.312 140.315 163.456 140.859 163.744C141.414 164.032 141.846 164.459 142.155 165.024C142.464 165.59 142.619 166.272 142.619 167.072V172.272H140.811V167.344C140.811 166.555 140.614 165.952 140.219 165.536C139.824 165.11 139.286 164.896 138.603 164.896C137.92 164.896 137.376 165.11 136.971 165.536C136.576 165.952 136.379 166.555 136.379 167.344V172.272H134.555V163.456H136.379V164.464C136.678 164.102 137.056 163.819 137.515 163.616C137.984 163.414 138.48 163.312 139.003 163.312ZM145.874 162.288C145.543 162.288 145.266 162.176 145.042 161.952C144.818 161.728 144.706 161.451 144.706 161.12C144.706 160.79 144.818 160.512 145.042 160.288C145.266 160.064 145.543 159.952 145.874 159.952C146.194 159.952 146.466 160.064 146.69 160.288C146.914 160.512 147.026 160.79 147.026 161.12C147.026 161.451 146.914 161.728 146.69 161.952C146.466 162.176 146.194 162.288 145.874 162.288ZM146.77 163.456V172.272H144.946V163.456H146.77ZM152.652 167.872L156.716 172.272H154.252L150.988 168.48V172.272H149.164V160.432H150.988V167.312L154.188 163.456H156.716L152.652 167.872ZM171.316 172.272H169.492L164.004 163.968V172.272H162.18V161.136H164.004L169.492 169.424V161.136H171.316V172.272ZM181.791 167.648C181.791 167.979 181.77 168.278 181.727 168.544H174.991C175.045 169.248 175.306 169.814 175.775 170.24C176.245 170.667 176.821 170.88 177.503 170.88C178.485 170.88 179.178 170.47 179.583 169.648H181.551C181.285 170.459 180.799 171.126 180.095 171.648C179.402 172.16 178.538 172.416 177.503 172.416C176.661 172.416 175.903 172.23 175.231 171.856C174.57 171.472 174.047 170.939 173.663 170.256C173.29 169.563 173.103 168.763 173.103 167.856C173.103 166.95 173.285 166.155 173.647 165.472C174.021 164.779 174.538 164.246 175.199 163.872C175.871 163.499 176.639 163.312 177.503 163.312C178.335 163.312 179.077 163.494 179.727 163.856C180.378 164.219 180.885 164.731 181.247 165.392C181.61 166.043 181.791 166.795 181.791 167.648ZM179.887 167.072C179.877 166.4 179.637 165.862 179.167 165.456C178.698 165.051 178.117 164.848 177.423 164.848C176.794 164.848 176.255 165.051 175.807 165.456C175.359 165.851 175.093 166.39 175.007 167.072H179.887ZM187.138 163.312C187.821 163.312 188.424 163.451 188.946 163.728C189.48 163.995 189.896 164.331 190.194 164.736V163.456H192.034V172.416C192.034 173.227 191.864 173.947 191.522 174.576C191.181 175.216 190.685 175.718 190.034 176.08C189.394 176.443 188.626 176.624 187.73 176.624C186.536 176.624 185.544 176.342 184.754 175.776C183.965 175.222 183.517 174.464 183.41 173.504H185.218C185.357 173.963 185.65 174.331 186.098 174.608C186.557 174.896 187.101 175.04 187.73 175.04C188.466 175.04 189.058 174.816 189.506 174.368C189.965 173.92 190.194 173.27 190.194 172.416V170.944C189.885 171.36 189.464 171.712 188.93 172C188.408 172.278 187.81 172.416 187.138 172.416C186.37 172.416 185.666 172.224 185.026 171.84C184.397 171.446 183.896 170.902 183.522 170.208C183.16 169.504 182.978 168.71 182.978 167.824C182.978 166.939 183.16 166.155 183.522 165.472C183.896 164.79 184.397 164.262 185.026 163.888C185.666 163.504 186.37 163.312 187.138 163.312ZM190.194 167.856C190.194 167.248 190.066 166.72 189.81 166.272C189.565 165.824 189.24 165.483 188.834 165.248C188.429 165.014 187.992 164.896 187.522 164.896C187.053 164.896 186.616 165.014 186.21 165.248C185.805 165.472 185.474 165.808 185.218 166.256C184.973 166.694 184.85 167.216 184.85 167.824C184.85 168.432 184.973 168.966 185.218 169.424C185.474 169.883 185.805 170.235 186.21 170.48C186.626 170.715 187.064 170.832 187.522 170.832C187.992 170.832 188.429 170.715 188.834 170.48C189.24 170.246 189.565 169.904 189.81 169.456C190.066 168.998 190.194 168.464 190.194 167.856ZM202.51 167.648C202.51 167.979 202.489 168.278 202.446 168.544H195.71C195.763 169.248 196.025 169.814 196.494 170.24C196.963 170.667 197.539 170.88 198.222 170.88C199.203 170.88 199.897 170.47 200.302 169.648H202.27C202.003 170.459 201.518 171.126 200.814 171.648C200.121 172.16 199.257 172.416 198.222 172.416C197.379 172.416 196.622 172.23 195.95 171.856C195.289 171.472 194.766 170.939 194.382 170.256C194.009 169.563 193.822 168.763 193.822 167.856C193.822 166.95 194.003 166.155 194.366 165.472C194.739 164.779 195.257 164.246 195.918 163.872C196.59 163.499 197.358 163.312 198.222 163.312C199.054 163.312 199.795 163.494 200.446 163.856C201.097 164.219 201.603 164.731 201.966 165.392C202.329 166.043 202.51 166.795 202.51 167.648ZM200.606 167.072C200.595 166.4 200.355 165.862 199.886 165.456C199.417 165.051 198.835 164.848 198.142 164.848C197.513 164.848 196.974 165.051 196.526 165.456C196.078 165.851 195.811 166.39 195.726 167.072H200.606ZM206.129 164.736C206.396 164.288 206.748 163.942 207.185 163.696C207.633 163.44 208.161 163.312 208.769 163.312V165.2H208.305C207.59 165.2 207.046 165.382 206.673 165.744C206.31 166.107 206.129 166.736 206.129 167.632V172.272H204.305V163.456H206.129V164.736ZM211.374 162.288C211.043 162.288 210.766 162.176 210.542 161.952C210.318 161.728 210.206 161.451 210.206 161.12C210.206 160.79 210.318 160.512 210.542 160.288C210.766 160.064 211.043 159.952 211.374 159.952C211.694 159.952 211.966 160.064 212.19 160.288C212.414 160.512 212.526 160.79 212.526 161.12C212.526 161.451 212.414 161.728 212.19 161.952C211.966 162.176 211.694 162.288 211.374 162.288ZM212.27 163.456V172.272H210.446V163.456H212.27ZM230.533 161.152V172.272H228.709V164.656L225.317 172.272H224.053L220.645 164.656V172.272H218.821V161.152H220.789L224.693 169.872L228.581 161.152H230.533ZM232.322 167.824C232.322 166.939 232.503 166.155 232.866 165.472C233.239 164.79 233.741 164.262 234.37 163.888C235.01 163.504 235.714 163.312 236.482 163.312C237.175 163.312 237.778 163.451 238.29 163.728C238.813 163.995 239.229 164.331 239.538 164.736V163.456H241.378V172.272H239.538V170.96C239.229 171.376 238.807 171.723 238.274 172C237.741 172.278 237.133 172.416 236.45 172.416C235.693 172.416 234.999 172.224 234.37 171.84C233.741 171.446 233.239 170.902 232.866 170.208C232.503 169.504 232.322 168.71 232.322 167.824ZM239.538 167.856C239.538 167.248 239.41 166.72 239.154 166.272C238.909 165.824 238.583 165.483 238.178 165.248C237.773 165.014 237.335 164.896 236.866 164.896C236.397 164.896 235.959 165.014 235.554 165.248C235.149 165.472 234.818 165.808 234.562 166.256C234.317 166.694 234.194 167.216 234.194 167.824C234.194 168.432 234.317 168.966 234.562 169.424C234.818 169.883 235.149 170.235 235.554 170.48C235.97 170.715 236.407 170.832 236.866 170.832C237.335 170.832 237.773 170.715 238.178 170.48C238.583 170.246 238.909 169.904 239.154 169.456C239.41 168.998 239.538 168.464 239.538 167.856ZM243.166 167.824C243.166 166.939 243.347 166.155 243.71 165.472C244.083 164.79 244.584 164.262 245.214 163.888C245.854 163.504 246.563 163.312 247.342 163.312C247.918 163.312 248.483 163.44 249.038 163.696C249.603 163.942 250.051 164.272 250.382 164.688V160.432H252.222V172.272H250.382V170.944C250.083 171.371 249.667 171.723 249.134 172C248.611 172.278 248.008 172.416 247.326 172.416C246.558 172.416 245.854 172.224 245.214 171.84C244.584 171.446 244.083 170.902 243.71 170.208C243.347 169.504 243.166 168.71 243.166 167.824ZM250.382 167.856C250.382 167.248 250.254 166.72 249.998 166.272C249.752 165.824 249.427 165.483 249.022 165.248C248.616 165.014 248.179 164.896 247.71 164.896C247.24 164.896 246.803 165.014 246.398 165.248C245.992 165.472 245.662 165.808 245.406 166.256C245.16 166.694 245.038 167.216 245.038 167.824C245.038 168.432 245.16 168.966 245.406 169.424C245.662 169.883 245.992 170.235 246.398 170.48C246.814 170.715 247.251 170.832 247.71 170.832C248.179 170.832 248.616 170.715 249.022 170.48C249.427 170.246 249.752 169.904 249.998 169.456C250.254 168.998 250.382 168.464 250.382 167.856ZM255.545 162.288C255.215 162.288 254.937 162.176 254.713 161.952C254.489 161.728 254.377 161.451 254.377 161.12C254.377 160.79 254.489 160.512 254.713 160.288C254.937 160.064 255.215 159.952 255.545 159.952C255.865 159.952 256.137 160.064 256.361 160.288C256.585 160.512 256.697 160.79 256.697 161.12C256.697 161.451 256.585 161.728 256.361 161.952C256.137 162.176 255.865 162.288 255.545 162.288ZM256.441 163.456V172.272H254.617V163.456H256.441ZM266.82 163.456V172.272H264.996V171.232C264.708 171.595 264.33 171.883 263.86 172.096C263.402 172.299 262.911 172.4 262.388 172.4C261.695 172.4 261.071 172.256 260.516 171.968C259.972 171.68 259.54 171.254 259.22 170.688C258.911 170.123 258.756 169.44 258.756 168.64V163.456H260.564V168.368C260.564 169.158 260.762 169.766 261.156 170.192C261.551 170.608 262.09 170.816 262.772 170.816C263.455 170.816 263.994 170.608 264.388 170.192C264.794 169.766 264.996 169.158 264.996 168.368V163.456H266.82ZM273.675 163.312C274.368 163.312 274.987 163.456 275.531 163.744C276.086 164.032 276.518 164.459 276.827 165.024C277.136 165.59 277.291 166.272 277.291 167.072V172.272H275.483V167.344C275.483 166.555 275.286 165.952 274.891 165.536C274.496 165.11 273.958 164.896 273.275 164.896C272.592 164.896 272.048 165.11 271.643 165.536C271.248 165.952 271.051 166.555 271.051 167.344V172.272H269.227V163.456H271.051V164.464C271.35 164.102 271.728 163.819 272.187 163.616C272.656 163.414 273.152 163.312 273.675 163.312Z" fill="black"/>
<path d="M85.0512 186.322V191.332C85.0512 191.952 84.8612 192.442 84.4812 192.802C84.1079 193.162 83.6146 193.342 83.0012 193.342C82.3879 193.342 81.8912 193.162 81.5112 192.802C81.1379 192.442 80.9512 191.952 80.9512 191.332H82.1012C82.1079 191.639 82.1846 191.882 82.3312 192.062C82.4846 192.242 82.7079 192.332 83.0012 192.332C83.2946 192.332 83.5179 192.242 83.6712 192.062C83.8246 191.876 83.9012 191.632 83.9012 191.332V186.322H85.0512ZM88.0458 185.872V193.272H86.9058V185.872H88.0458ZM90.0025 193.342C89.7958 193.342 89.6225 193.272 89.4825 193.132C89.3425 192.992 89.2725 192.819 89.2725 192.612C89.2725 192.406 89.3425 192.232 89.4825 192.092C89.6225 191.952 89.7958 191.882 90.0025 191.882C90.2025 191.882 90.3725 191.952 90.5125 192.092C90.6525 192.232 90.7225 192.406 90.7225 192.612C90.7225 192.819 90.6525 192.992 90.5125 193.132C90.3725 193.272 90.2025 193.342 90.0025 193.342ZM96.8422 193.342C96.3756 193.342 95.9556 193.262 95.5822 193.102C95.2089 192.936 94.9156 192.702 94.7022 192.402C94.4889 192.102 94.3822 191.752 94.3822 191.352H95.6022C95.6289 191.652 95.7456 191.899 95.9522 192.092C96.1656 192.286 96.4622 192.382 96.8422 192.382C97.2356 192.382 97.5422 192.289 97.7622 192.102C97.9822 191.909 98.0922 191.662 98.0922 191.362C98.0922 191.129 98.0222 190.939 97.8822 190.792C97.7489 190.646 97.5789 190.532 97.3722 190.452C97.1722 190.372 96.8922 190.286 96.5322 190.192C96.0789 190.072 95.7089 189.952 95.4222 189.832C95.1422 189.706 94.9022 189.512 94.7022 189.252C94.5022 188.992 94.4022 188.646 94.4022 188.212C94.4022 187.812 94.5022 187.462 94.7022 187.162C94.9022 186.862 95.1822 186.632 95.5422 186.472C95.9022 186.312 96.3189 186.232 96.7922 186.232C97.4656 186.232 98.0156 186.402 98.4422 186.742C98.8756 187.076 99.1156 187.536 99.1622 188.122H97.9022C97.8822 187.869 97.7622 187.652 97.5422 187.472C97.3222 187.292 97.0322 187.202 96.6722 187.202C96.3456 187.202 96.0789 187.286 95.8722 187.452C95.6656 187.619 95.5622 187.859 95.5622 188.172C95.5622 188.386 95.6256 188.562 95.7522 188.702C95.8856 188.836 96.0522 188.942 96.2522 189.022C96.4522 189.102 96.7256 189.189 97.0722 189.282C97.5322 189.409 97.9056 189.536 98.1922 189.662C98.4856 189.789 98.7322 189.986 98.9322 190.252C99.1389 190.512 99.2422 190.862 99.2422 191.302C99.2422 191.656 99.1456 191.989 98.9522 192.302C98.7656 192.616 98.4889 192.869 98.1222 193.062C97.7622 193.249 97.3356 193.342 96.8422 193.342ZM105.637 190.382C105.637 190.589 105.624 190.776 105.597 190.942H101.387C101.421 191.382 101.584 191.736 101.877 192.002C102.171 192.269 102.531 192.402 102.957 192.402C103.571 192.402 104.004 192.146 104.257 191.632H105.487C105.321 192.139 105.017 192.556 104.577 192.882C104.144 193.202 103.604 193.362 102.957 193.362C102.431 193.362 101.957 193.246 101.537 193.012C101.124 192.772 100.797 192.439 100.557 192.012C100.324 191.579 100.207 191.079 100.207 190.512C100.207 189.946 100.321 189.449 100.547 189.022C100.781 188.589 101.104 188.256 101.517 188.022C101.937 187.789 102.417 187.672 102.957 187.672C103.477 187.672 103.941 187.786 104.347 188.012C104.754 188.239 105.071 188.559 105.297 188.972C105.524 189.379 105.637 189.849 105.637 190.382ZM104.447 190.022C104.441 189.602 104.291 189.266 103.997 189.012C103.704 188.759 103.341 188.632 102.907 188.632C102.514 188.632 102.177 188.759 101.897 189.012C101.617 189.259 101.451 189.596 101.397 190.022H104.447ZM107.899 188.562C108.066 188.282 108.286 188.066 108.559 187.912C108.839 187.752 109.169 187.672 109.549 187.672V188.852H109.259C108.813 188.852 108.473 188.966 108.239 189.192C108.013 189.419 107.899 189.812 107.899 190.372V193.272H106.759V187.762H107.899V188.562ZM110.217 190.492C110.217 189.939 110.331 189.449 110.557 189.022C110.791 188.596 111.104 188.266 111.497 188.032C111.897 187.792 112.337 187.672 112.817 187.672C113.251 187.672 113.627 187.759 113.947 187.932C114.274 188.099 114.534 188.309 114.727 188.562V187.762H115.877V193.272H114.727V192.452C114.534 192.712 114.271 192.929 113.937 193.102C113.604 193.276 113.224 193.362 112.797 193.362C112.324 193.362 111.891 193.242 111.497 193.002C111.104 192.756 110.791 192.416 110.557 191.982C110.331 191.542 110.217 191.046 110.217 190.492ZM114.727 190.512C114.727 190.132 114.647 189.802 114.487 189.522C114.334 189.242 114.131 189.029 113.877 188.882C113.624 188.736 113.351 188.662 113.057 188.662C112.764 188.662 112.491 188.736 112.237 188.882C111.984 189.022 111.777 189.232 111.617 189.512C111.464 189.786 111.387 190.112 111.387 190.492C111.387 190.872 111.464 191.206 111.617 191.492C111.777 191.779 111.984 191.999 112.237 192.152C112.497 192.299 112.771 192.372 113.057 192.372C113.351 192.372 113.624 192.299 113.877 192.152C114.131 192.006 114.334 191.792 114.487 191.512C114.647 191.226 114.727 190.892 114.727 190.512ZM122.335 187.762L118.955 195.862H117.775L118.895 193.182L116.725 187.762H117.995L119.545 191.962L121.155 187.762H122.335ZM128.185 187.762V193.272H127.045V192.622C126.865 192.849 126.628 193.029 126.335 193.162C126.048 193.289 125.741 193.352 125.415 193.352C124.981 193.352 124.591 193.262 124.245 193.082C123.905 192.902 123.635 192.636 123.435 192.282C123.241 191.929 123.145 191.502 123.145 191.002V187.762H124.275V190.832C124.275 191.326 124.398 191.706 124.645 191.972C124.891 192.232 125.228 192.362 125.655 192.362C126.081 192.362 126.418 192.232 126.665 191.972C126.918 191.706 127.045 191.326 127.045 190.832V187.762H128.185Z" fill="black" fill-opacity="0.6"/>
<rect x="17" y="204" width="52.112" height="52.112" rx="15" fill="#00AA13"/>
<path fill-rule="evenodd" clip-rule="evenodd" d="M37.1994 222.81C38.741 221.291 40.8169 220.437 42.9811 220.432C45.1454 220.427 47.2253 221.27 48.7741 222.782H48.776L48.8053 222.81C52.0549 226.006 52.0613 231.14 48.8438 234.305L43.6454 239.418C43.4739 239.587 43.243 239.681 43.0023 239.681C42.7617 239.681 42.5308 239.587 42.3593 239.418L37.1609 234.305C36.3977 233.558 35.7913 232.667 35.3773 231.684C34.9633 230.7 34.75 229.643 34.75 228.576C34.75 227.509 34.9633 226.452 35.3773 225.468C35.7913 224.484 36.3977 223.593 37.1609 222.847L37.1994 222.81ZM43.0001 225.014C42.6389 225.014 42.2813 225.085 41.9477 225.224C41.614 225.362 41.3109 225.564 41.0555 225.82C40.8002 226.075 40.5976 226.378 40.4594 226.712C40.3212 227.045 40.2501 227.403 40.2501 227.764C40.2501 228.125 40.3212 228.483 40.4594 228.817C40.5976 229.15 40.8002 229.453 41.0555 229.709C41.3109 229.964 41.614 230.167 41.9477 230.305C42.2813 230.443 42.6389 230.514 43.0001 230.514C43.7294 230.514 44.4289 230.224 44.9446 229.709C45.4603 229.193 45.7501 228.494 45.7501 227.764C45.7501 227.035 45.4603 226.335 44.9446 225.82C44.4289 225.304 43.7294 225.014 43.0001 225.014Z" fill="white"/>
<path d="M83.5352 227.856H87.2952V229.328H81.7112V218.208H83.5352V227.856ZM92.6446 229.472C91.8126 229.472 91.0606 229.285 90.3886 228.912C89.7166 228.528 89.1886 227.995 88.8046 227.312C88.4206 226.619 88.2286 225.819 88.2286 224.912C88.2286 224.016 88.4259 223.221 88.8206 222.528C89.2153 221.835 89.7539 221.301 90.4366 220.928C91.1193 220.555 91.8819 220.368 92.7246 220.368C93.5673 220.368 94.3299 220.555 95.0126 220.928C95.6953 221.301 96.2339 221.835 96.6286 222.528C97.0233 223.221 97.2206 224.016 97.2206 224.912C97.2206 225.808 97.0179 226.603 96.6126 227.296C96.2073 227.989 95.6526 228.528 94.9486 228.912C94.2553 229.285 93.4873 229.472 92.6446 229.472ZM92.6446 227.888C93.1139 227.888 93.5513 227.776 93.9566 227.552C94.3726 227.328 94.7086 226.992 94.9646 226.544C95.2206 226.096 95.3486 225.552 95.3486 224.912C95.3486 224.272 95.2259 223.733 94.9806 223.296C94.7353 222.848 94.4099 222.512 94.0046 222.288C93.5993 222.064 93.1619 221.952 92.6926 221.952C92.2233 221.952 91.7859 222.064 91.3806 222.288C90.9859 222.512 90.6713 222.848 90.4366 223.296C90.2019 223.733 90.0846 224.272 90.0846 224.912C90.0846 225.861 90.3246 226.597 90.8046 227.12C91.2953 227.632 91.9086 227.888 92.6446 227.888ZM102.512 224.928L106.576 229.328H104.112L100.848 225.536V229.328H99.0237V217.488H100.848V224.368L104.048 220.512H106.576L102.512 224.928ZM107.275 224.88C107.275 223.995 107.456 223.211 107.819 222.528C108.192 221.845 108.694 221.317 109.323 220.944C109.963 220.56 110.667 220.368 111.435 220.368C112.128 220.368 112.731 220.507 113.243 220.784C113.766 221.051 114.182 221.387 114.491 221.792V220.512H116.331V229.328H114.491V228.016C114.182 228.432 113.76 228.779 113.227 229.056C112.694 229.333 112.086 229.472 111.403 229.472C110.646 229.472 109.952 229.28 109.323 228.896C108.694 228.501 108.192 227.957 107.819 227.264C107.456 226.56 107.275 225.765 107.275 224.88ZM114.491 224.912C114.491 224.304 114.363 223.776 114.107 223.328C113.862 222.88 113.536 222.539 113.131 222.304C112.726 222.069 112.288 221.952 111.819 221.952C111.35 221.952 110.912 222.069 110.507 222.304C110.102 222.528 109.771 222.864 109.515 223.312C109.27 223.749 109.147 224.272 109.147 224.88C109.147 225.488 109.27 226.021 109.515 226.48C109.771 226.939 110.102 227.291 110.507 227.536C110.923 227.771 111.36 227.888 111.819 227.888C112.288 227.888 112.726 227.771 113.131 227.536C113.536 227.301 113.862 226.96 114.107 226.512C114.363 226.053 114.491 225.52 114.491 224.912ZM121.927 229.472C121.234 229.472 120.61 229.349 120.055 229.104C119.511 228.848 119.079 228.507 118.759 228.08C118.439 227.643 118.268 227.157 118.247 226.624H120.135C120.167 226.997 120.343 227.312 120.663 227.568C120.994 227.813 121.404 227.936 121.895 227.936C122.407 227.936 122.802 227.84 123.079 227.648C123.367 227.445 123.511 227.189 123.511 226.88C123.511 226.549 123.351 226.304 123.031 226.144C122.722 225.984 122.226 225.808 121.543 225.616C120.882 225.435 120.343 225.259 119.927 225.088C119.511 224.917 119.148 224.656 118.839 224.304C118.54 223.952 118.391 223.488 118.391 222.912C118.391 222.443 118.53 222.016 118.807 221.632C119.084 221.237 119.479 220.928 119.991 220.704C120.514 220.48 121.111 220.368 121.783 220.368C122.786 220.368 123.591 220.624 124.199 221.136C124.818 221.637 125.148 222.325 125.191 223.2H123.367C123.335 222.805 123.175 222.491 122.887 222.256C122.599 222.021 122.21 221.904 121.719 221.904C121.239 221.904 120.871 221.995 120.615 222.176C120.359 222.357 120.231 222.597 120.231 222.896C120.231 223.131 120.316 223.328 120.487 223.488C120.658 223.648 120.866 223.776 121.111 223.872C121.356 223.957 121.719 224.069 122.199 224.208C122.839 224.379 123.362 224.555 123.767 224.736C124.183 224.907 124.54 225.163 124.839 225.504C125.138 225.845 125.292 226.299 125.303 226.864C125.303 227.365 125.164 227.813 124.887 228.208C124.61 228.603 124.215 228.912 123.703 229.136C123.202 229.36 122.61 229.472 121.927 229.472ZM128.202 219.344C127.871 219.344 127.594 219.232 127.37 219.008C127.146 218.784 127.034 218.507 127.034 218.176C127.034 217.845 127.146 217.568 127.37 217.344C127.594 217.12 127.871 217.008 128.202 217.008C128.522 217.008 128.794 217.12 129.018 217.344C129.242 217.568 129.354 217.845 129.354 218.176C129.354 218.507 129.242 218.784 129.018 219.008C128.794 219.232 128.522 219.344 128.202 219.344ZM129.098 220.512V229.328H127.274V220.512H129.098ZM135.041 224.88C135.041 223.995 135.222 223.211 135.585 222.528C135.958 221.845 136.459 221.317 137.089 220.944C137.729 220.56 138.433 220.368 139.201 220.368C139.894 220.368 140.497 220.507 141.009 220.784C141.531 221.051 141.947 221.387 142.257 221.792V220.512H144.097V229.328H142.257V228.016C141.947 228.432 141.526 228.779 140.993 229.056C140.459 229.333 139.851 229.472 139.169 229.472C138.411 229.472 137.718 229.28 137.089 228.896C136.459 228.501 135.958 227.957 135.585 227.264C135.222 226.56 135.041 225.765 135.041 224.88ZM142.257 224.912C142.257 224.304 142.129 223.776 141.873 223.328C141.627 222.88 141.302 222.539 140.897 222.304C140.491 222.069 140.054 221.952 139.585 221.952C139.115 221.952 138.678 222.069 138.273 222.304C137.867 222.528 137.537 222.864 137.281 223.312C137.035 223.749 136.913 224.272 136.913 224.88C136.913 225.488 137.035 226.021 137.281 226.48C137.537 226.939 137.867 227.291 138.273 227.536C138.689 227.771 139.126 227.888 139.585 227.888C140.054 227.888 140.491 227.771 140.897 227.536C141.302 227.301 141.627 226.96 141.873 226.512C142.129 226.053 142.257 225.52 142.257 224.912ZM150.94 220.368C151.634 220.368 152.252 220.512 152.796 220.8C153.351 221.088 153.783 221.515 154.092 222.08C154.402 222.645 154.556 223.328 154.556 224.128V229.328H152.748V224.4C152.748 223.611 152.551 223.008 152.156 222.592C151.762 222.165 151.223 221.952 150.54 221.952C149.858 221.952 149.314 222.165 148.908 222.592C148.514 223.008 148.316 223.611 148.316 224.4V229.328H146.492V220.512H148.316V221.52C148.615 221.157 148.994 220.875 149.452 220.672C149.922 220.469 150.418 220.368 150.94 220.368ZM156.275 224.88C156.275 223.995 156.456 223.211 156.819 222.528C157.192 221.845 157.694 221.317 158.323 220.944C158.963 220.56 159.672 220.368 160.451 220.368C161.027 220.368 161.592 220.496 162.147 220.752C162.712 220.997 163.16 221.328 163.491 221.744V217.488H165.331V229.328H163.491V228C163.192 228.427 162.776 228.779 162.243 229.056C161.72 229.333 161.118 229.472 160.435 229.472C159.667 229.472 158.963 229.28 158.323 228.896C157.694 228.501 157.192 227.957 156.819 227.264C156.456 226.56 156.275 225.765 156.275 224.88ZM163.491 224.912C163.491 224.304 163.363 223.776 163.107 223.328C162.862 222.88 162.536 222.539 162.131 222.304C161.726 222.069 161.288 221.952 160.819 221.952C160.35 221.952 159.912 222.069 159.507 222.304C159.102 222.528 158.771 222.864 158.515 223.312C158.27 223.749 158.147 224.272 158.147 224.88C158.147 225.488 158.27 226.021 158.515 226.48C158.771 226.939 159.102 227.291 159.507 227.536C159.923 227.771 160.36 227.888 160.819 227.888C161.288 227.888 161.726 227.771 162.131 227.536C162.536 227.301 162.862 226.96 163.107 226.512C163.363 226.053 163.491 225.52 163.491 224.912ZM167.119 224.88C167.119 223.995 167.3 223.211 167.663 222.528C168.036 221.845 168.538 221.317 169.167 220.944C169.807 220.56 170.511 220.368 171.279 220.368C171.972 220.368 172.575 220.507 173.087 220.784C173.61 221.051 174.026 221.387 174.335 221.792V220.512H176.175V229.328H174.335V228.016C174.026 228.432 173.604 228.779 173.071 229.056C172.538 229.333 171.93 229.472 171.247 229.472C170.49 229.472 169.796 229.28 169.167 228.896C168.538 228.501 168.036 227.957 167.663 227.264C167.3 226.56 167.119 225.765 167.119 224.88ZM174.335 224.912C174.335 224.304 174.207 223.776 173.951 223.328C173.706 222.88 173.38 222.539 172.975 222.304C172.57 222.069 172.132 221.952 171.663 221.952C171.194 221.952 170.756 222.069 170.351 222.304C169.946 222.528 169.615 222.864 169.359 223.312C169.114 223.749 168.991 224.272 168.991 224.88C168.991 225.488 169.114 226.021 169.359 226.48C169.615 226.939 169.946 227.291 170.351 227.536C170.767 227.771 171.204 227.888 171.663 227.888C172.132 227.888 172.57 227.771 172.975 227.536C173.38 227.301 173.706 226.96 173.951 226.512C174.207 226.053 174.335 225.52 174.335 224.912ZM185.927 229.472C185.234 229.472 184.61 229.349 184.055 229.104C183.511 228.848 183.079 228.507 182.759 228.08C182.439 227.643 182.268 227.157 182.247 226.624H184.135C184.167 226.997 184.343 227.312 184.663 227.568C184.994 227.813 185.404 227.936 185.895 227.936C186.407 227.936 186.802 227.84 187.079 227.648C187.367 227.445 187.511 227.189 187.511 226.88C187.511 226.549 187.351 226.304 187.031 226.144C186.722 225.984 186.226 225.808 185.543 225.616C184.882 225.435 184.343 225.259 183.927 225.088C183.511 224.917 183.148 224.656 182.839 224.304C182.54 223.952 182.391 223.488 182.391 222.912C182.391 222.443 182.53 222.016 182.807 221.632C183.084 221.237 183.479 220.928 183.991 220.704C184.514 220.48 185.111 220.368 185.783 220.368C186.786 220.368 187.591 220.624 188.199 221.136C188.818 221.637 189.148 222.325 189.191 223.2H187.367C187.335 222.805 187.175 222.491 186.887 222.256C186.599 222.021 186.21 221.904 185.719 221.904C185.239 221.904 184.871 221.995 184.615 222.176C184.359 222.357 184.231 222.597 184.231 222.896C184.231 223.131 184.316 223.328 184.487 223.488C184.658 223.648 184.866 223.776 185.111 223.872C185.356 223.957 185.719 224.069 186.199 224.208C186.839 224.379 187.362 224.555 187.767 224.736C188.183 224.907 188.54 225.163 188.839 225.504C189.138 225.845 189.292 226.299 189.303 226.864C189.303 227.365 189.164 227.813 188.887 228.208C188.61 228.603 188.215 228.912 187.703 229.136C187.202 229.36 186.61 229.472 185.927 229.472ZM190.666 224.88C190.666 223.995 190.847 223.211 191.21 222.528C191.583 221.845 192.084 221.317 192.714 220.944C193.354 220.56 194.058 220.368 194.826 220.368C195.519 220.368 196.122 220.507 196.634 220.784C197.156 221.051 197.572 221.387 197.882 221.792V220.512H199.722V229.328H197.882V228.016C197.572 228.432 197.151 228.779 196.618 229.056C196.084 229.333 195.476 229.472 194.794 229.472C194.036 229.472 193.343 229.28 192.714 228.896C192.084 228.501 191.583 227.957 191.21 227.264C190.847 226.56 190.666 225.765 190.666 224.88ZM197.882 224.912C197.882 224.304 197.754 223.776 197.498 223.328C197.252 222.88 196.927 222.539 196.522 222.304C196.116 222.069 195.679 221.952 195.21 221.952C194.74 221.952 194.303 222.069 193.898 222.304C193.492 222.528 193.162 222.864 192.906 223.312C192.66 223.749 192.538 224.272 192.538 224.88C192.538 225.488 192.66 226.021 192.906 226.48C193.162 226.939 193.492 227.291 193.898 227.536C194.314 227.771 194.751 227.888 195.21 227.888C195.679 227.888 196.116 227.771 196.522 227.536C196.927 227.301 197.252 226.96 197.498 226.512C197.754 226.053 197.882 225.52 197.882 224.912ZM201.509 224.88C201.509 223.995 201.691 223.211 202.053 222.528C202.427 221.845 202.928 221.317 203.557 220.944C204.197 220.56 204.901 220.368 205.669 220.368C206.363 220.368 206.965 220.507 207.477 220.784C208 221.051 208.416 221.387 208.725 221.792V220.512H210.565V229.328H208.725V228.016C208.416 228.432 207.995 228.779 207.461 229.056C206.928 229.333 206.32 229.472 205.637 229.472C204.88 229.472 204.187 229.28 203.557 228.896C202.928 228.501 202.427 227.957 202.053 227.264C201.691 226.56 201.509 225.765 201.509 224.88ZM208.725 224.912C208.725 224.304 208.597 223.776 208.341 223.328C208.096 222.88 207.771 222.539 207.365 222.304C206.96 222.069 206.523 221.952 206.053 221.952C205.584 221.952 205.147 222.069 204.741 222.304C204.336 222.528 204.005 222.864 203.749 223.312C203.504 223.749 203.381 224.272 203.381 224.88C203.381 225.488 203.504 226.021 203.749 226.48C204.005 226.939 204.336 227.291 204.741 227.536C205.157 227.771 205.595 227.888 206.053 227.888C206.523 227.888 206.96 227.771 207.365 227.536C207.771 227.301 208.096 226.96 208.341 226.512C208.597 226.053 208.725 225.52 208.725 224.912ZM215.089 222V226.88C215.089 227.211 215.164 227.451 215.313 227.6C215.473 227.739 215.74 227.808 216.113 227.808H217.233V229.328H215.793C214.972 229.328 214.343 229.136 213.905 228.752C213.468 228.368 213.249 227.744 213.249 226.88V222H212.209V220.512H213.249V218.32H215.089V220.512H217.233V222H215.089ZM223.999 219.344C223.668 219.344 223.391 219.232 223.167 219.008C222.943 218.784 222.831 218.507 222.831 218.176C222.831 217.845 222.943 217.568 223.167 217.344C223.391 217.12 223.668 217.008 223.999 217.008C224.319 217.008 224.591 217.12 224.815 217.344C225.039 217.568 225.151 217.845 225.151 218.176C225.151 218.507 225.039 218.784 224.815 219.008C224.591 219.232 224.319 219.344 223.999 219.344ZM224.895 220.512V229.328H223.071V220.512H224.895ZM231.737 220.368C232.431 220.368 233.049 220.512 233.593 220.8C234.148 221.088 234.58 221.515 234.889 222.08C235.199 222.645 235.353 223.328 235.353 224.128V229.328H233.545V224.4C233.545 223.611 233.348 223.008 232.953 222.592C232.559 222.165 232.02 221.952 231.337 221.952C230.655 221.952 230.111 222.165 229.705 222.592C229.311 223.008 229.113 223.611 229.113 224.4V229.328H227.289V220.512H229.113V221.52C229.412 221.157 229.791 220.875 230.249 220.672C230.719 220.469 231.215 220.368 231.737 220.368ZM238.608 219.344C238.277 219.344 238 219.232 237.776 219.008C237.552 218.784 237.44 218.507 237.44 218.176C237.44 217.845 237.552 217.568 237.776 217.344C238 217.12 238.277 217.008 238.608 217.008C238.928 217.008 239.2 217.12 239.424 217.344C239.648 217.568 239.76 217.845 239.76 218.176C239.76 218.507 239.648 218.784 239.424 219.008C239.2 219.232 238.928 219.344 238.608 219.344ZM239.504 220.512V229.328H237.68V220.512H239.504Z" fill="black"/>
<path d="M85.0512 243.378V248.388C85.0512 249.008 84.8612 249.498 84.4812 249.858C84.1079 250.218 83.6146 250.398 83.0012 250.398C82.3879 250.398 81.8912 250.218 81.5112 249.858C81.1379 249.498 80.9512 249.008 80.9512 248.388H82.1012C82.1079 248.695 82.1846 248.938 82.3312 249.118C82.4846 249.298 82.7079 249.388 83.0012 249.388C83.2946 249.388 83.5179 249.298 83.6712 249.118C83.8246 248.931 83.9012 248.688 83.9012 248.388V243.378H85.0512ZM88.0458 242.928V250.328H86.9058V242.928H88.0458ZM90.0025 250.398C89.7958 250.398 89.6225 250.328 89.4825 250.188C89.3425 250.048 89.2725 249.875 89.2725 249.668C89.2725 249.461 89.3425 249.288 89.4825 249.148C89.6225 249.008 89.7958 248.938 90.0025 248.938C90.2025 248.938 90.3725 249.008 90.5125 249.148C90.6525 249.288 90.7225 249.461 90.7225 249.668C90.7225 249.875 90.6525 250.048 90.5125 250.188C90.3725 250.328 90.2025 250.398 90.0025 250.398ZM96.8422 250.398C96.3756 250.398 95.9556 250.318 95.5822 250.158C95.2089 249.991 94.9156 249.758 94.7022 249.458C94.4889 249.158 94.3822 248.808 94.3822 248.408H95.6022C95.6289 248.708 95.7456 248.955 95.9522 249.148C96.1656 249.341 96.4622 249.438 96.8422 249.438C97.2356 249.438 97.5422 249.345 97.7622 249.158C97.9822 248.965 98.0922 248.718 98.0922 248.418C98.0922 248.185 98.0222 247.995 97.8822 247.848C97.7489 247.701 97.5789 247.588 97.3722 247.508C97.1722 247.428 96.8922 247.341 96.5322 247.248C96.0789 247.128 95.7089 247.008 95.4222 246.888C95.1422 246.761 94.9022 246.568 94.7022 246.308C94.5022 246.048 94.4022 245.701 94.4022 245.268C94.4022 244.868 94.5022 244.518 94.7022 244.218C94.9022 243.918 95.1822 243.688 95.5422 243.528C95.9022 243.368 96.3189 243.288 96.7922 243.288C97.4656 243.288 98.0156 243.458 98.4422 243.798C98.8756 244.131 99.1156 244.591 99.1622 245.178H97.9022C97.8822 244.925 97.7622 244.708 97.5422 244.528C97.3222 244.348 97.0322 244.258 96.6722 244.258C96.3456 244.258 96.0789 244.341 95.8722 244.508C95.6656 244.675 95.5622 244.915 95.5622 245.228C95.5622 245.441 95.6256 245.618 95.7522 245.758C95.8856 245.891 96.0522 245.998 96.2522 246.078C96.4522 246.158 96.7256 246.245 97.0722 246.338C97.5322 246.465 97.9056 246.591 98.1922 246.718C98.4856 246.845 98.7322 247.041 98.9322 247.308C99.1389 247.568 99.2422 247.918 99.2422 248.358C99.2422 248.711 99.1456 249.045 98.9522 249.358C98.7656 249.671 98.4889 249.925 98.1222 250.118C97.7622 250.305 97.3356 250.398 96.8422 250.398ZM105.637 247.438C105.637 247.645 105.624 247.831 105.597 247.998H101.387C101.421 248.438 101.584 248.791 101.877 249.058C102.171 249.325 102.531 249.458 102.957 249.458C103.571 249.458 104.004 249.201 104.257 248.688H105.487C105.321 249.195 105.017 249.611 104.577 249.938C104.144 250.258 103.604 250.418 102.957 250.418C102.431 250.418 101.957 250.301 101.537 250.068C101.124 249.828 100.797 249.495 100.557 249.068C100.324 248.635 100.207 248.135 100.207 247.568C100.207 247.001 100.321 246.505 100.547 246.078C100.781 245.645 101.104 245.311 101.517 245.078C101.937 244.845 102.417 244.728 102.957 244.728C103.477 244.728 103.941 244.841 104.347 245.068C104.754 245.295 105.071 245.615 105.297 246.028C105.524 246.435 105.637 246.905 105.637 247.438ZM104.447 247.078C104.441 246.658 104.291 246.321 103.997 246.068C103.704 245.815 103.341 245.688 102.907 245.688C102.514 245.688 102.177 245.815 101.897 246.068C101.617 246.315 101.451 246.651 101.397 247.078H104.447ZM107.899 245.618C108.066 245.338 108.286 245.121 108.559 244.968C108.839 244.808 109.169 244.728 109.549 244.728V245.908H109.259C108.813 245.908 108.473 246.021 108.239 246.248C108.013 246.475 107.899 246.868 107.899 247.428V250.328H106.759V244.818H107.899V245.618ZM110.217 247.548C110.217 246.995 110.331 246.505 110.557 246.078C110.791 245.651 111.104 245.321 111.497 245.088C111.897 244.848 112.337 244.728 112.817 244.728C113.251 244.728 113.627 244.815 113.947 244.988C114.274 245.155 114.534 245.365 114.727 245.618V244.818H115.877V250.328H114.727V249.508C114.534 249.768 114.271 249.985 113.937 250.158C113.604 250.331 113.224 250.418 112.797 250.418C112.324 250.418 111.891 250.298 111.497 250.058C111.104 249.811 110.791 249.471 110.557 249.038C110.331 248.598 110.217 248.101 110.217 247.548ZM114.727 247.568C114.727 247.188 114.647 246.858 114.487 246.578C114.334 246.298 114.131 246.085 113.877 245.938C113.624 245.791 113.351 245.718 113.057 245.718C112.764 245.718 112.491 245.791 112.237 245.938C111.984 246.078 111.777 246.288 111.617 246.568C111.464 246.841 111.387 247.168 111.387 247.548C111.387 247.928 111.464 248.261 111.617 248.548C111.777 248.835 111.984 249.055 112.237 249.208C112.497 249.355 112.771 249.428 113.057 249.428C113.351 249.428 113.624 249.355 113.877 249.208C114.131 249.061 114.334 248.848 114.487 248.568C114.647 248.281 114.727 247.948 114.727 247.568ZM122.335 244.818L118.955 252.918H117.775L118.895 250.238L116.725 244.818H117.995L119.545 249.018L121.155 244.818H122.335ZM128.185 244.818V250.328H127.045V249.678C126.865 249.905 126.628 250.085 126.335 250.218C126.048 250.345 125.741 250.408 125.415 250.408C124.981 250.408 124.591 250.318 124.245 250.138C123.905 249.958 123.635 249.691 123.435 249.338C123.241 248.985 123.145 248.558 123.145 248.058V244.818H124.275V247.888C124.275 248.381 124.398 248.761 124.645 249.028C124.891 249.288 125.228 249.418 125.655 249.418C126.081 249.418 126.418 249.288 126.665 249.028C126.918 248.761 127.045 248.381 127.045 247.888V244.818H128.185Z" fill="black" fill-opacity="0.6"/>
<g filter="url(#filter0_d_334_3315)">
<rect x="21" y="89" width="317" height="43" rx="21.5" fill="white" shape-rendering="crispEdges"/>
<rect x="21.5" y="89.5" width="316" height="42" rx="21" stroke="black" shape-rendering="crispEdges"/>
<path d="M45.9362 117.705C47.8607 117.705 49.7296 117.061 51.2455 115.875L56.0116 120.641L57.5447 119.108L52.7786 114.342C53.9647 112.826 54.6093 110.957 54.6098 109.032C54.6098 104.25 50.7186 100.358 45.9362 100.358C41.1539 100.358 37.2627 104.25 37.2627 109.032C37.2627 113.814 41.1539 117.705 45.9362 117.705ZM45.9362 102.527C49.5238 102.527 52.4414 105.444 52.4414 109.032C52.4414 112.62 49.5238 115.537 45.9362 115.537C42.3486 115.537 39.4311 112.62 39.4311 109.032C39.4311 105.444 42.3486 102.527 45.9362 102.527Z" fill="#555555"/>
<path d="M72.0377 115.639C71.4648 115.639 70.9535 115.492 70.5038 115.2C70.0572 114.904 69.7061 114.484 69.4504 113.938C69.1979 113.39 69.0716 112.733 69.0716 111.966C69.0716 111.199 69.1994 110.543 69.455 109.997C69.7138 109.452 70.068 109.035 70.5177 108.745C70.9674 108.456 71.4771 108.311 72.0469 108.311C72.4874 108.311 72.8416 108.385 73.1096 108.533C73.3806 108.678 73.5901 108.847 73.7379 109.041C73.8888 109.235 74.0059 109.406 74.089 109.554H74.1722V106.038H75.5536V115.5H74.2045V114.396H74.089C74.0059 114.547 73.8858 114.719 73.7287 114.913C73.5747 115.107 73.3621 115.277 73.0911 115.421C72.82 115.566 72.4689 115.639 72.0377 115.639ZM72.3426 114.46C72.74 114.46 73.0757 114.356 73.3498 114.146C73.627 113.934 73.8365 113.64 73.9782 113.264C74.1229 112.888 74.1953 112.451 74.1953 111.952C74.1953 111.459 74.1245 111.028 73.9828 110.658C73.8411 110.288 73.6332 110 73.3591 109.794C73.0849 109.588 72.7461 109.485 72.3426 109.485C71.9268 109.485 71.5803 109.592 71.3031 109.808C71.0259 110.024 70.8164 110.318 70.6748 110.69C70.5362 111.063 70.4669 111.484 70.4669 111.952C70.4669 112.426 70.5377 112.853 70.6794 113.232C70.8211 113.61 71.0305 113.911 71.3077 114.132C71.588 114.351 71.933 114.46 72.3426 114.46ZM77.1639 115.5V108.403H78.5453V115.5H77.1639ZM77.8615 107.308C77.6213 107.308 77.4149 107.228 77.2424 107.068C77.073 106.905 76.9883 106.711 76.9883 106.486C76.9883 106.258 77.073 106.064 77.2424 105.904C77.4149 105.741 77.6213 105.659 77.8615 105.659C78.1018 105.659 78.3066 105.741 78.476 105.904C78.6485 106.064 78.7347 106.258 78.7347 106.486C78.7347 106.711 78.6485 106.905 78.476 107.068C78.3066 107.228 78.1018 107.308 77.8615 107.308ZM80.0424 115.5V108.403H81.3683V109.559H81.4561C81.604 109.167 81.8457 108.862 82.1815 108.644C82.5172 108.422 82.9192 108.311 83.3873 108.311C83.8617 108.311 84.259 108.422 84.5793 108.644C84.9027 108.865 85.1414 109.17 85.2954 109.559H85.3694C85.5388 109.18 85.8083 108.878 86.1779 108.653C86.5475 108.425 86.988 108.311 87.4993 108.311C88.143 108.311 88.6682 108.513 89.0747 108.916C89.4844 109.32 89.6892 109.928 89.6892 110.741V115.5H88.3078V110.871C88.3078 110.39 88.1769 110.042 87.9151 109.826C87.6533 109.611 87.3406 109.503 86.9772 109.503C86.5275 109.503 86.1779 109.642 85.9284 109.919C85.6789 110.193 85.5542 110.546 85.5542 110.977V115.5H84.1774V110.783C84.1774 110.398 84.0573 110.088 83.817 109.854C83.5768 109.62 83.2641 109.503 82.8791 109.503C82.6173 109.503 82.3755 109.572 82.1538 109.711C81.9351 109.846 81.758 110.036 81.6224 110.279C81.49 110.523 81.4238 110.804 81.4238 111.125V115.5H80.0424ZM93.2445 115.657C92.7948 115.657 92.3883 115.574 92.0248 115.408C91.6614 115.238 91.3734 114.993 91.1608 114.673C90.9514 114.353 90.8467 113.96 90.8467 113.495C90.8467 113.094 90.9237 112.765 91.0777 112.506C91.2317 112.247 91.4396 112.043 91.7014 111.892C91.9632 111.741 92.2558 111.627 92.5792 111.55C92.9026 111.473 93.2322 111.414 93.5679 111.374C93.993 111.325 94.338 111.285 94.6028 111.254C94.8677 111.22 95.0602 111.166 95.1804 111.092C95.3005 111.018 95.3606 110.898 95.3606 110.732V110.7C95.3606 110.296 95.2466 109.984 95.0187 109.762C94.7938 109.54 94.4581 109.429 94.0115 109.429C93.5464 109.429 93.1798 109.532 92.9119 109.739C92.647 109.942 92.4637 110.168 92.3621 110.418L91.0638 110.122C91.2178 109.691 91.4427 109.343 91.7384 109.078C92.0371 108.81 92.3806 108.616 92.7687 108.496C93.1567 108.373 93.5649 108.311 93.993 108.311C94.2764 108.311 94.5767 108.345 94.8939 108.413C95.2142 108.477 95.513 108.598 95.7902 108.773C96.0705 108.949 96.3 109.2 96.4786 109.526C96.6573 109.85 96.7466 110.27 96.7466 110.787V115.5H95.3975V114.53H95.3421C95.2527 114.708 95.1188 114.884 94.9401 115.056C94.7615 115.229 94.532 115.372 94.2517 115.486C93.9714 115.6 93.6357 115.657 93.2445 115.657ZM93.5448 114.548C93.9268 114.548 94.2533 114.473 94.5243 114.322C94.7984 114.171 95.0063 113.974 95.148 113.73C95.2928 113.484 95.3652 113.221 95.3652 112.94V112.026C95.3159 112.075 95.2204 112.121 95.0787 112.164C94.9401 112.204 94.7815 112.24 94.6028 112.271C94.4242 112.298 94.2502 112.324 94.0808 112.349C93.9114 112.371 93.7697 112.389 93.6557 112.405C93.3878 112.438 93.1429 112.495 92.9211 112.575C92.7024 112.656 92.5269 112.771 92.3944 112.922C92.2651 113.07 92.2004 113.267 92.2004 113.513C92.2004 113.855 92.3267 114.114 92.5792 114.29C92.8318 114.462 93.1537 114.548 93.5448 114.548ZM99.6066 111.286V115.5H98.2252V108.403H99.5511V109.559H99.6389C99.8022 109.183 100.058 108.881 100.406 108.653C100.757 108.425 101.199 108.311 101.732 108.311C102.215 108.311 102.639 108.413 103.002 108.616C103.366 108.816 103.648 109.115 103.848 109.512C104.048 109.91 104.148 110.401 104.148 110.986V115.5H102.767V111.152C102.767 110.638 102.633 110.236 102.365 109.947C102.097 109.654 101.729 109.508 101.261 109.508C100.94 109.508 100.655 109.577 100.406 109.716C100.159 109.854 99.9639 110.057 99.8191 110.325C99.6774 110.59 99.6066 110.911 99.6066 111.286ZM107.705 115.657C107.255 115.657 106.848 115.574 106.485 115.408C106.121 115.238 105.834 114.993 105.621 114.673C105.412 114.353 105.307 113.96 105.307 113.495C105.307 113.094 105.384 112.765 105.538 112.506C105.692 112.247 105.9 112.043 106.162 111.892C106.423 111.741 106.716 111.627 107.039 111.55C107.363 111.473 107.692 111.414 108.028 111.374C108.453 111.325 108.798 111.285 109.063 111.254C109.328 111.22 109.52 111.166 109.64 111.092C109.761 111.018 109.821 110.898 109.821 110.732V110.7C109.821 110.296 109.707 109.984 109.479 109.762C109.254 109.54 108.918 109.429 108.472 109.429C108.007 109.429 107.64 109.532 107.372 109.739C107.107 109.942 106.924 110.168 106.822 110.418L105.524 110.122C105.678 109.691 105.903 109.343 106.198 109.078C106.497 108.81 106.841 108.616 107.229 108.496C107.617 108.373 108.025 108.311 108.453 108.311C108.736 108.311 109.037 108.345 109.354 108.413C109.674 108.477 109.973 108.598 110.25 108.773C110.531 108.949 110.76 109.2 110.939 109.526C111.117 109.85 111.207 110.27 111.207 110.787V115.5H109.858V114.53H109.802C109.713 114.708 109.579 114.884 109.4 115.056C109.222 115.229 108.992 115.372 108.712 115.486C108.432 115.6 108.096 115.657 107.705 115.657ZM108.005 114.548C108.387 114.548 108.713 114.473 108.984 114.322C109.259 114.171 109.466 113.974 109.608 113.73C109.753 113.484 109.825 113.221 109.825 112.94V112.026C109.776 112.075 109.681 112.121 109.539 112.164C109.4 112.204 109.242 112.24 109.063 112.271C108.884 112.298 108.71 112.324 108.541 112.349C108.372 112.371 108.23 112.389 108.116 112.405C107.848 112.438 107.603 112.495 107.381 112.575C107.163 112.656 106.987 112.771 106.855 112.922C106.725 113.07 106.661 113.267 106.661 113.513C106.661 113.855 106.787 114.114 107.039 114.29C107.292 114.462 107.614 114.548 108.005 114.548ZM117.148 106.038V115.5H115.767V106.038H117.148ZM121.635 115.643C120.969 115.643 120.389 115.491 119.893 115.186C119.397 114.881 119.012 114.454 118.738 113.906C118.464 113.358 118.327 112.717 118.327 111.984C118.327 111.248 118.464 110.604 118.738 110.053C119.012 109.502 119.397 109.073 119.893 108.768C120.389 108.464 120.969 108.311 121.635 108.311C122.3 108.311 122.881 108.464 123.377 108.768C123.872 109.073 124.257 109.502 124.532 110.053C124.806 110.604 124.943 111.248 124.943 111.984C124.943 112.717 124.806 113.358 124.532 113.906C124.257 114.454 123.872 114.881 123.377 115.186C122.881 115.491 122.3 115.643 121.635 115.643ZM121.639 114.484C122.071 114.484 122.428 114.37 122.711 114.142C122.995 113.914 123.204 113.61 123.34 113.232C123.478 112.853 123.548 112.435 123.548 111.979C123.548 111.527 123.478 111.111 123.34 110.732C123.204 110.35 122.995 110.044 122.711 109.813C122.428 109.582 122.071 109.466 121.639 109.466C121.205 109.466 120.845 109.582 120.558 109.813C120.275 110.044 120.064 110.35 119.925 110.732C119.79 111.111 119.722 111.527 119.722 111.979C119.722 112.435 119.79 112.853 119.925 113.232C120.064 113.61 120.275 113.914 120.558 114.142C120.845 114.37 121.205 114.484 121.639 114.484ZM127.394 113.093L127.385 111.407H127.625L130.452 108.403H132.106L128.882 111.822H128.664L127.394 113.093ZM126.123 115.5V106.038H127.505V115.5H126.123ZM130.605 115.5L128.064 112.127L129.016 111.162L132.3 115.5H130.605ZM135.069 115.657C134.62 115.657 134.213 115.574 133.85 115.408C133.486 115.238 133.198 114.993 132.986 114.673C132.776 114.353 132.671 113.96 132.671 113.495C132.671 113.094 132.748 112.765 132.902 112.506C133.056 112.247 133.264 112.043 133.526 111.892C133.788 111.741 134.081 111.627 134.404 111.55C134.727 111.473 135.057 111.414 135.393 111.374C135.818 111.325 136.163 111.285 136.428 111.254C136.692 111.22 136.885 111.166 137.005 111.092C137.125 111.018 137.185 110.898 137.185 110.732V110.7C137.185 110.296 137.071 109.984 136.843 109.762C136.619 109.54 136.283 109.429 135.836 109.429C135.371 109.429 135.005 109.532 134.737 109.739C134.472 109.942 134.288 110.168 134.187 110.418L132.889 110.122C133.043 109.691 133.267 109.343 133.563 109.078C133.862 108.81 134.205 108.616 134.593 108.496C134.981 108.373 135.39 108.311 135.818 108.311C136.101 108.311 136.401 108.345 136.719 108.413C137.039 108.477 137.338 108.598 137.615 108.773C137.895 108.949 138.125 109.2 138.303 109.526C138.482 109.85 138.571 110.27 138.571 110.787V115.5H137.222V114.53H137.167C137.077 114.708 136.943 114.884 136.765 115.056C136.586 115.229 136.357 115.372 136.076 115.486C135.796 115.6 135.46 115.657 135.069 115.657ZM135.37 114.548C135.751 114.548 136.078 114.473 136.349 114.322C136.623 114.171 136.831 113.974 136.973 113.73C137.117 113.484 137.19 113.221 137.19 112.94V112.026C137.141 112.075 137.045 112.121 136.903 112.164C136.765 112.204 136.606 112.24 136.428 112.271C136.249 112.298 136.075 112.324 135.905 112.349C135.736 112.371 135.594 112.389 135.48 112.405C135.212 112.438 134.968 112.495 134.746 112.575C134.527 112.656 134.352 112.771 134.219 112.922C134.09 113.07 134.025 113.267 134.025 113.513C134.025 113.855 134.151 114.114 134.404 114.29C134.656 114.462 134.978 114.548 135.37 114.548ZM145.368 110.136L144.116 110.358C144.063 110.198 143.98 110.045 143.866 109.9C143.755 109.756 143.604 109.637 143.413 109.545C143.222 109.452 142.984 109.406 142.697 109.406C142.306 109.406 141.98 109.494 141.718 109.669C141.456 109.842 141.325 110.065 141.325 110.339C141.325 110.576 141.413 110.767 141.588 110.912C141.764 111.057 142.047 111.176 142.438 111.268L143.566 111.527C144.219 111.678 144.705 111.91 145.026 112.224C145.346 112.538 145.506 112.947 145.506 113.449C145.506 113.874 145.383 114.253 145.137 114.585C144.893 114.915 144.553 115.174 144.116 115.361C143.681 115.549 143.178 115.643 142.605 115.643C141.81 115.643 141.162 115.474 140.66 115.135C140.158 114.793 139.85 114.308 139.736 113.68L141.071 113.476C141.154 113.824 141.325 114.088 141.584 114.266C141.842 114.442 142.18 114.53 142.596 114.53C143.048 114.53 143.41 114.436 143.681 114.248C143.952 114.057 144.088 113.824 144.088 113.55C144.088 113.329 144.005 113.142 143.838 112.991C143.675 112.84 143.424 112.726 143.085 112.649L141.884 112.386C141.222 112.235 140.732 111.995 140.415 111.665C140.101 111.336 139.944 110.918 139.944 110.413C139.944 109.994 140.061 109.628 140.295 109.314C140.529 108.999 140.852 108.755 141.265 108.579C141.678 108.4 142.15 108.311 142.683 108.311C143.45 108.311 144.054 108.477 144.494 108.81C144.935 109.14 145.226 109.582 145.368 110.136ZM146.664 115.5V108.403H148.045V115.5H146.664ZM147.361 107.308C147.121 107.308 146.915 107.228 146.742 107.068C146.573 106.905 146.488 106.711 146.488 106.486C146.488 106.258 146.573 106.064 146.742 105.904C146.915 105.741 147.121 105.659 147.361 105.659C147.602 105.659 147.806 105.741 147.976 105.904C148.148 106.064 148.235 106.258 148.235 106.486C148.235 106.711 148.148 106.905 147.976 107.068C147.806 107.228 147.602 107.308 147.361 107.308ZM154.689 115.657C154.239 115.657 153.833 115.574 153.469 115.408C153.106 115.238 152.818 114.993 152.605 114.673C152.396 114.353 152.291 113.96 152.291 113.495C152.291 113.094 152.368 112.765 152.522 112.506C152.676 112.247 152.884 112.043 153.146 111.892C153.408 111.741 153.7 111.627 154.024 111.55C154.347 111.473 154.677 111.414 155.013 111.374C155.438 111.325 155.783 111.285 156.047 111.254C156.312 111.22 156.505 111.166 156.625 111.092C156.745 111.018 156.805 110.898 156.805 110.732V110.7C156.805 110.296 156.691 109.984 156.463 109.762C156.238 109.54 155.903 109.429 155.456 109.429C154.991 109.429 154.624 109.532 154.357 109.739C154.092 109.942 153.908 110.168 153.807 110.418L152.508 110.122C152.662 109.691 152.887 109.343 153.183 109.078C153.482 108.81 153.825 108.616 154.213 108.496C154.601 108.373 155.009 108.311 155.438 108.311C155.721 108.311 156.021 108.345 156.339 108.413C156.659 108.477 156.958 108.598 157.235 108.773C157.515 108.949 157.745 109.2 157.923 109.526C158.102 109.85 158.191 110.27 158.191 110.787V115.5H156.842V114.53H156.787C156.697 114.708 156.563 114.884 156.385 115.056C156.206 115.229 155.977 115.372 155.696 115.486C155.416 115.6 155.08 115.657 154.689 115.657ZM154.989 114.548C155.371 114.548 155.698 114.473 155.969 114.322C156.243 114.171 156.451 113.974 156.593 113.73C156.737 113.484 156.81 113.221 156.81 112.94V112.026C156.761 112.075 156.665 112.121 156.523 112.164C156.385 112.204 156.226 112.24 156.047 112.271C155.869 112.298 155.695 112.324 155.525 112.349C155.356 112.371 155.214 112.389 155.1 112.405C154.832 112.438 154.588 112.495 154.366 112.575C154.147 112.656 153.972 112.771 153.839 112.922C153.71 113.07 153.645 113.267 153.645 113.513C153.645 113.855 153.771 114.114 154.024 114.29C154.276 114.462 154.598 114.548 154.989 114.548ZM161.051 111.286V115.5H159.67V108.403H160.996V109.559H161.084C161.247 109.183 161.502 108.881 161.851 108.653C162.202 108.425 162.644 108.311 163.176 108.311C163.66 108.311 164.084 108.413 164.447 108.616C164.81 108.816 165.092 109.115 165.293 109.512C165.493 109.91 165.593 110.401 165.593 110.986V115.5H164.211V111.152C164.211 110.638 164.077 110.236 163.809 109.947C163.541 109.654 163.173 109.508 162.705 109.508C162.385 109.508 162.1 109.577 161.851 109.716C161.604 109.854 161.409 110.057 161.264 110.325C161.122 110.59 161.051 110.911 161.051 111.286ZM169.741 115.639C169.168 115.639 168.656 115.492 168.207 115.2C167.76 114.904 167.409 114.484 167.153 113.938C166.901 113.39 166.775 112.733 166.775 111.966C166.775 111.199 166.902 110.543 167.158 109.997C167.417 109.452 167.771 109.035 168.221 108.745C168.67 108.456 169.18 108.311 169.75 108.311C170.19 108.311 170.545 108.385 170.813 108.533C171.084 108.678 171.293 108.847 171.441 109.041C171.592 109.235 171.709 109.406 171.792 109.554H171.875V106.038H173.257V115.5H171.908V114.396H171.792C171.709 114.547 171.589 114.719 171.432 114.913C171.278 115.107 171.065 115.277 170.794 115.421C170.523 115.566 170.172 115.639 169.741 115.639ZM170.046 114.46C170.443 114.46 170.779 114.356 171.053 114.146C171.33 113.934 171.539 113.64 171.681 113.264C171.826 112.888 171.898 112.451 171.898 111.952C171.898 111.459 171.827 111.028 171.686 110.658C171.544 110.288 171.336 110 171.062 109.794C170.788 109.588 170.449 109.485 170.046 109.485C169.63 109.485 169.283 109.592 169.006 109.808C168.729 110.024 168.519 110.318 168.378 110.69C168.239 111.063 168.17 111.484 168.17 111.952C168.17 112.426 168.241 112.853 168.382 113.232C168.524 113.61 168.733 113.911 169.011 114.132C169.291 114.351 169.636 114.46 170.046 114.46ZM176.932 115.657C176.482 115.657 176.076 115.574 175.712 115.408C175.349 115.238 175.061 114.993 174.848 114.673C174.639 114.353 174.534 113.96 174.534 113.495C174.534 113.094 174.611 112.765 174.765 112.506C174.919 112.247 175.127 112.043 175.389 111.892C175.651 111.741 175.943 111.627 176.267 111.55C176.59 111.473 176.92 111.414 177.255 111.374C177.681 111.325 178.025 111.285 178.29 111.254C178.555 111.22 178.748 111.166 178.868 111.092C178.988 111.018 179.048 110.898 179.048 110.732V110.7C179.048 110.296 178.934 109.984 178.706 109.762C178.481 109.54 178.146 109.429 177.699 109.429C177.234 109.429 176.867 109.532 176.599 109.739C176.335 109.942 176.151 110.168 176.05 110.418L174.751 110.122C174.905 109.691 175.13 109.343 175.426 109.078C175.725 108.81 176.068 108.616 176.456 108.496C176.844 108.373 177.252 108.311 177.681 108.311C177.964 108.311 178.264 108.345 178.581 108.413C178.902 108.477 179.201 108.598 179.478 108.773C179.758 108.949 179.988 109.2 180.166 109.526C180.345 109.85 180.434 110.27 180.434 110.787V115.5H179.085V114.53H179.03C178.94 114.708 178.806 114.884 178.628 115.056C178.449 115.229 178.22 115.372 177.939 115.486C177.659 115.6 177.323 115.657 176.932 115.657ZM177.232 114.548C177.614 114.548 177.941 114.473 178.212 114.322C178.486 114.171 178.694 113.974 178.836 113.73C178.98 113.484 179.053 113.221 179.053 112.94V112.026C179.003 112.075 178.908 112.121 178.766 112.164C178.628 112.204 178.469 112.24 178.29 112.271C178.112 112.298 177.938 112.324 177.768 112.349C177.599 112.371 177.457 112.389 177.343 112.405C177.075 112.438 176.83 112.495 176.609 112.575C176.39 112.656 176.214 112.771 176.082 112.922C175.953 113.07 175.888 113.267 175.888 113.513C175.888 113.855 176.014 114.114 176.267 114.29C176.519 114.462 176.841 114.548 177.232 114.548Z" fill="#555555"/>
</g>
<path d="M22.2935 48.2935C22.684 47.9029 23.317 47.9029 23.7075 48.2935C24.0976 48.684 24.0979 49.3171 23.7075 49.7075L18.4146 55.0005H30.0005C30.5526 55.0007 31.0005 55.4483 31.0005 56.0005C31.0003 56.5525 30.5525 57.0003 30.0005 57.0005H18.4146L23.7075 62.2935C24.0976 62.684 24.0979 63.3171 23.7075 63.7075C23.3171 64.0979 22.684 64.0976 22.2935 63.7075L15.2935 56.7075C14.9029 56.317 14.9029 55.684 15.2935 55.2935L22.2935 48.2935Z" fill="black"/>
</g>
<defs>
<filter id="filter0_d_334_3315" x="17" y="89" width="325" height="51" filterUnits="userSpaceOnUse" color-interpolation-filters="sRGB">
<feFlood flood-opacity="0" result="BackgroundImageFix"/>
<feColorMatrix in="SourceAlpha" type="matrix" values="0 0 0 0 0 0 0 0 0 0 0 0 0 0 0 0 0 0 127 0" result="hardAlpha"/>
<feOffset dy="4"/>
<feGaussianBlur stdDeviation="2"/>
<feComposite in2="hardAlpha" operator="out"/>
<feColorMatrix type="matrix" values="0 0 0 0 0 0 0 0 0 0 0 0 0 0 0 0 0 0 0.25 0"/>
<feBlend mode="normal" in2="BackgroundImageFix" result="effect1_dropShadow_334_3315"/>
<feBlend mode="normal" in="SourceGraphic" in2="effect1_dropShadow_334_3315" result="shape"/>
</filter>
<clipPath id="clip0_334_3315">
<rect width="360" height="800" fill="white"/>
</clipPath>
</defs>
</svg>
