<svg width="360" height="800" viewBox="0 0 360 800" fill="none" xmlns="http://www.w3.org/2000/svg">
<g clip-path="url(#clip0_199_3746)">
<rect width="360" height="800" fill="#E6F8E8"/>
<path d="M83.9025 145.448C80.7878 145.448 77.9718 144.915 75.4545 143.848C72.9798 142.781 71.0172 141.245 69.5665 139.24C68.1158 137.235 67.3692 134.867 67.3265 132.136H76.9265C77.0545 133.971 77.6945 135.421 78.8465 136.488C80.0412 137.555 81.6625 138.088 83.7105 138.088C85.8012 138.088 87.4438 137.597 88.6385 136.616C89.8332 135.592 90.4305 134.269 90.4305 132.648C90.4305 131.325 90.0252 130.237 89.2145 129.384C88.4038 128.531 87.3798 127.869 86.1425 127.4C84.9478 126.888 83.2838 126.333 81.1505 125.736C78.2492 124.883 75.8812 124.051 74.0465 123.24C72.2545 122.387 70.6972 121.128 69.3745 119.464C68.0945 117.757 67.4545 115.496 67.4545 112.68C67.4545 110.035 68.1158 107.731 69.4385 105.768C70.7612 103.805 72.6172 102.312 75.0065 101.288C77.3958 100.221 80.1265 99.688 83.1985 99.688C87.8065 99.688 91.5398 100.819 94.3985 103.08C97.2998 105.299 98.8998 108.413 99.1985 112.424H89.3425C89.2572 110.888 88.5958 109.629 87.3585 108.648C86.1638 107.624 84.5638 107.112 82.5585 107.112C80.8092 107.112 79.4012 107.56 78.3345 108.456C77.3105 109.352 76.7985 110.653 76.7985 112.36C76.7985 113.555 77.1825 114.557 77.9505 115.368C78.7612 116.136 79.7425 116.776 80.8945 117.288C82.0892 117.757 83.7532 118.312 85.8865 118.952C88.7878 119.805 91.1558 120.659 92.9905 121.512C94.8252 122.365 96.4038 123.645 97.7265 125.352C99.0492 127.059 99.7105 129.299 99.7105 132.072C99.7105 134.461 99.0918 136.68 97.8545 138.728C96.6172 140.776 94.8038 142.419 92.4145 143.656C90.0252 144.851 87.1878 145.448 83.9025 145.448ZM140.439 126.504C140.439 127.784 140.353 128.936 140.183 129.96H114.263C114.476 132.52 115.372 134.525 116.951 135.976C118.529 137.427 120.471 138.152 122.775 138.152C126.103 138.152 128.471 136.723 129.879 133.864H139.543C138.519 137.277 136.556 140.093 133.655 142.312C130.753 144.488 127.191 145.576 122.967 145.576C119.553 145.576 116.481 144.829 113.751 143.336C111.063 141.8 108.951 139.645 107.415 136.872C105.921 134.099 105.174 130.899 105.174 127.272C105.174 123.603 105.921 120.381 107.415 117.608C108.908 114.835 110.999 112.701 113.687 111.208C116.375 109.715 119.468 108.968 122.967 108.968C126.337 108.968 129.345 109.693 131.991 111.144C134.679 112.595 136.748 114.664 138.199 117.352C139.692 119.997 140.439 123.048 140.439 126.504ZM131.159 123.944C131.116 121.64 130.284 119.805 128.663 118.44C127.041 117.032 125.057 116.328 122.711 116.328C120.492 116.328 118.615 117.011 117.079 118.376C115.585 119.699 114.668 121.555 114.327 123.944H131.159ZM155.939 97.64V145H146.979V97.64H155.939ZM197.751 126.504C197.751 127.784 197.666 128.936 197.495 129.96H171.575C171.788 132.52 172.684 134.525 174.263 135.976C175.842 137.427 177.783 138.152 180.087 138.152C183.415 138.152 185.783 136.723 187.191 133.864H196.855C195.831 137.277 193.868 140.093 190.967 142.312C188.066 144.488 184.503 145.576 180.279 145.576C176.866 145.576 173.794 144.829 171.063 143.336C168.375 141.8 166.263 139.645 164.727 136.872C163.234 134.099 162.487 130.899 162.487 127.272C162.487 123.603 163.234 120.381 164.727 117.608C166.22 114.835 168.311 112.701 170.999 111.208C173.687 109.715 176.78 108.968 180.279 108.968C183.65 108.968 186.658 109.693 189.303 111.144C191.991 112.595 194.06 114.664 195.511 117.352C197.004 119.997 197.751 123.048 197.751 126.504ZM188.471 123.944C188.428 121.64 187.596 119.805 185.975 118.44C184.354 117.032 182.37 116.328 180.023 116.328C177.804 116.328 175.927 117.011 174.391 118.376C172.898 119.699 171.98 121.555 171.639 123.944H188.471ZM217.859 145.576C214.958 145.576 212.355 145.064 210.051 144.04C207.747 142.973 205.912 141.544 204.547 139.752C203.224 137.96 202.499 135.976 202.371 133.8H211.395C211.566 135.165 212.227 136.296 213.379 137.192C214.574 138.088 216.046 138.536 217.795 138.536C219.502 138.536 220.824 138.195 221.763 137.512C222.744 136.829 223.235 135.955 223.235 134.888C223.235 133.736 222.638 132.883 221.443 132.328C220.291 131.731 218.435 131.091 215.875 130.408C213.23 129.768 211.054 129.107 209.347 128.424C207.683 127.741 206.232 126.696 204.995 125.288C203.8 123.88 203.203 121.981 203.203 119.592C203.203 117.629 203.758 115.837 204.867 114.216C206.019 112.595 207.64 111.315 209.731 110.376C211.864 109.437 214.36 108.968 217.219 108.968C221.443 108.968 224.814 110.035 227.331 112.168C229.848 114.259 231.235 117.096 231.491 120.68H222.915C222.787 119.272 222.19 118.163 221.123 117.352C220.099 116.499 218.712 116.072 216.963 116.072C215.342 116.072 214.083 116.371 213.187 116.968C212.334 117.565 211.907 118.397 211.907 119.464C211.907 120.659 212.504 121.576 213.699 122.216C214.894 122.813 216.75 123.432 219.267 124.072C221.827 124.712 223.939 125.373 225.603 126.056C227.267 126.739 228.696 127.805 229.891 129.256C231.128 130.664 231.768 132.541 231.811 134.888C231.811 136.936 231.235 138.771 230.083 140.392C228.974 142.013 227.352 143.293 225.219 144.232C223.128 145.128 220.675 145.576 217.859 145.576ZM236.862 127.144C236.862 123.56 237.566 120.381 238.974 117.608C240.425 114.835 242.366 112.701 244.798 111.208C247.273 109.715 250.025 108.968 253.054 108.968C255.699 108.968 258.003 109.501 259.966 110.568C261.971 111.635 263.571 112.979 264.766 114.6V109.544H273.79V145H264.766V139.816C263.614 141.48 262.014 142.867 259.966 143.976C257.961 145.043 255.635 145.576 252.99 145.576C250.003 145.576 247.273 144.808 244.798 143.272C242.366 141.736 240.425 139.581 238.974 136.808C237.566 133.992 236.862 130.771 236.862 127.144ZM264.766 127.272C264.766 125.096 264.339 123.24 263.486 121.704C262.633 120.125 261.481 118.931 260.03 118.12C258.579 117.267 257.022 116.84 255.358 116.84C253.694 116.84 252.158 117.245 250.75 118.056C249.342 118.867 248.19 120.061 247.294 121.64C246.441 123.176 246.014 125.011 246.014 127.144C246.014 129.277 246.441 131.155 247.294 132.776C248.19 134.355 249.342 135.571 250.75 136.424C252.201 137.277 253.737 137.704 255.358 137.704C257.022 137.704 258.579 137.299 260.03 136.488C261.481 135.635 262.633 134.44 263.486 132.904C264.339 131.325 264.766 129.448 264.766 127.272ZM287.085 105.32C285.506 105.32 284.184 104.829 283.117 103.848C282.093 102.824 281.581 101.565 281.581 100.072C281.581 98.5787 282.093 97.3413 283.117 96.36C284.184 95.336 285.506 94.824 287.085 94.824C288.664 94.824 289.965 95.336 290.989 96.36C292.056 97.3413 292.589 98.5787 292.589 100.072C292.589 101.565 292.056 102.824 290.989 103.848C289.965 104.829 288.664 105.32 287.085 105.32ZM291.501 109.544V145H282.541V109.544H291.501Z" fill="#1C2B33"/>
<path d="M37 178H323" stroke="#C9C9C9" stroke-width="8" stroke-linecap="round"/>
<path d="M37 178H332" stroke="#19FF43" stroke-width="12" stroke-linecap="round"/>
<rect x="304" y="159" width="38" height="39" rx="19" fill="#058938"/>
<path d="M326.716 181.541C326.716 181.899 326.574 182.243 326.32 182.496C326.067 182.75 325.723 182.892 325.365 182.892C325.006 182.892 324.663 182.75 324.409 182.496C324.156 182.243 324.013 181.899 324.013 181.541C324.013 181.182 324.156 180.838 324.409 180.585C324.663 180.332 325.006 180.189 325.365 180.189C325.723 180.189 326.067 180.332 326.32 180.585C326.574 180.838 326.716 181.182 326.716 181.541ZM321.986 181.541C321.986 181.899 321.844 182.243 321.591 182.496C321.337 182.75 320.993 182.892 320.635 182.892C320.277 182.892 319.933 182.75 319.679 182.496C319.426 182.243 319.284 181.899 319.284 181.541C319.284 181.182 319.426 180.838 319.679 180.585C319.933 180.332 320.277 180.189 320.635 180.189C320.993 180.189 321.337 180.332 321.591 180.585C321.844 180.838 321.986 181.182 321.986 181.541Z" fill="white"/>
<path fill-rule="evenodd" clip-rule="evenodd" d="M323 175.459C324.254 175.459 325.457 174.961 326.344 174.074C327.231 173.187 327.729 171.984 327.729 170.73C327.729 169.475 327.231 168.272 326.344 167.385C325.457 166.498 324.254 166 323 166C321.745 166 320.542 166.498 319.655 167.385C318.768 168.272 318.27 169.475 318.27 170.73C318.27 171.984 318.768 173.187 319.655 174.074C320.542 174.961 321.745 175.459 323 175.459ZM323 168.703C323.537 168.703 324.053 168.916 324.433 169.296C324.813 169.677 325.027 170.192 325.027 170.73C325.027 171.267 324.813 171.783 324.433 172.163C324.053 172.543 323.537 172.757 323 172.757C322.462 172.757 321.947 172.543 321.566 172.163C321.186 171.783 320.973 171.267 320.973 170.73C320.973 170.192 321.186 169.677 321.566 169.296C321.947 168.916 322.462 168.703 323 168.703Z" fill="white"/>
<path d="M323 183.568C323.717 183.568 324.404 183.852 324.911 184.359C325.418 184.866 325.703 185.554 325.703 186.27V188.297C325.703 189.014 325.418 189.702 324.911 190.208C324.404 190.715 323.717 191 323 191C322.283 191 321.596 190.715 321.089 190.208C320.582 189.702 320.297 189.014 320.297 188.297V186.27C320.297 185.554 320.582 184.866 321.089 184.359C321.596 183.852 322.283 183.568 323 183.568Z" fill="white"/>
<path fill-rule="evenodd" clip-rule="evenodd" d="M329.756 179.514C329.756 177.722 329.044 176.003 327.777 174.736C326.51 173.469 324.791 172.757 322.999 172.757C321.207 172.757 319.489 173.469 318.222 174.736C316.955 176.003 316.243 177.722 316.243 179.514V182.892C316.243 183.788 316.599 184.647 317.232 185.281C317.866 185.914 318.725 186.27 319.621 186.27H326.378C327.274 186.27 328.133 185.914 328.767 185.281C329.4 184.647 329.756 183.788 329.756 182.892V179.514ZM318.945 179.514C318.945 178.438 319.372 177.407 320.133 176.647C320.893 175.887 321.924 175.46 322.999 175.46C324.075 175.46 325.106 175.887 325.866 176.647C326.626 177.407 327.053 178.438 327.053 179.514V182.892C327.053 183.071 326.982 183.243 326.856 183.37C326.729 183.496 326.557 183.568 326.378 183.568H319.621C319.442 183.568 319.27 183.496 319.143 183.37C319.017 183.243 318.945 183.071 318.945 182.892V179.514Z" fill="white"/>
<path d="M330.433 170.73C330.074 170.73 329.73 170.587 329.477 170.334C329.224 170.081 329.081 169.737 329.081 169.378C329.081 169.02 329.224 168.676 329.477 168.423C329.73 168.169 330.074 168.027 330.433 168.027H333.135C333.494 168.027 333.837 168.169 334.091 168.423C334.344 168.676 334.487 169.02 334.487 169.378C334.487 169.737 334.344 170.081 334.091 170.334C333.837 170.587 333.494 170.73 333.135 170.73H330.433ZM312.865 170.73C312.507 170.73 312.163 170.587 311.909 170.334C311.656 170.081 311.514 169.737 311.514 169.378C311.514 169.02 311.656 168.676 311.909 168.423C312.163 168.169 312.507 168.027 312.865 168.027H315.568C315.926 168.027 316.27 168.169 316.523 168.423C316.777 168.676 316.919 169.02 316.919 169.378C316.919 169.737 316.777 170.081 316.523 170.334C316.27 170.587 315.926 170.73 315.568 170.73H312.865Z" fill="white"/>
<path d="M314.094 170.116L314.737 168.15L320.851 169.316L320.206 171.284L314.094 170.116ZM325.148 169.316L325.793 171.284L331.905 170.116L331.262 168.15L325.148 169.316Z" fill="white"/>
<g filter="url(#filter0_d_199_3746)">
<rect x="37" y="394" width="283" height="155" rx="20" fill="white" shape-rendering="crispEdges"/>
<path d="M55.136 411.636V417.816C55.136 418.504 54.924 419.056 54.5 419.472C54.076 419.88 53.516 420.084 52.82 420.084C52.116 420.084 51.552 419.876 51.128 419.46C50.704 419.036 50.492 418.46 50.492 417.732H51.584C51.592 418.14 51.696 418.472 51.896 418.728C52.104 418.984 52.412 419.112 52.82 419.112C53.228 419.112 53.532 418.992 53.732 418.752C53.932 418.504 54.032 418.192 54.032 417.816V411.636H55.136ZM56.8793 416.688C56.8793 416.016 57.0153 415.428 57.2873 414.924C57.5593 414.412 57.9313 414.016 58.4033 413.736C58.8833 413.456 59.4153 413.316 59.9993 413.316C60.5753 413.316 61.0753 413.44 61.4993 413.688C61.9233 413.936 62.2393 414.248 62.4473 414.624V413.424H63.5513V420H62.4473V418.776C62.2313 419.16 61.9073 419.48 61.4753 419.736C61.0513 419.984 60.5553 420.108 59.9873 420.108C59.4033 420.108 58.8753 419.964 58.4033 419.676C57.9313 419.388 57.5593 418.984 57.2873 418.464C57.0153 417.944 56.8793 417.352 56.8793 416.688ZM62.4473 416.7C62.4473 416.204 62.3473 415.772 62.1473 415.404C61.9473 415.036 61.6753 414.756 61.3313 414.564C60.9953 414.364 60.6233 414.264 60.2153 414.264C59.8073 414.264 59.4353 414.36 59.0993 414.552C58.7633 414.744 58.4953 415.024 58.2953 415.392C58.0953 415.76 57.9953 416.192 57.9953 416.688C57.9953 417.192 58.0953 417.632 58.2953 418.008C58.4953 418.376 58.7633 418.66 59.0993 418.86C59.4353 419.052 59.8073 419.148 60.2153 419.148C60.6233 419.148 60.9953 419.052 61.3313 418.86C61.6753 418.66 61.9473 418.376 62.1473 418.008C62.3473 417.632 62.4473 417.196 62.4473 416.7ZM66.4887 414.492C66.6807 414.116 66.9527 413.824 67.3047 413.616C67.6647 413.408 68.1007 413.304 68.6127 413.304V414.432H68.3247C67.1007 414.432 66.4887 415.096 66.4887 416.424V420H65.3967V413.424H66.4887V414.492ZM69.4652 416.688C69.4652 416.016 69.6012 415.428 69.8732 414.924C70.1452 414.412 70.5172 414.016 70.9892 413.736C71.4692 413.456 72.0012 413.316 72.5852 413.316C73.1612 413.316 73.6612 413.44 74.0852 413.688C74.5092 413.936 74.8252 414.248 75.0332 414.624V413.424H76.1372V420H75.0332V418.776C74.8172 419.16 74.4932 419.48 74.0612 419.736C73.6372 419.984 73.1412 420.108 72.5732 420.108C71.9892 420.108 71.4612 419.964 70.9892 419.676C70.5172 419.388 70.1452 418.984 69.8732 418.464C69.6012 417.944 69.4652 417.352 69.4652 416.688ZM75.0332 416.7C75.0332 416.204 74.9332 415.772 74.7332 415.404C74.5332 415.036 74.2612 414.756 73.9172 414.564C73.5812 414.364 73.2092 414.264 72.8012 414.264C72.3932 414.264 72.0212 414.36 71.6852 414.552C71.3492 414.744 71.0812 415.024 70.8812 415.392C70.6812 415.76 70.5812 416.192 70.5812 416.688C70.5812 417.192 70.6812 417.632 70.8812 418.008C71.0812 418.376 71.3492 418.66 71.6852 418.86C72.0212 419.052 72.3932 419.148 72.8012 419.148C73.2092 419.148 73.5812 419.052 73.9172 418.86C74.2612 418.66 74.5332 418.376 74.7332 418.008C74.9332 417.632 75.0332 417.196 75.0332 416.7ZM81.6546 420L79.0746 417.096V420H77.9826V411.12H79.0746V416.34L81.6066 413.424H83.1306L80.0346 416.7L83.1426 420H81.6546Z" fill="#1C2B33"/>
<path d="M51.8 448C51.8 443.413 52.68 439.8 54.44 437.16C56.2267 434.52 59.0933 433.2 63.04 433.2C66.9867 433.2 69.84 434.52 71.6 437.16C73.3867 439.8 74.28 443.413 74.28 448C74.28 452.64 73.3867 456.28 71.6 458.92C69.84 461.56 66.9867 462.88 63.04 462.88C59.0933 462.88 56.2267 461.56 54.44 458.92C52.68 456.28 51.8 452.64 51.8 448ZM67.56 448C67.56 445.307 67.2667 443.24 66.68 441.8C66.0933 440.333 64.88 439.6 63.04 439.6C61.2 439.6 59.9867 440.333 59.4 441.8C58.8133 443.24 58.52 445.307 58.52 448C58.52 449.813 58.6267 451.32 58.84 452.52C59.0533 453.693 59.48 454.653 60.12 455.4C60.7867 456.12 61.76 456.48 63.04 456.48C64.32 456.48 65.28 456.12 65.92 455.4C66.5867 454.653 67.0267 453.693 67.24 452.52C67.4533 451.32 67.56 449.813 67.56 448ZM81.7738 463.32C80.5738 463.32 79.5871 462.973 78.8138 462.28C78.0671 461.56 77.6938 460.68 77.6938 459.64C77.6938 458.573 78.0671 457.68 78.8138 456.96C79.5871 456.24 80.5738 455.88 81.7738 455.88C82.9471 455.88 83.9071 456.24 84.6538 456.96C85.4271 457.68 85.8138 458.573 85.8138 459.64C85.8138 460.68 85.4271 461.56 84.6538 462.28C83.9071 462.973 82.9471 463.32 81.7738 463.32ZM109.743 439.76H97.2628V445.28C97.7961 444.693 98.5428 444.213 99.5028 443.84C100.463 443.467 101.503 443.28 102.623 443.28C104.623 443.28 106.276 443.733 107.583 444.64C108.916 445.547 109.889 446.72 110.503 448.16C111.116 449.6 111.423 451.16 111.423 452.84C111.423 455.96 110.543 458.44 108.783 460.28C107.023 462.093 104.543 463 101.343 463C99.2095 463 97.3561 462.64 95.7828 461.92C94.2095 461.173 92.9961 460.147 92.1428 458.84C91.2895 457.533 90.8228 456.027 90.7428 454.32H97.4228C97.5828 455.147 97.9695 455.84 98.5828 456.4C99.1961 456.933 100.036 457.2 101.103 457.2C102.356 457.2 103.289 456.8 103.903 456C104.516 455.2 104.823 454.133 104.823 452.8C104.823 451.493 104.503 450.493 103.863 449.8C103.223 449.107 102.289 448.76 101.063 448.76C100.156 448.76 99.4095 448.987 98.8228 449.44C98.2361 449.867 97.8495 450.44 97.6628 451.16H91.0628V433.76H109.743V439.76ZM127.83 463L122.09 456.64V463H120.27V449.06H122.09V455.52L127.85 449.06H130.15L123.83 456.04L130.21 463H127.83ZM145.423 451.84C146.276 451.84 147.036 452.02 147.703 452.38C148.37 452.727 148.896 453.253 149.283 453.96C149.67 454.667 149.863 455.527 149.863 456.54V463H148.063V456.8C148.063 455.707 147.79 454.873 147.243 454.3C146.71 453.713 145.983 453.42 145.063 453.42C144.116 453.42 143.363 453.727 142.803 454.34C142.243 454.94 141.963 455.813 141.963 456.96V463H140.163V456.8C140.163 455.707 139.89 454.873 139.343 454.3C138.81 453.713 138.083 453.42 137.163 453.42C136.216 453.42 135.463 453.727 134.903 454.34C134.343 454.94 134.063 455.813 134.063 456.96V463H132.243V452.04H134.063V453.62C134.423 453.047 134.903 452.607 135.503 452.3C136.116 451.993 136.79 451.84 137.523 451.84C138.443 451.84 139.256 452.047 139.963 452.46C140.67 452.873 141.196 453.48 141.543 454.28C141.85 453.507 142.356 452.907 143.063 452.48C143.77 452.053 144.556 451.84 145.423 451.84Z" fill="#1C2B33"/>
<path d="M221.436 411.636L219.012 420H217.788L215.844 413.268L213.828 420L212.616 420.012L210.276 411.636H211.44L213.264 418.728L215.28 411.636H216.504L218.424 418.704L220.26 411.636H221.436ZM222.223 416.688C222.223 416.016 222.359 415.428 222.631 414.924C222.903 414.412 223.275 414.016 223.747 413.736C224.227 413.456 224.759 413.316 225.343 413.316C225.919 413.316 226.419 413.44 226.843 413.688C227.267 413.936 227.583 414.248 227.791 414.624V413.424H228.895V420H227.791V418.776C227.575 419.16 227.251 419.48 226.819 419.736C226.395 419.984 225.899 420.108 225.331 420.108C224.747 420.108 224.219 419.964 223.747 419.676C223.275 419.388 222.903 418.984 222.631 418.464C222.359 417.944 222.223 417.352 222.223 416.688ZM227.791 416.7C227.791 416.204 227.691 415.772 227.491 415.404C227.291 415.036 227.019 414.756 226.675 414.564C226.339 414.364 225.967 414.264 225.559 414.264C225.151 414.264 224.779 414.36 224.443 414.552C224.107 414.744 223.839 415.024 223.639 415.392C223.439 415.76 223.339 416.192 223.339 416.688C223.339 417.192 223.439 417.632 223.639 418.008C223.839 418.376 224.107 418.66 224.443 418.86C224.779 419.052 225.151 419.148 225.559 419.148C225.967 419.148 226.339 419.052 226.675 418.86C227.019 418.66 227.291 418.376 227.491 418.008C227.691 417.632 227.791 417.196 227.791 416.7ZM234.412 420L231.832 417.096V420H230.74V411.12H231.832V416.34L234.364 413.424H235.888L232.792 416.7L235.9 420H234.412ZM238.248 414.324V418.2C238.248 418.52 238.316 418.748 238.452 418.884C238.588 419.012 238.824 419.076 239.16 419.076H239.964V420H238.98C238.372 420 237.916 419.86 237.612 419.58C237.308 419.3 237.156 418.84 237.156 418.2V414.324H236.304V413.424H237.156V411.768H238.248V413.424H239.964V414.324H238.248ZM247.119 413.424V420H246.027V419.028C245.819 419.364 245.527 419.628 245.151 419.82C244.783 420.004 244.375 420.096 243.927 420.096C243.415 420.096 242.955 419.992 242.547 419.784C242.139 419.568 241.815 419.248 241.575 418.824C241.343 418.4 241.227 417.884 241.227 417.276V413.424H242.307V417.132C242.307 417.78 242.471 418.28 242.799 418.632C243.127 418.976 243.575 419.148 244.143 419.148C244.727 419.148 245.187 418.968 245.523 418.608C245.859 418.248 246.027 417.724 246.027 417.036V413.424H247.119ZM253.494 414.324V418.2C253.494 418.52 253.562 418.748 253.698 418.884C253.834 419.012 254.07 419.076 254.406 419.076H255.21V420H254.226C253.618 420 253.162 419.86 252.858 419.58C252.554 419.3 252.402 418.84 252.402 418.2V414.324H251.55V413.424H252.402V411.768H253.494V413.424H255.21V414.324H253.494ZM262.533 416.46C262.533 416.668 262.521 416.888 262.497 417.12H257.241C257.281 417.768 257.501 418.276 257.901 418.644C258.309 419.004 258.801 419.184 259.377 419.184C259.849 419.184 260.241 419.076 260.553 418.86C260.873 418.636 261.097 418.34 261.225 417.972H262.401C262.225 418.604 261.873 419.12 261.345 419.52C260.817 419.912 260.161 420.108 259.377 420.108C258.753 420.108 258.193 419.968 257.697 419.688C257.209 419.408 256.825 419.012 256.545 418.5C256.265 417.98 256.125 417.38 256.125 416.7C256.125 416.02 256.261 415.424 256.533 414.912C256.805 414.4 257.185 414.008 257.673 413.736C258.169 413.456 258.737 413.316 259.377 413.316C260.001 413.316 260.553 413.452 261.033 413.724C261.513 413.996 261.881 414.372 262.137 414.852C262.401 415.324 262.533 415.86 262.533 416.46ZM261.405 416.232C261.405 415.816 261.313 415.46 261.129 415.164C260.945 414.86 260.693 414.632 260.373 414.48C260.061 414.32 259.713 414.24 259.329 414.24C258.777 414.24 258.305 414.416 257.913 414.768C257.529 415.12 257.309 415.608 257.253 416.232H261.405ZM271.883 413.304C272.395 413.304 272.851 413.412 273.251 413.628C273.651 413.836 273.967 414.152 274.199 414.576C274.431 415 274.547 415.516 274.547 416.124V420H273.467V416.28C273.467 415.624 273.303 415.124 272.975 414.78C272.655 414.428 272.219 414.252 271.667 414.252C271.099 414.252 270.647 414.436 270.311 414.804C269.975 415.164 269.807 415.688 269.807 416.376V420H268.727V416.28C268.727 415.624 268.563 415.124 268.235 414.78C267.915 414.428 267.479 414.252 266.927 414.252C266.359 414.252 265.907 414.436 265.571 414.804C265.235 415.164 265.067 415.688 265.067 416.376V420H263.975V413.424H265.067V414.372C265.283 414.028 265.571 413.764 265.931 413.58C266.299 413.396 266.703 413.304 267.143 413.304C267.695 413.304 268.183 413.428 268.607 413.676C269.031 413.924 269.347 414.288 269.555 414.768C269.739 414.304 270.043 413.944 270.467 413.688C270.891 413.432 271.363 413.304 271.883 413.304ZM277.43 414.636C277.646 414.26 277.966 413.948 278.39 413.7C278.822 413.444 279.322 413.316 279.89 413.316C280.474 413.316 281.002 413.456 281.474 413.736C281.954 414.016 282.33 414.412 282.602 414.924C282.874 415.428 283.01 416.016 283.01 416.688C283.01 417.352 282.874 417.944 282.602 418.464C282.33 418.984 281.954 419.388 281.474 419.676C281.002 419.964 280.474 420.108 279.89 420.108C279.33 420.108 278.834 419.984 278.402 419.736C277.978 419.48 277.654 419.164 277.43 418.788V423.12H276.338V413.424H277.43V414.636ZM281.894 416.688C281.894 416.192 281.794 415.76 281.594 415.392C281.394 415.024 281.122 414.744 280.778 414.552C280.442 414.36 280.07 414.264 279.662 414.264C279.262 414.264 278.89 414.364 278.546 414.564C278.21 414.756 277.938 415.04 277.73 415.416C277.53 415.784 277.43 416.212 277.43 416.7C277.43 417.196 277.53 417.632 277.73 418.008C277.938 418.376 278.21 418.66 278.546 418.86C278.89 419.052 279.262 419.148 279.662 419.148C280.07 419.148 280.442 419.052 280.778 418.86C281.122 418.66 281.394 418.376 281.594 418.008C281.794 417.632 281.894 417.192 281.894 416.688ZM290.279 413.424V420H289.187V419.028C288.979 419.364 288.687 419.628 288.311 419.82C287.943 420.004 287.535 420.096 287.087 420.096C286.575 420.096 286.115 419.992 285.707 419.784C285.299 419.568 284.975 419.248 284.735 418.824C284.503 418.4 284.387 417.884 284.387 417.276V413.424H285.467V417.132C285.467 417.78 285.631 418.28 285.959 418.632C286.287 418.976 286.735 419.148 287.303 419.148C287.887 419.148 288.347 418.968 288.683 418.608C289.019 418.248 289.187 417.724 289.187 417.036V413.424H290.279ZM295.387 413.304C295.883 413.304 296.331 413.412 296.731 413.628C297.131 413.836 297.443 414.152 297.667 414.576C297.899 415 298.015 415.516 298.015 416.124V420H296.935V416.28C296.935 415.624 296.771 415.124 296.443 414.78C296.115 414.428 295.667 414.252 295.099 414.252C294.523 414.252 294.063 414.432 293.719 414.792C293.383 415.152 293.215 415.676 293.215 416.364V420H292.123V411.12H293.215V414.36C293.431 414.024 293.727 413.764 294.103 413.58C294.487 413.396 294.915 413.304 295.387 413.304Z" fill="#1C2B33"/>
<path d="M230.44 436.92L220.4 461H213.4L223.56 437.68H211.12V431.84H230.44V436.92ZM252.418 447.16V461H250.598V450.68L245.998 461H244.718L240.098 450.66V461H238.278V447.16H240.238L245.358 458.6L250.478 447.16H252.418ZM265.505 455.1C265.505 455.447 265.485 455.813 265.445 456.2H256.685C256.752 457.28 257.118 458.127 257.785 458.74C258.465 459.34 259.285 459.64 260.245 459.64C261.032 459.64 261.685 459.46 262.205 459.1C262.738 458.727 263.112 458.233 263.325 457.62H265.285C264.992 458.673 264.405 459.533 263.525 460.2C262.645 460.853 261.552 461.18 260.245 461.18C259.205 461.18 258.272 460.947 257.445 460.48C256.632 460.013 255.992 459.353 255.525 458.5C255.058 457.633 254.825 456.633 254.825 455.5C254.825 454.367 255.052 453.373 255.505 452.52C255.958 451.667 256.592 451.013 257.405 450.56C258.232 450.093 259.178 449.86 260.245 449.86C261.285 449.86 262.205 450.087 263.005 450.54C263.805 450.993 264.418 451.62 264.845 452.42C265.285 453.207 265.505 454.1 265.505 455.1ZM263.625 454.72C263.625 454.027 263.472 453.433 263.165 452.94C262.858 452.433 262.438 452.053 261.905 451.8C261.385 451.533 260.805 451.4 260.165 451.4C259.245 451.4 258.458 451.693 257.805 452.28C257.165 452.867 256.798 453.68 256.705 454.72H263.625ZM273.247 449.84C274.581 449.84 275.661 450.247 276.487 451.06C277.314 451.86 277.727 453.02 277.727 454.54V461H275.927V454.8C275.927 453.707 275.654 452.873 275.107 452.3C274.561 451.713 273.814 451.42 272.867 451.42C271.907 451.42 271.141 451.72 270.567 452.32C270.007 452.92 269.727 453.793 269.727 454.94V461H267.907V450.04H269.727V451.6C270.087 451.04 270.574 450.607 271.187 450.3C271.814 449.993 272.501 449.84 273.247 449.84ZM281.64 448.26C281.293 448.26 281 448.14 280.76 447.9C280.52 447.66 280.4 447.367 280.4 447.02C280.4 446.673 280.52 446.38 280.76 446.14C281 445.9 281.293 445.78 281.64 445.78C281.973 445.78 282.253 445.9 282.48 446.14C282.72 446.38 282.84 446.673 282.84 447.02C282.84 447.367 282.72 447.66 282.48 447.9C282.253 448.14 281.973 448.26 281.64 448.26ZM282.52 450.04V461H280.7V450.04H282.52ZM287.842 451.54V458C287.842 458.533 287.955 458.913 288.182 459.14C288.409 459.353 288.802 459.46 289.362 459.46H290.702V461H289.062C288.049 461 287.289 460.767 286.782 460.3C286.275 459.833 286.022 459.067 286.022 458V451.54H284.602V450.04H286.022V447.28H287.842V450.04H290.702V451.54H287.842Z" fill="#1C2B33"/>
<path d="M108.371 522V506.23H114.592C115.783 506.23 116.8 506.443 117.642 506.869C118.489 507.29 119.133 507.888 119.574 508.663C120.021 509.433 120.244 510.339 120.244 511.381C120.244 512.429 120.019 513.33 119.567 514.084C119.115 514.834 118.461 515.409 117.603 515.809C116.751 516.209 115.719 516.41 114.508 516.41H110.342V513.73H113.969C114.605 513.73 115.134 513.643 115.555 513.468C115.976 513.294 116.289 513.032 116.494 512.683C116.705 512.334 116.81 511.9 116.81 511.381C116.81 510.858 116.705 510.416 116.494 510.057C116.289 509.698 115.973 509.426 115.547 509.241C115.126 509.051 114.595 508.956 113.953 508.956H111.705V522H108.371ZM116.887 514.823L120.807 522H117.126L113.291 514.823H116.887ZM122.178 526.435V510.172H125.412V512.159H125.558C125.702 511.841 125.91 511.517 126.182 511.189C126.459 510.855 126.818 510.578 127.26 510.357C127.706 510.131 128.261 510.018 128.923 510.018C129.785 510.018 130.581 510.244 131.31 510.696C132.039 511.143 132.622 511.818 133.058 512.721C133.494 513.62 133.713 514.746 133.713 516.102C133.713 517.421 133.5 518.535 133.073 519.444C132.653 520.347 132.078 521.032 131.349 521.499C130.625 521.961 129.814 522.193 128.915 522.193C128.279 522.193 127.737 522.087 127.291 521.877C126.849 521.666 126.487 521.402 126.205 521.084C125.923 520.76 125.707 520.434 125.558 520.106H125.458V526.435H122.178ZM125.389 516.086C125.389 516.79 125.486 517.403 125.681 517.927C125.876 518.45 126.159 518.858 126.528 519.151C126.898 519.438 127.347 519.582 127.876 519.582C128.41 519.582 128.861 519.436 129.231 519.143C129.601 518.845 129.88 518.435 130.07 517.911C130.265 517.382 130.363 516.774 130.363 516.086C130.363 515.403 130.268 514.803 130.078 514.284C129.888 513.766 129.608 513.36 129.239 513.068C128.869 512.775 128.415 512.629 127.876 512.629C127.342 512.629 126.89 512.77 126.521 513.052C126.156 513.335 125.876 513.735 125.681 514.254C125.486 514.772 125.389 515.383 125.389 516.086ZM137.455 522.2C136.947 522.2 136.511 522.021 136.146 521.661C135.787 521.297 135.607 520.86 135.607 520.352C135.607 519.849 135.787 519.418 136.146 519.059C136.511 518.699 136.947 518.519 137.455 518.519C137.948 518.519 138.379 518.699 138.749 519.059C139.119 519.418 139.303 519.849 139.303 520.352C139.303 520.691 139.216 521.002 139.042 521.284C138.872 521.561 138.649 521.784 138.372 521.954C138.095 522.118 137.789 522.2 137.455 522.2ZM151.35 522.216C150.2 522.216 149.176 522.018 148.277 521.623C147.384 521.222 146.678 520.673 146.16 519.975C145.646 519.272 145.382 518.46 145.367 517.542H148.724C148.744 517.927 148.87 518.265 149.101 518.558C149.337 518.845 149.65 519.069 150.041 519.228C150.431 519.387 150.87 519.467 151.357 519.467C151.866 519.467 152.315 519.377 152.705 519.197C153.095 519.017 153.4 518.768 153.621 518.45C153.842 518.132 153.952 517.765 153.952 517.349C153.952 516.928 153.834 516.556 153.598 516.233C153.367 515.904 153.033 515.647 152.597 515.463C152.166 515.278 151.652 515.185 151.057 515.185H149.586V512.737H151.057C151.56 512.737 152.004 512.649 152.389 512.475C152.779 512.3 153.082 512.059 153.298 511.751C153.513 511.438 153.621 511.073 153.621 510.658C153.621 510.262 153.526 509.916 153.336 509.618C153.151 509.315 152.89 509.079 152.551 508.91C152.217 508.74 151.827 508.655 151.38 508.655C150.929 508.655 150.515 508.738 150.141 508.902C149.766 509.061 149.466 509.289 149.24 509.587C149.014 509.885 148.893 510.234 148.878 510.634H145.682C145.698 509.726 145.957 508.925 146.46 508.232C146.963 507.539 147.641 506.997 148.493 506.607C149.35 506.212 150.318 506.014 151.396 506.014C152.484 506.014 153.436 506.212 154.253 506.607C155.069 507.003 155.703 507.536 156.155 508.209C156.611 508.876 156.837 509.626 156.832 510.457C156.837 511.34 156.563 512.077 156.008 512.667C155.459 513.258 154.743 513.632 153.86 513.792V513.915C155.02 514.064 155.903 514.467 156.509 515.124C157.12 515.776 157.423 516.592 157.417 517.572C157.423 518.471 157.163 519.269 156.64 519.967C156.121 520.665 155.405 521.215 154.491 521.615C153.578 522.015 152.53 522.216 151.35 522.216ZM165.212 522.216C164.124 522.216 163.154 522.015 162.302 521.615C161.455 521.215 160.782 520.663 160.284 519.959C159.786 519.256 159.527 518.45 159.507 517.542H162.741C162.777 518.152 163.033 518.648 163.511 519.028C163.988 519.408 164.555 519.598 165.212 519.598C165.736 519.598 166.198 519.482 166.599 519.251C167.004 519.015 167.32 518.689 167.546 518.273C167.777 517.852 167.892 517.37 167.892 516.825C167.892 516.271 167.774 515.783 167.538 515.362C167.307 514.941 166.986 514.613 166.575 514.377C166.165 514.141 165.695 514.02 165.166 514.015C164.704 514.015 164.255 514.11 163.819 514.3C163.388 514.49 163.051 514.749 162.81 515.077L159.845 514.546L160.592 506.23H170.233V508.956H163.341L162.933 512.906H163.026C163.303 512.516 163.721 512.192 164.281 511.936C164.84 511.679 165.467 511.551 166.16 511.551C167.109 511.551 167.956 511.774 168.701 512.221C169.445 512.667 170.033 513.281 170.464 514.061C170.895 514.836 171.108 515.729 171.103 516.741C171.108 517.803 170.862 518.748 170.364 519.574C169.871 520.396 169.181 521.043 168.293 521.515C167.41 521.982 166.383 522.216 165.212 522.216ZM179.251 522.347C177.926 522.341 176.786 522.015 175.832 521.369C174.882 520.722 174.15 519.785 173.637 518.558C173.129 517.331 172.877 515.855 172.882 514.13C172.882 512.411 173.137 510.945 173.645 509.734C174.158 508.522 174.89 507.601 175.839 506.969C176.794 506.333 177.931 506.014 179.251 506.014C180.57 506.014 181.704 506.333 182.654 506.969C183.609 507.606 184.343 508.53 184.856 509.741C185.37 510.948 185.624 512.411 185.619 514.13C185.619 515.86 185.362 517.339 184.849 518.566C184.34 519.793 183.611 520.729 182.662 521.376C181.712 522.023 180.575 522.347 179.251 522.347ZM179.251 519.582C180.154 519.582 180.875 519.128 181.414 518.219C181.953 517.311 182.22 515.948 182.215 514.13C182.215 512.934 182.092 511.938 181.845 511.143C181.604 510.347 181.26 509.749 180.814 509.349C180.372 508.948 179.851 508.748 179.251 508.748C178.352 508.748 177.633 509.197 177.094 510.095C176.555 510.994 176.283 512.339 176.278 514.13C176.278 515.342 176.399 516.353 176.64 517.164C176.887 517.97 177.233 518.576 177.68 518.982C178.126 519.382 178.65 519.582 179.251 519.582ZM188.948 522.2C188.439 522.2 188.003 522.021 187.638 521.661C187.279 521.297 187.099 520.86 187.099 520.352C187.099 519.849 187.279 519.418 187.638 519.059C188.003 518.699 188.439 518.519 188.948 518.519C189.44 518.519 189.872 518.699 190.241 519.059C190.611 519.418 190.796 519.849 190.796 520.352C190.796 520.691 190.708 521.002 190.534 521.284C190.364 521.561 190.141 521.784 189.864 521.954C189.587 522.118 189.281 522.2 188.948 522.2ZM198.645 522.347C197.32 522.341 196.18 522.015 195.226 521.369C194.276 520.722 193.544 519.785 193.031 518.558C192.523 517.331 192.271 515.855 192.276 514.13C192.276 512.411 192.531 510.945 193.039 509.734C193.552 508.522 194.284 507.601 195.233 506.969C196.188 506.333 197.325 506.014 198.645 506.014C199.964 506.014 201.098 506.333 202.048 506.969C203.003 507.606 203.737 508.53 204.25 509.741C204.764 510.948 205.018 512.411 205.013 514.13C205.013 515.86 204.756 517.339 204.243 518.566C203.734 519.793 203.005 520.729 202.056 521.376C201.106 522.023 199.969 522.347 198.645 522.347ZM198.645 519.582C199.548 519.582 200.269 519.128 200.808 518.219C201.347 517.311 201.614 515.948 201.609 514.13C201.609 512.934 201.486 511.938 201.24 511.143C200.998 510.347 200.654 509.749 200.208 509.349C199.766 508.948 199.245 508.748 198.645 508.748C197.746 508.748 197.028 509.197 196.489 510.095C195.949 510.994 195.677 512.339 195.672 514.13C195.672 515.342 195.793 516.353 196.034 517.164C196.281 517.97 196.627 518.576 197.074 518.982C197.52 519.382 198.044 519.582 198.645 519.582ZM213.212 522.347C211.888 522.341 210.748 522.015 209.793 521.369C208.843 520.722 208.112 519.785 207.599 518.558C207.09 517.331 206.839 515.855 206.844 514.13C206.844 512.411 207.098 510.945 207.606 509.734C208.12 508.522 208.851 507.601 209.801 506.969C210.756 506.333 211.893 506.014 213.212 506.014C214.531 506.014 215.666 506.333 216.615 506.969C217.57 507.606 218.304 508.53 218.818 509.741C219.331 510.948 219.585 512.411 219.58 514.13C219.58 515.86 219.323 517.339 218.81 518.566C218.302 519.793 217.573 520.729 216.623 521.376C215.673 522.023 214.536 522.347 213.212 522.347ZM213.212 519.582C214.115 519.582 214.837 519.128 215.376 518.219C215.915 517.311 216.182 515.948 216.177 514.13C216.177 512.934 216.053 511.938 215.807 511.143C215.566 510.347 215.222 509.749 214.775 509.349C214.334 508.948 213.813 508.748 213.212 508.748C212.314 508.748 211.595 509.197 211.056 510.095C210.517 510.994 210.245 512.339 210.24 514.13C210.24 515.342 210.36 516.353 210.602 517.164C210.848 517.97 211.195 518.576 211.641 518.982C212.088 519.382 212.611 519.582 213.212 519.582ZM227.779 522.347C226.455 522.341 225.315 522.015 224.361 521.369C223.411 520.722 222.679 519.785 222.166 518.558C221.658 517.331 221.406 515.855 221.411 514.13C221.411 512.411 221.665 510.945 222.174 509.734C222.687 508.522 223.419 507.601 224.368 506.969C225.323 506.333 226.46 506.014 227.779 506.014C229.099 506.014 230.233 506.333 231.183 506.969C232.138 507.606 232.872 508.53 233.385 509.741C233.899 510.948 234.153 512.411 234.148 514.13C234.148 515.86 233.891 517.339 233.377 518.566C232.869 519.793 232.14 520.729 231.191 521.376C230.241 522.023 229.104 522.347 227.779 522.347ZM227.779 519.582C228.683 519.582 229.404 519.128 229.943 518.219C230.482 517.311 230.749 515.948 230.744 514.13C230.744 512.934 230.621 511.938 230.374 511.143C230.133 510.347 229.789 509.749 229.343 509.349C228.901 508.948 228.38 508.748 227.779 508.748C226.881 508.748 226.162 509.197 225.623 510.095C225.084 510.994 224.812 512.339 224.807 514.13C224.807 515.342 224.928 516.353 225.169 517.164C225.415 517.97 225.762 518.576 226.209 518.982C226.655 519.382 227.179 519.582 227.779 519.582ZM239.124 519.844L239.04 520.691C238.973 521.369 238.845 522.044 238.655 522.716C238.47 523.394 238.275 524.007 238.069 524.556C237.869 525.106 237.707 525.537 237.584 525.85H235.459C235.536 525.547 235.641 525.124 235.775 524.58C235.908 524.041 236.034 523.435 236.152 522.762C236.27 522.09 236.345 521.405 236.375 520.706L236.414 519.844H239.124ZM249.131 514.223V516.825H241.939V514.223H249.131Z" fill="black"/>
</g>
<rect x="192" y="716" width="150" height="56" rx="28" fill="#00AA13"/>
<path d="M229.797 746.704C229.797 745.744 229.109 745.168 228.021 745.168H225.813V748.176H228.069C229.157 748.176 229.797 747.648 229.797 746.704ZM229.525 742.048C229.525 741.152 228.917 740.64 227.861 740.64H225.813V743.44H227.861C228.917 743.44 229.525 742.96 229.525 742.048ZM232.069 746.976C232.069 748.752 230.709 750 228.389 750H223.573V738.832H228.181C230.517 738.832 231.813 740.048 231.813 741.712C231.813 743.072 230.997 743.92 229.909 744.272C231.173 744.496 232.069 745.664 232.069 746.976ZM237.662 742.832C236.59 742.832 235.742 743.52 235.566 744.736H239.774C239.742 743.568 238.814 742.832 237.662 742.832ZM241.87 747.216C241.39 748.848 239.918 750.144 237.726 750.144C235.15 750.144 233.278 748.352 233.278 745.568C233.278 742.768 235.102 740.992 237.726 740.992C240.286 740.992 242.094 742.736 242.094 745.376C242.094 745.664 242.078 745.952 242.03 746.24H235.55C235.662 747.552 236.558 748.288 237.678 748.288C238.638 748.288 239.166 747.808 239.454 747.216H241.87ZM245.969 745.584V750H243.729V741.136H245.969V742.512C246.529 741.6 247.457 741.008 248.689 741.008V743.36H248.097C246.769 743.36 245.969 743.872 245.969 745.584ZM250.198 750V741.136H252.438V750H250.198ZM251.334 740.08C250.534 740.08 249.958 739.504 249.958 738.768C249.958 738.032 250.534 737.456 251.334 737.456C252.118 737.456 252.71 738.032 252.71 738.768C252.71 739.504 252.118 740.08 251.334 740.08ZM264.383 742.304C264.383 741.312 263.823 740.688 262.575 740.688H260.703V743.968H262.575C263.823 743.968 264.383 743.312 264.383 742.304ZM258.463 738.832H262.655C265.343 738.832 266.687 740.384 266.687 742.256C266.687 743.616 265.935 744.992 264.143 745.472L266.815 750H264.223L261.759 745.648H260.703V750H258.463V738.832ZM268.137 745.536C268.137 742.768 269.929 740.992 272.185 740.992C273.609 740.992 274.585 741.664 275.113 742.4V741.136H277.369V750H275.113V748.704C274.585 749.472 273.577 750.144 272.169 750.144C269.929 750.144 268.137 748.304 268.137 745.536ZM275.113 745.568C275.113 743.888 273.993 742.96 272.761 742.96C271.561 742.96 270.425 743.856 270.425 745.536C270.425 747.216 271.561 748.176 272.761 748.176C273.993 748.176 275.113 747.248 275.113 745.568ZM279.909 747.248V742.976H278.853V741.136H279.909V738.944H282.165V741.136H284.149V742.976H282.165V747.264C282.165 747.856 282.405 748.112 283.109 748.112H284.149V750H282.741C281.045 750 279.909 749.28 279.909 747.248ZM285.76 750V741.136H288V750H285.76ZM286.896 740.08C286.096 740.08 285.52 739.504 285.52 738.768C285.52 738.032 286.096 737.456 286.896 737.456C287.68 737.456 288.272 738.032 288.272 738.768C288.272 739.504 287.68 740.08 286.896 740.08ZM296.421 750V745.104C296.421 743.68 295.637 742.912 294.453 742.912C293.237 742.912 292.453 743.68 292.453 745.104V750H290.213V741.136H292.453V742.24C293.029 741.488 293.989 741.008 295.125 741.008C297.189 741.008 298.661 742.352 298.661 744.8V750H296.421ZM300.215 745.536C300.215 742.768 302.008 740.992 304.264 740.992C305.656 740.992 306.664 741.632 307.192 742.4V741.136H309.448V750.064C309.448 752.464 307.976 754.368 305.064 754.368C302.568 754.368 300.824 753.12 300.6 751.088H302.824C303.048 751.888 303.88 752.416 305 752.416C306.232 752.416 307.192 751.712 307.192 750.064V748.688C306.664 749.456 305.656 750.144 304.264 750.144C302.008 750.144 300.215 748.304 300.215 745.536ZM307.192 745.568C307.192 743.888 306.072 742.96 304.84 742.96C303.64 742.96 302.504 743.856 302.504 745.536C302.504 747.216 303.64 748.176 304.84 748.176C306.072 748.176 307.192 747.248 307.192 745.568Z" fill="white"/>
<rect x="18" y="717" width="148" height="54" rx="27" stroke="#00AA13" stroke-width="2"/>
<path d="M51.6111 750L47.5471 745.024V750H45.3071V738.832H47.5471V743.84L51.6111 738.832H54.3151L49.7071 744.368L54.4431 750H51.6111ZM64.1565 745.376C64.1565 745.696 64.1352 745.984 64.0925 746.24H57.6125C57.6658 746.88 57.8898 747.381 58.2845 747.744C58.6792 748.107 59.1645 748.288 59.7405 748.288C60.5725 748.288 61.1645 747.931 61.5165 747.216H63.9325C63.6765 748.069 63.1858 748.773 62.4605 749.328C61.7352 749.872 60.8445 750.144 59.7885 750.144C58.9352 750.144 58.1672 749.957 57.4845 749.584C56.8125 749.2 56.2845 748.661 55.9005 747.968C55.5272 747.275 55.3405 746.475 55.3405 745.568C55.3405 744.651 55.5272 743.845 55.9005 743.152C56.2738 742.459 56.7965 741.925 57.4685 741.552C58.1405 741.179 58.9138 740.992 59.7885 740.992C60.6312 740.992 61.3832 741.173 62.0445 741.536C62.7165 741.899 63.2338 742.416 63.5965 743.088C63.9698 743.749 64.1565 744.512 64.1565 745.376ZM61.8365 744.736C61.8258 744.16 61.6178 743.701 61.2125 743.36C60.8072 743.008 60.3112 742.832 59.7245 742.832C59.1698 742.832 58.7005 743.003 58.3165 743.344C57.9432 743.675 57.7138 744.139 57.6285 744.736H61.8365ZM71.844 742.432C72.132 742.005 72.5267 741.659 73.028 741.392C73.54 741.125 74.1213 740.992 74.772 740.992C75.5293 740.992 76.212 741.179 76.82 741.552C77.4387 741.925 77.924 742.459 78.276 743.152C78.6387 743.835 78.82 744.629 78.82 745.536C78.82 746.443 78.6387 747.248 78.276 747.952C77.924 748.645 77.4387 749.184 76.82 749.568C76.212 749.952 75.5293 750.144 74.772 750.144C74.1107 750.144 73.5293 750.016 73.028 749.76C72.5373 749.493 72.1427 749.152 71.844 748.736V750H69.604V738.16H71.844V742.432ZM76.532 745.536C76.532 745.003 76.42 744.544 76.196 744.16C75.9827 743.765 75.6947 743.467 75.332 743.264C74.98 743.061 74.596 742.96 74.18 742.96C73.7747 742.96 73.3907 743.067 73.028 743.28C72.676 743.483 72.388 743.781 72.164 744.176C71.9507 744.571 71.844 745.035 71.844 745.568C71.844 746.101 71.9507 746.565 72.164 746.96C72.388 747.355 72.676 747.659 73.028 747.872C73.3907 748.075 73.7747 748.176 74.18 748.176C74.596 748.176 74.98 748.069 75.332 747.856C75.6947 747.643 75.9827 747.339 76.196 746.944C76.42 746.549 76.532 746.08 76.532 745.536ZM88.6878 745.376C88.6878 745.696 88.6664 745.984 88.6238 746.24H82.1438C82.1971 746.88 82.4211 747.381 82.8158 747.744C83.2104 748.107 83.6958 748.288 84.2718 748.288C85.1038 748.288 85.6958 747.931 86.0478 747.216H88.4638C88.2078 748.069 87.7171 748.773 86.9918 749.328C86.2664 749.872 85.3758 750.144 84.3198 750.144C83.4664 750.144 82.6984 749.957 82.0158 749.584C81.3438 749.2 80.8158 748.661 80.4318 747.968C80.0584 747.275 79.8717 746.475 79.8717 745.568C79.8717 744.651 80.0584 743.845 80.4318 743.152C80.8051 742.459 81.3278 741.925 81.9998 741.552C82.6718 741.179 83.4451 740.992 84.3198 740.992C85.1624 740.992 85.9144 741.173 86.5758 741.536C87.2478 741.899 87.7651 742.416 88.1278 743.088C88.5011 743.749 88.6878 744.512 88.6878 745.376ZM86.3678 744.736C86.3571 744.16 86.1491 743.701 85.7438 743.36C85.3384 743.008 84.8424 742.832 84.2558 742.832C83.7011 742.832 83.2318 743.003 82.8478 743.344C82.4744 743.675 82.2451 744.139 82.1598 744.736H86.3678ZM92.5628 742.512C92.8508 742.043 93.2241 741.675 93.6828 741.408C94.1521 741.141 94.6854 741.008 95.2828 741.008V743.36H94.6908C93.9868 743.36 93.4534 743.525 93.0908 743.856C92.7388 744.187 92.5628 744.763 92.5628 745.584V750H90.3228V741.136H92.5628V742.512ZM96.2155 745.536C96.2155 744.64 96.3915 743.845 96.7435 743.152C97.1062 742.459 97.5915 741.925 98.1995 741.552C98.8182 741.179 99.5062 740.992 100.264 740.992C100.925 740.992 101.501 741.125 101.992 741.392C102.493 741.659 102.893 741.995 103.192 742.4V741.136H105.448V750H103.192V748.704C102.904 749.12 102.504 749.467 101.992 749.744C101.49 750.011 100.909 750.144 100.248 750.144C99.5008 750.144 98.8182 749.952 98.1995 749.568C97.5915 749.184 97.1062 748.645 96.7435 747.952C96.3915 747.248 96.2155 746.443 96.2155 745.536ZM103.192 745.568C103.192 745.024 103.085 744.56 102.872 744.176C102.658 743.781 102.37 743.483 102.008 743.28C101.645 743.067 101.256 742.96 100.84 742.96C100.424 742.96 100.04 743.061 99.6875 743.264C99.3355 743.467 99.0475 743.765 98.8235 744.16C98.6102 744.544 98.5035 745.003 98.5035 745.536C98.5035 746.069 98.6102 746.539 98.8235 746.944C99.0475 747.339 99.3355 747.643 99.6875 747.856C100.05 748.069 100.434 748.176 100.84 748.176C101.256 748.176 101.645 748.075 102.008 747.872C102.37 747.659 102.658 747.36 102.872 746.976C103.085 746.581 103.192 746.112 103.192 745.568ZM112.547 741.008C113.603 741.008 114.457 741.344 115.107 742.016C115.758 742.677 116.083 743.605 116.083 744.8V750H113.843V745.104C113.843 744.4 113.667 743.861 113.315 743.488C112.963 743.104 112.483 742.912 111.875 742.912C111.257 742.912 110.766 743.104 110.403 743.488C110.051 743.861 109.875 744.4 109.875 745.104V750H107.635V741.136H109.875V742.24C110.174 741.856 110.553 741.557 111.011 741.344C111.481 741.12 111.993 741.008 112.547 741.008ZM117.637 745.536C117.637 744.64 117.813 743.845 118.165 743.152C118.528 742.459 119.019 741.925 119.637 741.552C120.256 741.179 120.944 740.992 121.701 740.992C122.277 740.992 122.827 741.12 123.349 741.376C123.872 741.621 124.288 741.952 124.597 742.368V738.16H126.869V750H124.597V748.688C124.32 749.125 123.931 749.477 123.429 749.744C122.928 750.011 122.347 750.144 121.685 750.144C120.939 750.144 120.256 749.952 119.637 749.568C119.019 749.184 118.528 748.645 118.165 747.952C117.813 747.248 117.637 746.443 117.637 745.536ZM124.613 745.568C124.613 745.024 124.507 744.56 124.293 744.176C124.08 743.781 123.792 743.483 123.429 743.28C123.067 743.067 122.677 742.96 122.261 742.96C121.845 742.96 121.461 743.061 121.109 743.264C120.757 743.467 120.469 743.765 120.245 744.16C120.032 744.544 119.925 745.003 119.925 745.536C119.925 746.069 120.032 746.539 120.245 746.944C120.469 747.339 120.757 747.643 121.109 747.856C121.472 748.069 121.856 748.176 122.261 748.176C122.677 748.176 123.067 748.075 123.429 747.872C123.792 747.659 124.08 747.36 124.293 746.976C124.507 746.581 124.613 746.112 124.613 745.568ZM128.481 745.536C128.481 744.64 128.657 743.845 129.009 743.152C129.372 742.459 129.857 741.925 130.465 741.552C131.084 741.179 131.772 740.992 132.529 740.992C133.19 740.992 133.766 741.125 134.257 741.392C134.758 741.659 135.158 741.995 135.457 742.4V741.136H137.713V750H135.457V748.704C135.169 749.12 134.769 749.467 134.257 749.744C133.756 750.011 133.174 750.144 132.513 750.144C131.766 750.144 131.084 749.952 130.465 749.568C129.857 749.184 129.372 748.645 129.009 747.952C128.657 747.248 128.481 746.443 128.481 745.536ZM135.457 745.568C135.457 745.024 135.35 744.56 135.137 744.176C134.924 743.781 134.636 743.483 134.273 743.28C133.91 743.067 133.521 742.96 133.105 742.96C132.689 742.96 132.305 743.061 131.953 743.264C131.601 743.467 131.313 743.765 131.089 744.16C130.876 744.544 130.769 745.003 130.769 745.536C130.769 746.069 130.876 746.539 131.089 746.944C131.313 747.339 131.601 747.643 131.953 747.856C132.316 748.069 132.7 748.176 133.105 748.176C133.521 748.176 133.91 748.075 134.273 747.872C134.636 747.659 134.924 747.36 135.137 746.976C135.35 746.581 135.457 746.112 135.457 745.568Z" fill="#00AA13"/>
<path d="M24.2935 54.2935C24.684 53.9029 25.317 53.9029 25.7075 54.2935C26.0976 54.684 26.0979 55.3171 25.7075 55.7075L20.4146 61.0005H32.0005C32.5526 61.0007 33.0005 61.4483 33.0005 62.0005C33.0003 62.5525 32.5525 63.0003 32.0005 63.0005H20.4146L25.7075 68.2935C26.0976 68.684 26.0979 69.3171 25.7075 69.7075C25.3171 70.0979 24.684 70.0976 24.2935 69.7075L17.2935 62.7075C16.9029 62.317 16.9029 61.684 17.2935 61.2935L24.2935 54.2935Z" fill="black"/>
<g filter="url(#filter1_d_199_3746)">
<rect x="51" y="266" width="257" height="86" rx="15" fill="white"/>
<circle cx="74" cy="286" r="10.0739" fill="#255AFF" fill-opacity="0.1" stroke="#95BCE1" stroke-width="0.147896"/>
<circle cx="74" cy="286" r="4.50701" fill="#255AFF" stroke="white" stroke-width="0.985975"/>
<line x1="93.5" y1="308.5" x2="291.5" y2="308.5" stroke="#1C2B33" stroke-opacity="0.2" stroke-linecap="round"/>
<path fill-rule="evenodd" clip-rule="evenodd" d="M67.9062 329.75C67.9062 328.134 68.5483 326.584 69.6911 325.441C70.8339 324.298 72.3838 323.656 74 323.656C75.6162 323.656 77.1661 324.298 78.3089 325.441C79.4517 326.584 80.0938 328.134 80.0938 329.75C80.0938 332.08 79.1262 333.452 77.985 334.519C77.5037 334.969 77.0287 335.331 76.5225 335.716L76.0662 336.066C75.7252 336.326 75.3992 336.605 75.09 336.901C74.7863 337.201 74.4213 337.62 74.1775 338.164C74.1518 338.228 74.1111 338.284 74.0588 338.329L74.04 338.339C74.04 338.339 74.0275 338.344 74 338.344L73.96 338.34L73.9412 338.329C73.8891 338.285 73.8483 338.228 73.8225 338.165C73.5987 337.692 73.2894 337.264 72.91 336.903C72.6008 336.606 72.2748 336.327 71.9338 336.068C71.7779 335.947 71.6254 335.83 71.4762 335.718C70.9693 335.342 70.4816 334.942 70.015 334.517C68.875 333.454 67.9062 332.081 67.9062 329.75ZM82.125 329.75C82.125 334 79.5425 335.969 77.7125 337.364C76.92 337.97 76.2675 338.466 76.0312 338.995C75.6938 339.75 74.985 340.375 74 340.375C73.015 340.375 72.3075 339.75 71.9688 338.995C71.7312 338.466 71.0812 337.97 70.2862 337.364C68.4575 335.969 65.875 333.999 65.875 329.75C65.875 327.595 66.731 325.528 68.2548 324.005C69.7785 322.481 71.8451 321.625 74 321.625C76.1549 321.625 78.2215 322.481 79.7452 324.005C81.269 325.528 82.125 327.595 82.125 329.75ZM75.875 329.75C75.875 330.247 75.6775 330.724 75.3258 331.076C74.9742 331.427 74.4973 331.625 74 331.625C73.5027 331.625 73.0258 331.427 72.6742 331.076C72.3225 330.724 72.125 330.247 72.125 329.75C72.125 329.253 72.3225 328.776 72.6742 328.424C73.0258 328.073 73.5027 327.875 74 327.875C74.4973 327.875 74.9742 328.073 75.3258 328.424C75.6775 328.776 75.875 329.253 75.875 329.75ZM77.75 329.75C77.75 330.745 77.3549 331.698 76.6517 332.402C75.9484 333.105 74.9946 333.5 74 333.5C73.0054 333.5 72.0516 333.105 71.3483 332.402C70.6451 331.698 70.25 330.745 70.25 329.75C70.25 328.755 70.6451 327.802 71.3483 327.098C72.0516 326.395 73.0054 326 74 326C74.9946 326 75.9484 326.395 76.6517 327.098C77.3549 327.802 77.75 328.755 77.75 329.75Z" fill="black"/>
<circle cx="74" cy="307" r="1" fill="#1C2B33" fill-opacity="0.2"/>
<circle cx="74" cy="311" r="1" fill="#1C2B33" fill-opacity="0.2"/>
<circle cx="74" cy="315" r="1" fill="#1C2B33" fill-opacity="0.2"/>
<path d="M95.016 290.112H97.944V291H93.924V282.636H95.016V290.112ZM101.972 291.108C101.356 291.108 100.796 290.968 100.292 290.688C99.7957 290.408 99.4037 290.012 99.1157 289.5C98.8357 288.98 98.6957 288.38 98.6957 287.7C98.6957 287.028 98.8397 286.436 99.1277 285.924C99.4237 285.404 99.8237 285.008 100.328 284.736C100.832 284.456 101.396 284.316 102.02 284.316C102.644 284.316 103.208 284.456 103.712 284.736C104.216 285.008 104.612 285.4 104.9 285.912C105.196 286.424 105.344 287.02 105.344 287.7C105.344 288.38 105.192 288.98 104.888 289.5C104.592 290.012 104.188 290.408 103.676 290.688C103.164 290.968 102.596 291.108 101.972 291.108ZM101.972 290.148C102.364 290.148 102.732 290.056 103.076 289.872C103.42 289.688 103.696 289.412 103.904 289.044C104.12 288.676 104.228 288.228 104.228 287.7C104.228 287.172 104.124 286.724 103.916 286.356C103.708 285.988 103.436 285.716 103.1 285.54C102.764 285.356 102.4 285.264 102.008 285.264C101.608 285.264 101.24 285.356 100.904 285.54C100.576 285.716 100.312 285.988 100.112 286.356C99.9117 286.724 99.8117 287.172 99.8117 287.7C99.8117 288.236 99.9077 288.688 100.1 289.056C100.3 289.424 100.564 289.7 100.892 289.884C101.22 290.06 101.58 290.148 101.972 290.148ZM110.451 291L107.871 288.096V291H106.779V282.12H107.871V287.34L110.403 284.424H111.927L108.831 287.7L111.939 291H110.451ZM112.547 287.688C112.547 287.016 112.683 286.428 112.955 285.924C113.227 285.412 113.599 285.016 114.071 284.736C114.551 284.456 115.083 284.316 115.667 284.316C116.243 284.316 116.743 284.44 117.167 284.688C117.591 284.936 117.907 285.248 118.115 285.624V284.424H119.219V291H118.115V289.776C117.899 290.16 117.575 290.48 117.143 290.736C116.719 290.984 116.223 291.108 115.655 291.108C115.071 291.108 114.543 290.964 114.071 290.676C113.599 290.388 113.227 289.984 112.955 289.464C112.683 288.944 112.547 288.352 112.547 287.688ZM118.115 287.7C118.115 287.204 118.015 286.772 117.815 286.404C117.615 286.036 117.343 285.756 116.999 285.564C116.663 285.364 116.291 285.264 115.883 285.264C115.475 285.264 115.103 285.36 114.767 285.552C114.431 285.744 114.163 286.024 113.963 286.392C113.763 286.76 113.663 287.192 113.663 287.688C113.663 288.192 113.763 288.632 113.963 289.008C114.163 289.376 114.431 289.66 114.767 289.86C115.103 290.052 115.475 290.148 115.883 290.148C116.291 290.148 116.663 290.052 116.999 289.86C117.343 289.66 117.615 289.376 117.815 289.008C118.015 288.632 118.115 288.196 118.115 287.7ZM123.393 291.108C122.889 291.108 122.437 291.024 122.037 290.856C121.637 290.68 121.321 290.44 121.089 290.136C120.857 289.824 120.729 289.468 120.705 289.068H121.833C121.865 289.396 122.017 289.664 122.289 289.872C122.569 290.08 122.933 290.184 123.381 290.184C123.797 290.184 124.125 290.092 124.365 289.908C124.605 289.724 124.725 289.492 124.725 289.212C124.725 288.924 124.597 288.712 124.341 288.576C124.085 288.432 123.689 288.292 123.153 288.156C122.665 288.028 122.265 287.9 121.953 287.772C121.649 287.636 121.385 287.44 121.161 287.184C120.945 286.92 120.837 286.576 120.837 286.152C120.837 285.816 120.937 285.508 121.137 285.228C121.337 284.948 121.621 284.728 121.989 284.568C122.357 284.4 122.777 284.316 123.249 284.316C123.977 284.316 124.565 284.5 125.013 284.868C125.461 285.236 125.701 285.74 125.733 286.38H124.641C124.617 286.036 124.477 285.76 124.221 285.552C123.973 285.344 123.637 285.24 123.213 285.24C122.821 285.24 122.509 285.324 122.277 285.492C122.045 285.66 121.929 285.88 121.929 286.152C121.929 286.368 121.997 286.548 122.133 286.692C122.277 286.828 122.453 286.94 122.661 287.028C122.877 287.108 123.173 287.2 123.549 287.304C124.021 287.432 124.405 287.56 124.701 287.688C124.997 287.808 125.249 287.992 125.457 288.24C125.673 288.488 125.785 288.812 125.793 289.212C125.793 289.572 125.693 289.896 125.493 290.184C125.293 290.472 125.009 290.7 124.641 290.868C124.281 291.028 123.865 291.108 123.393 291.108ZM127.898 283.356C127.69 283.356 127.514 283.284 127.37 283.14C127.226 282.996 127.154 282.82 127.154 282.612C127.154 282.404 127.226 282.228 127.37 282.084C127.514 281.94 127.69 281.868 127.898 281.868C128.098 281.868 128.266 281.94 128.402 282.084C128.546 282.228 128.618 282.404 128.618 282.612C128.618 282.82 128.546 282.996 128.402 283.14C128.266 283.284 128.098 283.356 127.898 283.356ZM128.426 284.424V291H127.334V284.424H128.426ZM138.195 284.304C138.707 284.304 139.163 284.412 139.563 284.628C139.963 284.836 140.279 285.152 140.511 285.576C140.743 286 140.859 286.516 140.859 287.124V291H139.779V287.28C139.779 286.624 139.615 286.124 139.287 285.78C138.967 285.428 138.531 285.252 137.979 285.252C137.411 285.252 136.959 285.436 136.623 285.804C136.287 286.164 136.119 286.688 136.119 287.376V291H135.039V287.28C135.039 286.624 134.875 286.124 134.547 285.78C134.227 285.428 133.791 285.252 133.239 285.252C132.671 285.252 132.219 285.436 131.883 285.804C131.547 286.164 131.379 286.688 131.379 287.376V291H130.287V284.424H131.379V285.372C131.595 285.028 131.883 284.764 132.243 284.58C132.611 284.396 133.015 284.304 133.455 284.304C134.007 284.304 134.495 284.428 134.919 284.676C135.343 284.924 135.659 285.288 135.867 285.768C136.051 285.304 136.355 284.944 136.779 284.688C137.203 284.432 137.675 284.304 138.195 284.304ZM148.483 284.424V291H147.391V290.028C147.183 290.364 146.891 290.628 146.515 290.82C146.147 291.004 145.739 291.096 145.291 291.096C144.779 291.096 144.319 290.992 143.911 290.784C143.503 290.568 143.179 290.248 142.939 289.824C142.707 289.4 142.591 288.884 142.591 288.276V284.424H143.671V288.132C143.671 288.78 143.835 289.28 144.163 289.632C144.491 289.976 144.939 290.148 145.507 290.148C146.091 290.148 146.551 289.968 146.887 289.608C147.223 289.248 147.391 288.724 147.391 288.036V284.424H148.483Z" fill="black"/>
<path d="M98.448 327.66V333.672C98.448 334.416 98.22 335.004 97.764 335.436C97.316 335.868 96.724 336.084 95.988 336.084C95.252 336.084 94.656 335.868 94.2 335.436C93.752 335.004 93.528 334.416 93.528 333.672H94.908C94.916 334.04 95.008 334.332 95.184 334.548C95.368 334.764 95.636 334.872 95.988 334.872C96.34 334.872 96.608 334.764 96.792 334.548C96.976 334.324 97.068 334.032 97.068 333.672V327.66H98.448ZM102.041 327.12V336H100.673V327.12H102.041ZM104.39 336.084C104.142 336.084 103.934 336 103.766 335.832C103.598 335.664 103.514 335.456 103.514 335.208C103.514 334.96 103.598 334.752 103.766 334.584C103.934 334.416 104.142 334.332 104.39 334.332C104.63 334.332 104.834 334.416 105.002 334.584C105.17 334.752 105.254 334.96 105.254 335.208C105.254 335.456 105.17 335.664 105.002 335.832C104.834 336 104.63 336.084 104.39 336.084ZM109.393 331.812C109.393 330.996 109.581 330.264 109.957 329.616C110.341 328.968 110.857 328.464 111.505 328.104C112.161 327.736 112.877 327.552 113.653 327.552C114.541 327.552 115.329 327.772 116.017 328.212C116.713 328.644 117.217 329.26 117.529 330.06H115.885C115.669 329.62 115.369 329.292 114.985 329.076C114.601 328.86 114.157 328.752 113.653 328.752C113.101 328.752 112.609 328.876 112.177 329.124C111.745 329.372 111.405 329.728 111.157 330.192C110.917 330.656 110.797 331.196 110.797 331.812C110.797 332.428 110.917 332.968 111.157 333.432C111.405 333.896 111.745 334.256 112.177 334.512C112.609 334.76 113.101 334.884 113.653 334.884C114.157 334.884 114.601 334.776 114.985 334.56C115.369 334.344 115.669 334.016 115.885 333.576H117.529C117.217 334.376 116.713 334.992 116.017 335.424C115.329 335.856 114.541 336.072 113.653 336.072C112.869 336.072 112.153 335.892 111.505 335.532C110.857 335.164 110.341 334.656 109.957 334.008C109.581 333.36 109.393 332.628 109.393 331.812ZM119.826 328.512C119.578 328.512 119.37 328.428 119.202 328.26C119.034 328.092 118.95 327.884 118.95 327.636C118.95 327.388 119.034 327.18 119.202 327.012C119.37 326.844 119.578 326.76 119.826 326.76C120.066 326.76 120.27 326.844 120.438 327.012C120.606 327.18 120.69 327.388 120.69 327.636C120.69 327.884 120.606 328.092 120.438 328.26C120.27 328.428 120.066 328.512 119.826 328.512ZM120.498 329.388V336H119.13V329.388H120.498ZM125.715 329.28C126.219 329.28 126.667 329.388 127.059 329.604C127.459 329.82 127.771 330.14 127.995 330.564C128.227 330.988 128.343 331.5 128.343 332.1V336H126.987V332.304C126.987 331.712 126.839 331.26 126.543 330.948C126.247 330.628 125.843 330.468 125.331 330.468C124.819 330.468 124.411 330.628 124.107 330.948C123.811 331.26 123.663 331.712 123.663 332.304V336H122.295V327.12H123.663V330.156C123.895 329.876 124.187 329.66 124.539 329.508C124.899 329.356 125.291 329.28 125.715 329.28ZM136.076 329.388V336H134.708V335.22C134.492 335.492 134.208 335.708 133.856 335.868C133.512 336.02 133.144 336.096 132.752 336.096C132.232 336.096 131.764 335.988 131.348 335.772C130.94 335.556 130.616 335.236 130.376 334.812C130.144 334.388 130.028 333.876 130.028 333.276V329.388H131.384V333.072C131.384 333.664 131.532 334.12 131.828 334.44C132.124 334.752 132.528 334.908 133.04 334.908C133.552 334.908 133.956 334.752 134.252 334.44C134.556 334.12 134.708 333.664 134.708 333.072V329.388H136.076ZM143.832 329.388L139.776 339.108H138.36L139.704 335.892L137.1 329.388H138.624L140.484 334.428L142.416 329.388H143.832ZM146.365 334.356L144.913 337.668H144.025L144.877 334.356H146.365ZM155.009 336L153.089 332.664H152.045V336H150.677V327.66H153.557C154.197 327.66 154.737 327.772 155.177 327.996C155.625 328.22 155.957 328.52 156.173 328.896C156.397 329.272 156.509 329.692 156.509 330.156C156.509 330.7 156.349 331.196 156.029 331.644C155.717 332.084 155.233 332.384 154.577 332.544L156.641 336H155.009ZM152.045 331.572H153.557C154.069 331.572 154.453 331.444 154.709 331.188C154.973 330.932 155.105 330.588 155.105 330.156C155.105 329.724 154.977 329.388 154.721 329.148C154.465 328.9 154.077 328.776 153.557 328.776H152.045V331.572ZM163.647 327.66V328.776H161.427V336H160.059V328.776H157.827V327.66H163.647ZM165.585 336.084C165.337 336.084 165.129 336 164.961 335.832C164.793 335.664 164.709 335.456 164.709 335.208C164.709 334.96 164.793 334.752 164.961 334.584C165.129 334.416 165.337 334.332 165.585 334.332C165.825 334.332 166.029 334.416 166.197 334.584C166.365 334.752 166.449 334.96 166.449 335.208C166.449 335.456 166.365 335.664 166.197 335.832C166.029 336 165.825 336.084 165.585 336.084ZM167.579 334.176V333.144L171.611 327.36H173.267V332.988H174.383V334.176H173.267V336H171.923V334.176H167.579ZM171.983 328.752L169.151 332.988H171.983V328.752ZM175.493 329.412C175.541 328.668 175.825 328.088 176.345 327.672C176.873 327.256 177.545 327.048 178.361 327.048C178.921 327.048 179.405 327.148 179.813 327.348C180.221 327.548 180.529 327.82 180.737 328.164C180.945 328.508 181.049 328.896 181.049 329.328C181.049 329.824 180.917 330.248 180.653 330.6C180.389 330.952 180.073 331.188 179.705 331.308V331.356C180.177 331.5 180.545 331.764 180.809 332.148C181.073 332.524 181.205 333.008 181.205 333.6C181.205 334.072 181.097 334.492 180.881 334.86C180.665 335.228 180.345 335.52 179.921 335.736C179.497 335.944 178.989 336.048 178.397 336.048C177.533 336.048 176.821 335.828 176.261 335.388C175.709 334.94 175.413 334.3 175.373 333.468H176.693C176.725 333.892 176.889 334.24 177.185 334.512C177.481 334.776 177.881 334.908 178.385 334.908C178.873 334.908 179.249 334.776 179.513 334.512C179.777 334.24 179.909 333.892 179.909 333.468C179.909 332.908 179.729 332.512 179.369 332.28C179.017 332.04 178.473 331.92 177.737 331.92H177.425V330.792H177.749C178.397 330.784 178.889 330.676 179.225 330.468C179.569 330.26 179.741 329.932 179.741 329.484C179.741 329.1 179.617 328.796 179.369 328.572C179.121 328.34 178.769 328.224 178.313 328.224C177.865 328.224 177.517 328.34 177.269 328.572C177.021 328.796 176.873 329.076 176.825 329.412H175.493ZM187.262 324.672L183.998 338.1H182.654L185.906 324.672H187.262ZM193.318 336L191.398 332.664H190.354V336H188.986V327.66H191.866C192.506 327.66 193.046 327.772 193.486 327.996C193.934 328.22 194.266 328.52 194.482 328.896C194.706 329.272 194.818 329.692 194.818 330.156C194.818 330.7 194.658 331.196 194.338 331.644C194.026 332.084 193.542 332.384 192.886 332.544L194.95 336H193.318ZM190.354 331.572H191.866C192.378 331.572 192.762 331.444 193.018 331.188C193.282 330.932 193.414 330.588 193.414 330.156C193.414 329.724 193.286 329.388 193.03 329.148C192.774 328.9 192.386 328.776 191.866 328.776H190.354V331.572ZM207.428 327.66L204.956 336H203.408L201.656 329.688L199.796 336L198.26 336.012L195.896 327.66H197.348L199.076 334.452L200.948 327.66H202.484L204.224 334.416L205.964 327.66H207.428ZM209.852 331.428C209.02 331.012 208.604 330.356 208.604 329.46C208.604 329.028 208.712 328.632 208.928 328.272C209.144 327.912 209.468 327.628 209.9 327.42C210.332 327.204 210.86 327.096 211.484 327.096C212.1 327.096 212.624 327.204 213.056 327.42C213.496 327.628 213.824 327.912 214.04 328.272C214.256 328.632 214.364 329.028 214.364 329.46C214.364 329.908 214.248 330.304 214.016 330.648C213.792 330.984 213.492 331.244 213.116 331.428C213.572 331.596 213.932 331.872 214.196 332.256C214.46 332.632 214.592 333.076 214.592 333.588C214.592 334.108 214.46 334.568 214.196 334.968C213.932 335.368 213.564 335.676 213.092 335.892C212.62 336.108 212.084 336.216 211.484 336.216C210.884 336.216 210.348 336.108 209.876 335.892C209.412 335.676 209.048 335.368 208.784 334.968C208.52 334.568 208.388 334.108 208.388 333.588C208.388 333.068 208.52 332.62 208.784 332.244C209.048 331.868 209.404 331.596 209.852 331.428ZM213.056 329.628C213.056 329.18 212.916 328.836 212.636 328.596C212.356 328.356 211.972 328.236 211.484 328.236C211.004 328.236 210.624 328.356 210.344 328.596C210.064 328.836 209.924 329.184 209.924 329.64C209.924 330.04 210.068 330.368 210.356 330.624C210.652 330.872 211.028 330.996 211.484 330.996C211.94 330.996 212.316 330.868 212.612 330.612C212.908 330.356 213.056 330.028 213.056 329.628ZM211.484 332.028C210.956 332.028 210.524 332.16 210.188 332.424C209.86 332.68 209.696 333.052 209.696 333.54C209.696 333.996 209.856 334.368 210.176 334.656C210.496 334.936 210.932 335.076 211.484 335.076C212.028 335.076 212.456 334.932 212.768 334.644C213.088 334.356 213.248 333.988 213.248 333.54C213.248 333.06 213.084 332.688 212.756 332.424C212.436 332.16 212.012 332.028 211.484 332.028ZM216.785 334.14C217.553 333.476 218.157 332.932 218.597 332.508C219.045 332.076 219.417 331.628 219.713 331.164C220.009 330.7 220.157 330.236 220.157 329.772C220.157 329.292 220.041 328.916 219.809 328.644C219.585 328.372 219.229 328.236 218.741 328.236C218.269 328.236 217.901 328.388 217.637 328.692C217.381 328.988 217.245 329.388 217.229 329.892H215.909C215.933 328.98 216.205 328.284 216.725 327.804C217.253 327.316 217.921 327.072 218.729 327.072C219.601 327.072 220.281 327.312 220.769 327.792C221.265 328.272 221.513 328.912 221.513 329.712C221.513 330.288 221.365 330.844 221.069 331.38C220.781 331.908 220.433 332.384 220.025 332.808C219.625 333.224 219.113 333.708 218.489 334.26L217.949 334.74H221.753V335.88H215.921V334.884L216.785 334.14ZM224.634 334.356L223.182 337.668H222.294L223.146 334.356H224.634ZM231.695 336.084C231.135 336.084 230.631 335.988 230.183 335.796C229.735 335.596 229.383 335.316 229.127 334.956C228.871 334.596 228.743 334.176 228.743 333.696H230.207C230.239 334.056 230.379 334.352 230.627 334.584C230.883 334.816 231.239 334.932 231.695 334.932C232.167 334.932 232.535 334.82 232.799 334.596C233.063 334.364 233.195 334.068 233.195 333.708C233.195 333.428 233.111 333.2 232.943 333.024C232.783 332.848 232.579 332.712 232.331 332.616C232.091 332.52 231.755 332.416 231.323 332.304C230.779 332.16 230.335 332.016 229.991 331.872C229.655 331.72 229.367 331.488 229.127 331.176C228.887 330.864 228.767 330.448 228.767 329.928C228.767 329.448 228.887 329.028 229.127 328.668C229.367 328.308 229.703 328.032 230.135 327.84C230.567 327.648 231.067 327.552 231.635 327.552C232.443 327.552 233.103 327.756 233.615 328.164C234.135 328.564 234.423 329.116 234.479 329.82H232.967C232.943 329.516 232.799 329.256 232.535 329.04C232.271 328.824 231.923 328.716 231.491 328.716C231.099 328.716 230.779 328.816 230.531 329.016C230.283 329.216 230.159 329.504 230.159 329.88C230.159 330.136 230.235 330.348 230.387 330.516C230.547 330.676 230.747 330.804 230.987 330.9C231.227 330.996 231.555 331.1 231.971 331.212C232.523 331.364 232.971 331.516 233.315 331.668C233.667 331.82 233.963 332.056 234.203 332.376C234.451 332.688 234.575 333.108 234.575 333.636C234.575 334.06 234.459 334.46 234.227 334.836C234.003 335.212 233.671 335.516 233.231 335.748C232.799 335.972 232.287 336.084 231.695 336.084ZM242.249 332.532C242.249 332.78 242.233 333.004 242.201 333.204H237.149C237.189 333.732 237.385 334.156 237.737 334.476C238.089 334.796 238.521 334.956 239.033 334.956C239.769 334.956 240.289 334.648 240.593 334.032H242.069C241.869 334.64 241.505 335.14 240.977 335.532C240.457 335.916 239.809 336.108 239.033 336.108C238.401 336.108 237.833 335.968 237.329 335.688C236.833 335.4 236.441 335 236.153 334.488C235.873 333.968 235.733 333.368 235.733 332.688C235.733 332.008 235.869 331.412 236.141 330.9C236.421 330.38 236.809 329.98 237.305 329.7C237.809 329.42 238.385 329.28 239.033 329.28C239.657 329.28 240.213 329.416 240.701 329.688C241.189 329.96 241.569 330.344 241.841 330.84C242.113 331.328 242.249 331.892 242.249 332.532ZM240.821 332.1C240.813 331.596 240.633 331.192 240.281 330.888C239.929 330.584 239.493 330.432 238.973 330.432C238.501 330.432 238.097 330.584 237.761 330.888C237.425 331.184 237.225 331.588 237.161 332.1H240.821ZM246.259 329.28C246.771 329.28 247.223 329.384 247.615 329.592C248.015 329.792 248.327 330.044 248.551 330.348V329.388H249.931V336.108C249.931 336.716 249.803 337.256 249.547 337.728C249.291 338.208 248.919 338.584 248.431 338.856C247.951 339.128 247.375 339.264 246.703 339.264C245.807 339.264 245.063 339.052 244.471 338.628C243.879 338.212 243.543 337.644 243.463 336.924H244.819C244.923 337.268 245.143 337.544 245.479 337.752C245.823 337.968 246.231 338.076 246.703 338.076C247.255 338.076 247.699 337.908 248.035 337.572C248.379 337.236 248.551 336.748 248.551 336.108V335.004C248.319 335.316 248.003 335.58 247.603 335.796C247.211 336.004 246.763 336.108 246.259 336.108C245.683 336.108 245.155 335.964 244.675 335.676C244.203 335.38 243.827 334.972 243.547 334.452C243.275 333.924 243.139 333.328 243.139 332.664C243.139 332 243.275 331.412 243.547 330.9C243.827 330.388 244.203 329.992 244.675 329.712C245.155 329.424 245.683 329.28 246.259 329.28ZM248.551 332.688C248.551 332.232 248.455 331.836 248.263 331.5C248.079 331.164 247.835 330.908 247.531 330.732C247.227 330.556 246.899 330.468 246.547 330.468C246.195 330.468 245.867 330.556 245.563 330.732C245.259 330.9 245.011 331.152 244.819 331.488C244.635 331.816 244.543 332.208 244.543 332.664C244.543 333.12 244.635 333.52 244.819 333.864C245.011 334.208 245.259 334.472 245.563 334.656C245.875 334.832 246.203 334.92 246.547 334.92C246.899 334.92 247.227 334.832 247.531 334.656C247.835 334.48 248.079 334.224 248.263 333.888C248.455 333.544 248.551 333.144 248.551 332.688ZM257.716 329.388V336H256.348V335.22C256.132 335.492 255.848 335.708 255.496 335.868C255.152 336.02 254.784 336.096 254.392 336.096C253.872 336.096 253.404 335.988 252.988 335.772C252.58 335.556 252.256 335.236 252.016 334.812C251.784 334.388 251.668 333.876 251.668 333.276V329.388H253.024V333.072C253.024 333.664 253.172 334.12 253.468 334.44C253.764 334.752 254.168 334.908 254.68 334.908C255.192 334.908 255.596 334.752 255.892 334.44C256.196 334.12 256.348 333.664 256.348 333.072V329.388H257.716ZM260.889 327.12V336H259.521V327.12H260.889ZM268.673 329.388V336H267.305V335.22C267.089 335.492 266.805 335.708 266.453 335.868C266.109 336.02 265.741 336.096 265.349 336.096C264.829 336.096 264.361 335.988 263.945 335.772C263.537 335.556 263.213 335.236 262.973 334.812C262.741 334.388 262.625 333.876 262.625 333.276V329.388H263.981V333.072C263.981 333.664 264.129 334.12 264.425 334.44C264.721 334.752 265.125 334.908 265.637 334.908C266.149 334.908 266.553 334.752 266.849 334.44C267.153 334.12 267.305 333.664 267.305 333.072V329.388H268.673ZM273.814 329.28C274.334 329.28 274.798 329.388 275.206 329.604C275.622 329.82 275.946 330.14 276.178 330.564C276.41 330.988 276.526 331.5 276.526 332.1V336H275.17V332.304C275.17 331.712 275.022 331.26 274.726 330.948C274.43 330.628 274.026 330.468 273.514 330.468C273.002 330.468 272.594 330.628 272.29 330.948C271.994 331.26 271.846 331.712 271.846 332.304V336H270.478V329.388H271.846V330.144C272.07 329.872 272.354 329.66 272.698 329.508C273.05 329.356 273.422 329.28 273.814 329.28ZM280.935 329.28C281.447 329.28 281.899 329.384 282.291 329.592C282.691 329.792 283.003 330.044 283.227 330.348V329.388H284.607V336.108C284.607 336.716 284.479 337.256 284.223 337.728C283.967 338.208 283.595 338.584 283.107 338.856C282.627 339.128 282.051 339.264 281.379 339.264C280.483 339.264 279.739 339.052 279.147 338.628C278.555 338.212 278.219 337.644 278.139 336.924H279.495C279.599 337.268 279.819 337.544 280.155 337.752C280.499 337.968 280.907 338.076 281.379 338.076C281.931 338.076 282.375 337.908 282.711 337.572C283.055 337.236 283.227 336.748 283.227 336.108V335.004C282.995 335.316 282.679 335.58 282.279 335.796C281.887 336.004 281.439 336.108 280.935 336.108C280.359 336.108 279.831 335.964 279.351 335.676C278.879 335.38 278.503 334.972 278.223 334.452C277.951 333.924 277.815 333.328 277.815 332.664C277.815 332 277.951 331.412 278.223 330.9C278.503 330.388 278.879 329.992 279.351 329.712C279.831 329.424 280.359 329.28 280.935 329.28ZM283.227 332.688C283.227 332.232 283.131 331.836 282.939 331.5C282.755 331.164 282.511 330.908 282.207 330.732C281.903 330.556 281.575 330.468 281.223 330.468C280.871 330.468 280.543 330.556 280.239 330.732C279.935 330.9 279.687 331.152 279.495 331.488C279.311 331.816 279.219 332.208 279.219 332.664C279.219 333.12 279.311 333.52 279.495 333.864C279.687 334.208 279.935 334.472 280.239 334.656C280.551 334.832 280.879 334.92 281.223 334.92C281.575 334.92 281.903 334.832 282.207 334.656C282.511 334.48 282.755 334.224 282.939 333.888C283.131 333.544 283.227 333.144 283.227 332.688ZM286.956 336.084C286.708 336.084 286.5 336 286.332 335.832C286.164 335.664 286.08 335.456 286.08 335.208C286.08 334.96 286.164 334.752 286.332 334.584C286.5 334.416 286.708 334.332 286.956 334.332C287.196 334.332 287.4 334.416 287.568 334.584C287.736 334.752 287.82 334.96 287.82 335.208C287.82 335.456 287.736 335.664 287.568 335.832C287.4 336 287.196 336.084 286.956 336.084ZM289.85 336.084C289.602 336.084 289.394 336 289.226 335.832C289.058 335.664 288.974 335.456 288.974 335.208C288.974 334.96 289.058 334.752 289.226 334.584C289.394 334.416 289.602 334.332 289.85 334.332C290.09 334.332 290.294 334.416 290.462 334.584C290.63 334.752 290.714 334.96 290.714 335.208C290.714 335.456 290.63 335.664 290.462 335.832C290.294 336 290.09 336.084 289.85 336.084ZM292.745 336.084C292.497 336.084 292.289 336 292.121 335.832C291.953 335.664 291.869 335.456 291.869 335.208C291.869 334.96 291.953 334.752 292.121 334.584C292.289 334.416 292.497 334.332 292.745 334.332C292.985 334.332 293.189 334.416 293.357 334.584C293.525 334.752 293.609 334.96 293.609 335.208C293.609 335.456 293.525 335.664 293.357 335.832C293.189 336 292.985 336.084 292.745 336.084Z" fill="black"/>
</g>
<rect opacity="0.35" x="323.449" y="8.33482" width="22.768" height="11.2033" rx="2.34908" stroke="black" stroke-width="1.08419"/>
<path opacity="0.4" d="M347.844 11.7681V16.1048C348.72 15.7375 349.289 14.8831 349.289 13.9365C349.289 12.9898 348.72 12.1354 347.844 11.7681Z" fill="black"/>
<rect x="325.076" y="9.96118" width="19.5155" height="7.95075" rx="1.44559" fill="black"/>
<path d="M306.483 16.9714C307.878 15.8162 309.921 15.816 311.316 16.9714C311.387 17.0336 311.428 17.122 311.43 17.2146C311.431 17.3071 311.394 17.3959 311.326 17.4607L309.142 19.6199C309.078 19.6832 308.99 19.7185 308.899 19.7185C308.808 19.7185 308.721 19.6833 308.657 19.6199L306.473 17.4607C306.405 17.3959 306.368 17.307 306.37 17.2146C306.372 17.122 306.413 17.0335 306.483 16.9714ZM303.586 13.866C306.581 11.0694 311.218 11.0695 314.213 13.866C314.28 13.9315 314.319 14.0216 314.32 14.116C314.321 14.2102 314.285 14.3011 314.219 14.3679L312.96 15.6443C312.83 15.7744 312.621 15.7768 312.488 15.6501C311.505 14.7562 310.225 14.2614 308.898 14.2615C307.573 14.262 306.294 14.7569 305.312 15.6501C305.179 15.777 304.969 15.7745 304.839 15.6443L303.581 14.3679C303.515 14.3011 303.478 14.2103 303.479 14.116C303.479 14.0216 303.518 13.9315 303.586 13.866ZM300.692 11.0242C305.281 6.71552 312.519 6.71534 317.107 11.0242C317.174 11.0882 317.211 11.176 317.212 11.2673C317.212 11.3586 317.176 11.4467 317.11 11.5115L315.852 12.7556C315.722 12.8832 315.511 12.8842 315.38 12.7585C313.632 11.1302 311.312 10.2226 308.9 10.2224C306.488 10.2224 304.167 11.1298 302.419 12.7585C302.287 12.8845 302.077 12.8835 301.947 12.7556L300.688 11.5115C300.623 11.4467 300.586 11.3585 300.587 11.2673C300.588 11.176 300.626 11.0881 300.692 11.0242Z" fill="black"/>
<path d="M279.178 15.3818C279.777 15.3818 280.262 15.868 280.262 16.4668V18.6348C280.262 19.2335 279.777 19.7188 279.178 19.7188H278.094C277.495 19.7187 277.01 19.2335 277.01 18.6348V16.4668C277.01 15.868 277.495 15.3819 278.094 15.3818H279.178ZM284.238 13.2139C284.837 13.2139 285.322 13.6992 285.322 14.2979V18.6348C285.322 19.2335 284.837 19.7188 284.238 19.7188H283.154C282.555 19.7187 282.07 19.2335 282.07 18.6348V14.2979C282.07 13.6992 282.555 13.2139 283.154 13.2139H284.238ZM289.297 10.6836C289.896 10.6836 290.381 11.1698 290.381 11.7686V18.6348C290.381 19.2335 289.896 19.7188 289.297 19.7188H288.213C287.615 19.7187 287.129 19.2335 287.129 18.6348V11.7686C287.129 11.1698 287.615 10.6836 288.213 10.6836H289.297ZM294.357 8.1543C294.956 8.1543 295.441 8.63959 295.441 9.23828V18.6348C295.441 19.2335 294.956 19.7188 294.357 19.7188H293.273C292.674 19.7187 292.189 19.2335 292.189 18.6348V9.23828C292.189 8.63961 292.674 8.15432 293.273 8.1543H294.357Z" fill="black"/>
<path d="M21.044 20.4602C23.9959 20.4602 25.7494 18.1518 25.7494 14.2427C25.7494 12.7707 25.4679 11.532 24.9289 10.5749C24.1487 9.08684 22.8055 8.2825 21.1083 8.2825C18.5827 8.2825 16.7971 9.97966 16.7971 12.3605C16.7971 14.5966 18.4057 16.2214 20.6177 16.2214C21.977 16.2214 23.079 15.5859 23.6259 14.484H23.65C23.65 14.484 23.6822 14.484 23.6903 14.484C23.7063 14.484 23.7627 14.484 23.7627 14.484C23.7627 17.1383 22.7572 18.7229 21.0601 18.7229C20.0627 18.7229 19.2905 18.1759 19.0251 17.2992H16.9579C17.3038 19.2055 18.9205 20.4602 21.044 20.4602ZM21.1164 14.5725C19.7812 14.5725 18.832 13.6233 18.832 12.2962C18.832 11.0012 19.8294 10.0118 21.1244 10.0118C22.4194 10.0118 23.4168 11.0173 23.4168 12.3283C23.4168 13.6233 22.4435 14.5725 21.1164 14.5725ZM29.027 18.9481C29.7911 18.9481 30.3139 18.4011 30.3139 17.6772C30.3139 16.9453 29.7911 16.4063 29.027 16.4063C28.2709 16.4063 27.74 16.9453 27.74 17.6772C27.74 18.4011 28.2709 18.9481 29.027 18.9481ZM29.027 12.9155C29.7911 12.9155 30.3139 12.3766 30.3139 11.6527C30.3139 10.9207 29.7911 10.3818 29.027 10.3818C28.2709 10.3818 27.74 10.9207 27.74 11.6527C27.74 12.3766 28.2709 12.9155 29.027 12.9155ZM32.5378 11.9664V11.9986H34.4843V11.9664C34.4843 10.784 35.3048 9.98771 36.5193 9.98771C37.6615 9.98771 38.498 10.7277 38.498 11.7492C38.498 12.5696 38.1039 13.1729 36.5193 14.7816L32.6504 18.7389V20.1787H40.7099V18.4172H35.4978V18.2805L37.9269 15.8433C39.8976 13.8968 40.533 12.8672 40.533 11.6205C40.533 9.68206 38.876 8.2825 36.5837 8.2825C34.2028 8.2825 32.5378 9.79466 32.5378 11.9664ZM43.1671 20.1787H45.3388L50.3016 10.3416V8.57206H42.226V10.3175H48.2103V10.4462L43.1671 20.1787Z" fill="black"/>
</g>
<defs>
<filter id="filter0_d_199_3746" x="21" y="383.5" width="315" height="187" filterUnits="userSpaceOnUse" color-interpolation-filters="sRGB">
<feFlood flood-opacity="0" result="BackgroundImageFix"/>
<feColorMatrix in="SourceAlpha" type="matrix" values="0 0 0 0 0 0 0 0 0 0 0 0 0 0 0 0 0 0 127 0" result="hardAlpha"/>
<feOffset dy="5.5"/>
<feGaussianBlur stdDeviation="8"/>
<feComposite in2="hardAlpha" operator="out"/>
<feColorMatrix type="matrix" values="0 0 0 0 0 0 0 0 0 0 0 0 0 0 0 0 0 0 0.1 0"/>
<feBlend mode="normal" in2="BackgroundImageFix" result="effect1_dropShadow_199_3746"/>
<feBlend mode="normal" in="SourceGraphic" in2="effect1_dropShadow_199_3746" result="shape"/>
</filter>
<filter id="filter1_d_199_3746" x="46" y="266" width="267" height="98" filterUnits="userSpaceOnUse" color-interpolation-filters="sRGB">
<feFlood flood-opacity="0" result="BackgroundImageFix"/>
<feColorMatrix in="SourceAlpha" type="matrix" values="0 0 0 0 0 0 0 0 0 0 0 0 0 0 0 0 0 0 127 0" result="hardAlpha"/>
<feOffset dy="7"/>
<feGaussianBlur stdDeviation="2.5"/>
<feComposite in2="hardAlpha" operator="out"/>
<feColorMatrix type="matrix" values="0 0 0 0 0 0 0 0 0 0 0 0 0 0 0 0 0 0 0.1 0"/>
<feBlend mode="normal" in2="BackgroundImageFix" result="effect1_dropShadow_199_3746"/>
<feBlend mode="normal" in="SourceGraphic" in2="effect1_dropShadow_199_3746" result="shape"/>
</filter>
<clipPath id="clip0_199_3746">
<rect width="360" height="800" fill="white"/>
</clipPath>
</defs>
</svg>
