<svg width="360" height="800" viewBox="0 0 360 800" fill="none" xmlns="http://www.w3.org/2000/svg">
<g clip-path="url(#clip0_255_4051)">
<rect width="360" height="800" fill="white"/>
<rect width="360" height="800" fill="#E6F8E8"/>
<g filter="url(#filter0_d_255_4051)">
<rect x="21" y="196" width="319" height="396" rx="17.3471" fill="white" shape-rendering="crispEdges"/>
<path d="M102.44 254.347V238.577H108.662C109.858 238.577 110.877 238.805 111.719 239.262C112.561 239.714 113.203 240.343 113.644 241.149C114.091 241.95 114.314 242.874 114.314 243.921C114.314 244.968 114.088 245.892 113.636 246.693C113.185 247.494 112.53 248.117 111.673 248.564C110.821 249.011 109.789 249.234 108.577 249.234H104.612V246.562H108.038C108.68 246.562 109.209 246.452 109.624 246.231C110.045 246.005 110.359 245.694 110.564 245.299C110.774 244.899 110.88 244.439 110.88 243.921C110.88 243.397 110.774 242.94 110.564 242.55C110.359 242.155 110.045 241.849 109.624 241.634C109.204 241.413 108.67 241.303 108.023 241.303H105.774V254.347H102.44ZM119.473 254.57C118.718 254.57 118.046 254.439 117.456 254.178C116.865 253.911 116.398 253.518 116.054 252.999C115.715 252.476 115.546 251.824 115.546 251.044C115.546 250.386 115.667 249.835 115.908 249.388C116.149 248.941 116.478 248.582 116.893 248.31C117.309 248.038 117.782 247.833 118.31 247.694C118.844 247.555 119.404 247.458 119.989 247.401C120.677 247.329 121.231 247.263 121.652 247.201C122.073 247.134 122.379 247.037 122.569 246.908C122.758 246.78 122.853 246.59 122.853 246.339V246.292C122.853 245.805 122.699 245.427 122.391 245.161C122.089 244.894 121.657 244.76 121.098 244.76C120.507 244.76 120.038 244.891 119.689 245.153C119.34 245.41 119.109 245.733 118.996 246.123L115.962 245.877C116.116 245.158 116.419 244.537 116.87 244.013C117.322 243.484 117.905 243.079 118.618 242.797C119.337 242.509 120.169 242.365 121.113 242.365C121.77 242.365 122.399 242.442 123 242.596C123.606 242.75 124.142 242.989 124.609 243.312C125.081 243.636 125.454 244.052 125.726 244.56C125.998 245.063 126.134 245.666 126.134 246.369V254.347H123.023V252.707H122.93C122.741 253.076 122.486 253.402 122.168 253.685C121.85 253.962 121.467 254.18 121.021 254.339C120.574 254.493 120.058 254.57 119.473 254.57ZM120.412 252.306C120.895 252.306 121.321 252.211 121.691 252.021C122.06 251.826 122.35 251.565 122.561 251.236C122.771 250.907 122.877 250.535 122.877 250.119V248.864C122.774 248.931 122.633 248.993 122.453 249.049C122.279 249.1 122.081 249.149 121.86 249.195C121.639 249.237 121.419 249.275 121.198 249.311C120.977 249.342 120.777 249.37 120.597 249.396C120.212 249.452 119.876 249.542 119.589 249.665C119.301 249.788 119.078 249.955 118.919 250.166C118.76 250.371 118.68 250.628 118.68 250.936C118.68 251.382 118.842 251.724 119.165 251.96C119.494 252.191 119.909 252.306 120.412 252.306ZM138.52 245.892L135.516 246.077C135.465 245.82 135.355 245.589 135.185 245.384C135.016 245.173 134.793 245.007 134.515 244.883C134.243 244.755 133.917 244.691 133.538 244.691C133.029 244.691 132.601 244.799 132.252 245.014C131.903 245.225 131.728 245.507 131.728 245.861C131.728 246.144 131.841 246.382 132.067 246.577C132.293 246.772 132.68 246.929 133.23 247.047L135.37 247.478C136.52 247.714 137.377 248.094 137.942 248.618C138.507 249.142 138.789 249.829 138.789 250.682C138.789 251.457 138.561 252.137 138.104 252.722C137.652 253.307 137.031 253.764 136.24 254.093C135.455 254.416 134.549 254.578 133.522 254.578C131.956 254.578 130.709 254.252 129.78 253.6C128.856 252.943 128.314 252.05 128.155 250.92L131.381 250.751C131.479 251.228 131.715 251.593 132.09 251.844C132.465 252.091 132.945 252.214 133.53 252.214C134.105 252.214 134.567 252.104 134.916 251.883C135.27 251.657 135.45 251.367 135.455 251.013C135.45 250.715 135.324 250.471 135.078 250.281C134.831 250.086 134.451 249.937 133.938 249.835L131.89 249.426C130.735 249.195 129.875 248.795 129.31 248.225C128.751 247.655 128.471 246.929 128.471 246.046C128.471 245.286 128.676 244.632 129.087 244.083C129.503 243.533 130.085 243.11 130.835 242.812C131.589 242.514 132.472 242.365 133.484 242.365C134.977 242.365 136.153 242.681 137.01 243.312C137.873 243.944 138.376 244.804 138.52 245.892ZM150.696 245.892L147.692 246.077C147.641 245.82 147.531 245.589 147.361 245.384C147.192 245.173 146.969 245.007 146.691 244.883C146.419 244.755 146.093 244.691 145.714 244.691C145.205 244.691 144.777 244.799 144.428 245.014C144.079 245.225 143.904 245.507 143.904 245.861C143.904 246.144 144.017 246.382 144.243 246.577C144.469 246.772 144.856 246.929 145.406 247.047L147.546 247.478C148.696 247.714 149.553 248.094 150.118 248.618C150.683 249.142 150.965 249.829 150.965 250.682C150.965 251.457 150.737 252.137 150.28 252.722C149.828 253.307 149.207 253.764 148.416 254.093C147.631 254.416 146.725 254.578 145.698 254.578C144.132 254.578 142.885 254.252 141.956 253.6C141.032 252.943 140.49 252.05 140.331 250.92L143.557 250.751C143.655 251.228 143.891 251.593 144.266 251.844C144.641 252.091 145.121 252.214 145.706 252.214C146.281 252.214 146.743 252.104 147.092 251.883C147.446 251.657 147.626 251.367 147.631 251.013C147.626 250.715 147.5 250.471 147.254 250.281C147.007 250.086 146.627 249.937 146.114 249.835L144.066 249.426C142.911 249.195 142.051 248.795 141.486 248.225C140.927 247.655 140.647 246.929 140.647 246.046C140.647 245.286 140.852 244.632 141.263 244.083C141.679 243.533 142.261 243.11 143.011 242.812C143.765 242.514 144.648 242.365 145.66 242.365C147.153 242.365 148.329 242.681 149.186 243.312C150.049 243.944 150.552 244.804 150.696 245.892ZM155.364 254.347L152.145 242.519H155.464L157.297 250.466H157.404L159.314 242.519H162.571L164.512 250.42H164.612L166.414 242.519H169.725L166.514 254.347H163.041L161.008 246.908H160.862L158.829 254.347H155.364ZM176.522 254.578C175.326 254.578 174.292 254.324 173.419 253.816C172.551 253.302 171.881 252.589 171.409 251.675C170.937 250.756 170.701 249.691 170.701 248.479C170.701 247.258 170.937 246.19 171.409 245.276C171.881 244.357 172.551 243.644 173.419 243.135C174.292 242.622 175.326 242.365 176.522 242.365C177.718 242.365 178.75 242.622 179.618 243.135C180.49 243.644 181.163 244.357 181.635 245.276C182.107 246.19 182.344 247.258 182.344 248.479C182.344 249.691 182.107 250.756 181.635 251.675C181.163 252.589 180.49 253.302 179.618 253.816C178.75 254.324 177.718 254.578 176.522 254.578ZM176.538 252.037C177.082 252.037 177.536 251.883 177.901 251.575C178.265 251.262 178.54 250.836 178.724 250.297C178.914 249.758 179.009 249.144 179.009 248.456C179.009 247.768 178.914 247.155 178.724 246.616C178.54 246.077 178.265 245.651 177.901 245.338C177.536 245.025 177.082 244.868 176.538 244.868C175.988 244.868 175.526 245.025 175.152 245.338C174.782 245.651 174.502 246.077 174.312 246.616C174.127 247.155 174.035 247.768 174.035 248.456C174.035 249.144 174.127 249.758 174.312 250.297C174.502 250.836 174.782 251.262 175.152 251.575C175.526 251.883 175.988 252.037 176.538 252.037ZM184.476 254.347V242.519H187.657V244.583H187.78C187.996 243.849 188.357 243.295 188.866 242.92C189.374 242.54 189.959 242.35 190.621 242.35C190.786 242.35 190.963 242.36 191.153 242.381C191.343 242.401 191.509 242.43 191.653 242.465V245.376C191.499 245.33 191.286 245.289 191.014 245.253C190.742 245.217 190.493 245.199 190.267 245.199C189.785 245.199 189.353 245.304 188.973 245.515C188.599 245.72 188.301 246.008 188.08 246.377C187.865 246.747 187.757 247.173 187.757 247.655V254.347H184.476ZM197.157 254.539C196.258 254.539 195.445 254.308 194.716 253.846C193.992 253.379 193.417 252.694 192.991 251.79C192.57 250.882 192.36 249.768 192.36 248.449C192.36 247.093 192.578 245.967 193.014 245.068C193.45 244.165 194.031 243.49 194.754 243.043C195.483 242.591 196.282 242.365 197.149 242.365C197.811 242.365 198.363 242.478 198.805 242.704C199.251 242.925 199.611 243.202 199.883 243.536C200.16 243.864 200.37 244.188 200.514 244.506H200.614V238.577H203.887V254.347H200.653V252.453H200.514C200.36 252.781 200.142 253.107 199.86 253.431C199.582 253.749 199.221 254.013 198.774 254.224C198.332 254.434 197.793 254.539 197.157 254.539ZM198.196 251.929C198.725 251.929 199.172 251.785 199.536 251.498C199.906 251.205 200.188 250.797 200.383 250.274C200.583 249.75 200.684 249.136 200.684 248.433C200.684 247.73 200.586 247.119 200.391 246.6C200.196 246.082 199.914 245.682 199.544 245.399C199.174 245.117 198.725 244.976 198.196 244.976C197.657 244.976 197.203 245.122 196.833 245.415C196.464 245.707 196.184 246.113 195.994 246.631C195.804 247.15 195.709 247.75 195.709 248.433C195.709 249.121 195.804 249.729 195.994 250.258C196.189 250.782 196.469 251.192 196.833 251.49C197.203 251.783 197.657 251.929 198.196 251.929ZM211.664 254.347V238.577H217.978C219.138 238.577 220.106 238.749 220.881 239.093C221.656 239.437 222.239 239.914 222.629 240.525C223.019 241.131 223.214 241.829 223.214 242.619C223.214 243.235 223.091 243.777 222.845 244.244C222.598 244.706 222.26 245.086 221.828 245.384C221.402 245.676 220.915 245.884 220.365 246.008V246.162C220.966 246.187 221.528 246.357 222.052 246.67C222.58 246.983 223.009 247.422 223.338 247.987C223.666 248.546 223.83 249.213 223.83 249.989C223.83 250.825 223.623 251.572 223.207 252.229C222.796 252.881 222.188 253.397 221.382 253.777C220.576 254.157 219.582 254.347 218.402 254.347H211.664ZM214.998 251.621H217.716C218.646 251.621 219.323 251.444 219.749 251.09C220.175 250.73 220.388 250.253 220.388 249.657C220.388 249.221 220.283 248.836 220.073 248.502C219.862 248.169 219.562 247.907 219.172 247.717C218.787 247.527 218.327 247.432 217.793 247.432H214.998V251.621ZM214.998 245.176H217.47C217.927 245.176 218.332 245.096 218.687 244.937C219.046 244.773 219.328 244.542 219.534 244.244C219.744 243.946 219.849 243.59 219.849 243.174C219.849 242.604 219.647 242.145 219.241 241.796C218.841 241.446 218.271 241.272 217.532 241.272H214.998V245.176ZM229.311 254.57C228.556 254.57 227.884 254.439 227.294 254.178C226.703 253.911 226.236 253.518 225.892 252.999C225.553 252.476 225.384 251.824 225.384 251.044C225.384 250.386 225.505 249.835 225.746 249.388C225.987 248.941 226.316 248.582 226.732 248.31C227.147 248.038 227.62 247.833 228.148 247.694C228.682 247.555 229.242 247.458 229.827 247.401C230.515 247.329 231.069 247.263 231.49 247.201C231.911 247.134 232.217 247.037 232.407 246.908C232.597 246.78 232.691 246.59 232.691 246.339V246.292C232.691 245.805 232.537 245.427 232.229 245.161C231.927 244.894 231.495 244.76 230.936 244.76C230.345 244.76 229.876 244.891 229.527 245.153C229.178 245.41 228.947 245.733 228.834 246.123L225.8 245.877C225.954 245.158 226.257 244.537 226.708 244.013C227.16 243.484 227.743 243.079 228.456 242.797C229.175 242.509 230.007 242.365 230.951 242.365C231.608 242.365 232.237 242.442 232.838 242.596C233.444 242.75 233.98 242.989 234.447 243.312C234.919 243.636 235.292 244.052 235.564 244.56C235.836 245.063 235.972 245.666 235.972 246.369V254.347H232.861V252.707H232.769C232.579 253.076 232.324 253.402 232.006 253.685C231.688 253.962 231.305 254.18 230.859 254.339C230.412 254.493 229.896 254.57 229.311 254.57ZM230.251 252.306C230.733 252.306 231.159 252.211 231.529 252.021C231.898 251.826 232.188 251.565 232.399 251.236C232.609 250.907 232.715 250.535 232.715 250.119V248.864C232.612 248.931 232.471 248.993 232.291 249.049C232.117 249.1 231.919 249.149 231.698 249.195C231.477 249.237 231.257 249.275 231.036 249.311C230.815 249.342 230.615 249.37 230.435 249.396C230.05 249.452 229.714 249.542 229.427 249.665C229.139 249.788 228.916 249.955 228.757 250.166C228.598 250.371 228.518 250.628 228.518 250.936C228.518 251.382 228.68 251.724 229.003 251.96C229.332 252.191 229.747 252.306 230.251 252.306ZM238.517 254.347V242.519H241.697V244.583H241.82C242.036 243.849 242.398 243.295 242.906 242.92C243.414 242.54 243.999 242.35 244.662 242.35C244.826 242.35 245.003 242.36 245.193 242.381C245.383 242.401 245.55 242.43 245.693 242.465V245.376C245.539 245.33 245.326 245.289 245.054 245.253C244.782 245.217 244.533 245.199 244.307 245.199C243.825 245.199 243.394 245.304 243.014 245.515C242.639 245.72 242.341 246.008 242.12 246.377C241.905 246.747 241.797 247.173 241.797 247.655V254.347H238.517ZM254.974 249.311V242.519H258.254V254.347H255.105V252.199H254.982C254.715 252.892 254.271 253.449 253.65 253.87C253.034 254.29 252.282 254.501 251.393 254.501C250.603 254.501 249.907 254.321 249.307 253.962C248.706 253.603 248.236 253.092 247.898 252.43C247.564 251.767 247.394 250.974 247.389 250.05V242.519H250.67V249.465C250.675 250.163 250.862 250.715 251.232 251.121C251.601 251.526 252.097 251.729 252.718 251.729C253.113 251.729 253.483 251.639 253.827 251.459C254.171 251.275 254.448 251.002 254.658 250.643C254.874 250.284 254.979 249.84 254.974 249.311Z" fill="black"/>
<path d="M43.7231 313.746V304.284H47.0958C47.832 304.284 48.4418 304.418 48.9254 304.686C49.409 304.954 49.7709 305.321 50.0111 305.786C50.2514 306.248 50.3715 306.768 50.3715 307.347C50.3715 307.929 50.2498 308.453 50.0065 308.918C49.7663 309.38 49.4028 309.747 48.9162 310.018C48.4326 310.286 47.8243 310.42 47.0912 310.42H44.7719V309.209H46.9618C47.4269 309.209 47.8042 309.129 48.0938 308.969C48.3833 308.806 48.5958 308.584 48.7314 308.304C48.8669 308.023 48.9346 307.704 48.9346 307.347C48.9346 306.99 48.8669 306.673 48.7314 306.395C48.5958 306.118 48.3818 305.901 48.0892 305.744C47.7996 305.587 47.4177 305.508 46.9434 305.508H45.1507V313.746H43.7231ZM53.9359 313.903C53.4862 313.903 53.0797 313.82 52.7162 313.654C52.3528 313.484 52.0648 313.239 51.8523 312.919C51.6428 312.599 51.5381 312.206 51.5381 311.741C51.5381 311.341 51.6151 311.011 51.7691 310.752C51.9231 310.494 52.131 310.289 52.3928 310.138C52.6546 309.987 52.9472 309.873 53.2706 309.796C53.5941 309.719 53.9236 309.66 54.2594 309.62C54.6844 309.571 55.0294 309.531 55.2943 309.5C55.5592 309.466 55.7517 309.412 55.8718 309.338C55.9919 309.265 56.052 309.144 56.052 308.978V308.946C56.052 308.542 55.938 308.23 55.7101 308.008C55.4852 307.786 55.1495 307.675 54.7029 307.675C54.2378 307.675 53.8713 307.778 53.6033 307.985C53.3384 308.188 53.1551 308.414 53.0535 308.664L51.7552 308.368C51.9092 307.937 52.1341 307.589 52.4298 307.324C52.7285 307.056 53.072 306.862 53.4601 306.742C53.8482 306.619 54.2563 306.557 54.6844 306.557C54.9678 306.557 55.2681 306.591 55.5853 306.659C55.9057 306.723 56.2044 306.844 56.4816 307.019C56.7619 307.195 56.9914 307.446 57.17 307.772C57.3487 308.096 57.438 308.516 57.438 309.034V313.746H56.0889V312.776H56.0335C55.9442 312.955 55.8102 313.13 55.6315 313.303C55.4529 313.475 55.2234 313.618 54.9431 313.732C54.6628 313.846 54.3271 313.903 53.9359 313.903ZM54.2363 312.794C54.6182 312.794 54.9447 312.719 55.2157 312.568C55.4898 312.417 55.6978 312.22 55.8394 311.977C55.9842 311.73 56.0566 311.467 56.0566 311.187V310.272C56.0073 310.321 55.9118 310.367 55.7701 310.41C55.6315 310.45 55.4729 310.486 55.2943 310.517C55.1156 310.544 54.9416 310.571 54.7722 310.595C54.6028 310.617 54.4611 310.635 54.3471 310.651C54.0792 310.684 53.8343 310.741 53.6125 310.822C53.3938 310.902 53.2183 311.017 53.0858 311.168C52.9565 311.316 52.8918 311.513 52.8918 311.759C52.8918 312.101 53.0181 312.36 53.2706 312.536C53.5232 312.708 53.8451 312.794 54.2363 312.794ZM64.5958 308.382L63.3437 308.604C63.2913 308.444 63.2082 308.291 63.0942 308.146C62.9833 308.002 62.8324 307.883 62.6414 307.791C62.4505 307.698 62.2118 307.652 61.9253 307.652C61.5341 307.652 61.2077 307.74 60.9458 307.915C60.684 308.088 60.5531 308.311 60.5531 308.585C60.5531 308.823 60.6409 309.014 60.8165 309.158C60.992 309.303 61.2754 309.422 61.6666 309.514L62.7939 309.773C63.4469 309.924 63.9335 310.156 64.2539 310.47C64.5742 310.785 64.7344 311.193 64.7344 311.695C64.7344 312.12 64.6112 312.499 64.3648 312.831C64.1214 313.161 63.7811 313.42 63.3437 313.607C62.9094 313.795 62.4058 313.889 61.8329 313.889C61.0382 313.889 60.3899 313.72 59.8878 313.381C59.3858 313.039 59.0778 312.554 58.9638 311.926L60.299 311.722C60.3822 312.071 60.5531 312.334 60.8119 312.513C61.0706 312.688 61.4079 312.776 61.8237 312.776C62.2764 312.776 62.6384 312.682 62.9094 312.494C63.1805 312.303 63.316 312.071 63.316 311.796C63.316 311.575 63.2328 311.388 63.0665 311.237C62.9032 311.086 62.6522 310.972 62.3134 310.895L61.1122 310.632C60.45 310.481 59.9602 310.241 59.643 309.911C59.3288 309.582 59.1717 309.164 59.1717 308.659C59.1717 308.24 59.2888 307.874 59.5228 307.56C59.7569 307.246 60.0803 307.001 60.4931 306.825C60.9058 306.646 61.3786 306.557 61.9115 306.557C62.6784 306.557 63.2821 306.723 63.7226 307.056C64.163 307.386 64.4541 307.828 64.5958 308.382ZM71.571 308.382L70.319 308.604C70.2666 308.444 70.1834 308.291 70.0695 308.146C69.9586 308.002 69.8077 307.883 69.6167 307.791C69.4257 307.698 69.187 307.652 68.9006 307.652C68.5094 307.652 68.1829 307.74 67.9211 307.915C67.6593 308.088 67.5284 308.311 67.5284 308.585C67.5284 308.823 67.6162 309.014 67.7917 309.158C67.9673 309.303 68.2507 309.422 68.6418 309.514L69.7692 309.773C70.4221 309.924 70.9088 310.156 71.2291 310.47C71.5495 310.785 71.7096 311.193 71.7096 311.695C71.7096 312.12 71.5864 312.499 71.34 312.831C71.0967 313.161 70.7563 313.42 70.319 313.607C69.8847 313.795 69.3811 313.889 68.8082 313.889C68.0135 313.889 67.3651 313.72 66.8631 313.381C66.361 313.039 66.053 312.554 65.9391 311.926L67.2743 311.722C67.3574 312.071 67.5284 312.334 67.7871 312.513C68.0458 312.688 68.3831 312.776 68.7989 312.776C69.2517 312.776 69.6136 312.682 69.8847 312.494C70.1557 312.303 70.2912 312.071 70.2912 311.796C70.2912 311.575 70.2081 311.388 70.0417 311.237C69.8785 311.086 69.6275 310.972 69.2887 310.895L68.0874 310.632C67.4252 310.481 66.9355 310.241 66.6182 309.911C66.3041 309.582 66.147 309.164 66.147 308.659C66.147 308.24 66.264 307.874 66.4981 307.56C66.7322 307.246 67.0556 307.001 67.4683 306.825C67.8811 306.646 68.3539 306.557 68.8867 306.557C69.6537 306.557 70.2574 306.723 70.6978 307.056C71.1383 307.386 71.4293 307.828 71.571 308.382ZM74.767 313.746L72.6787 306.65H74.1063L75.497 311.861H75.5663L76.9616 306.65H78.3892L79.7752 311.838H79.8445L81.2259 306.65H82.6536L80.5699 313.746H79.1607L77.7193 308.622H77.613L76.1715 313.746H74.767ZM86.7378 313.889C86.0725 313.889 85.4919 313.737 84.996 313.432C84.5001 313.127 84.1151 312.7 83.8409 312.152C83.5668 311.604 83.4298 310.963 83.4298 310.23C83.4298 309.494 83.5668 308.85 83.8409 308.299C84.1151 307.748 84.5001 307.319 84.996 307.015C85.4919 306.71 86.0725 306.557 86.7378 306.557C87.4031 306.557 87.9837 306.71 88.4796 307.015C88.9755 307.319 89.3605 307.748 89.6346 308.299C89.9087 308.85 90.0458 309.494 90.0458 310.23C90.0458 310.963 89.9087 311.604 89.6346 312.152C89.3605 312.7 88.9755 313.127 88.4796 313.432C87.9837 313.737 87.4031 313.889 86.7378 313.889ZM86.7424 312.73C87.1736 312.73 87.5309 312.616 87.8143 312.388C88.0976 312.16 88.3071 311.856 88.4426 311.478C88.5812 311.099 88.6505 310.681 88.6505 310.226C88.6505 309.773 88.5812 309.357 88.4426 308.978C88.3071 308.596 88.0976 308.29 87.8143 308.059C87.5309 307.828 87.1736 307.712 86.7424 307.712C86.3081 307.712 85.9477 307.828 85.6613 308.059C85.3779 308.29 85.1669 308.596 85.0283 308.978C84.8928 309.357 84.825 309.773 84.825 310.226C84.825 310.681 84.8928 311.099 85.0283 311.478C85.1669 311.856 85.3779 312.16 85.6613 312.388C85.9477 312.616 86.3081 312.73 86.7424 312.73ZM91.5878 313.746V306.65H92.923V307.777H92.9969C93.1263 307.395 93.3542 307.095 93.6807 306.876C94.0103 306.654 94.3829 306.543 94.7988 306.543C94.885 306.543 94.9866 306.546 95.1037 306.553C95.2238 306.559 95.3178 306.566 95.3855 306.576V307.897C95.3301 307.882 95.2315 307.865 95.0898 307.846C94.9481 307.825 94.8065 307.814 94.6648 307.814C94.3383 307.814 94.0472 307.883 93.7916 308.022C93.539 308.157 93.3388 308.347 93.191 308.59C93.0431 308.83 92.9692 309.104 92.9692 309.412V313.746H91.5878ZM98.9835 313.885C98.4106 313.885 97.8993 313.738 97.4496 313.446C97.003 313.15 96.6518 312.73 96.3962 312.184C96.1436 311.636 96.0173 310.979 96.0173 310.212C96.0173 309.445 96.1451 308.789 96.4008 308.244C96.6595 307.698 97.0137 307.281 97.4634 306.991C97.9131 306.702 98.4229 306.557 98.9927 306.557C99.4331 306.557 99.7874 306.631 100.055 306.779C100.326 306.924 100.536 307.093 100.684 307.287C100.835 307.481 100.952 307.652 101.035 307.8H101.118V304.284H102.499V313.746H101.15V312.642H101.035C100.952 312.793 100.832 312.965 100.674 313.159C100.52 313.353 100.308 313.523 100.037 313.668C99.7658 313.812 99.4147 313.885 98.9835 313.885ZM99.2884 312.707C99.6857 312.707 100.021 312.602 100.296 312.392C100.573 312.18 100.782 311.886 100.924 311.51C101.069 311.134 101.141 310.697 101.141 310.198C101.141 309.705 101.07 309.274 100.929 308.904C100.787 308.535 100.579 308.247 100.305 308.04C100.031 307.834 99.6919 307.731 99.2884 307.731C98.8726 307.731 98.5261 307.838 98.2488 308.054C97.9716 308.27 97.7622 308.564 97.6205 308.937C97.4819 309.309 97.4126 309.73 97.4126 310.198C97.4126 310.672 97.4834 311.099 97.6251 311.478C97.7668 311.856 97.9763 312.157 98.2535 312.379C98.5338 312.597 98.8787 312.707 99.2884 312.707Z" fill="black"/>
<rect x="43.2257" y="325.962" width="274.301" height="38.5997" rx="19.2998" stroke="#808080" stroke-width="1.08419"/>
<path d="M55.6653 348.135L55.6545 346.879H55.8701L59.751 342.982H60.9638L57.1314 346.82L57.0452 346.836L55.6653 348.135ZM54.7921 351.261V340.222H55.7515V351.261H54.7921ZM59.9505 351.261L56.587 347.009L57.2769 346.346L61.1794 351.261H59.9505ZM65.0792 351.45C64.5797 351.45 64.1233 351.353 63.7101 351.159C63.2969 350.961 62.9681 350.678 62.7237 350.307C62.4793 349.934 62.3572 349.481 62.3572 348.949C62.3572 348.539 62.4344 348.194 62.5889 347.914C62.7435 347.634 62.9627 347.404 63.2465 347.224C63.5304 347.045 63.8664 346.903 64.2545 346.798C64.6426 346.694 65.0702 346.613 65.5374 346.556C66.0009 346.498 66.3926 346.448 66.7124 346.405C67.0358 346.362 67.282 346.294 67.4509 346.2C67.6198 346.107 67.7042 345.956 67.7042 345.747V345.553C67.7042 344.989 67.5353 344.545 67.1975 344.222C66.8633 343.895 66.3818 343.731 65.753 343.731C65.1565 343.731 64.6696 343.863 64.2922 344.125C63.9185 344.387 63.6562 344.696 63.5053 345.052L62.5943 344.723C62.7812 344.27 63.0399 343.909 63.3705 343.64C63.7011 343.367 64.0712 343.171 64.4809 343.052C64.8905 342.93 65.3056 342.869 65.726 342.869C66.0422 342.869 66.371 342.91 66.7124 342.993C67.0574 343.076 67.3772 343.219 67.6719 343.424C67.9665 343.625 68.2055 343.907 68.3888 344.27C68.572 344.63 68.6637 345.086 68.6637 345.64V351.261H67.7042V349.952H67.6449C67.5299 350.196 67.3592 350.433 67.1329 350.663C66.9065 350.893 66.6226 351.082 66.2812 351.229C65.9398 351.376 65.5392 351.45 65.0792 351.45ZM65.2086 350.572C65.7188 350.572 66.1608 350.458 66.5345 350.232C66.9083 350.006 67.1957 349.706 67.397 349.332C67.6018 348.954 67.7042 348.539 67.7042 348.087V346.89C67.6323 346.958 67.512 347.019 67.3431 347.073C67.1778 347.127 66.9855 347.176 66.7663 347.219C66.5507 347.258 66.3351 347.293 66.1195 347.321C65.9039 347.35 65.7099 347.375 65.5374 347.397C65.0702 347.454 64.6713 347.544 64.3408 347.666C64.0102 347.788 63.7568 347.957 63.5807 348.173C63.4047 348.385 63.3166 348.658 63.3166 348.992C63.3166 349.495 63.4963 349.885 63.8556 350.162C64.215 350.435 64.666 350.572 65.2086 350.572ZM74.477 342.982V343.818H70.526V342.982H74.477ZM71.7603 340.999H72.7251V349.1C72.7251 349.445 72.7844 349.716 72.903 349.914C73.0216 350.108 73.1761 350.246 73.3666 350.329C73.557 350.408 73.7601 350.448 73.9757 350.448C74.1014 350.448 74.2092 350.44 74.2991 350.426C74.3889 350.408 74.468 350.39 74.5362 350.372L74.7411 351.24C74.6476 351.276 74.5326 351.308 74.3961 351.337C74.2595 351.369 74.0907 351.385 73.8894 351.385C73.5373 351.385 73.1977 351.308 72.8707 351.154C72.5473 350.999 72.2814 350.769 72.0729 350.464C71.8645 350.158 71.7603 349.779 71.7603 349.326V340.999ZM78.9683 351.45C78.4688 351.45 78.0124 351.353 77.5992 351.159C77.186 350.961 76.8572 350.678 76.6128 350.307C76.3684 349.934 76.2463 349.481 76.2463 348.949C76.2463 348.539 76.3235 348.194 76.478 347.914C76.6326 347.634 76.8518 347.404 77.1356 347.224C77.4195 347.045 77.7555 346.903 78.1436 346.798C78.5317 346.694 78.9593 346.613 79.4265 346.556C79.89 346.498 80.2817 346.448 80.6015 346.405C80.9249 346.362 81.1711 346.294 81.34 346.2C81.5089 346.107 81.5933 345.956 81.5933 345.747V345.553C81.5933 344.989 81.4244 344.545 81.0866 344.222C80.7524 343.895 80.2709 343.731 79.6421 343.731C79.0456 343.731 78.5587 343.863 78.1813 344.125C77.8076 344.387 77.5453 344.696 77.3944 345.052L76.4834 344.723C76.6703 344.27 76.929 343.909 77.2596 343.64C77.5902 343.367 77.9603 343.171 78.37 343.052C78.7796 342.93 79.1947 342.869 79.6151 342.869C79.9313 342.869 80.2601 342.91 80.6015 342.993C80.9465 343.076 81.2663 343.219 81.561 343.424C81.8556 343.625 82.0946 343.907 82.2779 344.27C82.4611 344.63 82.5528 345.086 82.5528 345.64V351.261H81.5933V349.952H81.534C81.419 350.196 81.2483 350.433 81.022 350.663C80.7956 350.893 80.5117 351.082 80.1703 351.229C79.8289 351.376 79.4283 351.45 78.9683 351.45ZM79.0977 350.572C79.6079 350.572 80.0499 350.458 80.4236 350.232C80.7974 350.006 81.0848 349.706 81.2861 349.332C81.4909 348.954 81.5933 348.539 81.5933 348.087V346.89C81.5214 346.958 81.4011 347.019 81.2322 347.073C81.0669 347.127 80.8746 347.176 80.6554 347.219C80.4398 347.258 80.2242 347.293 80.0086 347.321C79.793 347.35 79.599 347.375 79.4265 347.397C78.9593 347.454 78.5604 347.544 78.2299 347.666C77.8993 347.788 77.6459 347.957 77.4698 348.173C77.2938 348.385 77.2057 348.658 77.2057 348.992C77.2057 349.495 77.3854 349.885 77.7447 350.162C78.1041 350.435 78.5551 350.572 79.0977 350.572ZM94.9367 344.799L94.0581 345.047C93.9718 344.799 93.8496 344.574 93.6915 344.373C93.5334 344.172 93.3268 344.012 93.0717 343.893C92.8201 343.775 92.5075 343.715 92.1338 343.715C91.5732 343.715 91.1132 343.848 90.7539 344.114C90.3945 344.38 90.2149 344.723 90.2149 345.144C90.2149 345.499 90.3371 345.789 90.5814 346.011C90.8294 346.231 91.2103 346.405 91.7241 346.534L92.9746 346.842C93.6682 347.01 94.1874 347.278 94.5324 347.645C94.881 348.011 95.0552 348.471 95.0552 349.025C95.0552 349.492 94.9259 349.907 94.6672 350.27C94.4084 350.633 94.0473 350.918 93.5837 351.127C93.1238 351.332 92.5901 351.434 91.9828 351.434C91.1743 351.434 90.5077 351.252 89.9831 350.89C89.4585 350.523 89.1225 349.995 88.9751 349.305L89.8969 349.078C90.0154 349.571 90.2472 349.943 90.5922 350.194C90.9408 350.446 91.3989 350.572 91.9667 350.572C92.6027 350.572 93.1112 350.43 93.4921 350.146C93.873 349.858 94.0635 349.499 94.0635 349.068C94.0635 348.733 93.9521 348.453 93.7293 348.227C93.5065 347.997 93.1687 347.828 92.7159 347.72L91.363 347.397C90.6443 347.224 90.1125 346.951 89.7675 346.577C89.4225 346.204 89.25 345.74 89.25 345.187C89.25 344.73 89.374 344.33 89.622 343.985C89.8699 343.636 90.2113 343.363 90.6461 343.165C91.0809 342.968 91.5768 342.869 92.1338 342.869C92.892 342.869 93.4975 343.041 93.9503 343.386C94.4066 343.728 94.7354 344.199 94.9367 344.799ZM99.4684 351.45C98.9689 351.45 98.5126 351.353 98.0993 351.159C97.6861 350.961 97.3573 350.678 97.1129 350.307C96.8686 349.934 96.7464 349.481 96.7464 348.949C96.7464 348.539 96.8237 348.194 96.9782 347.914C97.1327 347.634 97.3519 347.404 97.6358 347.224C97.9197 347.045 98.2557 346.903 98.6437 346.798C99.0318 346.694 99.4595 346.613 99.9266 346.556C100.39 346.498 100.782 346.448 101.102 346.405C101.425 346.362 101.671 346.294 101.84 346.2C102.009 346.107 102.093 345.956 102.093 345.747V345.553C102.093 344.989 101.925 344.545 101.587 344.222C101.253 343.895 100.771 343.731 100.142 343.731C99.5457 343.731 99.0588 343.863 98.6815 344.125C98.3078 344.387 98.0454 344.696 97.8945 345.052L96.9836 344.723C97.1704 344.27 97.4292 343.909 97.7598 343.64C98.0904 343.367 98.4605 343.171 98.8701 343.052C99.2798 342.93 99.6948 342.869 100.115 342.869C100.431 342.869 100.76 342.91 101.102 342.993C101.447 343.076 101.766 343.219 102.061 343.424C102.356 343.625 102.595 343.907 102.778 344.27C102.961 344.63 103.053 345.086 103.053 345.64V351.261H102.093V349.952H102.034C101.919 350.196 101.748 350.433 101.522 350.663C101.296 350.893 101.012 351.082 100.67 351.229C100.329 351.376 99.9284 351.45 99.4684 351.45ZM99.5978 350.572C100.108 350.572 100.55 350.458 100.924 350.232C101.297 350.006 101.585 349.706 101.786 349.332C101.991 348.954 102.093 348.539 102.093 348.087V346.89C102.022 346.958 101.901 347.019 101.732 347.073C101.567 347.127 101.375 347.176 101.156 347.219C100.94 347.258 100.724 347.293 100.509 347.321C100.293 347.35 100.099 347.375 99.9266 347.397C99.4595 347.454 99.0606 347.544 98.73 347.666C98.3994 347.788 98.1461 347.957 97.97 348.173C97.7939 348.385 97.7059 348.658 97.7059 348.992C97.7059 349.495 97.8855 349.885 98.2449 350.162C98.6042 350.435 99.0552 350.572 99.5978 350.572ZM106.565 346.087V351.261H105.605V342.982H106.538V344.281H106.624C106.818 343.857 107.12 343.518 107.529 343.262C107.943 343.004 108.453 342.874 109.06 342.874C109.617 342.874 110.106 342.991 110.526 343.225C110.95 343.455 111.279 343.794 111.513 344.243C111.75 344.693 111.869 345.244 111.869 345.898V351.261H110.909V345.958C110.909 345.278 110.719 344.741 110.338 344.346C109.96 343.951 109.454 343.753 108.818 343.753C108.383 343.753 107.997 343.846 107.659 344.033C107.321 344.22 107.053 344.49 106.856 344.842C106.662 345.19 106.565 345.605 106.565 346.087ZM117.376 351.434C116.697 351.434 116.102 351.254 115.592 350.895C115.081 350.536 114.683 350.034 114.395 349.391C114.111 348.748 113.969 347.999 113.969 347.143C113.969 346.292 114.111 345.546 114.395 344.906C114.683 344.263 115.083 343.764 115.597 343.408C116.111 343.049 116.709 342.869 117.392 342.869C117.895 342.869 118.314 342.959 118.648 343.139C118.982 343.315 119.25 343.534 119.451 343.796C119.652 344.058 119.809 344.314 119.92 344.562H120.006V340.222H120.971V351.261H120.033V349.725H119.92C119.809 349.977 119.651 350.236 119.446 350.501C119.241 350.764 118.97 350.985 118.632 351.164C118.298 351.344 117.879 351.434 117.376 351.434ZM117.489 350.555C118.025 350.555 118.481 350.41 118.858 350.119C119.236 349.824 119.523 349.42 119.721 348.906C119.922 348.389 120.022 347.796 120.022 347.127C120.022 346.466 119.924 345.882 119.726 345.375C119.528 344.865 119.241 344.466 118.864 344.179C118.486 343.888 118.028 343.742 117.489 343.742C116.936 343.742 116.469 343.893 116.088 344.195C115.71 344.493 115.423 344.897 115.225 345.408C115.031 345.918 114.934 346.491 114.934 347.127C114.934 347.77 115.033 348.351 115.231 348.868C115.428 349.386 115.716 349.797 116.093 350.103C116.474 350.404 116.939 350.555 117.489 350.555ZM123.715 351.261V342.982H124.68V351.261H123.715ZM124.205 341.559C124.008 341.559 123.839 341.493 123.699 341.36C123.558 341.223 123.488 341.06 123.488 340.869C123.488 340.679 123.558 340.517 123.699 340.384C123.839 340.248 124.008 340.179 124.205 340.179C124.403 340.179 124.572 340.248 124.712 340.384C124.852 340.517 124.922 340.679 124.922 340.869C124.922 341.06 124.852 341.223 124.712 341.36C124.572 341.493 124.403 341.559 124.205 341.559ZM131.685 351.261V340.222H132.65V344.562H132.737C132.844 344.314 132.999 344.058 133.2 343.796C133.405 343.534 133.673 343.315 134.003 343.139C134.337 342.959 134.758 342.869 135.265 342.869C135.944 342.869 136.54 343.049 137.054 343.408C137.568 343.764 137.969 344.263 138.256 344.906C138.544 345.546 138.687 346.292 138.687 347.143C138.687 347.999 138.544 348.748 138.256 349.391C137.972 350.034 137.573 350.536 137.059 350.895C136.549 351.254 135.956 351.434 135.281 351.434C134.778 351.434 134.357 351.344 134.019 351.164C133.685 350.985 133.416 350.764 133.211 350.501C133.006 350.236 132.848 349.977 132.737 349.725H132.618V351.261H131.685ZM132.634 347.127C132.634 347.796 132.733 348.389 132.931 348.906C133.132 349.42 133.419 349.824 133.793 350.119C134.17 350.41 134.627 350.555 135.162 350.555C135.712 350.555 136.177 350.404 136.558 350.103C136.939 349.797 137.228 349.386 137.426 348.868C137.624 348.351 137.722 347.77 137.722 347.127C137.722 346.491 137.624 345.918 137.426 345.408C137.232 344.897 136.944 344.493 136.564 344.195C136.183 343.893 135.715 343.742 135.162 343.742C134.623 343.742 134.165 343.888 133.788 344.179C133.414 344.466 133.128 344.865 132.931 345.375C132.733 345.882 132.634 346.466 132.634 347.127ZM143.107 351.45C142.608 351.45 142.151 351.353 141.738 351.159C141.325 350.961 140.996 350.678 140.752 350.307C140.507 349.934 140.385 349.481 140.385 348.949C140.385 348.539 140.462 348.194 140.617 347.914C140.771 347.634 140.991 347.404 141.275 347.224C141.558 347.045 141.894 346.903 142.282 346.798C142.671 346.694 143.098 346.613 143.565 346.556C144.029 346.498 144.421 346.448 144.74 346.405C145.064 346.362 145.31 346.294 145.479 346.2C145.648 346.107 145.732 345.956 145.732 345.747V345.553C145.732 344.989 145.563 344.545 145.226 344.222C144.891 343.895 144.41 343.731 143.781 343.731C143.184 343.731 142.698 343.863 142.32 344.125C141.947 344.387 141.684 344.696 141.533 345.052L140.622 344.723C140.809 344.27 141.068 343.909 141.399 343.64C141.729 343.367 142.099 343.171 142.509 343.052C142.919 342.93 143.334 342.869 143.754 342.869C144.07 342.869 144.399 342.91 144.74 342.993C145.085 343.076 145.405 343.219 145.7 343.424C145.995 343.625 146.233 343.907 146.417 344.27C146.6 344.63 146.692 345.086 146.692 345.64V351.261H145.732V349.952H145.673C145.558 350.196 145.387 350.433 145.161 350.663C144.934 350.893 144.651 351.082 144.309 351.229C143.968 351.376 143.567 351.45 143.107 351.45ZM143.237 350.572C143.747 350.572 144.189 350.458 144.563 350.232C144.936 350.006 145.224 349.706 145.425 349.332C145.63 348.954 145.732 348.539 145.732 348.087V346.89C145.66 346.958 145.54 347.019 145.371 347.073C145.206 347.127 145.014 347.176 144.794 347.219C144.579 347.258 144.363 347.293 144.147 347.321C143.932 347.35 143.738 347.375 143.565 347.397C143.098 347.454 142.699 347.544 142.369 347.666C142.038 347.788 141.785 347.957 141.609 348.173C141.433 348.385 141.345 348.658 141.345 348.992C141.345 349.495 141.524 349.885 141.884 350.162C142.243 350.435 142.694 350.572 143.237 350.572ZM149.244 351.261V342.982H150.176V344.254H150.246C150.412 343.837 150.699 343.501 151.109 343.246C151.522 342.988 151.989 342.858 152.51 342.858C152.589 342.858 152.677 342.86 152.774 342.864C152.871 342.867 152.952 342.871 153.017 342.874V343.85C152.974 343.843 152.898 343.832 152.791 343.818C152.683 343.803 152.566 343.796 152.44 343.796C152.009 343.796 151.625 343.888 151.287 344.071C150.953 344.251 150.688 344.5 150.494 344.82C150.3 345.14 150.203 345.505 150.203 345.914V351.261H149.244ZM159.915 348.097V342.982H160.875V351.261H159.915V349.887H159.84C159.646 350.311 159.338 350.665 158.918 350.949C158.497 351.229 157.984 351.369 157.376 351.369C156.848 351.369 156.379 351.254 155.969 351.024C155.56 350.791 155.238 350.449 155.005 350C154.771 349.551 154.654 348.999 154.654 348.345V342.982H155.614V348.286C155.614 348.933 155.804 349.454 156.185 349.849C156.566 350.241 157.055 350.437 157.651 350.437C158.025 350.437 158.384 350.347 158.729 350.167C159.074 349.988 159.358 349.725 159.581 349.38C159.804 349.032 159.915 348.604 159.915 348.097Z" fill="#808080"/>
<path d="M305.335 344.265C305.699 344.741 305.699 345.384 305.335 345.859C304.189 347.356 301.438 350.438 298.226 350.438C295.014 350.438 292.264 347.356 291.117 345.859C290.94 345.631 290.844 345.351 290.844 345.062C290.844 344.773 290.94 344.493 291.117 344.265C292.264 342.768 295.014 339.686 298.226 339.686C301.438 339.686 304.189 342.768 305.335 344.265V344.265Z" stroke="#808080" stroke-width="2.16839" stroke-linecap="round" stroke-linejoin="round"/>
<path d="M298.216 347.519C299.488 347.519 300.52 346.488 300.52 345.216C300.52 343.943 299.488 342.912 298.216 342.912C296.944 342.912 295.912 343.943 295.912 345.216C295.912 346.488 296.944 347.519 298.216 347.519Z" stroke="#808080" stroke-width="2.16839" stroke-linecap="round" stroke-linejoin="round"/>
<path d="M43.7231 395.451V385.989H45.1507V390.507H45.2663L49.235 385.989H51.0322L47.216 390.248L51.046 395.451H49.3274L46.2688 391.223L45.1507 392.508V395.451H43.7231ZM54.7202 395.594C54.0549 395.594 53.4743 395.441 52.9784 395.137C52.4825 394.832 52.0975 394.405 51.8234 393.857C51.5493 393.308 51.4122 392.668 51.4122 391.935C51.4122 391.199 51.5493 390.555 51.8234 390.004C52.0975 389.452 52.4825 389.024 52.9784 388.719C53.4743 388.414 54.0549 388.262 54.7202 388.262C55.3855 388.262 55.9661 388.414 56.462 388.719C56.9579 389.024 57.3429 389.452 57.617 390.004C57.8912 390.555 58.0282 391.199 58.0282 391.935C58.0282 392.668 57.8912 393.308 57.617 393.857C57.3429 394.405 56.9579 394.832 56.462 395.137C55.9661 395.441 55.3855 395.594 54.7202 395.594ZM54.7248 394.434C55.156 394.434 55.5133 394.32 55.7967 394.092C56.0801 393.864 56.2895 393.561 56.425 393.182C56.5636 392.803 56.6329 392.386 56.6329 391.93C56.6329 391.477 56.5636 391.062 56.425 390.683C56.2895 390.301 56.0801 389.994 55.7967 389.763C55.5133 389.532 55.156 389.417 54.7248 389.417C54.2905 389.417 53.9302 389.532 53.6437 389.763C53.3603 389.994 53.1494 390.301 53.0108 390.683C52.8752 391.062 52.8075 391.477 52.8075 391.93C52.8075 392.386 52.8752 392.803 53.0108 393.182C53.1494 393.561 53.3603 393.864 53.6437 394.092C53.9302 394.32 54.2905 394.434 54.7248 394.434ZM60.9516 391.237V395.451H59.5702V388.354H60.8962V389.509H60.984C61.1472 389.133 61.4029 388.832 61.7509 388.604C62.102 388.376 62.544 388.262 63.0769 388.262C63.5605 388.262 63.984 388.363 64.3474 388.567C64.7109 388.767 64.9927 389.066 65.1929 389.463C65.3931 389.86 65.4932 390.352 65.4932 390.937V395.451H64.1118V391.103C64.1118 390.589 63.9778 390.187 63.7098 389.897C63.4419 389.605 63.0738 389.458 62.6056 389.458C62.2853 389.458 62.0004 389.528 61.7509 389.666C61.5045 389.805 61.3089 390.008 61.1641 390.276C61.0225 390.541 60.9516 390.861 60.9516 391.237ZM70.7232 388.354V389.463H66.7129V388.354H70.7232ZM67.8125 395.451V387.532C67.8125 387.088 67.9096 386.72 68.1036 386.428C68.2976 386.132 68.5548 385.912 68.8752 385.767C69.1955 385.619 69.5435 385.545 69.9193 385.545C70.1965 385.545 70.4337 385.568 70.6308 385.614C70.8279 385.658 70.9742 385.698 71.0697 385.735L70.7463 386.853C70.6816 386.834 70.5985 386.813 70.4968 386.788C70.3952 386.76 70.272 386.746 70.1272 386.746C69.7915 386.746 69.5512 386.83 69.4065 386.996C69.2648 387.162 69.194 387.402 69.194 387.717V395.451H67.8125ZM72.1485 395.451V388.354H73.53V395.451H72.1485ZM72.8462 387.259C72.6059 387.259 72.3996 387.179 72.2271 387.019C72.0577 386.856 71.973 386.662 71.973 386.437C71.973 386.209 72.0577 386.015 72.2271 385.855C72.3996 385.691 72.6059 385.61 72.8462 385.61C73.0864 385.61 73.2912 385.691 73.4606 385.855C73.6331 386.015 73.7194 386.209 73.7194 386.437C73.7194 386.662 73.6331 386.856 73.4606 387.019C73.2912 387.179 73.0864 387.259 72.8462 387.259ZM75.3884 395.451V388.354H76.7236V389.481H76.7975C76.9269 389.1 77.1548 388.799 77.4813 388.581C77.8109 388.359 78.1836 388.248 78.5994 388.248C78.6856 388.248 78.7873 388.251 78.9043 388.257C79.0245 388.263 79.1184 388.271 79.1862 388.28V389.602C79.1307 389.586 79.0322 389.569 78.8905 389.551C78.7488 389.529 78.6071 389.518 78.4654 389.518C78.1389 389.518 77.8479 389.588 77.5922 389.726C77.3396 389.862 77.1394 390.051 76.9916 390.295C76.8437 390.535 76.7698 390.809 76.7698 391.117V395.451H75.3884ZM80.3816 395.451V388.354H81.7076V389.509H81.7954C81.9432 389.118 82.185 388.813 82.5207 388.594C82.8565 388.373 83.2584 388.262 83.7266 388.262C84.2009 388.262 84.5983 388.373 84.9186 388.594C85.242 388.816 85.4807 389.121 85.6347 389.509H85.7086C85.878 389.13 86.1475 388.828 86.5172 388.604C86.8868 388.376 87.3272 388.262 87.8385 388.262C88.4823 388.262 89.0074 388.463 89.414 388.867C89.8236 389.27 90.0285 389.879 90.0285 390.692V395.451H88.647V390.821C88.647 390.341 88.5161 389.993 88.2543 389.777C87.9925 389.562 87.6799 389.454 87.3164 389.454C86.8668 389.454 86.5172 389.592 86.2677 389.87C86.0182 390.144 85.8934 390.496 85.8934 390.928V395.451H84.5166V390.734C84.5166 390.349 84.3965 390.039 84.1563 389.805C83.916 389.571 83.6034 389.454 83.2184 389.454C82.9566 389.454 82.7148 389.523 82.493 389.662C82.2743 389.797 82.0972 389.987 81.9617 390.23C81.8293 390.473 81.763 390.755 81.763 391.075V395.451H80.3816ZM93.9452 395.608C93.4955 395.608 93.0889 395.525 92.7255 395.358C92.362 395.189 92.074 394.944 91.8615 394.624C91.6521 394.303 91.5473 393.911 91.5473 393.446C91.5473 393.045 91.6243 392.716 91.7783 392.457C91.9323 392.198 92.1403 391.993 92.4021 391.842C92.6639 391.691 92.9565 391.577 93.2799 391.5C93.6033 391.423 93.9329 391.365 94.2686 391.325C94.6937 391.276 95.0386 391.236 95.3035 391.205C95.5684 391.171 95.7609 391.117 95.881 391.043C96.0012 390.969 96.0612 390.849 96.0612 390.683V390.65C96.0612 390.247 95.9472 389.934 95.7193 389.712C95.4945 389.491 95.1587 389.38 94.7121 389.38C94.247 389.38 93.8805 389.483 93.6125 389.689C93.3477 389.893 93.1644 390.119 93.0627 390.369L91.7645 390.073C91.9185 389.642 92.1433 389.294 92.439 389.029C92.7378 388.761 93.0812 388.567 93.4693 388.447C93.8574 388.323 94.2655 388.262 94.6937 388.262C94.977 388.262 95.2773 388.296 95.5946 388.363C95.9149 388.428 96.2137 388.548 96.4909 388.724C96.7712 388.899 97.0006 389.15 97.1793 389.477C97.3579 389.8 97.4473 390.221 97.4473 390.738V395.451H96.0982V394.48H96.0427C95.9534 394.659 95.8194 394.835 95.6408 395.007C95.4621 395.18 95.2327 395.323 94.9524 395.437C94.6721 395.551 94.3364 395.608 93.9452 395.608ZM94.2455 394.499C94.6274 394.499 94.9539 394.423 95.225 394.273C95.4991 394.122 95.707 393.924 95.8487 393.681C95.9935 393.435 96.0658 393.171 96.0658 392.891V391.976C96.0166 392.026 95.9211 392.072 95.7794 392.115C95.6408 392.155 95.4822 392.19 95.3035 392.221C95.1249 392.249 94.9508 392.275 94.7814 392.3C94.612 392.321 94.4703 392.34 94.3564 392.355C94.0884 392.389 93.8435 392.446 93.6218 392.526C93.4031 392.606 93.2275 392.722 93.0951 392.873C92.9657 393.02 92.901 393.218 92.901 393.464C92.901 393.806 93.0273 394.065 93.2799 394.24C93.5325 394.413 93.8543 394.499 94.2455 394.499ZM104.605 390.087L103.353 390.308C103.301 390.148 103.217 389.996 103.103 389.851C102.993 389.706 102.842 389.588 102.651 389.495C102.46 389.403 102.221 389.357 101.935 389.357C101.543 389.357 101.217 389.445 100.955 389.62C100.693 389.793 100.562 390.016 100.562 390.29C100.562 390.527 100.65 390.718 100.826 390.863C101.001 391.008 101.285 391.126 101.676 391.219L102.803 391.477C103.456 391.628 103.943 391.861 104.263 392.175C104.583 392.489 104.744 392.897 104.744 393.399C104.744 393.824 104.62 394.203 104.374 394.536C104.131 394.865 103.79 395.124 103.353 395.312C102.919 395.5 102.415 395.594 101.842 395.594C101.047 395.594 100.399 395.425 99.8971 395.086C99.395 394.744 99.087 394.259 98.9731 393.63L100.308 393.427C100.391 393.775 100.562 394.038 100.821 394.217C101.08 394.393 101.417 394.48 101.833 394.48C102.286 394.48 102.648 394.387 102.919 394.199C103.19 394.008 103.325 393.775 103.325 393.501C103.325 393.279 103.242 393.093 103.076 392.942C102.912 392.791 102.661 392.677 102.323 392.6L101.121 392.337C100.459 392.186 99.9695 391.946 99.6522 391.616C99.338 391.286 99.181 390.869 99.181 390.364C99.181 389.945 99.298 389.578 99.5321 389.264C99.7662 388.95 100.09 388.705 100.502 388.53C100.915 388.351 101.388 388.262 101.921 388.262C102.688 388.262 103.291 388.428 103.732 388.761C104.172 389.09 104.463 389.532 104.605 390.087ZM106.262 395.451V388.354H107.644V395.451H106.262ZM106.96 387.259C106.72 387.259 106.514 387.179 106.341 387.019C106.172 386.856 106.087 386.662 106.087 386.437C106.087 386.209 106.172 386.015 106.341 385.855C106.514 385.691 106.72 385.61 106.96 385.61C107.2 385.61 107.405 385.691 107.575 385.855C107.747 386.015 107.833 386.209 107.833 386.437C107.833 386.662 107.747 386.856 107.575 387.019C107.405 387.179 107.2 387.259 106.96 387.259ZM113.056 395.451V385.989H116.429C117.165 385.989 117.775 386.123 118.259 386.391C118.742 386.659 119.104 387.025 119.344 387.49C119.585 387.952 119.705 388.473 119.705 389.052C119.705 389.634 119.583 390.158 119.34 390.623C119.1 391.085 118.736 391.451 118.249 391.722C117.766 391.99 117.158 392.124 116.424 392.124H114.105V390.914H116.295C116.76 390.914 117.138 390.834 117.427 390.673C117.717 390.51 117.929 390.288 118.065 390.008C118.2 389.728 118.268 389.409 118.268 389.052C118.268 388.695 118.2 388.377 118.065 388.1C117.929 387.823 117.715 387.606 117.422 387.449C117.133 387.292 116.751 387.213 116.277 387.213H114.484V395.451H113.056ZM123.269 395.608C122.82 395.608 122.413 395.525 122.049 395.358C121.686 395.189 121.398 394.944 121.186 394.624C120.976 394.303 120.871 393.911 120.871 393.446C120.871 393.045 120.948 392.716 121.102 392.457C121.256 392.198 121.464 391.993 121.726 391.842C121.988 391.691 122.281 391.577 122.604 391.5C122.927 391.423 123.257 391.365 123.593 391.325C124.018 391.276 124.363 391.236 124.628 391.205C124.892 391.171 125.085 391.117 125.205 391.043C125.325 390.969 125.385 390.849 125.385 390.683V390.65C125.385 390.247 125.271 389.934 125.043 389.712C124.818 389.491 124.483 389.38 124.036 389.38C123.571 389.38 123.205 389.483 122.937 389.689C122.672 389.893 122.488 390.119 122.387 390.369L121.089 390.073C121.243 389.642 121.467 389.294 121.763 389.029C122.062 388.761 122.405 388.567 122.793 388.447C123.181 388.323 123.59 388.262 124.018 388.262C124.301 388.262 124.601 388.296 124.919 388.363C125.239 388.428 125.538 388.548 125.815 388.724C126.095 388.899 126.325 389.15 126.503 389.477C126.682 389.8 126.771 390.221 126.771 390.738V395.451H125.422V394.48H125.367C125.277 394.659 125.143 394.835 124.965 395.007C124.786 395.18 124.557 395.323 124.276 395.437C123.996 395.551 123.66 395.608 123.269 395.608ZM123.57 394.499C123.951 394.499 124.278 394.423 124.549 394.273C124.823 394.122 125.031 393.924 125.173 393.681C125.317 393.435 125.39 393.171 125.39 392.891V391.976C125.341 392.026 125.245 392.072 125.103 392.115C124.965 392.155 124.806 392.19 124.628 392.221C124.449 392.249 124.275 392.275 124.105 392.3C123.936 392.321 123.794 392.34 123.68 392.355C123.412 392.389 123.168 392.446 122.946 392.526C122.727 392.606 122.552 392.722 122.419 392.873C122.29 393.02 122.225 393.218 122.225 393.464C122.225 393.806 122.351 394.065 122.604 394.24C122.856 394.413 123.178 394.499 123.57 394.499ZM133.929 390.087L132.677 390.308C132.625 390.148 132.541 389.996 132.427 389.851C132.317 389.706 132.166 389.588 131.975 389.495C131.784 389.403 131.545 389.357 131.259 389.357C130.867 389.357 130.541 389.445 130.279 389.62C130.017 389.793 129.886 390.016 129.886 390.29C129.886 390.527 129.974 390.718 130.15 390.863C130.325 391.008 130.609 391.126 131 391.219L132.127 391.477C132.78 391.628 133.267 391.861 133.587 392.175C133.907 392.489 134.068 392.897 134.068 393.399C134.068 393.824 133.944 394.203 133.698 394.536C133.455 394.865 133.114 395.124 132.677 395.312C132.243 395.5 131.739 395.594 131.166 395.594C130.372 395.594 129.723 395.425 129.221 395.086C128.719 394.744 128.411 394.259 128.297 393.63L129.632 393.427C129.715 393.775 129.886 394.038 130.145 394.217C130.404 394.393 130.741 394.48 131.157 394.48C131.61 394.48 131.972 394.387 132.243 394.199C132.514 394.008 132.649 393.775 132.649 393.501C132.649 393.279 132.566 393.093 132.4 392.942C132.237 392.791 131.985 392.677 131.647 392.6L130.445 392.337C129.783 392.186 129.293 391.946 128.976 391.616C128.662 391.286 128.505 390.869 128.505 390.364C128.505 389.945 128.622 389.578 128.856 389.264C129.09 388.95 129.414 388.705 129.826 388.53C130.239 388.351 130.712 388.262 131.245 388.262C132.012 388.262 132.615 388.428 133.056 388.761C133.496 389.09 133.787 389.532 133.929 390.087ZM140.904 390.087L139.652 390.308C139.6 390.148 139.517 389.996 139.403 389.851C139.292 389.706 139.141 389.588 138.95 389.495C138.759 389.403 138.52 389.357 138.234 389.357C137.843 389.357 137.516 389.445 137.254 389.62C136.993 389.793 136.862 390.016 136.862 390.29C136.862 390.527 136.949 390.718 137.125 390.863C137.301 391.008 137.584 391.126 137.975 391.219L139.102 391.477C139.755 391.628 140.242 391.861 140.562 392.175C140.883 392.489 141.043 392.897 141.043 393.399C141.043 393.824 140.92 394.203 140.673 394.536C140.43 394.865 140.09 395.124 139.652 395.312C139.218 395.5 138.714 395.594 138.141 395.594C137.347 395.594 136.698 395.425 136.196 395.086C135.694 394.744 135.386 394.259 135.272 393.63L136.608 393.427C136.691 393.775 136.862 394.038 137.12 394.217C137.379 394.393 137.716 394.48 138.132 394.48C138.585 394.48 138.947 394.387 139.218 394.199C139.489 394.008 139.625 393.775 139.625 393.501C139.625 393.279 139.541 393.093 139.375 392.942C139.212 392.791 138.961 392.677 138.622 392.6L137.421 392.337C136.758 392.186 136.269 391.946 135.951 391.616C135.637 391.286 135.48 390.869 135.48 390.364C135.48 389.945 135.597 389.578 135.831 389.264C136.065 388.95 136.389 388.705 136.802 388.53C137.214 388.351 137.687 388.262 138.22 388.262C138.987 388.262 139.591 388.428 140.031 388.761C140.472 389.09 140.763 389.532 140.904 390.087ZM144.1 395.451L142.012 388.354H143.44L144.83 393.566H144.9L146.295 388.354H147.722L149.108 393.543H149.178L150.559 388.354H151.987L149.903 395.451H148.494L147.053 390.327H146.946L145.505 395.451H144.1ZM156.071 395.594C155.406 395.594 154.825 395.441 154.329 395.137C153.833 394.832 153.448 394.405 153.174 393.857C152.9 393.308 152.763 392.668 152.763 391.935C152.763 391.199 152.9 390.555 153.174 390.004C153.448 389.452 153.833 389.024 154.329 388.719C154.825 388.414 155.406 388.262 156.071 388.262C156.736 388.262 157.317 388.414 157.813 388.719C158.309 389.024 158.694 389.452 158.968 390.004C159.242 390.555 159.379 391.199 159.379 391.935C159.379 392.668 159.242 393.308 158.968 393.857C158.694 394.405 158.309 394.832 157.813 395.137C157.317 395.441 156.736 395.594 156.071 395.594ZM156.076 394.434C156.507 394.434 156.864 394.32 157.148 394.092C157.431 393.864 157.64 393.561 157.776 393.182C157.914 392.803 157.984 392.386 157.984 391.93C157.984 391.477 157.914 391.062 157.776 390.683C157.64 390.301 157.431 389.994 157.148 389.763C156.864 389.532 156.507 389.417 156.076 389.417C155.641 389.417 155.281 389.532 154.995 389.763C154.711 389.994 154.5 390.301 154.362 390.683C154.226 391.062 154.158 391.477 154.158 391.93C154.158 392.386 154.226 392.803 154.362 393.182C154.5 393.561 154.711 393.864 154.995 394.092C155.281 394.32 155.641 394.434 156.076 394.434ZM160.921 395.451V388.354H162.256V389.481H162.33C162.46 389.1 162.687 388.799 163.014 388.581C163.344 388.359 163.716 388.248 164.132 388.248C164.218 388.248 164.32 388.251 164.437 388.257C164.557 388.263 164.651 388.271 164.719 388.28V389.602C164.663 389.586 164.565 389.569 164.423 389.551C164.281 389.529 164.14 389.518 163.998 389.518C163.672 389.518 163.38 389.588 163.125 389.726C162.872 389.862 162.672 390.051 162.524 390.295C162.376 390.535 162.302 390.809 162.302 391.117V395.451H160.921ZM168.317 395.589C167.744 395.589 167.233 395.443 166.783 395.15C166.336 394.855 165.985 394.434 165.729 393.889C165.477 393.341 165.351 392.683 165.351 391.916C165.351 391.149 165.478 390.493 165.734 389.948C165.993 389.403 166.347 388.986 166.797 388.696C167.246 388.407 167.756 388.262 168.326 388.262C168.766 388.262 169.121 388.336 169.389 388.484C169.66 388.628 169.869 388.798 170.017 388.992C170.168 389.186 170.285 389.357 170.368 389.505H170.451V385.989H171.833V395.451H170.484V394.346H170.368C170.285 394.497 170.165 394.67 170.008 394.864C169.854 395.058 169.641 395.227 169.37 395.372C169.099 395.517 168.748 395.589 168.317 395.589ZM168.622 394.411C169.019 394.411 169.355 394.306 169.629 394.097C169.906 393.884 170.115 393.59 170.257 393.215C170.402 392.839 170.474 392.401 170.474 391.902C170.474 391.41 170.403 390.978 170.262 390.609C170.12 390.239 169.912 389.951 169.638 389.745C169.364 389.538 169.025 389.435 168.622 389.435C168.206 389.435 167.859 389.543 167.582 389.759C167.305 389.974 167.095 390.268 166.954 390.641C166.815 391.014 166.746 391.434 166.746 391.902C166.746 392.377 166.817 392.803 166.958 393.182C167.1 393.561 167.31 393.861 167.587 394.083C167.867 394.302 168.212 394.411 168.622 394.411Z" fill="black"/>
<rect x="43.2257" y="407.666" width="274.301" height="39.0309" rx="19.5155" stroke="#808080" stroke-width="1.08419"/>
<path d="M55.6653 429.84L55.6545 428.584H55.8701L59.751 424.687H60.9638L57.1314 428.525L57.0452 428.541L55.6653 429.84ZM54.7921 432.966V421.927H55.7515V432.966H54.7921ZM59.9505 432.966L56.587 428.713L57.2769 428.05L61.1794 432.966H59.9505ZM65.0792 433.155C64.5797 433.155 64.1233 433.058 63.7101 432.864C63.2969 432.666 62.9681 432.382 62.7237 432.012C62.4793 431.639 62.3572 431.186 62.3572 430.654C62.3572 430.244 62.4344 429.899 62.5889 429.619C62.7435 429.339 62.9627 429.109 63.2465 428.929C63.5304 428.749 63.8664 428.607 64.2545 428.503C64.6426 428.399 65.0702 428.318 65.5374 428.261C66.0009 428.203 66.3926 428.153 66.7124 428.11C67.0358 428.067 67.282 427.998 67.4509 427.905C67.6198 427.812 67.7042 427.661 67.7042 427.452V427.258C67.7042 426.694 67.5353 426.25 67.1975 425.927C66.8633 425.6 66.3818 425.436 65.753 425.436C65.1565 425.436 64.6696 425.567 64.2922 425.83C63.9185 426.092 63.6562 426.401 63.5053 426.757L62.5943 426.428C62.7812 425.975 63.0399 425.614 63.3705 425.345C63.7011 425.072 64.0712 424.876 64.4809 424.757C64.8905 424.635 65.3056 424.574 65.726 424.574C66.0422 424.574 66.371 424.615 66.7124 424.698C67.0574 424.78 67.3772 424.924 67.6719 425.129C67.9665 425.33 68.2055 425.612 68.3888 425.975C68.572 426.335 68.6637 426.791 68.6637 427.344V432.966H67.7042V431.656H67.6449C67.5299 431.901 67.3592 432.138 67.1329 432.368C66.9065 432.598 66.6226 432.787 66.2812 432.934C65.9398 433.081 65.5392 433.155 65.0792 433.155ZM65.2086 432.276C65.7188 432.276 66.1608 432.163 66.5345 431.937C66.9083 431.71 67.1957 431.41 67.397 431.037C67.6018 430.659 67.7042 430.244 67.7042 429.792V428.595C67.6323 428.663 67.512 428.724 67.3431 428.778C67.1778 428.832 66.9855 428.881 66.7663 428.924C66.5507 428.963 66.3351 428.997 66.1195 429.026C65.9039 429.055 65.7099 429.08 65.5374 429.102C65.0702 429.159 64.6713 429.249 64.3408 429.371C64.0102 429.493 63.7568 429.662 63.5807 429.878C63.4047 430.09 63.3166 430.363 63.3166 430.697C63.3166 431.2 63.4963 431.59 63.8556 431.867C64.215 432.14 64.666 432.276 65.2086 432.276ZM74.477 424.687V425.522H70.526V424.687H74.477ZM71.7603 422.703H72.7251V430.805C72.7251 431.15 72.7844 431.421 72.903 431.619C73.0216 431.813 73.1761 431.951 73.3666 432.034C73.557 432.113 73.7601 432.152 73.9757 432.152C74.1014 432.152 74.2092 432.145 74.2991 432.131C74.3889 432.113 74.468 432.095 74.5362 432.077L74.7411 432.945C74.6476 432.981 74.5326 433.013 74.3961 433.042C74.2595 433.074 74.0907 433.09 73.8894 433.09C73.5373 433.09 73.1977 433.013 72.8707 432.859C72.5473 432.704 72.2814 432.474 72.0729 432.169C71.8645 431.863 71.7603 431.484 71.7603 431.031V422.703ZM78.9683 433.155C78.4688 433.155 78.0124 433.058 77.5992 432.864C77.186 432.666 76.8572 432.382 76.6128 432.012C76.3684 431.639 76.2463 431.186 76.2463 430.654C76.2463 430.244 76.3235 429.899 76.478 429.619C76.6326 429.339 76.8518 429.109 77.1356 428.929C77.4195 428.749 77.7555 428.607 78.1436 428.503C78.5317 428.399 78.9593 428.318 79.4265 428.261C79.89 428.203 80.2817 428.153 80.6015 428.11C80.9249 428.067 81.1711 427.998 81.34 427.905C81.5089 427.812 81.5933 427.661 81.5933 427.452V427.258C81.5933 426.694 81.4244 426.25 81.0866 425.927C80.7524 425.6 80.2709 425.436 79.6421 425.436C79.0456 425.436 78.5587 425.567 78.1813 425.83C77.8076 426.092 77.5453 426.401 77.3944 426.757L76.4834 426.428C76.6703 425.975 76.929 425.614 77.2596 425.345C77.5902 425.072 77.9603 424.876 78.37 424.757C78.7796 424.635 79.1947 424.574 79.6151 424.574C79.9313 424.574 80.2601 424.615 80.6015 424.698C80.9465 424.78 81.2663 424.924 81.561 425.129C81.8556 425.33 82.0946 425.612 82.2779 425.975C82.4611 426.335 82.5528 426.791 82.5528 427.344V432.966H81.5933V431.656H81.534C81.419 431.901 81.2483 432.138 81.022 432.368C80.7956 432.598 80.5117 432.787 80.1703 432.934C79.8289 433.081 79.4283 433.155 78.9683 433.155ZM79.0977 432.276C79.6079 432.276 80.0499 432.163 80.4236 431.937C80.7974 431.71 81.0848 431.41 81.2861 431.037C81.4909 430.659 81.5933 430.244 81.5933 429.792V428.595C81.5214 428.663 81.4011 428.724 81.2322 428.778C81.0669 428.832 80.8746 428.881 80.6554 428.924C80.4398 428.963 80.2242 428.997 80.0086 429.026C79.793 429.055 79.599 429.08 79.4265 429.102C78.9593 429.159 78.5604 429.249 78.2299 429.371C77.8993 429.493 77.6459 429.662 77.4698 429.878C77.2938 430.09 77.2057 430.363 77.2057 430.697C77.2057 431.2 77.3854 431.59 77.7447 431.867C78.1041 432.14 78.5551 432.276 79.0977 432.276ZM94.9367 426.504L94.0581 426.751C93.9718 426.504 93.8496 426.279 93.6915 426.078C93.5334 425.876 93.3268 425.717 93.0717 425.598C92.8201 425.479 92.5075 425.42 92.1338 425.42C91.5732 425.42 91.1132 425.553 90.7539 425.819C90.3945 426.085 90.2149 426.428 90.2149 426.848C90.2149 427.204 90.3371 427.493 90.5814 427.716C90.8294 427.935 91.2103 428.11 91.7241 428.239L92.9746 428.546C93.6682 428.715 94.1874 428.983 94.5324 429.35C94.881 429.716 95.0552 430.176 95.0552 430.729C95.0552 431.197 94.9259 431.612 94.6672 431.975C94.4084 432.337 94.0473 432.623 93.5837 432.832C93.1238 433.036 92.5901 433.139 91.9828 433.139C91.1743 433.139 90.5077 432.957 89.9831 432.594C89.4585 432.228 89.1225 431.7 88.9751 431.01L89.8969 430.783C90.0154 431.276 90.2472 431.648 90.5922 431.899C90.9408 432.151 91.3989 432.276 91.9667 432.276C92.6027 432.276 93.1112 432.134 93.4921 431.851C93.873 431.563 94.0635 431.204 94.0635 430.773C94.0635 430.438 93.9521 430.158 93.7293 429.932C93.5065 429.702 93.1687 429.533 92.7159 429.425L91.363 429.102C90.6443 428.929 90.1125 428.656 89.7675 428.282C89.4225 427.909 89.25 427.445 89.25 426.892C89.25 426.435 89.374 426.035 89.622 425.69C89.8699 425.341 90.2113 425.068 90.6461 424.87C91.0809 424.673 91.5768 424.574 92.1338 424.574C92.892 424.574 93.4975 424.746 93.9503 425.091C94.4066 425.433 94.7354 425.903 94.9367 426.504ZM99.4684 433.155C98.9689 433.155 98.5126 433.058 98.0993 432.864C97.6861 432.666 97.3573 432.382 97.1129 432.012C96.8686 431.639 96.7464 431.186 96.7464 430.654C96.7464 430.244 96.8237 429.899 96.9782 429.619C97.1327 429.339 97.3519 429.109 97.6358 428.929C97.9197 428.749 98.2557 428.607 98.6437 428.503C99.0318 428.399 99.4595 428.318 99.9266 428.261C100.39 428.203 100.782 428.153 101.102 428.11C101.425 428.067 101.671 427.998 101.84 427.905C102.009 427.812 102.093 427.661 102.093 427.452V427.258C102.093 426.694 101.925 426.25 101.587 425.927C101.253 425.6 100.771 425.436 100.142 425.436C99.5457 425.436 99.0588 425.567 98.6815 425.83C98.3078 426.092 98.0454 426.401 97.8945 426.757L96.9836 426.428C97.1704 425.975 97.4292 425.614 97.7598 425.345C98.0904 425.072 98.4605 424.876 98.8701 424.757C99.2798 424.635 99.6948 424.574 100.115 424.574C100.431 424.574 100.76 424.615 101.102 424.698C101.447 424.78 101.766 424.924 102.061 425.129C102.356 425.33 102.595 425.612 102.778 425.975C102.961 426.335 103.053 426.791 103.053 427.344V432.966H102.093V431.656H102.034C101.919 431.901 101.748 432.138 101.522 432.368C101.296 432.598 101.012 432.787 100.67 432.934C100.329 433.081 99.9284 433.155 99.4684 433.155ZM99.5978 432.276C100.108 432.276 100.55 432.163 100.924 431.937C101.297 431.71 101.585 431.41 101.786 431.037C101.991 430.659 102.093 430.244 102.093 429.792V428.595C102.022 428.663 101.901 428.724 101.732 428.778C101.567 428.832 101.375 428.881 101.156 428.924C100.94 428.963 100.724 428.997 100.509 429.026C100.293 429.055 100.099 429.08 99.9266 429.102C99.4595 429.159 99.0606 429.249 98.73 429.371C98.3994 429.493 98.1461 429.662 97.97 429.878C97.7939 430.09 97.7059 430.363 97.7059 430.697C97.7059 431.2 97.8855 431.59 98.2449 431.867C98.6042 432.14 99.0552 432.276 99.5978 432.276ZM106.565 427.792V432.966H105.605V424.687H106.538V425.986H106.624C106.818 425.562 107.12 425.222 107.529 424.967C107.943 424.709 108.453 424.579 109.06 424.579C109.617 424.579 110.106 424.696 110.526 424.93C110.95 425.16 111.279 425.499 111.513 425.948C111.75 426.397 111.869 426.949 111.869 427.603V432.966H110.909V427.662C110.909 426.983 110.719 426.446 110.338 426.051C109.96 425.655 109.454 425.458 108.818 425.458C108.383 425.458 107.997 425.551 107.659 425.738C107.321 425.925 107.053 426.194 106.856 426.547C106.662 426.895 106.565 427.31 106.565 427.792ZM117.376 433.139C116.697 433.139 116.102 432.959 115.592 432.6C115.081 432.24 114.683 431.739 114.395 431.096C114.111 430.453 113.969 429.703 113.969 428.848C113.969 427.997 114.111 427.251 114.395 426.611C114.683 425.968 115.083 425.469 115.597 425.113C116.111 424.753 116.709 424.574 117.392 424.574C117.895 424.574 118.314 424.664 118.648 424.843C118.982 425.019 119.25 425.239 119.451 425.501C119.652 425.763 119.809 426.018 119.92 426.266H120.006V421.927H120.971V432.966H120.033V431.43H119.92C119.809 431.682 119.651 431.94 119.446 432.206C119.241 432.469 118.97 432.69 118.632 432.869C118.298 433.049 117.879 433.139 117.376 433.139ZM117.489 432.26C118.025 432.26 118.481 432.115 118.858 431.824C119.236 431.529 119.523 431.125 119.721 430.611C119.922 430.093 120.022 429.5 120.022 428.832C120.022 428.171 119.924 427.587 119.726 427.08C119.528 426.57 119.241 426.171 118.864 425.884C118.486 425.593 118.028 425.447 117.489 425.447C116.936 425.447 116.469 425.598 116.088 425.9C115.71 426.198 115.423 426.602 115.225 427.113C115.031 427.623 114.934 428.196 114.934 428.832C114.934 429.475 115.033 430.056 115.231 430.573C115.428 431.091 115.716 431.502 116.093 431.807C116.474 432.109 116.939 432.26 117.489 432.26ZM123.715 432.966V424.687H124.68V432.966H123.715ZM124.205 423.264C124.008 423.264 123.839 423.198 123.699 423.065C123.558 422.928 123.488 422.765 123.488 422.574C123.488 422.384 123.558 422.222 123.699 422.089C123.839 421.952 124.008 421.884 124.205 421.884C124.403 421.884 124.572 421.952 124.712 422.089C124.852 422.222 124.922 422.384 124.922 422.574C124.922 422.765 124.852 422.928 124.712 423.065C124.572 423.198 124.403 423.264 124.205 423.264ZM133.798 433.155C133.299 433.155 132.843 433.058 132.429 432.864C132.016 432.666 131.687 432.382 131.443 432.012C131.199 431.639 131.076 431.186 131.076 430.654C131.076 430.244 131.154 429.899 131.308 429.619C131.463 429.339 131.682 429.109 131.966 428.929C132.25 428.749 132.586 428.607 132.974 428.503C133.362 428.399 133.789 428.318 134.257 428.261C134.72 428.203 135.112 428.153 135.432 428.11C135.755 428.067 136.001 427.998 136.17 427.905C136.339 427.812 136.423 427.661 136.423 427.452V427.258C136.423 426.694 136.254 426.25 135.917 425.927C135.583 425.6 135.101 425.436 134.472 425.436C133.876 425.436 133.389 425.567 133.011 425.83C132.638 426.092 132.375 426.401 132.224 426.757L131.314 426.428C131.5 425.975 131.759 425.614 132.09 425.345C132.42 425.072 132.79 424.876 133.2 424.757C133.61 424.635 134.025 424.574 134.445 424.574C134.761 424.574 135.09 424.615 135.432 424.698C135.777 424.78 136.096 424.924 136.391 425.129C136.686 425.33 136.925 425.612 137.108 425.975C137.291 426.335 137.383 426.791 137.383 427.344V432.966H136.423V431.656H136.364C136.249 431.901 136.078 432.138 135.852 432.368C135.626 432.598 135.342 432.787 135 432.934C134.659 433.081 134.258 433.155 133.798 433.155ZM133.928 432.276C134.438 432.276 134.88 432.163 135.254 431.937C135.627 431.71 135.915 431.41 136.116 431.037C136.321 430.659 136.423 430.244 136.423 429.792V428.595C136.352 428.663 136.231 428.724 136.062 428.778C135.897 428.832 135.705 428.881 135.486 428.924C135.27 428.963 135.054 428.997 134.839 429.026C134.623 429.055 134.429 429.08 134.257 429.102C133.789 429.159 133.391 429.249 133.06 429.371C132.729 429.493 132.476 429.662 132.3 429.878C132.124 430.09 132.036 430.363 132.036 430.697C132.036 431.2 132.215 431.59 132.575 431.867C132.934 432.14 133.385 432.276 133.928 432.276ZM140.895 427.792V432.966H139.935V424.687H140.868V425.986H140.954C141.148 425.562 141.45 425.222 141.859 424.967C142.273 424.709 142.783 424.579 143.39 424.579C143.947 424.579 144.436 424.696 144.856 424.93C145.28 425.16 145.609 425.499 145.843 425.948C146.08 426.397 146.198 426.949 146.198 427.603V432.966H145.239V427.662C145.239 426.983 145.049 426.446 144.668 426.051C144.29 425.655 143.784 425.458 143.148 425.458C142.713 425.458 142.327 425.551 141.989 425.738C141.651 425.925 141.383 426.194 141.186 426.547C140.992 426.895 140.895 427.31 140.895 427.792ZM151.706 433.139C151.027 433.139 150.432 432.959 149.922 432.6C149.411 432.24 149.013 431.739 148.725 431.096C148.441 430.453 148.299 429.703 148.299 428.848C148.299 427.997 148.441 427.251 148.725 426.611C149.013 425.968 149.413 425.469 149.927 425.113C150.441 424.753 151.039 424.574 151.722 424.574C152.225 424.574 152.644 424.664 152.978 424.843C153.312 425.019 153.58 425.239 153.781 425.501C153.982 425.763 154.139 426.018 154.25 426.266H154.336V421.927H155.301V432.966H154.363V431.43H154.25C154.139 431.682 153.98 431.94 153.776 432.206C153.571 432.469 153.3 432.69 152.962 432.869C152.628 433.049 152.209 433.139 151.706 433.139ZM151.819 432.26C152.354 432.26 152.811 432.115 153.188 431.824C153.565 431.529 153.853 431.125 154.051 430.611C154.252 430.093 154.352 429.5 154.352 428.832C154.352 428.171 154.254 427.587 154.056 427.08C153.858 426.57 153.571 426.171 153.194 425.884C152.816 425.593 152.358 425.447 151.819 425.447C151.266 425.447 150.799 425.598 150.418 425.9C150.04 426.198 149.753 426.602 149.555 427.113C149.361 427.623 149.264 428.196 149.264 428.832C149.264 429.475 149.363 430.056 149.561 430.573C149.758 431.091 150.046 431.502 150.423 431.807C150.804 432.109 151.269 432.26 151.819 432.26ZM160.346 433.155C159.847 433.155 159.39 433.058 158.977 432.864C158.564 432.666 158.235 432.382 157.991 432.012C157.746 431.639 157.624 431.186 157.624 430.654C157.624 430.244 157.702 429.899 157.856 429.619C158.011 429.339 158.23 429.109 158.514 428.929C158.798 428.749 159.133 428.607 159.522 428.503C159.91 428.399 160.337 428.318 160.804 428.261C161.268 428.203 161.66 428.153 161.979 428.11C162.303 428.067 162.549 427.998 162.718 427.905C162.887 427.812 162.971 427.661 162.971 427.452V427.258C162.971 426.694 162.802 426.25 162.465 425.927C162.13 425.6 161.649 425.436 161.02 425.436C160.424 425.436 159.937 425.567 159.559 425.83C159.186 426.092 158.923 426.401 158.772 426.757L157.861 426.428C158.048 425.975 158.307 425.614 158.638 425.345C158.968 425.072 159.338 424.876 159.748 424.757C160.158 424.635 160.573 424.574 160.993 424.574C161.309 424.574 161.638 424.615 161.979 424.698C162.324 424.78 162.644 424.924 162.939 425.129C163.234 425.33 163.473 425.612 163.656 425.975C163.839 426.335 163.931 426.791 163.931 427.344V432.966H162.971V431.656H162.912C162.797 431.901 162.626 432.138 162.4 432.368C162.174 432.598 161.89 432.787 161.548 432.934C161.207 433.081 160.806 433.155 160.346 433.155ZM160.476 432.276C160.986 432.276 161.428 432.163 161.802 431.937C162.175 431.71 162.463 431.41 162.664 431.037C162.869 430.659 162.971 430.244 162.971 429.792V428.595C162.899 428.663 162.779 428.724 162.61 428.778C162.445 428.832 162.253 428.881 162.033 428.924C161.818 428.963 161.602 428.997 161.387 429.026C161.171 429.055 160.977 429.08 160.804 429.102C160.337 429.159 159.938 429.249 159.608 429.371C159.277 429.493 159.024 429.662 158.848 429.878C158.672 430.09 158.584 430.363 158.584 430.697C158.584 431.2 158.763 431.59 159.123 431.867C159.482 432.14 159.933 432.276 160.476 432.276Z" fill="#808080"/>
<path d="M305.13 426.231C305.494 426.708 305.494 427.35 305.13 427.826C303.984 429.323 301.233 432.404 298.021 432.404C294.809 432.404 292.058 429.323 290.912 427.826C290.735 427.598 290.639 427.317 290.639 427.029C290.639 426.74 290.735 426.459 290.912 426.231C292.058 424.735 294.809 421.653 298.021 421.653C301.233 421.653 303.984 424.735 305.13 426.231V426.231Z" stroke="#808080" stroke-width="2.16839" stroke-linecap="round" stroke-linejoin="round"/>
<path d="M298.011 429.486C299.283 429.486 300.315 428.454 300.315 427.182C300.315 425.91 299.283 424.878 298.011 424.878C296.739 424.878 295.707 425.91 295.707 427.182C295.707 428.454 296.739 429.486 298.011 429.486Z" stroke="#808080" stroke-width="2.16839" stroke-linecap="round" stroke-linejoin="round"/>
<rect x="42.6836" y="493.597" width="275.385" height="42.6839" rx="21.3419" fill="#00AA13"/>
<path d="M143.093 521.439V508.823H144.996V519.8H150.713V521.439H143.093ZM155.129 521.648C154.529 521.648 153.987 521.537 153.502 521.316C153.018 521.09 152.634 520.763 152.35 520.336C152.071 519.909 151.932 519.385 151.932 518.765C151.932 518.231 152.034 517.792 152.24 517.447C152.445 517.102 152.722 516.829 153.071 516.628C153.42 516.426 153.81 516.274 154.242 516.172C154.673 516.069 155.112 515.991 155.56 515.938C156.127 515.872 156.587 515.819 156.94 515.778C157.293 515.732 157.55 515.66 157.71 515.562C157.87 515.463 157.95 515.303 157.95 515.081V515.038C157.95 514.5 157.798 514.083 157.494 513.788C157.194 513.492 156.747 513.344 156.151 513.344C155.531 513.344 155.042 513.482 154.685 513.757C154.332 514.028 154.088 514.33 153.952 514.663L152.221 514.268C152.426 513.693 152.726 513.229 153.12 512.876C153.519 512.519 153.977 512.26 154.494 512.1C155.012 511.936 155.556 511.853 156.127 511.853C156.504 511.853 156.905 511.899 157.328 511.989C157.755 512.075 158.153 512.235 158.523 512.469C158.897 512.704 159.203 513.038 159.441 513.474C159.679 513.905 159.798 514.465 159.798 515.155V521.439H157.999V520.145H157.925C157.806 520.383 157.628 520.617 157.39 520.847C157.151 521.077 156.845 521.268 156.472 521.42C156.098 521.572 155.65 521.648 155.129 521.648ZM155.529 520.17C156.038 520.17 156.474 520.069 156.835 519.868C157.201 519.667 157.478 519.404 157.667 519.079C157.86 518.751 157.956 518.4 157.956 518.026V516.806C157.891 516.872 157.763 516.934 157.574 516.991C157.39 517.044 157.178 517.092 156.94 517.133C156.702 517.17 156.47 517.205 156.244 517.237C156.018 517.266 155.829 517.291 155.677 517.311C155.32 517.357 154.993 517.433 154.697 517.539C154.406 517.646 154.172 517.8 153.995 518.001C153.823 518.198 153.737 518.461 153.737 518.79C153.737 519.246 153.905 519.591 154.242 519.825C154.578 520.055 155.008 520.17 155.529 520.17ZM163.732 515.821V521.439H161.89V511.977H163.658V513.517H163.775C163.993 513.016 164.334 512.613 164.798 512.309C165.266 512.005 165.855 511.853 166.566 511.853C167.21 511.853 167.775 511.989 168.26 512.26C168.744 512.527 169.12 512.925 169.387 513.455C169.654 513.985 169.787 514.64 169.787 515.42V521.439H167.945V515.642C167.945 514.956 167.767 514.42 167.41 514.034C167.052 513.644 166.562 513.449 165.937 513.449C165.51 513.449 165.13 513.541 164.798 513.726C164.469 513.911 164.208 514.182 164.015 514.539C163.826 514.892 163.732 515.32 163.732 515.821ZM171.896 511.977H173.738V522.055C173.738 522.687 173.623 523.221 173.393 523.656C173.167 524.092 172.831 524.422 172.383 524.648C171.939 524.874 171.391 524.987 170.738 524.987C170.672 524.987 170.611 524.987 170.553 524.987C170.492 524.987 170.428 524.985 170.362 524.981V523.398C170.42 523.398 170.471 523.398 170.516 523.398C170.557 523.398 170.605 523.398 170.658 523.398C171.093 523.398 171.408 523.281 171.601 523.047C171.798 522.817 171.896 522.482 171.896 522.042V511.977ZM172.808 510.517C172.488 510.517 172.212 510.41 171.982 510.196C171.757 509.979 171.644 509.72 171.644 509.42C171.644 509.116 171.757 508.858 171.982 508.644C172.212 508.426 172.488 508.318 172.808 508.318C173.128 508.318 173.401 508.426 173.627 508.644C173.857 508.858 173.972 509.116 173.972 509.42C173.972 509.72 173.857 509.979 173.627 510.196C173.401 510.41 173.128 510.517 172.808 510.517ZM181.849 517.515V511.977H183.697V521.439H181.885V519.8H181.787C181.569 520.305 181.22 520.726 180.74 521.063C180.263 521.396 179.67 521.562 178.959 521.562C178.352 521.562 177.814 521.428 177.345 521.162C176.881 520.89 176.516 520.49 176.249 519.96C175.986 519.431 175.855 518.775 175.855 517.995V511.977H177.697V517.773C177.697 518.418 177.875 518.932 178.232 519.313C178.59 519.695 179.054 519.886 179.625 519.886C179.97 519.886 180.313 519.8 180.653 519.628C180.998 519.455 181.284 519.194 181.51 518.845C181.74 518.496 181.853 518.053 181.849 517.515ZM190.227 511.977V513.455H185.058V511.977H190.227ZM186.445 509.71H188.286V518.66C188.286 519.018 188.34 519.287 188.447 519.467C188.553 519.644 188.691 519.765 188.859 519.831C189.032 519.893 189.219 519.923 189.42 519.923C189.568 519.923 189.697 519.913 189.808 519.893C189.919 519.872 190.005 519.856 190.067 519.843L190.399 521.365C190.293 521.406 190.141 521.447 189.944 521.488C189.746 521.533 189.5 521.558 189.204 521.562C188.72 521.57 188.268 521.484 187.849 521.303C187.43 521.122 187.091 520.843 186.833 520.465C186.574 520.088 186.445 519.613 186.445 519.042V509.71ZM193.8 518.229L193.788 515.981H194.108L197.878 511.977H200.084L195.784 516.535H195.494L193.8 518.229ZM192.106 521.439V508.823H193.948V521.439H192.106ZM198.082 521.439L194.694 516.942L195.963 515.654L200.342 521.439H198.082ZM204.155 521.648C203.555 521.648 203.013 521.537 202.528 521.316C202.044 521.09 201.66 520.763 201.376 520.336C201.097 519.909 200.957 519.385 200.957 518.765C200.957 518.231 201.06 517.792 201.265 517.447C201.471 517.102 201.748 516.829 202.097 516.628C202.446 516.426 202.836 516.274 203.267 516.172C203.699 516.069 204.138 515.991 204.586 515.938C205.152 515.872 205.612 515.819 205.966 515.778C206.319 515.732 206.575 515.66 206.736 515.562C206.896 515.463 206.976 515.303 206.976 515.081V515.038C206.976 514.5 206.824 514.083 206.52 513.788C206.22 513.492 205.773 513.344 205.177 513.344C204.557 513.344 204.068 513.482 203.711 513.757C203.358 514.028 203.113 514.33 202.978 514.663L201.247 514.268C201.452 513.693 201.752 513.229 202.146 512.876C202.545 512.519 203.003 512.26 203.52 512.1C204.038 511.936 204.582 511.853 205.152 511.853C205.53 511.853 205.931 511.899 206.354 511.989C206.781 512.075 207.179 512.235 207.549 512.469C207.923 512.704 208.228 513.038 208.467 513.474C208.705 513.905 208.824 514.465 208.824 515.155V521.439H207.025V520.145H206.951C206.832 520.383 206.654 520.617 206.415 520.847C206.177 521.077 205.871 521.268 205.497 521.42C205.124 521.572 204.676 521.648 204.155 521.648ZM204.555 520.17C205.064 520.17 205.5 520.069 205.861 519.868C206.226 519.667 206.504 519.404 206.693 519.079C206.886 518.751 206.982 518.4 206.982 518.026V516.806C206.916 516.872 206.789 516.934 206.6 516.991C206.415 517.044 206.204 517.092 205.966 517.133C205.727 517.17 205.495 517.205 205.27 517.237C205.044 517.266 204.855 517.291 204.703 517.311C204.346 517.357 204.019 517.433 203.723 517.539C203.432 517.646 203.198 517.8 203.021 518.001C202.849 518.198 202.762 518.461 202.762 518.79C202.762 519.246 202.931 519.591 203.267 519.825C203.604 520.055 204.033 520.17 204.555 520.17ZM212.758 515.821V521.439H210.916V511.977H212.684V513.517H212.801C213.019 513.016 213.359 512.613 213.823 512.309C214.292 512.005 214.881 511.853 215.591 511.853C216.236 511.853 216.801 511.989 217.285 512.26C217.77 512.527 218.146 512.925 218.413 513.455C218.68 513.985 218.813 514.64 218.813 515.42V521.439H216.971V515.642C216.971 514.956 216.793 514.42 216.435 514.034C216.078 513.644 215.587 513.449 214.963 513.449C214.536 513.449 214.156 513.541 213.823 513.726C213.495 513.911 213.234 514.182 213.041 514.539C212.852 514.892 212.758 515.32 212.758 515.821Z" fill="white"/>
</g>
</g>
<defs>
<filter id="filter0_d_255_4051" x="17" y="196" width="327" height="405" filterUnits="userSpaceOnUse" color-interpolation-filters="sRGB">
<feFlood flood-opacity="0" result="BackgroundImageFix"/>
<feColorMatrix in="SourceAlpha" type="matrix" values="0 0 0 0 0 0 0 0 0 0 0 0 0 0 0 0 0 0 127 0" result="hardAlpha"/>
<feOffset dy="5"/>
<feGaussianBlur stdDeviation="2"/>
<feComposite in2="hardAlpha" operator="out"/>
<feColorMatrix type="matrix" values="0 0 0 0 0 0 0 0 0 0 0 0 0 0 0 0 0 0 0.25 0"/>
<feBlend mode="normal" in2="BackgroundImageFix" result="effect1_dropShadow_255_4051"/>
<feBlend mode="normal" in="SourceGraphic" in2="effect1_dropShadow_255_4051" result="shape"/>
</filter>
<clipPath id="clip0_255_4051">
<rect width="360" height="800" fill="white"/>
</clipPath>
</defs>
</svg>
