<svg width="360" height="800" viewBox="0 0 360 800" fill="none" xmlns="http://www.w3.org/2000/svg">
<g clip-path="url(#clip0_199_3262)">
<rect width="360" height="800" fill="white"/>
<rect opacity="0.35" x="324.449" y="9.33482" width="22.768" height="11.2033" rx="2.34908" stroke="black" stroke-width="1.08419"/>
<path opacity="0.4" d="M348.844 12.7681V17.1048C349.72 16.7375 350.289 15.8831 350.289 14.9365C350.289 13.9898 349.72 13.1354 348.844 12.7681Z" fill="black"/>
<rect x="326.076" y="10.9612" width="19.5155" height="7.95075" rx="1.44559" fill="black"/>
<path d="M307.483 17.9714C308.878 16.8162 310.921 16.816 312.316 17.9714C312.387 18.0336 312.428 18.122 312.43 18.2146C312.431 18.3071 312.394 18.3959 312.326 18.4607L310.142 20.6199C310.078 20.6832 309.99 20.7185 309.899 20.7185C309.808 20.7185 309.721 20.6833 309.657 20.6199L307.473 18.4607C307.405 18.3959 307.368 18.307 307.37 18.2146C307.372 18.122 307.413 18.0335 307.483 17.9714ZM304.586 14.866C307.581 12.0694 312.218 12.0695 315.213 14.866C315.28 14.9315 315.319 15.0216 315.32 15.116C315.321 15.2102 315.285 15.3011 315.219 15.3679L313.96 16.6443C313.83 16.7744 313.621 16.7768 313.488 16.6501C312.505 15.7562 311.225 15.2614 309.898 15.2615C308.573 15.262 307.294 15.7569 306.312 16.6501C306.179 16.777 305.969 16.7745 305.839 16.6443L304.581 15.3679C304.515 15.3011 304.478 15.2103 304.479 15.116C304.479 15.0216 304.518 14.9315 304.586 14.866ZM301.692 12.0242C306.281 7.71552 313.519 7.71534 318.107 12.0242C318.174 12.0882 318.211 12.176 318.212 12.2673C318.212 12.3586 318.176 12.4467 318.11 12.5115L316.852 13.7556C316.722 13.8832 316.511 13.8842 316.38 13.7585C314.632 12.1302 312.312 11.2226 309.9 11.2224C307.488 11.2224 305.167 12.1298 303.419 13.7585C303.287 13.8845 303.077 13.8835 302.947 13.7556L301.688 12.5115C301.623 12.4467 301.586 12.3585 301.587 12.2673C301.588 12.176 301.626 12.0881 301.692 12.0242Z" fill="black"/>
<path d="M280.178 16.3818C280.777 16.3818 281.262 16.868 281.262 17.4668V19.6348C281.262 20.2335 280.777 20.7188 280.178 20.7188H279.094C278.495 20.7187 278.01 20.2335 278.01 19.6348V17.4668C278.01 16.868 278.495 16.3819 279.094 16.3818H280.178ZM285.238 14.2139C285.837 14.2139 286.322 14.6992 286.322 15.2979V19.6348C286.322 20.2335 285.837 20.7188 285.238 20.7188H284.154C283.555 20.7187 283.07 20.2335 283.07 19.6348V15.2979C283.07 14.6992 283.555 14.2139 284.154 14.2139H285.238ZM290.297 11.6836C290.896 11.6836 291.381 12.1698 291.381 12.7686V19.6348C291.381 20.2335 290.896 20.7188 290.297 20.7188H289.213C288.615 20.7187 288.129 20.2335 288.129 19.6348V12.7686C288.129 12.1698 288.615 11.6836 289.213 11.6836H290.297ZM295.357 9.1543C295.956 9.1543 296.441 9.63959 296.441 10.2383V19.6348C296.441 20.2335 295.956 20.7188 295.357 20.7188H294.273C293.674 20.7187 293.189 20.2335 293.189 19.6348V10.2383C293.189 9.63961 293.674 9.15432 294.273 9.1543H295.357Z" fill="black"/>
<path d="M22.044 21.4602C24.9959 21.4602 26.7494 19.1518 26.7494 15.2427C26.7494 13.7707 26.4679 12.532 25.9289 11.5749C25.1487 10.0868 23.8055 9.2825 22.1083 9.2825C19.5827 9.2825 17.7971 10.9797 17.7971 13.3605C17.7971 15.5966 19.4057 17.2214 21.6177 17.2214C22.977 17.2214 24.079 16.5859 24.6259 15.484H24.65C24.65 15.484 24.6822 15.484 24.6903 15.484C24.7063 15.484 24.7627 15.484 24.7627 15.484C24.7627 18.1383 23.7572 19.7229 22.0601 19.7229C21.0627 19.7229 20.2905 19.1759 20.0251 18.2992H17.9579C18.3038 20.2055 19.9205 21.4602 22.044 21.4602ZM22.1164 15.5725C20.7812 15.5725 19.832 14.6233 19.832 13.2962C19.832 12.0012 20.8294 11.0118 22.1244 11.0118C23.4194 11.0118 24.4168 12.0173 24.4168 13.3283C24.4168 14.6233 23.4435 15.5725 22.1164 15.5725ZM30.027 19.9481C30.7911 19.9481 31.3139 19.4011 31.3139 18.6772C31.3139 17.9453 30.7911 17.4063 30.027 17.4063C29.2709 17.4063 28.74 17.9453 28.74 18.6772C28.74 19.4011 29.2709 19.9481 30.027 19.9481ZM30.027 13.9155C30.7911 13.9155 31.3139 13.3766 31.3139 12.6527C31.3139 11.9207 30.7911 11.3818 30.027 11.3818C29.2709 11.3818 28.74 11.9207 28.74 12.6527C28.74 13.3766 29.2709 13.9155 30.027 13.9155ZM33.5378 12.9664V12.9986H35.4843V12.9664C35.4843 11.784 36.3048 10.9877 37.5193 10.9877C38.6615 10.9877 39.498 11.7277 39.498 12.7492C39.498 13.5696 39.1039 14.1729 37.5193 15.7816L33.6504 19.7389V21.1787H41.7099V19.4172H36.4978V19.2805L38.9269 16.8433C40.8976 14.8968 41.533 13.8672 41.533 12.6205C41.533 10.6821 39.876 9.2825 37.5837 9.2825C35.2028 9.2825 33.5378 10.7947 33.5378 12.9664ZM44.1671 21.1787H46.3388L51.3016 11.3416V9.57206H43.226V11.3175H49.2103V11.4462L44.1671 21.1787Z" fill="black"/>
<rect x="23.5" y="144.5" width="86" height="31" rx="15.5" stroke="black"/>
<path d="M53.1427 156.322V157.565H51.0967V164H49.5567V157.565H47.5107V156.322H53.1427ZM60.0193 157.906V164H58.4683V163.23C58.2703 163.494 58.01 163.703 57.6873 163.857C57.372 164.004 57.0273 164.077 56.6533 164.077C56.1767 164.077 55.755 163.978 55.3883 163.78C55.0217 163.575 54.732 163.278 54.5193 162.889C54.314 162.493 54.2113 162.024 54.2113 161.481V157.906H55.7513V161.261C55.7513 161.745 55.8723 162.119 56.1143 162.383C56.3563 162.64 56.6863 162.768 57.1043 162.768C57.5297 162.768 57.8633 162.64 58.1053 162.383C58.3473 162.119 58.4683 161.745 58.4683 161.261V157.906H60.0193ZM62.3198 157.18C62.0411 157.18 61.8101 157.096 61.6268 156.927C61.4508 156.751 61.3628 156.535 61.3628 156.278C61.3628 156.021 61.4508 155.809 61.6268 155.64C61.8101 155.464 62.0411 155.376 62.3198 155.376C62.5911 155.376 62.8148 155.464 62.9908 155.64C63.1668 155.809 63.2548 156.021 63.2548 156.278C63.2548 156.535 63.1668 156.751 62.9908 156.927C62.8148 157.096 62.5911 157.18 62.3198 157.18ZM63.0788 165.001C63.0788 165.676 62.9101 166.16 62.5728 166.453C62.2428 166.754 61.7661 166.904 61.1428 166.904H60.4608V165.595H60.9008C61.1355 165.595 61.3005 165.547 61.3958 165.452C61.4911 165.364 61.5388 165.217 61.5388 165.012V157.906H63.0788V165.001ZM70.3533 157.906V164H68.8023V163.23C68.6043 163.494 68.344 163.703 68.0213 163.857C67.706 164.004 67.3613 164.077 66.9873 164.077C66.5106 164.077 66.089 163.978 65.7223 163.78C65.3556 163.575 65.066 163.278 64.8533 162.889C64.648 162.493 64.5453 162.024 64.5453 161.481V157.906H66.0853V161.261C66.0853 161.745 66.2063 162.119 66.4483 162.383C66.6903 162.64 67.0203 162.768 67.4383 162.768C67.8636 162.768 68.1973 162.64 68.4393 162.383C68.6813 162.119 68.8023 161.745 68.8023 161.261V157.906H70.3533ZM71.4768 160.931C71.4768 160.315 71.5978 159.769 71.8398 159.292C72.0891 158.815 72.4228 158.449 72.8408 158.192C73.2661 157.935 73.7391 157.807 74.2598 157.807C74.7144 157.807 75.1104 157.899 75.4478 158.082C75.7924 158.265 76.0674 158.496 76.2728 158.775V157.906H77.8238V164H76.2728V163.109C76.0748 163.395 75.7998 163.633 75.4478 163.824C75.1031 164.007 74.7034 164.099 74.2488 164.099C73.7354 164.099 73.2661 163.967 72.8408 163.703C72.4228 163.439 72.0891 163.069 71.8398 162.592C71.5978 162.108 71.4768 161.554 71.4768 160.931ZM76.2728 160.953C76.2728 160.579 76.1994 160.26 76.0528 159.996C75.9061 159.725 75.7081 159.519 75.4588 159.38C75.2094 159.233 74.9418 159.16 74.6558 159.16C74.3698 159.16 74.1058 159.23 73.8638 159.369C73.6218 159.508 73.4238 159.714 73.2698 159.985C73.1231 160.249 73.0498 160.564 73.0498 160.931C73.0498 161.298 73.1231 161.62 73.2698 161.899C73.4238 162.17 73.6218 162.379 73.8638 162.526C74.1131 162.673 74.3771 162.746 74.6558 162.746C74.9418 162.746 75.2094 162.676 75.4588 162.537C75.7081 162.39 75.9061 162.185 76.0528 161.921C76.1994 161.65 76.2728 161.327 76.2728 160.953ZM82.7048 157.818C83.4308 157.818 84.0175 158.049 84.4648 158.511C84.9122 158.966 85.1358 159.604 85.1358 160.425V164H83.5958V160.634C83.5958 160.15 83.4748 159.78 83.2328 159.523C82.9908 159.259 82.6608 159.127 82.2428 159.127C81.8175 159.127 81.4802 159.259 81.2308 159.523C80.9888 159.78 80.8678 160.15 80.8678 160.634V164H79.3278V157.906H80.8678V158.665C81.0732 158.401 81.3335 158.196 81.6488 158.049C81.9715 157.895 82.3235 157.818 82.7048 157.818Z" fill="#00AA13"/>
<rect x="118.5" y="144.5" width="86" height="31" rx="15.5" stroke="#A3E8AD"/>
<path d="M141.077 164L139.383 161.008H138.657V164H137.117V156.322H139.999C140.593 156.322 141.099 156.428 141.517 156.641C141.935 156.846 142.247 157.129 142.452 157.488C142.665 157.84 142.771 158.236 142.771 158.676C142.771 159.182 142.624 159.64 142.331 160.051C142.038 160.454 141.601 160.733 141.022 160.887L142.859 164H141.077ZM138.657 159.853H139.944C140.362 159.853 140.674 159.754 140.879 159.556C141.084 159.351 141.187 159.068 141.187 158.709C141.187 158.357 141.084 158.086 140.879 157.895C140.674 157.697 140.362 157.598 139.944 157.598H138.657V159.853ZM149.829 160.821C149.829 161.041 149.814 161.239 149.785 161.415H145.33C145.366 161.855 145.52 162.2 145.792 162.449C146.063 162.698 146.397 162.823 146.793 162.823C147.365 162.823 147.772 162.577 148.014 162.086H149.675C149.499 162.673 149.161 163.157 148.663 163.538C148.164 163.912 147.552 164.099 146.826 164.099C146.239 164.099 145.711 163.971 145.242 163.714C144.78 163.45 144.417 163.08 144.153 162.603C143.896 162.126 143.768 161.576 143.768 160.953C143.768 160.322 143.896 159.769 144.153 159.292C144.409 158.815 144.769 158.449 145.231 158.192C145.693 157.935 146.224 157.807 146.826 157.807C147.405 157.807 147.922 157.932 148.377 158.181C148.839 158.43 149.194 158.786 149.444 159.248C149.7 159.703 149.829 160.227 149.829 160.821ZM148.234 160.381C148.226 159.985 148.083 159.67 147.805 159.435C147.526 159.193 147.185 159.072 146.782 159.072C146.4 159.072 146.078 159.189 145.814 159.424C145.557 159.651 145.399 159.97 145.341 160.381H148.234ZM153.285 164.099C152.786 164.099 152.339 164.011 151.943 163.835C151.547 163.652 151.232 163.406 150.997 163.098C150.77 162.79 150.645 162.449 150.623 162.075H152.174C152.203 162.31 152.317 162.504 152.515 162.658C152.72 162.812 152.973 162.889 153.274 162.889C153.567 162.889 153.795 162.83 153.956 162.713C154.125 162.596 154.209 162.445 154.209 162.262C154.209 162.064 154.106 161.917 153.901 161.822C153.703 161.719 153.384 161.609 152.944 161.492C152.489 161.382 152.115 161.268 151.822 161.151C151.536 161.034 151.287 160.854 151.074 160.612C150.869 160.37 150.766 160.044 150.766 159.633C150.766 159.296 150.861 158.988 151.052 158.709C151.25 158.43 151.529 158.21 151.888 158.049C152.255 157.888 152.684 157.807 153.175 157.807C153.901 157.807 154.48 157.99 154.913 158.357C155.346 158.716 155.584 159.204 155.628 159.82H154.154C154.132 159.578 154.029 159.387 153.846 159.248C153.67 159.101 153.432 159.028 153.131 159.028C152.852 159.028 152.636 159.079 152.482 159.182C152.335 159.285 152.262 159.428 152.262 159.611C152.262 159.816 152.365 159.974 152.57 160.084C152.775 160.187 153.094 160.293 153.527 160.403C153.967 160.513 154.33 160.627 154.616 160.744C154.902 160.861 155.148 161.045 155.353 161.294C155.566 161.536 155.676 161.859 155.683 162.262C155.683 162.614 155.584 162.929 155.386 163.208C155.195 163.487 154.917 163.707 154.55 163.868C154.191 164.022 153.769 164.099 153.285 164.099ZM158.74 159.171V162.119C158.74 162.324 158.788 162.475 158.883 162.57C158.986 162.658 159.154 162.702 159.389 162.702H160.104V164H159.136C157.838 164 157.189 163.369 157.189 162.108V159.171H156.463V157.906H157.189V156.399H158.74V157.906H160.104V159.171H158.74ZM163.918 164.099C163.331 164.099 162.803 163.971 162.334 163.714C161.864 163.45 161.494 163.08 161.223 162.603C160.959 162.126 160.827 161.576 160.827 160.953C160.827 160.33 160.962 159.78 161.234 159.303C161.512 158.826 161.89 158.46 162.367 158.203C162.843 157.939 163.375 157.807 163.962 157.807C164.548 157.807 165.08 157.939 165.557 158.203C166.033 158.46 166.407 158.826 166.679 159.303C166.957 159.78 167.097 160.33 167.097 160.953C167.097 161.576 166.954 162.126 166.668 162.603C166.389 163.08 166.008 163.45 165.524 163.714C165.047 163.971 164.512 164.099 163.918 164.099ZM163.918 162.757C164.196 162.757 164.457 162.691 164.699 162.559C164.948 162.42 165.146 162.214 165.293 161.943C165.439 161.672 165.513 161.342 165.513 160.953C165.513 160.374 165.359 159.93 165.051 159.622C164.75 159.307 164.38 159.149 163.94 159.149C163.5 159.149 163.129 159.307 162.829 159.622C162.535 159.93 162.389 160.374 162.389 160.953C162.389 161.532 162.532 161.98 162.818 162.295C163.111 162.603 163.478 162.757 163.918 162.757ZM169.766 158.852C169.964 158.529 170.221 158.276 170.536 158.093C170.859 157.91 171.226 157.818 171.636 157.818V159.435H171.229C170.745 159.435 170.379 159.549 170.129 159.776C169.887 160.003 169.766 160.399 169.766 160.964V164H168.226V157.906H169.766V158.852ZM172.278 160.931C172.278 160.315 172.399 159.769 172.641 159.292C172.89 158.815 173.224 158.449 173.642 158.192C174.067 157.935 174.54 157.807 175.061 157.807C175.515 157.807 175.911 157.899 176.249 158.082C176.593 158.265 176.868 158.496 177.074 158.775V157.906H178.625V164H177.074V163.109C176.876 163.395 176.601 163.633 176.249 163.824C175.904 164.007 175.504 164.099 175.05 164.099C174.536 164.099 174.067 163.967 173.642 163.703C173.224 163.439 172.89 163.069 172.641 162.592C172.399 162.108 172.278 161.554 172.278 160.931ZM177.074 160.953C177.074 160.579 177 160.26 176.854 159.996C176.707 159.725 176.509 159.519 176.26 159.38C176.01 159.233 175.743 159.16 175.457 159.16C175.171 159.16 174.907 159.23 174.665 159.369C174.423 159.508 174.225 159.714 174.071 159.985C173.924 160.249 173.851 160.564 173.851 160.931C173.851 161.298 173.924 161.62 174.071 161.899C174.225 162.17 174.423 162.379 174.665 162.526C174.914 162.673 175.178 162.746 175.457 162.746C175.743 162.746 176.01 162.676 176.26 162.537C176.509 162.39 176.707 162.185 176.854 161.921C177 161.65 177.074 161.327 177.074 160.953ZM183.506 157.818C184.232 157.818 184.818 158.049 185.266 158.511C185.713 158.966 185.937 159.604 185.937 160.425V164H184.397V160.634C184.397 160.15 184.276 159.78 184.034 159.523C183.792 159.259 183.462 159.127 183.044 159.127C182.618 159.127 182.281 159.259 182.032 159.523C181.79 159.78 181.669 160.15 181.669 160.634V164H180.129V157.906H181.669V158.665C181.874 158.401 182.134 158.196 182.45 158.049C182.772 157.895 183.124 157.818 183.506 157.818Z" fill="#00AA13"/>
<path d="M22.2935 48.2935C22.684 47.9029 23.317 47.9029 23.7075 48.2935C24.0976 48.684 24.0979 49.3171 23.7075 49.7075L18.4146 55.0005H30.0005C30.5526 55.0007 31.0005 55.4483 31.0005 56.0005C31.0003 56.5525 30.5525 57.0003 30.0005 57.0005H18.4146L23.7075 62.2935C24.0976 62.684 24.0979 63.3171 23.7075 63.7075C23.3171 64.0979 22.684 64.0976 22.2935 63.7075L15.2935 56.7075C14.9029 56.317 14.9029 55.684 15.2935 55.2935L22.2935 48.2935Z" fill="black"/>
</g>
<defs>
<clipPath id="clip0_199_3262">
<rect width="360" height="800" fill="white"/>
</clipPath>
</defs>
</svg>
