<svg width="360" height="800" viewBox="0 0 360 800" fill="none" xmlns="http://www.w3.org/2000/svg">
<g clip-path="url(#clip0_199_3262)">
<rect width="360" height="800" fill="white"/>
<rect opacity="0.35" x="324.449" y="9.33482" width="22.768" height="11.2033" rx="2.34908" stroke="black" stroke-width="1.08419"/>
<path opacity="0.4" d="M348.844 12.7681V17.1048C349.72 16.7375 350.289 15.8831 350.289 14.9365C350.289 13.9898 349.72 13.1354 348.844 12.7681Z" fill="black"/>
<rect x="326.076" y="10.9612" width="19.5155" height="7.95075" rx="1.44559" fill="black"/>
<path d="M307.483 17.9714C308.878 16.8162 310.921 16.816 312.316 17.9714C312.387 18.0336 312.428 18.122 312.43 18.2146C312.431 18.3071 312.394 18.3959 312.326 18.4607L310.142 20.6199C310.078 20.6832 309.99 20.7185 309.899 20.7185C309.808 20.7185 309.721 20.6833 309.657 20.6199L307.473 18.4607C307.405 18.3959 307.368 18.307 307.37 18.2146C307.372 18.122 307.413 18.0335 307.483 17.9714ZM304.586 14.866C307.581 12.0694 312.218 12.0695 315.213 14.866C315.28 14.9315 315.319 15.0216 315.32 15.116C315.321 15.2102 315.285 15.3011 315.219 15.3679L313.96 16.6443C313.83 16.7744 313.621 16.7768 313.488 16.6501C312.505 15.7562 311.225 15.2614 309.898 15.2615C308.573 15.262 307.294 15.7569 306.312 16.6501C306.179 16.777 305.969 16.7745 305.839 16.6443L304.581 15.3679C304.515 15.3011 304.478 15.2103 304.479 15.116C304.479 15.0216 304.518 14.9315 304.586 14.866ZM301.692 12.0242C306.281 7.71552 313.519 7.71534 318.107 12.0242C318.174 12.0882 318.211 12.176 318.212 12.2673C318.212 12.3586 318.176 12.4467 318.11 12.5115L316.852 13.7556C316.722 13.8832 316.511 13.8842 316.38 13.7585C314.632 12.1302 312.312 11.2226 309.9 11.2224C307.488 11.2224 305.167 12.1298 303.419 13.7585C303.287 13.8845 303.077 13.8835 302.947 13.7556L301.688 12.5115C301.623 12.4467 301.586 12.3585 301.587 12.2673C301.588 12.176 301.626 12.0881 301.692 12.0242Z" fill="black"/>
<path d="M280.178 16.3818C280.777 16.3818 281.262 16.868 281.262 17.4668V19.6348C281.262 20.2335 280.777 20.7188 280.178 20.7188H279.094C278.495 20.7187 278.01 20.2335 278.01 19.6348V17.4668C278.01 16.868 278.495 16.3819 279.094 16.3818H280.178ZM285.238 14.2139C285.837 14.2139 286.322 14.6992 286.322 15.2979V19.6348C286.322 20.2335 285.837 20.7188 285.238 20.7188H284.154C283.555 20.7187 283.07 20.2335 283.07 19.6348V15.2979C283.07 14.6992 283.555 14.2139 284.154 14.2139H285.238ZM290.297 11.6836C290.896 11.6836 291.381 12.1698 291.381 12.7686V19.6348C291.381 20.2335 290.896 20.7188 290.297 20.7188H289.213C288.615 20.7187 288.129 20.2335 288.129 19.6348V12.7686C288.129 12.1698 288.615 11.6836 289.213 11.6836H290.297ZM295.357 9.1543C295.956 9.1543 296.441 9.63959 296.441 10.2383V19.6348C296.441 20.2335 295.956 20.7188 295.357 20.7188H294.273C293.674 20.7187 293.189 20.2335 293.189 19.6348V10.2383C293.189 9.63961 293.674 9.15432 294.273 9.1543H295.357Z" fill="black"/>
<path d="M22.044 21.4602C24.9959 21.4602 26.7494 19.1518 26.7494 15.2427C26.7494 13.7707 26.4679 12.532 25.9289 11.5749C25.1487 10.0868 23.8055 9.2825 22.1083 9.2825C19.5827 9.2825 17.7971 10.9797 17.7971 13.3605C17.7971 15.5966 19.4057 17.2214 21.6177 17.2214C22.977 17.2214 24.079 16.5859 24.6259 15.484H24.65C24.65 15.484 24.6822 15.484 24.6903 15.484C24.7063 15.484 24.7627 15.484 24.7627 15.484C24.7627 18.1383 23.7572 19.7229 22.0601 19.7229C21.0627 19.7229 20.2905 19.1759 20.0251 18.2992H17.9579C18.3038 20.2055 19.9205 21.4602 22.044 21.4602ZM22.1164 15.5725C20.7812 15.5725 19.832 14.6233 19.832 13.2962C19.832 12.0012 20.8294 11.0118 22.1244 11.0118C23.4194 11.0118 24.4168 12.0173 24.4168 13.3283C24.4168 14.6233 23.4435 15.5725 22.1164 15.5725ZM30.027 19.9481C30.7911 19.9481 31.3139 19.4011 31.3139 18.6772C31.3139 17.9453 30.7911 17.4063 30.027 17.4063C29.2709 17.4063 28.74 17.9453 28.74 18.6772C28.74 19.4011 29.2709 19.9481 30.027 19.9481ZM30.027 13.9155C30.7911 13.9155 31.3139 13.3766 31.3139 12.6527C31.3139 11.9207 30.7911 11.3818 30.027 11.3818C29.2709 11.3818 28.74 11.9207 28.74 12.6527C28.74 13.3766 29.2709 13.9155 30.027 13.9155ZM33.5378 12.9664V12.9986H35.4843V12.9664C35.4843 11.784 36.3048 10.9877 37.5193 10.9877C38.6615 10.9877 39.498 11.7277 39.498 12.7492C39.498 13.5696 39.1039 14.1729 37.5193 15.7816L33.6504 19.7389V21.1787H41.7099V19.4172H36.4978V19.2805L38.9269 16.8433C40.8976 14.8968 41.533 13.8672 41.533 12.6205C41.533 10.6821 39.876 9.2825 37.5837 9.2825C35.2028 9.2825 33.5378 10.7947 33.5378 12.9664ZM44.1671 21.1787H46.3388L51.3016 11.3416V9.57206H43.226V11.3175H49.2103V11.4462L44.1671 21.1787Z" fill="black"/>
<rect x="23.5" y="144.5" width="86" height="31" rx="15.5" stroke="black"/>
<path d="M53.1427 156.322V157.565H51.0967V164H49.5567V157.565H47.5107V156.322H53.1427ZM60.0193 157.906V164H58.4683V163.23C58.2703 163.494 58.01 163.703 57.6873 163.857C57.372 164.004 57.0273 164.077 56.6533 164.077C56.1767 164.077 55.755 163.978 55.3883 163.78C55.0217 163.575 54.732 163.278 54.5193 162.889C54.314 162.493 54.2113 162.024 54.2113 161.481V157.906H55.7513V161.261C55.7513 161.745 55.8723 162.119 56.1143 162.383C56.3563 162.64 56.6863 162.768 57.1043 162.768C57.5297 162.768 57.8633 162.64 58.1053 162.383C58.3473 162.119 58.4683 161.745 58.4683 161.261V157.906H60.0193ZM62.3198 157.18C62.0411 157.18 61.8101 157.096 61.6268 156.927C61.4508 156.751 61.3628 156.535 61.3628 156.278C61.3628 156.021 61.4508 155.809 61.6268 155.64C61.8101 155.464 62.0411 155.376 62.3198 155.376C62.5911 155.376 62.8148 155.464 62.9908 155.64C63.1668 155.809 63.2548 156.021 63.2548 156.278C63.2548 156.535 63.1668 156.751 62.9908 156.927C62.8148 157.096 62.5911 157.18 62.3198 157.18ZM63.0788 165.001C63.0788 165.676 62.9101 166.16 62.5728 166.453C62.2428 166.754 61.7661 166.904 61.1428 166.904H60.4608V165.595H60.9008C61.1355 165.595 61.3005 165.547 61.3958 165.452C61.4911 165.364 61.5388 165.217 61.5388 165.012V157.906H63.0788V165.001ZM70.3533 157.906V164H68.8023V163.23C68.6043 163.494 68.344 163.703 68.0213 163.857C67.706 164.004 67.3613 164.077 66.9873 164.077C66.5106 164.077 66.089 163.978 65.7223 163.78C65.3556 163.575 65.066 163.278 64.8533 162.889C64.648 162.493 64.5453 162.024 64.5453 161.481V157.906H66.0853V161.261C66.0853 161.745 66.2063 162.119 66.4483 162.383C66.6903 162.64 67.0203 162.768 67.4383 162.768C67.8636 162.768 68.1973 162.64 68.4393 162.383C68.6813 162.119 68.8023 161.745 68.8023 161.261V157.906H70.3533ZM71.4768 160.931C71.4768 160.315 71.5978 159.769 71.8398 159.292C72.0891 158.815 72.4228 158.449 72.8408 158.192C73.2661 157.935 73.7391 157.807 74.2598 157.807C74.7144 157.807 75.1104 157.899 75.4478 158.082C75.7924 158.265 76.0674 158.496 76.2728 158.775V157.906H77.8238V164H76.2728V163.109C76.0748 163.395 75.7998 163.633 75.4478 163.824C75.1031 164.007 74.7034 164.099 74.2488 164.099C73.7354 164.099 73.2661 163.967 72.8408 163.703C72.4228 163.439 72.0891 163.069 71.8398 162.592C71.5978 162.108 71.4768 161.554 71.4768 160.931ZM76.2728 160.953C76.2728 160.579 76.1994 160.26 76.0528 159.996C75.9061 159.725 75.7081 159.519 75.4588 159.38C75.2094 159.233 74.9418 159.16 74.6558 159.16C74.3698 159.16 74.1058 159.23 73.8638 159.369C73.6218 159.508 73.4238 159.714 73.2698 159.985C73.1231 160.249 73.0498 160.564 73.0498 160.931C73.0498 161.298 73.1231 161.62 73.2698 161.899C73.4238 162.17 73.6218 162.379 73.8638 162.526C74.1131 162.673 74.3771 162.746 74.6558 162.746C74.9418 162.746 75.2094 162.676 75.4588 162.537C75.7081 162.39 75.9061 162.185 76.0528 161.921C76.1994 161.65 76.2728 161.327 76.2728 160.953ZM82.7048 157.818C83.4308 157.818 84.0175 158.049 84.4648 158.511C84.9122 158.966 85.1358 159.604 85.1358 160.425V164H83.5958V160.634C83.5958 160.15 83.4748 159.78 83.2328 159.523C82.9908 159.259 82.6608 159.127 82.2428 159.127C81.8175 159.127 81.4802 159.259 81.2308 159.523C80.9888 159.78 80.8678 160.15 80.8678 160.634V164H79.3278V157.906H80.8678V158.665C81.0732 158.401 81.3335 158.196 81.6488 158.049C81.9715 157.895 82.3235 157.818 82.7048 157.818Z" fill="#00AA13"/>
<rect x="118.5" y="144.5" width="86" height="31" rx="15.5" stroke="#A3E8AD"/>
<path d="M141.077 164L139.383 161.008H138.657V164H137.117V156.322H139.999C140.593 156.322 141.099 156.428 141.517 156.641C141.935 156.846 142.247 157.129 142.452 157.488C142.665 157.84 142.771 158.236 142.771 158.676C142.771 159.182 142.624 159.64 142.331 160.051C142.038 160.454 141.601 160.733 141.022 160.887L142.859 164H141.077ZM138.657 159.853H139.944C140.362 159.853 140.674 159.754 140.879 159.556C141.084 159.351 141.187 159.068 141.187 158.709C141.187 158.357 141.084 158.086 140.879 157.895C140.674 157.697 140.362 157.598 139.944 157.598H138.657V159.853ZM149.829 160.821C149.829 161.041 149.814 161.239 149.785 161.415H145.33C145.366 161.855 145.52 162.2 145.792 162.449C146.063 162.698 146.397 162.823 146.793 162.823C147.365 162.823 147.772 162.577 148.014 162.086H149.675C149.499 162.673 149.161 163.157 148.663 163.538C148.164 163.912 147.552 164.099 146.826 164.099C146.239 164.099 145.711 163.971 145.242 163.714C144.78 163.45 144.417 163.08 144.153 162.603C143.896 162.126 143.768 161.576 143.768 160.953C143.768 160.322 143.896 159.769 144.153 159.292C144.409 158.815 144.769 158.449 145.231 158.192C145.693 157.935 146.224 157.807 146.826 157.807C147.405 157.807 147.922 157.932 148.377 158.181C148.839 158.43 149.194 158.786 149.444 159.248C149.7 159.703 149.829 160.227 149.829 160.821ZM148.234 160.381C148.226 159.985 148.083 159.67 147.805 159.435C147.526 159.193 147.185 159.072 146.782 159.072C146.4 159.072 146.078 159.189 145.814 159.424C145.557 159.651 145.399 159.97 145.341 160.381H148.234ZM153.285 164.099C152.786 164.099 152.339 164.011 151.943 163.835C151.547 163.652 151.232 163.406 150.997 163.098C150.77 162.79 150.645 162.449 150.623 162.075H152.174C152.203 162.31 152.317 162.504 152.515 162.658C152.72 162.812 152.973 162.889 153.274 162.889C153.567 162.889 153.795 162.83 153.956 162.713C154.125 162.596 154.209 162.445 154.209 162.262C154.209 162.064 154.106 161.917 153.901 161.822C153.703 161.719 153.384 161.609 152.944 161.492C152.489 161.382 152.115 161.268 151.822 161.151C151.536 161.034 151.287 160.854 151.074 160.612C150.869 160.37 150.766 160.044 150.766 159.633C150.766 159.296 150.861 158.988 151.052 158.709C151.25 158.43 151.529 158.21 151.888 158.049C152.255 157.888 152.684 157.807 153.175 157.807C153.901 157.807 154.48 157.99 154.913 158.357C155.346 158.716 155.584 159.204 155.628 159.82H154.154C154.132 159.578 154.029 159.387 153.846 159.248C153.67 159.101 153.432 159.028 153.131 159.028C152.852 159.028 152.636 159.079 152.482 159.182C152.335 159.285 152.262 159.428 152.262 159.611C152.262 159.816 152.365 159.974 152.57 160.084C152.775 160.187 153.094 160.293 153.527 160.403C153.967 160.513 154.33 160.627 154.616 160.744C154.902 160.861 155.148 161.045 155.353 161.294C155.566 161.536 155.676 161.859 155.683 162.262C155.683 162.614 155.584 162.929 155.386 163.208C155.195 163.487 154.917 163.707 154.55 163.868C154.191 164.022 153.769 164.099 153.285 164.099ZM158.74 159.171V162.119C158.74 162.324 158.788 162.475 158.883 162.57C158.986 162.658 159.154 162.702 159.389 162.702H160.104V164H159.136C157.838 164 157.189 163.369 157.189 162.108V159.171H156.463V157.906H157.189V156.399H158.74V157.906H160.104V159.171H158.74ZM163.918 164.099C163.331 164.099 162.803 163.971 162.334 163.714C161.864 163.45 161.494 163.08 161.223 162.603C160.959 162.126 160.827 161.576 160.827 160.953C160.827 160.33 160.962 159.78 161.234 159.303C161.512 158.826 161.89 158.46 162.367 158.203C162.843 157.939 163.375 157.807 163.962 157.807C164.548 157.807 165.08 157.939 165.557 158.203C166.033 158.46 166.407 158.826 166.679 159.303C166.957 159.78 167.097 160.33 167.097 160.953C167.097 161.576 166.954 162.126 166.668 162.603C166.389 163.08 166.008 163.45 165.524 163.714C165.047 163.971 164.512 164.099 163.918 164.099ZM163.918 162.757C164.196 162.757 164.457 162.691 164.699 162.559C164.948 162.42 165.146 162.214 165.293 161.943C165.439 161.672 165.513 161.342 165.513 160.953C165.513 160.374 165.359 159.93 165.051 159.622C164.75 159.307 164.38 159.149 163.94 159.149C163.5 159.149 163.129 159.307 162.829 159.622C162.535 159.93 162.389 160.374 162.389 160.953C162.389 161.532 162.532 161.98 162.818 162.295C163.111 162.603 163.478 162.757 163.918 162.757ZM169.766 158.852C169.964 158.529 170.221 158.276 170.536 158.093C170.859 157.91 171.226 157.818 171.636 157.818V159.435H171.229C170.745 159.435 170.379 159.549 170.129 159.776C169.887 160.003 169.766 160.399 169.766 160.964V164H168.226V157.906H169.766V158.852ZM172.278 160.931C172.278 160.315 172.399 159.769 172.641 159.292C172.89 158.815 173.224 158.449 173.642 158.192C174.067 157.935 174.54 157.807 175.061 157.807C175.515 157.807 175.911 157.899 176.249 158.082C176.593 158.265 176.868 158.496 177.074 158.775V157.906H178.625V164H177.074V163.109C176.876 163.395 176.601 163.633 176.249 163.824C175.904 164.007 175.504 164.099 175.05 164.099C174.536 164.099 174.067 163.967 173.642 163.703C173.224 163.439 172.89 163.069 172.641 162.592C172.399 162.108 172.278 161.554 172.278 160.931ZM177.074 160.953C177.074 160.579 177 160.26 176.854 159.996C176.707 159.725 176.509 159.519 176.26 159.38C176.01 159.233 175.743 159.16 175.457 159.16C175.171 159.16 174.907 159.23 174.665 159.369C174.423 159.508 174.225 159.714 174.071 159.985C173.924 160.249 173.851 160.564 173.851 160.931C173.851 161.298 173.924 161.62 174.071 161.899C174.225 162.17 174.423 162.379 174.665 162.526C174.914 162.673 175.178 162.746 175.457 162.746C175.743 162.746 176.01 162.676 176.26 162.537C176.509 162.39 176.707 162.185 176.854 161.921C177 161.65 177.074 161.327 177.074 160.953ZM183.506 157.818C184.232 157.818 184.818 158.049 185.266 158.511C185.713 158.966 185.937 159.604 185.937 160.425V164H184.397V160.634C184.397 160.15 184.276 159.78 184.034 159.523C183.792 159.259 183.462 159.127 183.044 159.127C182.618 159.127 182.281 159.259 182.032 159.523C181.79 159.78 181.669 160.15 181.669 160.634V164H180.129V157.906H181.669V158.665C181.874 158.401 182.134 158.196 182.45 158.049C182.772 157.895 183.124 157.818 183.506 157.818Z" fill="#00AA13"/>
<path d="M22.2935 48.2935C22.684 47.9029 23.317 47.9029 23.7075 48.2935C24.0976 48.684 24.0979 49.3171 23.7075 49.7075L18.4146 55.0005H30.0005C30.5526 55.0007 31.0005 55.4483 31.0005 56.0005C31.0003 56.5525 30.5525 57.0003 30.0005 57.0005H18.4146L23.7075 62.2935C24.0976 62.684 24.0979 63.3171 23.7075 63.7075C23.3171 64.0979 22.684 64.0976 22.2935 63.7075L15.2935 56.7075C14.9029 56.317 14.9029 55.684 15.2935 55.2935L22.2935 48.2935Z" fill="black"/>
<g filter="url(#filter0_d_199_3262)">
<rect x="21" y="84" width="317" height="43" rx="21.5" fill="white" shape-rendering="crispEdges"/>
<rect x="21.5" y="84.5" width="316" height="42" rx="21" stroke="black" shape-rendering="crispEdges"/>
<path d="M45.9362 112.705C47.8607 112.705 49.7296 112.061 51.2455 110.875L56.0116 115.641L57.5447 114.108L52.7786 109.342C53.9647 107.826 54.6093 105.957 54.6098 104.032C54.6098 99.2496 50.7186 95.3584 45.9362 95.3584C41.1539 95.3584 37.2627 99.2496 37.2627 104.032C37.2627 108.814 41.1539 112.705 45.9362 112.705ZM45.9362 97.5268C49.5238 97.5268 52.4414 100.444 52.4414 104.032C52.4414 107.62 49.5238 110.537 45.9362 110.537C42.3486 110.537 39.4311 107.62 39.4311 104.032C39.4311 100.444 42.3486 97.5268 45.9362 97.5268Z" fill="#555555"/>
<path d="M67.2149 110.5V103.403H68.5408V104.559H68.6286C68.7765 104.167 69.0183 103.862 69.354 103.644C69.6897 103.422 70.0917 103.311 70.5598 103.311C71.0342 103.311 71.4315 103.422 71.7518 103.644C72.0752 103.865 72.314 104.17 72.468 104.559H72.5419C72.7113 104.18 72.9808 103.878 73.3504 103.653C73.72 103.425 74.1605 103.311 74.6718 103.311C75.3155 103.311 75.8407 103.513 76.2472 103.916C76.6569 104.32 76.8617 104.928 76.8617 105.741V110.5H75.4803V105.871C75.4803 105.39 75.3494 105.042 75.0876 104.826C74.8258 104.611 74.5131 104.503 74.1497 104.503C73.7 104.503 73.3504 104.642 73.1009 104.919C72.8514 105.193 72.7267 105.546 72.7267 105.977V110.5H71.3499V105.783C71.3499 105.398 71.2298 105.088 70.9895 104.854C70.7493 104.62 70.4366 104.503 70.0516 104.503C69.7898 104.503 69.548 104.572 69.3263 104.711C69.1076 104.846 68.9305 105.036 68.7949 105.279C68.6625 105.523 68.5963 105.804 68.5963 106.125V110.5H67.2149ZM80.417 110.657C79.9673 110.657 79.5608 110.574 79.1973 110.408C78.8339 110.238 78.5459 109.993 78.3333 109.673C78.1239 109.353 78.0192 108.96 78.0192 108.495C78.0192 108.094 78.0962 107.765 78.2502 107.506C78.4042 107.247 78.6121 107.043 78.8739 106.892C79.1357 106.741 79.4283 106.627 79.7517 106.55C80.0751 106.473 80.4047 106.414 80.7404 106.374C81.1655 106.325 81.5105 106.285 81.7754 106.254C82.0402 106.22 82.2327 106.166 82.3529 106.092C82.473 106.018 82.5331 105.898 82.5331 105.732V105.7C82.5331 105.296 82.4191 104.984 82.1912 104.762C81.9663 104.54 81.6306 104.429 81.184 104.429C80.7189 104.429 80.3524 104.532 80.0844 104.739C79.8195 104.942 79.6362 105.168 79.5346 105.418L78.2363 105.122C78.3903 104.691 78.6152 104.343 78.9109 104.078C79.2096 103.81 79.5531 103.616 79.9412 103.496C80.3292 103.373 80.7374 103.311 81.1655 103.311C81.4489 103.311 81.7492 103.345 82.0664 103.413C82.3868 103.477 82.6855 103.598 82.9627 103.773C83.243 103.949 83.4725 104.2 83.6511 104.526C83.8298 104.85 83.9191 105.27 83.9191 105.787V110.5H82.57V109.53H82.5146C82.4253 109.708 82.2913 109.884 82.1126 110.056C81.934 110.229 81.7045 110.372 81.4242 110.486C81.1439 110.6 80.8082 110.657 80.417 110.657ZM80.7173 109.548C81.0993 109.548 81.4258 109.473 81.6968 109.322C81.9709 109.171 82.1788 108.974 82.3205 108.73C82.4653 108.484 82.5377 108.221 82.5377 107.94V107.026C82.4884 107.075 82.3929 107.121 82.2512 107.164C82.1126 107.204 81.954 107.24 81.7754 107.271C81.5967 107.298 81.4227 107.324 81.2533 107.349C81.0839 107.371 80.9422 107.389 80.8282 107.405C80.5603 107.438 80.3154 107.495 80.0936 107.575C79.8749 107.656 79.6994 107.771 79.5669 107.922C79.4376 108.07 79.3729 108.267 79.3729 108.513C79.3729 108.855 79.4992 109.114 79.7517 109.29C80.0043 109.462 80.3262 109.548 80.7173 109.548ZM89.8931 107.557V103.403H91.2791V110.5H89.9208V109.271H89.8469C89.6836 109.65 89.4218 109.966 89.0614 110.218C88.7042 110.468 88.2591 110.592 87.7262 110.592C87.2704 110.592 86.8669 110.492 86.5157 110.292C86.1677 110.089 85.8936 109.788 85.6934 109.391C85.4962 108.994 85.3977 108.503 85.3977 107.917V103.403H86.7791V107.751C86.7791 108.235 86.9131 108.62 87.181 108.906C87.449 109.193 87.7971 109.336 88.2252 109.336C88.4839 109.336 88.7411 109.271 88.9968 109.142C89.2555 109.012 89.4696 108.817 89.639 108.555C89.8114 108.293 89.8961 107.96 89.8931 107.557ZM97.1261 108.093L97.1169 106.407H97.3572L100.185 103.403H101.839L98.6138 106.822H98.3967L97.1261 108.093ZM95.8556 110.5V101.038H97.237V110.5H95.8556ZM100.337 110.5L97.7961 107.127L98.7478 106.162L102.033 110.5H100.337ZM105.503 110.643C104.803 110.643 104.201 110.494 103.696 110.195C103.194 109.893 102.806 109.47 102.532 108.925C102.261 108.376 102.125 107.734 102.125 106.998C102.125 106.271 102.261 105.63 102.532 105.076C102.806 104.522 103.188 104.089 103.678 103.778C104.17 103.467 104.746 103.311 105.406 103.311C105.806 103.311 106.194 103.377 106.57 103.51C106.946 103.642 107.283 103.85 107.582 104.133C107.88 104.417 108.116 104.785 108.289 105.238C108.461 105.687 108.547 106.234 108.547 106.878V107.368H102.906V106.333H107.194C107.194 105.969 107.12 105.647 106.972 105.367C106.824 105.084 106.616 104.86 106.348 104.697C106.083 104.534 105.772 104.452 105.415 104.452C105.027 104.452 104.688 104.548 104.398 104.739C104.112 104.927 103.89 105.173 103.733 105.478C103.579 105.78 103.502 106.108 103.502 106.462V107.271C103.502 107.745 103.585 108.148 103.752 108.481C103.921 108.814 104.157 109.068 104.458 109.243C104.76 109.416 105.113 109.502 105.516 109.502C105.778 109.502 106.017 109.465 106.233 109.391C106.448 109.314 106.635 109.2 106.792 109.049C106.949 108.898 107.069 108.712 107.152 108.49L108.459 108.726C108.355 109.111 108.167 109.448 107.896 109.738C107.628 110.024 107.291 110.247 106.884 110.408C106.481 110.565 106.02 110.643 105.503 110.643ZM109.719 110.5V103.403H111.045V104.559H111.132C111.28 104.167 111.522 103.862 111.858 103.644C112.193 103.422 112.595 103.311 113.064 103.311C113.538 103.311 113.935 103.422 114.256 103.644C114.579 103.865 114.818 104.17 114.972 104.559H115.046C115.215 104.18 115.485 103.878 115.854 103.653C116.224 103.425 116.664 103.311 117.175 103.311C117.819 103.311 118.344 103.513 118.751 103.916C119.161 104.32 119.365 104.928 119.365 105.741V110.5H117.984V105.871C117.984 105.39 117.853 105.042 117.591 104.826C117.33 104.611 117.017 104.503 116.653 104.503C116.204 104.503 115.854 104.642 115.605 104.919C115.355 105.193 115.23 105.546 115.23 105.977V110.5H113.854V105.783C113.854 105.398 113.733 105.088 113.493 104.854C113.253 104.62 112.94 104.503 112.555 104.503C112.294 104.503 112.052 104.572 111.83 104.711C111.611 104.846 111.434 105.036 111.299 105.279C111.166 105.523 111.1 105.804 111.1 106.125V110.5H109.719ZM122.921 110.657C122.471 110.657 122.065 110.574 121.701 110.408C121.338 110.238 121.05 109.993 120.837 109.673C120.628 109.353 120.523 108.96 120.523 108.495C120.523 108.094 120.6 107.765 120.754 107.506C120.908 107.247 121.116 107.043 121.378 106.892C121.639 106.741 121.932 106.627 122.255 106.55C122.579 106.473 122.908 106.414 123.244 106.374C123.669 106.325 124.014 106.285 124.279 106.254C124.544 106.22 124.736 106.166 124.857 106.092C124.977 106.018 125.037 105.898 125.037 105.732V105.7C125.037 105.296 124.923 104.984 124.695 104.762C124.47 104.54 124.134 104.429 123.688 104.429C123.223 104.429 122.856 104.532 122.588 104.739C122.323 104.942 122.14 105.168 122.038 105.418L120.74 105.122C120.894 104.691 121.119 104.343 121.415 104.078C121.713 103.81 122.057 103.616 122.445 103.496C122.833 103.373 123.241 103.311 123.669 103.311C123.953 103.311 124.253 103.345 124.57 103.413C124.89 103.477 125.189 103.598 125.466 103.773C125.747 103.949 125.976 104.2 126.155 104.526C126.334 104.85 126.423 105.27 126.423 105.787V110.5H125.074V109.53H125.018C124.929 109.708 124.795 109.884 124.616 110.056C124.438 110.229 124.208 110.372 123.928 110.486C123.648 110.6 123.312 110.657 122.921 110.657ZM123.221 109.548C123.603 109.548 123.93 109.473 124.201 109.322C124.475 109.171 124.683 108.974 124.824 108.73C124.969 108.484 125.041 108.221 125.041 107.94V107.026C124.992 107.075 124.897 107.121 124.755 107.164C124.616 107.204 124.458 107.24 124.279 107.271C124.1 107.298 123.926 107.324 123.757 107.349C123.588 107.371 123.446 107.389 123.332 107.405C123.064 107.438 122.819 107.495 122.597 107.575C122.379 107.656 122.203 107.771 122.071 107.922C121.941 108.07 121.877 108.267 121.877 108.513C121.877 108.855 122.003 109.114 122.255 109.29C122.508 109.462 122.83 109.548 123.221 109.548ZM129.283 106.286V110.5H127.901V103.403H129.227V104.559H129.315C129.478 104.183 129.734 103.881 130.082 103.653C130.433 103.425 130.875 103.311 131.408 103.311C131.892 103.311 132.315 103.413 132.679 103.616C133.042 103.816 133.324 104.115 133.524 104.512C133.724 104.91 133.824 105.401 133.824 105.986V110.5H132.443V106.152C132.443 105.638 132.309 105.236 132.041 104.947C131.773 104.654 131.405 104.508 130.937 104.508C130.617 104.508 130.332 104.577 130.082 104.716C129.836 104.854 129.64 105.057 129.495 105.325C129.354 105.59 129.283 105.911 129.283 106.286ZM137.381 110.657C136.931 110.657 136.525 110.574 136.161 110.408C135.798 110.238 135.51 109.993 135.297 109.673C135.088 109.353 134.983 108.96 134.983 108.495C134.983 108.094 135.06 107.765 135.214 107.506C135.368 107.247 135.576 107.043 135.838 106.892C136.1 106.741 136.392 106.627 136.716 106.55C137.039 106.473 137.369 106.414 137.704 106.374C138.129 106.325 138.474 106.285 138.739 106.254C139.004 106.22 139.197 106.166 139.317 106.092C139.437 106.018 139.497 105.898 139.497 105.732V105.7C139.497 105.296 139.383 104.984 139.155 104.762C138.93 104.54 138.594 104.429 138.148 104.429C137.683 104.429 137.316 104.532 137.048 104.739C136.783 104.942 136.6 105.168 136.498 105.418L135.2 105.122C135.354 104.691 135.579 104.343 135.875 104.078C136.174 103.81 136.517 103.616 136.905 103.496C137.293 103.373 137.701 103.311 138.129 103.311C138.413 103.311 138.713 103.345 139.03 103.413C139.351 103.477 139.649 103.598 139.927 103.773C140.207 103.949 140.436 104.2 140.615 104.526C140.794 104.85 140.883 105.27 140.883 105.787V110.5H139.534V109.53H139.478C139.389 109.708 139.255 109.884 139.076 110.056C138.898 110.229 138.668 110.372 138.388 110.486C138.108 110.6 137.772 110.657 137.381 110.657ZM137.681 109.548C138.063 109.548 138.39 109.473 138.661 109.322C138.935 109.171 139.143 108.974 139.284 108.73C139.429 108.484 139.502 108.221 139.502 107.94V107.026C139.452 107.075 139.357 107.121 139.215 107.164C139.076 107.204 138.918 107.24 138.739 107.271C138.561 107.298 138.387 107.324 138.217 107.349C138.048 107.371 137.906 107.389 137.792 107.405C137.524 107.438 137.279 107.495 137.057 107.575C136.839 107.656 136.663 107.771 136.531 107.922C136.401 108.07 136.337 108.267 136.337 108.513C136.337 108.855 136.463 109.114 136.716 109.29C136.968 109.462 137.29 109.548 137.681 109.548ZM146.825 106.286V110.5H145.443V101.038H146.806V104.559H146.894C147.06 104.177 147.314 103.873 147.656 103.648C147.998 103.423 148.445 103.311 148.996 103.311C149.483 103.311 149.908 103.411 150.271 103.611C150.638 103.812 150.921 104.11 151.121 104.508C151.325 104.902 151.426 105.395 151.426 105.986V110.5H150.045V106.152C150.045 105.632 149.911 105.228 149.643 104.942C149.375 104.652 149.002 104.508 148.525 104.508C148.198 104.508 147.906 104.577 147.647 104.716C147.391 104.854 147.19 105.057 147.042 105.325C146.897 105.59 146.825 105.911 146.825 106.286ZM154.974 110.657C154.524 110.657 154.117 110.574 153.754 110.408C153.39 110.238 153.102 109.993 152.89 109.673C152.68 109.353 152.576 108.96 152.576 108.495C152.576 108.094 152.653 107.765 152.807 107.506C152.961 107.247 153.169 107.043 153.43 106.892C153.692 106.741 153.985 106.627 154.308 106.55C154.632 106.473 154.961 106.414 155.297 106.374C155.722 106.325 156.067 106.285 156.332 106.254C156.597 106.22 156.789 106.166 156.909 106.092C157.03 106.018 157.09 105.898 157.09 105.732V105.7C157.09 105.296 156.976 104.984 156.748 104.762C156.523 104.54 156.187 104.429 155.741 104.429C155.275 104.429 154.909 104.532 154.641 104.739C154.376 104.942 154.193 105.168 154.091 105.418L152.793 105.122C152.947 104.691 153.172 104.343 153.467 104.078C153.766 103.81 154.11 103.616 154.498 103.496C154.886 103.373 155.294 103.311 155.722 103.311C156.005 103.311 156.306 103.345 156.623 103.413C156.943 103.477 157.242 103.598 157.519 103.773C157.8 103.949 158.029 104.2 158.208 104.526C158.386 104.85 158.476 105.27 158.476 105.787V110.5H157.127V109.53H157.071C156.982 109.708 156.848 109.884 156.669 110.056C156.491 110.229 156.261 110.372 155.981 110.486C155.701 110.6 155.365 110.657 154.974 110.657ZM155.274 109.548C155.656 109.548 155.982 109.473 156.253 109.322C156.528 109.171 156.735 108.974 156.877 108.73C157.022 108.484 157.094 108.221 157.094 107.94V107.026C157.045 107.075 156.95 107.121 156.808 107.164C156.669 107.204 156.511 107.24 156.332 107.271C156.153 107.298 155.979 107.324 155.81 107.349C155.64 107.371 155.499 107.389 155.385 107.405C155.117 107.438 154.872 107.495 154.65 107.575C154.432 107.656 154.256 107.771 154.124 107.922C153.994 108.07 153.929 108.267 153.929 108.513C153.929 108.855 154.056 109.114 154.308 109.29C154.561 109.462 154.883 109.548 155.274 109.548ZM159.954 110.5V103.403H161.289V104.531H161.363C161.493 104.149 161.721 103.849 162.047 103.63C162.377 103.408 162.749 103.297 163.165 103.297C163.251 103.297 163.353 103.3 163.47 103.306C163.59 103.313 163.684 103.32 163.752 103.33V104.651C163.697 104.636 163.598 104.619 163.456 104.6C163.315 104.579 163.173 104.568 163.031 104.568C162.705 104.568 162.414 104.637 162.158 104.776C161.905 104.911 161.705 105.101 161.557 105.344C161.41 105.584 161.336 105.858 161.336 106.166V110.5H159.954ZM164.586 110.5V103.403H165.968V110.5H164.586ZM165.284 102.308C165.043 102.308 164.837 102.228 164.665 102.068C164.495 101.905 164.411 101.711 164.411 101.486C164.411 101.258 164.495 101.064 164.665 100.904C164.837 100.741 165.043 100.659 165.284 100.659C165.524 100.659 165.729 100.741 165.898 100.904C166.071 101.064 166.157 101.258 166.157 101.486C166.157 101.711 166.071 101.905 165.898 102.068C165.729 102.228 165.524 102.308 165.284 102.308ZM170.546 110.5V103.403H171.928V110.5H170.546ZM171.244 102.308C171.004 102.308 170.797 102.228 170.625 102.068C170.455 101.905 170.371 101.711 170.371 101.486C170.371 101.258 170.455 101.064 170.625 100.904C170.797 100.741 171.004 100.659 171.244 100.659C171.484 100.659 171.689 100.741 171.858 100.904C172.031 101.064 172.117 101.258 172.117 101.486C172.117 101.711 172.031 101.905 171.858 102.068C171.689 102.228 171.484 102.308 171.244 102.308ZM174.806 106.286V110.5H173.425V103.403H174.751V104.559H174.839C175.002 104.183 175.257 103.881 175.606 103.653C175.957 103.425 176.399 103.311 176.931 103.311C177.415 103.311 177.839 103.413 178.202 103.616C178.565 103.816 178.847 104.115 179.048 104.512C179.248 104.91 179.348 105.401 179.348 105.986V110.5H177.966V106.152C177.966 105.638 177.832 105.236 177.564 104.947C177.296 104.654 176.928 104.508 176.46 104.508C176.14 104.508 175.855 104.577 175.606 104.716C175.359 104.854 175.164 105.057 175.019 105.325C174.877 105.59 174.806 105.911 174.806 106.286ZM180.839 110.5V103.403H182.221V110.5H180.839ZM181.537 102.308C181.296 102.308 181.09 102.228 180.918 102.068C180.748 101.905 180.664 101.711 180.664 101.486C180.664 101.258 180.748 101.064 180.918 100.904C181.09 100.741 181.296 100.659 181.537 100.659C181.777 100.659 181.982 100.741 182.151 100.904C182.324 101.064 182.41 101.258 182.41 101.486C182.41 101.711 182.324 101.905 182.151 102.068C181.982 102.228 181.777 102.308 181.537 102.308Z" fill="#555555"/>
</g>
<path d="M71.904 275.072H67.248L66.448 277.344H64.544L68.528 266.208H70.64L74.624 277.344H72.704L71.904 275.072ZM71.392 273.584L69.584 268.416L67.76 273.584H71.392ZM84.2923 268.528L78.8843 281.488H76.9963L78.7883 277.2L75.3163 268.528H77.3483L79.8283 275.248L82.4043 268.528H84.2923ZM85.0608 272.896C85.0608 272.01 85.2421 271.226 85.6048 270.544C85.9781 269.861 86.4794 269.333 87.1088 268.96C87.7488 268.576 88.4528 268.384 89.2208 268.384C89.9141 268.384 90.5168 268.522 91.0288 268.8C91.5514 269.066 91.9674 269.402 92.2768 269.808V268.528H94.1168V277.344H92.2768V276.032C91.9674 276.448 91.5461 276.794 91.0128 277.072C90.4794 277.349 89.8714 277.488 89.1888 277.488C88.4314 277.488 87.7381 277.296 87.1088 276.912C86.4794 276.517 85.9781 275.973 85.6048 275.28C85.2421 274.576 85.0608 273.781 85.0608 272.896ZM92.2768 272.928C92.2768 272.32 92.1488 271.792 91.8928 271.344C91.6474 270.896 91.3221 270.554 90.9168 270.32C90.5114 270.085 90.0741 269.968 89.6048 269.968C89.1354 269.968 88.6981 270.085 88.2928 270.32C87.8874 270.544 87.5568 270.88 87.3008 271.328C87.0554 271.765 86.9328 272.288 86.9328 272.896C86.9328 273.504 87.0554 274.037 87.3008 274.496C87.5568 274.954 87.8874 275.306 88.2928 275.552C88.7088 275.786 89.1461 275.904 89.6048 275.904C90.0741 275.904 90.5114 275.786 90.9168 275.552C91.3221 275.317 91.6474 274.976 91.8928 274.528C92.1488 274.069 92.2768 273.536 92.2768 272.928ZM107.185 268.384C107.878 268.384 108.497 268.528 109.041 268.816C109.595 269.104 110.027 269.53 110.337 270.096C110.657 270.661 110.817 271.344 110.817 272.144V277.344H109.009V272.416C109.009 271.626 108.811 271.024 108.417 270.608C108.022 270.181 107.483 269.968 106.801 269.968C106.118 269.968 105.574 270.181 105.169 270.608C104.774 271.024 104.577 271.626 104.577 272.416V277.344H102.769V272.416C102.769 271.626 102.571 271.024 102.177 270.608C101.782 270.181 101.243 269.968 100.561 269.968C99.8778 269.968 99.3338 270.181 98.9285 270.608C98.5338 271.024 98.3365 271.626 98.3365 272.416V277.344H96.5125V268.528H98.3365V269.536C98.6352 269.173 99.0138 268.89 99.4725 268.688C99.9312 268.485 100.422 268.384 100.945 268.384C101.649 268.384 102.278 268.533 102.833 268.832C103.387 269.13 103.814 269.562 104.113 270.128C104.379 269.594 104.795 269.173 105.361 268.864C105.926 268.544 106.534 268.384 107.185 268.384ZM125.342 269.424C125.054 268.869 124.654 268.453 124.142 268.176C123.63 267.888 123.038 267.744 122.366 267.744C121.63 267.744 120.974 267.909 120.398 268.24C119.822 268.57 119.368 269.04 119.038 269.648C118.718 270.256 118.558 270.96 118.558 271.76C118.558 272.56 118.718 273.269 119.038 273.888C119.368 274.496 119.822 274.965 120.398 275.296C120.974 275.626 121.63 275.792 122.366 275.792C123.358 275.792 124.163 275.514 124.782 274.96C125.4 274.405 125.779 273.653 125.918 272.704H121.742V271.248H127.87V272.672C127.752 273.536 127.443 274.33 126.942 275.056C126.451 275.781 125.806 276.362 125.006 276.8C124.216 277.226 123.336 277.44 122.366 277.44C121.32 277.44 120.366 277.2 119.502 276.72C118.638 276.229 117.95 275.552 117.438 274.688C116.936 273.824 116.686 272.848 116.686 271.76C116.686 270.672 116.936 269.696 117.438 268.832C117.95 267.968 118.638 267.296 119.502 266.816C120.376 266.325 121.331 266.08 122.366 266.08C123.55 266.08 124.6 266.373 125.518 266.96C126.446 267.536 127.118 268.357 127.534 269.424H125.342ZM137.749 272.72C137.749 273.05 137.727 273.349 137.685 273.616H130.949C131.002 274.32 131.263 274.885 131.733 275.312C132.202 275.738 132.778 275.952 133.461 275.952C134.442 275.952 135.135 275.541 135.541 274.72H137.509C137.242 275.53 136.757 276.197 136.053 276.72C135.359 277.232 134.495 277.488 133.461 277.488C132.618 277.488 131.861 277.301 131.189 276.928C130.527 276.544 130.005 276.01 129.621 275.328C129.247 274.634 129.061 273.834 129.061 272.928C129.061 272.021 129.242 271.226 129.605 270.544C129.978 269.85 130.495 269.317 131.157 268.944C131.829 268.57 132.597 268.384 133.461 268.384C134.293 268.384 135.034 268.565 135.685 268.928C136.335 269.29 136.842 269.802 137.205 270.464C137.567 271.114 137.749 271.866 137.749 272.72ZM135.845 272.144C135.834 271.472 135.594 270.933 135.125 270.528C134.655 270.122 134.074 269.92 133.381 269.92C132.751 269.92 132.213 270.122 131.765 270.528C131.317 270.922 131.05 271.461 130.965 272.144H135.845ZM141.368 269.824C141.677 269.418 142.098 269.077 142.632 268.8C143.165 268.522 143.768 268.384 144.44 268.384C145.208 268.384 145.906 268.576 146.536 268.96C147.176 269.333 147.677 269.861 148.04 270.544C148.402 271.226 148.584 272.01 148.584 272.896C148.584 273.781 148.402 274.576 148.04 275.28C147.677 275.973 147.176 276.517 146.536 276.912C145.906 277.296 145.208 277.488 144.44 277.488C143.768 277.488 143.17 277.354 142.648 277.088C142.125 276.81 141.698 276.469 141.368 276.064V281.536H139.544V268.528H141.368V269.824ZM146.728 272.896C146.728 272.288 146.6 271.765 146.344 271.328C146.098 270.88 145.768 270.544 145.352 270.32C144.946 270.085 144.509 269.968 144.04 269.968C143.581 269.968 143.144 270.085 142.728 270.32C142.322 270.554 141.992 270.896 141.736 271.344C141.49 271.792 141.368 272.32 141.368 272.928C141.368 273.536 141.49 274.069 141.736 274.528C141.992 274.976 142.322 275.317 142.728 275.552C143.144 275.786 143.581 275.904 144.04 275.904C144.509 275.904 144.946 275.786 145.352 275.552C145.768 275.306 146.098 274.954 146.344 274.496C146.6 274.037 146.728 273.504 146.728 272.896ZM152.212 269.808C152.478 269.36 152.83 269.013 153.268 268.768C153.716 268.512 154.244 268.384 154.852 268.384V270.272H154.388C153.673 270.272 153.129 270.453 152.756 270.816C152.393 271.178 152.212 271.808 152.212 272.704V277.344H150.388V268.528H152.212V269.808ZM164.608 272.72C164.608 273.05 164.587 273.349 164.544 273.616H157.808C157.861 274.32 158.123 274.885 158.592 275.312C159.061 275.738 159.637 275.952 160.32 275.952C161.301 275.952 161.995 275.541 162.4 274.72H164.368C164.101 275.53 163.616 276.197 162.912 276.72C162.219 277.232 161.355 277.488 160.32 277.488C159.477 277.488 158.72 277.301 158.048 276.928C157.387 276.544 156.864 276.01 156.48 275.328C156.107 274.634 155.92 273.834 155.92 272.928C155.92 272.021 156.101 271.226 156.464 270.544C156.837 269.85 157.355 269.317 158.016 268.944C158.688 268.57 159.456 268.384 160.32 268.384C161.152 268.384 161.893 268.565 162.544 268.928C163.195 269.29 163.701 269.802 164.064 270.464C164.427 271.114 164.608 271.866 164.608 272.72ZM162.704 272.144C162.693 271.472 162.453 270.933 161.984 270.528C161.515 270.122 160.933 269.92 160.24 269.92C159.611 269.92 159.072 270.122 158.624 270.528C158.176 270.922 157.909 271.461 157.824 272.144H162.704ZM169.891 272.944L173.955 277.344H171.491L168.227 273.552V277.344H166.403V265.504H168.227V272.384L171.427 268.528H173.955L169.891 272.944ZM181.243 269.84C181.552 269.413 181.973 269.066 182.507 268.8C183.051 268.522 183.653 268.384 184.315 268.384C185.093 268.384 185.797 268.57 186.427 268.944C187.056 269.317 187.552 269.85 187.915 270.544C188.277 271.226 188.459 272.01 188.459 272.896C188.459 273.781 188.277 274.576 187.915 275.28C187.552 275.973 187.051 276.517 186.411 276.912C185.781 277.296 185.083 277.488 184.315 277.488C183.632 277.488 183.024 277.354 182.491 277.088C181.968 276.821 181.552 276.48 181.243 276.064V277.344H179.419V265.504H181.243V269.84ZM186.603 272.896C186.603 272.288 186.475 271.765 186.219 271.328C185.973 270.88 185.643 270.544 185.227 270.32C184.821 270.085 184.384 269.968 183.915 269.968C183.456 269.968 183.019 270.085 182.603 270.32C182.197 270.554 181.867 270.896 181.611 271.344C181.365 271.792 181.243 272.32 181.243 272.928C181.243 273.536 181.365 274.069 181.611 274.528C181.867 274.976 182.197 275.317 182.603 275.552C183.019 275.786 183.456 275.904 183.915 275.904C184.384 275.904 184.821 275.786 185.227 275.552C185.643 275.306 185.973 274.954 186.219 274.496C186.475 274.037 186.603 273.504 186.603 272.896ZM189.655 272.896C189.655 272.01 189.836 271.226 190.199 270.544C190.572 269.861 191.073 269.333 191.703 268.96C192.343 268.576 193.047 268.384 193.815 268.384C194.508 268.384 195.111 268.522 195.623 268.8C196.145 269.066 196.561 269.402 196.871 269.808V268.528H198.711V277.344H196.871V276.032C196.561 276.448 196.14 276.794 195.607 277.072C195.073 277.349 194.465 277.488 193.783 277.488C193.025 277.488 192.332 277.296 191.703 276.912C191.073 276.517 190.572 275.973 190.199 275.28C189.836 274.576 189.655 273.781 189.655 272.896ZM196.871 272.928C196.871 272.32 196.743 271.792 196.487 271.344C196.241 270.896 195.916 270.554 195.511 270.32C195.105 270.085 194.668 269.968 194.199 269.968C193.729 269.968 193.292 270.085 192.887 270.32C192.481 270.544 192.151 270.88 191.895 271.328C191.649 271.765 191.527 272.288 191.527 272.896C191.527 273.504 191.649 274.037 191.895 274.496C192.151 274.954 192.481 275.306 192.887 275.552C193.303 275.786 193.74 275.904 194.199 275.904C194.668 275.904 195.105 275.786 195.511 275.552C195.916 275.317 196.241 274.976 196.487 274.528C196.743 274.069 196.871 273.536 196.871 272.928ZM204.594 272.944L208.658 277.344H206.194L202.93 273.552V277.344H201.106V265.504H202.93V272.384L206.13 268.528H208.658L204.594 272.944ZM209.358 272.896C209.358 272.01 209.539 271.226 209.902 270.544C210.275 269.861 210.776 269.333 211.406 268.96C212.046 268.576 212.75 268.384 213.518 268.384C214.211 268.384 214.814 268.522 215.326 268.8C215.848 269.066 216.264 269.402 216.574 269.808V268.528H218.414V277.344H216.574V276.032C216.264 276.448 215.843 276.794 215.31 277.072C214.776 277.349 214.168 277.488 213.486 277.488C212.728 277.488 212.035 277.296 211.406 276.912C210.776 276.517 210.275 275.973 209.902 275.28C209.539 274.576 209.358 273.781 209.358 272.896ZM216.574 272.928C216.574 272.32 216.446 271.792 216.19 271.344C215.944 270.896 215.619 270.554 215.214 270.32C214.808 270.085 214.371 269.968 213.902 269.968C213.432 269.968 212.995 270.085 212.59 270.32C212.184 270.544 211.854 270.88 211.598 271.328C211.352 271.765 211.23 272.288 211.23 272.896C211.23 273.504 211.352 274.037 211.598 274.496C211.854 274.954 212.184 275.306 212.59 275.552C213.006 275.786 213.443 275.904 213.902 275.904C214.371 275.904 214.808 275.786 215.214 275.552C215.619 275.317 215.944 274.976 216.19 274.528C216.446 274.069 216.574 273.536 216.574 272.928ZM222.633 269.808C222.9 269.36 223.252 269.013 223.689 268.768C224.137 268.512 224.665 268.384 225.273 268.384V270.272H224.809C224.095 270.272 223.551 270.453 223.177 270.816C222.815 271.178 222.633 271.808 222.633 272.704V277.344H220.809V268.528H222.633V269.808ZM232.93 269.824C233.24 269.418 233.661 269.077 234.194 268.8C234.728 268.522 235.33 268.384 236.002 268.384C236.77 268.384 237.469 268.576 238.098 268.96C238.738 269.333 239.24 269.861 239.602 270.544C239.965 271.226 240.146 272.01 240.146 272.896C240.146 273.781 239.965 274.576 239.602 275.28C239.24 275.973 238.738 276.517 238.098 276.912C237.469 277.296 236.77 277.488 236.002 277.488C235.33 277.488 234.733 277.354 234.21 277.088C233.688 276.81 233.261 276.469 232.93 276.064V281.536H231.106V268.528H232.93V269.824ZM238.29 272.896C238.29 272.288 238.162 271.765 237.906 271.328C237.661 270.88 237.33 270.544 236.914 270.32C236.509 270.085 236.072 269.968 235.602 269.968C235.144 269.968 234.706 270.085 234.29 270.32C233.885 270.554 233.554 270.896 233.298 271.344C233.053 271.792 232.93 272.32 232.93 272.928C232.93 273.536 233.053 274.069 233.298 274.528C233.554 274.976 233.885 275.317 234.29 275.552C234.706 275.786 235.144 275.904 235.602 275.904C236.072 275.904 236.509 275.786 236.914 275.552C237.33 275.306 237.661 274.954 237.906 274.496C238.162 274.037 238.29 273.504 238.29 272.896ZM241.342 272.896C241.342 272.01 241.523 271.226 241.886 270.544C242.259 269.861 242.761 269.333 243.39 268.96C244.03 268.576 244.734 268.384 245.502 268.384C246.195 268.384 246.798 268.522 247.31 268.8C247.833 269.066 248.249 269.402 248.558 269.808V268.528H250.398V277.344H248.558V276.032C248.249 276.448 247.827 276.794 247.294 277.072C246.761 277.349 246.153 277.488 245.47 277.488C244.713 277.488 244.019 277.296 243.39 276.912C242.761 276.517 242.259 275.973 241.886 275.28C241.523 274.576 241.342 273.781 241.342 272.896ZM248.558 272.928C248.558 272.32 248.43 271.792 248.174 271.344C247.929 270.896 247.603 270.554 247.198 270.32C246.793 270.085 246.355 269.968 245.886 269.968C245.417 269.968 244.979 270.085 244.574 270.32C244.169 270.544 243.838 270.88 243.582 271.328C243.337 271.765 243.214 272.288 243.214 272.896C243.214 273.504 243.337 274.037 243.582 274.496C243.838 274.954 244.169 275.306 244.574 275.552C244.99 275.786 245.427 275.904 245.886 275.904C246.355 275.904 246.793 275.786 247.198 275.552C247.603 275.317 247.929 274.976 248.174 274.528C248.43 274.069 248.558 273.536 248.558 272.928ZM256.282 272.944L260.346 277.344H257.882L254.618 273.552V277.344H252.794V265.504H254.618V272.384L257.818 268.528H260.346L256.282 272.944ZM267.633 269.824C267.943 269.418 268.364 269.077 268.897 268.8C269.431 268.522 270.033 268.384 270.705 268.384C271.473 268.384 272.172 268.576 272.801 268.96C273.441 269.333 273.943 269.861 274.305 270.544C274.668 271.226 274.849 272.01 274.849 272.896C274.849 273.781 274.668 274.576 274.305 275.28C273.943 275.973 273.441 276.517 272.801 276.912C272.172 277.296 271.473 277.488 270.705 277.488C270.033 277.488 269.436 277.354 268.913 277.088C268.391 276.81 267.964 276.469 267.633 276.064V281.536H265.809V268.528H267.633V269.824ZM272.993 272.896C272.993 272.288 272.865 271.765 272.609 271.328C272.364 270.88 272.033 270.544 271.617 270.32C271.212 270.085 270.775 269.968 270.305 269.968C269.847 269.968 269.409 270.085 268.993 270.32C268.588 270.554 268.257 270.896 268.001 271.344C267.756 271.792 267.633 272.32 267.633 272.928C267.633 273.536 267.756 274.069 268.001 274.528C268.257 274.976 268.588 275.317 268.993 275.552C269.409 275.786 269.847 275.904 270.305 275.904C270.775 275.904 271.212 275.786 271.617 275.552C272.033 275.306 272.364 274.954 272.609 274.496C272.865 274.037 272.993 273.504 272.993 272.896ZM280.477 277.488C279.645 277.488 278.893 277.301 278.221 276.928C277.549 276.544 277.021 276.01 276.637 275.328C276.253 274.634 276.061 273.834 276.061 272.928C276.061 272.032 276.258 271.237 276.653 270.544C277.048 269.85 277.586 269.317 278.269 268.944C278.952 268.57 279.714 268.384 280.557 268.384C281.4 268.384 282.162 268.57 282.845 268.944C283.528 269.317 284.066 269.85 284.461 270.544C284.856 271.237 285.053 272.032 285.053 272.928C285.053 273.824 284.85 274.618 284.445 275.312C284.04 276.005 283.485 276.544 282.781 276.928C282.088 277.301 281.32 277.488 280.477 277.488ZM280.477 275.904C280.946 275.904 281.384 275.792 281.789 275.568C282.205 275.344 282.541 275.008 282.797 274.56C283.053 274.112 283.181 273.568 283.181 272.928C283.181 272.288 283.058 271.749 282.813 271.312C282.568 270.864 282.242 270.528 281.837 270.304C281.432 270.08 280.994 269.968 280.525 269.968C280.056 269.968 279.618 270.08 279.213 270.304C278.818 270.528 278.504 270.864 278.269 271.312C278.034 271.749 277.917 272.288 277.917 272.928C277.917 273.877 278.157 274.613 278.637 275.136C279.128 275.648 279.741 275.904 280.477 275.904ZM291.304 268.384C291.998 268.384 292.616 268.528 293.16 268.816C293.715 269.104 294.147 269.53 294.456 270.096C294.766 270.661 294.92 271.344 294.92 272.144V277.344H293.112V272.416C293.112 271.626 292.915 271.024 292.52 270.608C292.126 270.181 291.587 269.968 290.904 269.968C290.222 269.968 289.678 270.181 289.272 270.608C288.878 271.024 288.68 271.626 288.68 272.416V277.344H286.856V268.528H288.68V269.536C288.979 269.173 289.358 268.89 289.816 268.688C290.286 268.485 290.782 268.384 291.304 268.384Z" fill="black" fill-opacity="0.36"/>
<path d="M45 280.344C42.7 280.344 40.696 279.581 38.988 278.057C37.28 276.532 36.3007 274.628 36.05 272.344H38.1C38.3333 274.077 39.1043 275.51 40.413 276.644C41.7217 277.777 43.2507 278.344 45 278.344C46.95 278.344 48.6043 277.665 49.963 276.307C51.3217 274.949 52.0007 273.294 52 271.344C51.9993 269.393 51.3203 267.739 49.963 266.382C48.6057 265.024 46.9513 264.345 45 264.344C43.85 264.344 42.775 264.61 41.775 265.144C40.775 265.677 39.9333 266.41 39.25 267.344H42V269.344H36V263.344H38V265.694C38.85 264.627 39.8877 263.802 41.113 263.219C42.3383 262.635 43.634 262.344 45 262.344C46.25 262.344 47.421 262.581 48.513 263.057C49.605 263.532 50.555 264.173 51.363 264.981C52.171 265.788 52.8127 266.738 53.288 267.831C53.7633 268.923 54.0007 270.094 54 271.344C53.9993 272.593 53.762 273.764 53.288 274.857C52.814 275.949 52.1723 276.899 51.363 277.707C50.5537 278.514 49.6037 279.156 48.513 279.632C47.4223 280.108 46.2513 280.345 45 280.344ZM47.8 275.544L44 271.744V266.344H46V270.944L49.2 274.144L47.8 275.544Z" fill="black" fill-opacity="0.54"/>
<path d="M71.904 238.4H67.248L66.448 240.672H64.544L68.528 229.536H70.64L74.624 240.672H72.704L71.904 238.4ZM71.392 236.912L69.584 231.744L67.76 236.912H71.392ZM84.2923 231.856L78.8843 244.816H76.9963L78.7883 240.528L75.3163 231.856H77.3483L79.8283 238.576L82.4043 231.856H84.2923ZM85.0608 236.224C85.0608 235.339 85.2421 234.555 85.6048 233.872C85.9781 233.189 86.4794 232.661 87.1088 232.288C87.7488 231.904 88.4528 231.712 89.2208 231.712C89.9141 231.712 90.5168 231.851 91.0288 232.128C91.5514 232.395 91.9674 232.731 92.2768 233.136V231.856H94.1168V240.672H92.2768V239.36C91.9674 239.776 91.5461 240.123 91.0128 240.4C90.4794 240.677 89.8714 240.816 89.1888 240.816C88.4314 240.816 87.7381 240.624 87.1088 240.24C86.4794 239.845 85.9781 239.301 85.6048 238.608C85.2421 237.904 85.0608 237.109 85.0608 236.224ZM92.2768 236.256C92.2768 235.648 92.1488 235.12 91.8928 234.672C91.6474 234.224 91.3221 233.883 90.9168 233.648C90.5114 233.413 90.0741 233.296 89.6048 233.296C89.1354 233.296 88.6981 233.413 88.2928 233.648C87.8874 233.872 87.5568 234.208 87.3008 234.656C87.0554 235.093 86.9328 235.616 86.9328 236.224C86.9328 236.832 87.0554 237.365 87.3008 237.824C87.5568 238.283 87.8874 238.635 88.2928 238.88C88.7088 239.115 89.1461 239.232 89.6048 239.232C90.0741 239.232 90.5114 239.115 90.9168 238.88C91.3221 238.645 91.6474 238.304 91.8928 237.856C92.1488 237.397 92.2768 236.864 92.2768 236.256ZM107.185 231.712C107.878 231.712 108.497 231.856 109.041 232.144C109.595 232.432 110.027 232.859 110.337 233.424C110.657 233.989 110.817 234.672 110.817 235.472V240.672H109.009V235.744C109.009 234.955 108.811 234.352 108.417 233.936C108.022 233.509 107.483 233.296 106.801 233.296C106.118 233.296 105.574 233.509 105.169 233.936C104.774 234.352 104.577 234.955 104.577 235.744V240.672H102.769V235.744C102.769 234.955 102.571 234.352 102.177 233.936C101.782 233.509 101.243 233.296 100.561 233.296C99.8778 233.296 99.3338 233.509 98.9285 233.936C98.5338 234.352 98.3365 234.955 98.3365 235.744V240.672H96.5125V231.856H98.3365V232.864C98.6352 232.501 99.0138 232.219 99.4725 232.016C99.9312 231.813 100.422 231.712 100.945 231.712C101.649 231.712 102.278 231.861 102.833 232.16C103.387 232.459 103.814 232.891 104.113 233.456C104.379 232.923 104.795 232.501 105.361 232.192C105.926 231.872 106.534 231.712 107.185 231.712ZM125.342 232.752C125.054 232.197 124.654 231.781 124.142 231.504C123.63 231.216 123.038 231.072 122.366 231.072C121.63 231.072 120.974 231.237 120.398 231.568C119.822 231.899 119.368 232.368 119.038 232.976C118.718 233.584 118.558 234.288 118.558 235.088C118.558 235.888 118.718 236.597 119.038 237.216C119.368 237.824 119.822 238.293 120.398 238.624C120.974 238.955 121.63 239.12 122.366 239.12C123.358 239.12 124.163 238.843 124.782 238.288C125.4 237.733 125.779 236.981 125.918 236.032H121.742V234.576H127.87V236C127.752 236.864 127.443 237.659 126.942 238.384C126.451 239.109 125.806 239.691 125.006 240.128C124.216 240.555 123.336 240.768 122.366 240.768C121.32 240.768 120.366 240.528 119.502 240.048C118.638 239.557 117.95 238.88 117.438 238.016C116.936 237.152 116.686 236.176 116.686 235.088C116.686 234 116.936 233.024 117.438 232.16C117.95 231.296 118.638 230.624 119.502 230.144C120.376 229.653 121.331 229.408 122.366 229.408C123.55 229.408 124.6 229.701 125.518 230.288C126.446 230.864 127.118 231.685 127.534 232.752H125.342ZM137.749 236.048C137.749 236.379 137.727 236.677 137.685 236.944H130.949C131.002 237.648 131.263 238.213 131.733 238.64C132.202 239.067 132.778 239.28 133.461 239.28C134.442 239.28 135.135 238.869 135.541 238.048H137.509C137.242 238.859 136.757 239.525 136.053 240.048C135.359 240.56 134.495 240.816 133.461 240.816C132.618 240.816 131.861 240.629 131.189 240.256C130.527 239.872 130.005 239.339 129.621 238.656C129.247 237.963 129.061 237.163 129.061 236.256C129.061 235.349 129.242 234.555 129.605 233.872C129.978 233.179 130.495 232.645 131.157 232.272C131.829 231.899 132.597 231.712 133.461 231.712C134.293 231.712 135.034 231.893 135.685 232.256C136.335 232.619 136.842 233.131 137.205 233.792C137.567 234.443 137.749 235.195 137.749 236.048ZM135.845 235.472C135.834 234.8 135.594 234.261 135.125 233.856C134.655 233.451 134.074 233.248 133.381 233.248C132.751 233.248 132.213 233.451 131.765 233.856C131.317 234.251 131.05 234.789 130.965 235.472H135.845ZM141.368 233.152C141.677 232.747 142.098 232.405 142.632 232.128C143.165 231.851 143.768 231.712 144.44 231.712C145.208 231.712 145.906 231.904 146.536 232.288C147.176 232.661 147.677 233.189 148.04 233.872C148.402 234.555 148.584 235.339 148.584 236.224C148.584 237.109 148.402 237.904 148.04 238.608C147.677 239.301 147.176 239.845 146.536 240.24C145.906 240.624 145.208 240.816 144.44 240.816C143.768 240.816 143.17 240.683 142.648 240.416C142.125 240.139 141.698 239.797 141.368 239.392V244.864H139.544V231.856H141.368V233.152ZM146.728 236.224C146.728 235.616 146.6 235.093 146.344 234.656C146.098 234.208 145.768 233.872 145.352 233.648C144.946 233.413 144.509 233.296 144.04 233.296C143.581 233.296 143.144 233.413 142.728 233.648C142.322 233.883 141.992 234.224 141.736 234.672C141.49 235.12 141.368 235.648 141.368 236.256C141.368 236.864 141.49 237.397 141.736 237.856C141.992 238.304 142.322 238.645 142.728 238.88C143.144 239.115 143.581 239.232 144.04 239.232C144.509 239.232 144.946 239.115 145.352 238.88C145.768 238.635 146.098 238.283 146.344 237.824C146.6 237.365 146.728 236.832 146.728 236.224ZM152.212 233.136C152.478 232.688 152.83 232.341 153.268 232.096C153.716 231.84 154.244 231.712 154.852 231.712V233.6H154.388C153.673 233.6 153.129 233.781 152.756 234.144C152.393 234.507 152.212 235.136 152.212 236.032V240.672H150.388V231.856H152.212V233.136ZM164.608 236.048C164.608 236.379 164.587 236.677 164.544 236.944H157.808C157.861 237.648 158.123 238.213 158.592 238.64C159.061 239.067 159.637 239.28 160.32 239.28C161.301 239.28 161.995 238.869 162.4 238.048H164.368C164.101 238.859 163.616 239.525 162.912 240.048C162.219 240.56 161.355 240.816 160.32 240.816C159.477 240.816 158.72 240.629 158.048 240.256C157.387 239.872 156.864 239.339 156.48 238.656C156.107 237.963 155.92 237.163 155.92 236.256C155.92 235.349 156.101 234.555 156.464 233.872C156.837 233.179 157.355 232.645 158.016 232.272C158.688 231.899 159.456 231.712 160.32 231.712C161.152 231.712 161.893 231.893 162.544 232.256C163.195 232.619 163.701 233.131 164.064 233.792C164.427 234.443 164.608 235.195 164.608 236.048ZM162.704 235.472C162.693 234.8 162.453 234.261 161.984 233.856C161.515 233.451 160.933 233.248 160.24 233.248C159.611 233.248 159.072 233.451 158.624 233.856C158.176 234.251 157.909 234.789 157.824 235.472H162.704ZM169.891 236.272L173.955 240.672H171.491L168.227 236.88V240.672H166.403V228.832H168.227V235.712L171.427 231.856H173.955L169.891 236.272ZM182.619 240.816C181.925 240.816 181.301 240.693 180.747 240.448C180.203 240.192 179.771 239.851 179.451 239.424C179.131 238.987 178.96 238.501 178.939 237.968H180.827C180.859 238.341 181.035 238.656 181.355 238.912C181.685 239.157 182.096 239.28 182.587 239.28C183.099 239.28 183.493 239.184 183.771 238.992C184.059 238.789 184.203 238.533 184.203 238.224C184.203 237.893 184.043 237.648 183.723 237.488C183.413 237.328 182.917 237.152 182.235 236.96C181.573 236.779 181.035 236.603 180.619 236.432C180.203 236.261 179.84 236 179.531 235.648C179.232 235.296 179.083 234.832 179.083 234.256C179.083 233.787 179.221 233.36 179.499 232.976C179.776 232.581 180.171 232.272 180.683 232.048C181.205 231.824 181.803 231.712 182.475 231.712C183.477 231.712 184.283 231.968 184.891 232.48C185.509 232.981 185.84 233.669 185.883 234.544H184.059C184.027 234.149 183.867 233.835 183.579 233.6C183.291 233.365 182.901 233.248 182.411 233.248C181.931 233.248 181.563 233.339 181.307 233.52C181.051 233.701 180.923 233.941 180.923 234.24C180.923 234.475 181.008 234.672 181.179 234.832C181.349 234.992 181.557 235.12 181.803 235.216C182.048 235.301 182.411 235.413 182.891 235.552C183.531 235.723 184.053 235.899 184.459 236.08C184.875 236.251 185.232 236.507 185.531 236.848C185.829 237.189 185.984 237.643 185.995 238.208C185.995 238.709 185.856 239.157 185.579 239.552C185.301 239.947 184.907 240.256 184.395 240.48C183.893 240.704 183.301 240.816 182.619 240.816ZM187.358 236.224C187.358 235.339 187.539 234.555 187.902 233.872C188.275 233.189 188.776 232.661 189.406 232.288C190.046 231.904 190.75 231.712 191.518 231.712C192.211 231.712 192.814 231.851 193.326 232.128C193.848 232.395 194.264 232.731 194.574 233.136V231.856H196.414V240.672H194.574V239.36C194.264 239.776 193.843 240.123 193.31 240.4C192.776 240.677 192.168 240.816 191.486 240.816C190.728 240.816 190.035 240.624 189.406 240.24C188.776 239.845 188.275 239.301 187.902 238.608C187.539 237.904 187.358 237.109 187.358 236.224ZM194.574 236.256C194.574 235.648 194.446 235.12 194.19 234.672C193.944 234.224 193.619 233.883 193.214 233.648C192.808 233.413 192.371 233.296 191.902 233.296C191.432 233.296 190.995 233.413 190.59 233.648C190.184 233.872 189.854 234.208 189.598 234.656C189.352 235.093 189.23 235.616 189.23 236.224C189.23 236.832 189.352 237.365 189.598 237.824C189.854 238.283 190.184 238.635 190.59 238.88C191.006 239.115 191.443 239.232 191.902 239.232C192.371 239.232 192.808 239.115 193.214 238.88C193.619 238.645 193.944 238.304 194.19 237.856C194.446 237.397 194.574 236.864 194.574 236.256ZM199.737 230.688C199.407 230.688 199.129 230.576 198.905 230.352C198.681 230.128 198.569 229.851 198.569 229.52C198.569 229.189 198.681 228.912 198.905 228.688C199.129 228.464 199.407 228.352 199.737 228.352C200.057 228.352 200.329 228.464 200.553 228.688C200.777 228.912 200.889 229.189 200.889 229.52C200.889 229.851 200.777 230.128 200.553 230.352C200.329 230.576 200.057 230.688 199.737 230.688ZM200.633 231.856V240.672H198.809V231.856H200.633Z" fill="black" fill-opacity="0.36"/>
<path d="M45 243.672C42.7 243.672 40.696 242.91 38.988 241.385C37.28 239.86 36.3007 237.956 36.05 235.672H38.1C38.3333 237.405 39.1043 238.839 40.413 239.972C41.7217 241.105 43.2507 241.672 45 241.672C46.95 241.672 48.6043 240.993 49.963 239.635C51.3217 238.277 52.0007 236.623 52 234.672C51.9993 232.721 51.3203 231.067 49.963 229.71C48.6057 228.353 46.9513 227.673 45 227.672C43.85 227.672 42.775 227.939 41.775 228.472C40.775 229.005 39.9333 229.739 39.25 230.672H42V232.672H36V226.672H38V229.022C38.85 227.955 39.8877 227.13 41.113 226.547C42.3383 225.964 43.634 225.672 45 225.672C46.25 225.672 47.421 225.91 48.513 226.385C49.605 226.86 50.555 227.502 51.363 228.309C52.171 229.116 52.8127 230.066 53.288 231.159C53.7633 232.252 54.0007 233.423 54 234.672C53.9993 235.921 53.762 237.092 53.288 238.185C52.814 239.278 52.1723 240.228 51.363 241.035C50.5537 241.842 49.6037 242.484 48.513 242.96C47.4223 243.436 46.2513 243.673 45 243.672ZM47.8 238.872L44 235.072V229.672H46V234.272L49.2 237.472L47.8 238.872Z" fill="black" fill-opacity="0.54"/>
<path d="M71.904 206.4H67.248L66.448 208.672H64.544L68.528 197.536H70.64L74.624 208.672H72.704L71.904 206.4ZM71.392 204.912L69.584 199.744L67.76 204.912H71.392ZM84.2923 199.856L78.8843 212.816H76.9963L78.7883 208.528L75.3163 199.856H77.3483L79.8283 206.576L82.4043 199.856H84.2923ZM85.0608 204.224C85.0608 203.339 85.2421 202.555 85.6048 201.872C85.9781 201.189 86.4794 200.661 87.1088 200.288C87.7488 199.904 88.4528 199.712 89.2208 199.712C89.9141 199.712 90.5168 199.851 91.0288 200.128C91.5514 200.395 91.9674 200.731 92.2768 201.136V199.856H94.1168V208.672H92.2768V207.36C91.9674 207.776 91.5461 208.123 91.0128 208.4C90.4794 208.677 89.8714 208.816 89.1888 208.816C88.4314 208.816 87.7381 208.624 87.1088 208.24C86.4794 207.845 85.9781 207.301 85.6048 206.608C85.2421 205.904 85.0608 205.109 85.0608 204.224ZM92.2768 204.256C92.2768 203.648 92.1488 203.12 91.8928 202.672C91.6474 202.224 91.3221 201.883 90.9168 201.648C90.5114 201.413 90.0741 201.296 89.6048 201.296C89.1354 201.296 88.6981 201.413 88.2928 201.648C87.8874 201.872 87.5568 202.208 87.3008 202.656C87.0554 203.093 86.9328 203.616 86.9328 204.224C86.9328 204.832 87.0554 205.365 87.3008 205.824C87.5568 206.283 87.8874 206.635 88.2928 206.88C88.7088 207.115 89.1461 207.232 89.6048 207.232C90.0741 207.232 90.5114 207.115 90.9168 206.88C91.3221 206.645 91.6474 206.304 91.8928 205.856C92.1488 205.397 92.2768 204.864 92.2768 204.256ZM107.185 199.712C107.878 199.712 108.497 199.856 109.041 200.144C109.595 200.432 110.027 200.859 110.337 201.424C110.657 201.989 110.817 202.672 110.817 203.472V208.672H109.009V203.744C109.009 202.955 108.811 202.352 108.417 201.936C108.022 201.509 107.483 201.296 106.801 201.296C106.118 201.296 105.574 201.509 105.169 201.936C104.774 202.352 104.577 202.955 104.577 203.744V208.672H102.769V203.744C102.769 202.955 102.571 202.352 102.177 201.936C101.782 201.509 101.243 201.296 100.561 201.296C99.8778 201.296 99.3338 201.509 98.9285 201.936C98.5338 202.352 98.3365 202.955 98.3365 203.744V208.672H96.5125V199.856H98.3365V200.864C98.6352 200.501 99.0138 200.219 99.4725 200.016C99.9312 199.813 100.422 199.712 100.945 199.712C101.649 199.712 102.278 199.861 102.833 200.16C103.387 200.459 103.814 200.891 104.113 201.456C104.379 200.923 104.795 200.501 105.361 200.192C105.926 199.872 106.534 199.712 107.185 199.712ZM125.342 200.752C125.054 200.197 124.654 199.781 124.142 199.504C123.63 199.216 123.038 199.072 122.366 199.072C121.63 199.072 120.974 199.237 120.398 199.568C119.822 199.899 119.368 200.368 119.038 200.976C118.718 201.584 118.558 202.288 118.558 203.088C118.558 203.888 118.718 204.597 119.038 205.216C119.368 205.824 119.822 206.293 120.398 206.624C120.974 206.955 121.63 207.12 122.366 207.12C123.358 207.12 124.163 206.843 124.782 206.288C125.4 205.733 125.779 204.981 125.918 204.032H121.742V202.576H127.87V204C127.752 204.864 127.443 205.659 126.942 206.384C126.451 207.109 125.806 207.691 125.006 208.128C124.216 208.555 123.336 208.768 122.366 208.768C121.32 208.768 120.366 208.528 119.502 208.048C118.638 207.557 117.95 206.88 117.438 206.016C116.936 205.152 116.686 204.176 116.686 203.088C116.686 202 116.936 201.024 117.438 200.16C117.95 199.296 118.638 198.624 119.502 198.144C120.376 197.653 121.331 197.408 122.366 197.408C123.55 197.408 124.6 197.701 125.518 198.288C126.446 198.864 127.118 199.685 127.534 200.752H125.342ZM137.749 204.048C137.749 204.379 137.727 204.677 137.685 204.944H130.949C131.002 205.648 131.263 206.213 131.733 206.64C132.202 207.067 132.778 207.28 133.461 207.28C134.442 207.28 135.135 206.869 135.541 206.048H137.509C137.242 206.859 136.757 207.525 136.053 208.048C135.359 208.56 134.495 208.816 133.461 208.816C132.618 208.816 131.861 208.629 131.189 208.256C130.527 207.872 130.005 207.339 129.621 206.656C129.247 205.963 129.061 205.163 129.061 204.256C129.061 203.349 129.242 202.555 129.605 201.872C129.978 201.179 130.495 200.645 131.157 200.272C131.829 199.899 132.597 199.712 133.461 199.712C134.293 199.712 135.034 199.893 135.685 200.256C136.335 200.619 136.842 201.131 137.205 201.792C137.567 202.443 137.749 203.195 137.749 204.048ZM135.845 203.472C135.834 202.8 135.594 202.261 135.125 201.856C134.655 201.451 134.074 201.248 133.381 201.248C132.751 201.248 132.213 201.451 131.765 201.856C131.317 202.251 131.05 202.789 130.965 203.472H135.845ZM141.368 201.152C141.677 200.747 142.098 200.405 142.632 200.128C143.165 199.851 143.768 199.712 144.44 199.712C145.208 199.712 145.906 199.904 146.536 200.288C147.176 200.661 147.677 201.189 148.04 201.872C148.402 202.555 148.584 203.339 148.584 204.224C148.584 205.109 148.402 205.904 148.04 206.608C147.677 207.301 147.176 207.845 146.536 208.24C145.906 208.624 145.208 208.816 144.44 208.816C143.768 208.816 143.17 208.683 142.648 208.416C142.125 208.139 141.698 207.797 141.368 207.392V212.864H139.544V199.856H141.368V201.152ZM146.728 204.224C146.728 203.616 146.6 203.093 146.344 202.656C146.098 202.208 145.768 201.872 145.352 201.648C144.946 201.413 144.509 201.296 144.04 201.296C143.581 201.296 143.144 201.413 142.728 201.648C142.322 201.883 141.992 202.224 141.736 202.672C141.49 203.12 141.368 203.648 141.368 204.256C141.368 204.864 141.49 205.397 141.736 205.856C141.992 206.304 142.322 206.645 142.728 206.88C143.144 207.115 143.581 207.232 144.04 207.232C144.509 207.232 144.946 207.115 145.352 206.88C145.768 206.635 146.098 206.283 146.344 205.824C146.6 205.365 146.728 204.832 146.728 204.224ZM152.212 201.136C152.478 200.688 152.83 200.341 153.268 200.096C153.716 199.84 154.244 199.712 154.852 199.712V201.6H154.388C153.673 201.6 153.129 201.781 152.756 202.144C152.393 202.507 152.212 203.136 152.212 204.032V208.672H150.388V199.856H152.212V201.136ZM164.608 204.048C164.608 204.379 164.587 204.677 164.544 204.944H157.808C157.861 205.648 158.123 206.213 158.592 206.64C159.061 207.067 159.637 207.28 160.32 207.28C161.301 207.28 161.995 206.869 162.4 206.048H164.368C164.101 206.859 163.616 207.525 162.912 208.048C162.219 208.56 161.355 208.816 160.32 208.816C159.477 208.816 158.72 208.629 158.048 208.256C157.387 207.872 156.864 207.339 156.48 206.656C156.107 205.963 155.92 205.163 155.92 204.256C155.92 203.349 156.101 202.555 156.464 201.872C156.837 201.179 157.355 200.645 158.016 200.272C158.688 199.899 159.456 199.712 160.32 199.712C161.152 199.712 161.893 199.893 162.544 200.256C163.195 200.619 163.701 201.131 164.064 201.792C164.427 202.443 164.608 203.195 164.608 204.048ZM162.704 203.472C162.693 202.8 162.453 202.261 161.984 201.856C161.515 201.451 160.933 201.248 160.24 201.248C159.611 201.248 159.072 201.451 158.624 201.856C158.176 202.251 157.909 202.789 157.824 203.472H162.704ZM169.891 204.272L173.955 208.672H171.491L168.227 204.88V208.672H166.403V196.832H168.227V203.712L171.427 199.856H173.955L169.891 204.272ZM181.243 201.168C181.552 200.741 181.973 200.395 182.507 200.128C183.051 199.851 183.653 199.712 184.315 199.712C185.093 199.712 185.797 199.899 186.427 200.272C187.056 200.645 187.552 201.179 187.915 201.872C188.277 202.555 188.459 203.339 188.459 204.224C188.459 205.109 188.277 205.904 187.915 206.608C187.552 207.301 187.051 207.845 186.411 208.24C185.781 208.624 185.083 208.816 184.315 208.816C183.632 208.816 183.024 208.683 182.491 208.416C181.968 208.149 181.552 207.808 181.243 207.392V208.672H179.419V196.832H181.243V201.168ZM186.603 204.224C186.603 203.616 186.475 203.093 186.219 202.656C185.973 202.208 185.643 201.872 185.227 201.648C184.821 201.413 184.384 201.296 183.915 201.296C183.456 201.296 183.019 201.413 182.603 201.648C182.197 201.883 181.867 202.224 181.611 202.672C181.365 203.12 181.243 203.648 181.243 204.256C181.243 204.864 181.365 205.397 181.611 205.856C181.867 206.304 182.197 206.645 182.603 206.88C183.019 207.115 183.456 207.232 183.915 207.232C184.384 207.232 184.821 207.115 185.227 206.88C185.643 206.635 185.973 206.283 186.219 205.824C186.475 205.365 186.603 204.832 186.603 204.224ZM192.087 196.832V208.672H190.263V196.832H192.087ZM202.561 204.048C202.561 204.379 202.54 204.677 202.497 204.944H195.761C195.815 205.648 196.076 206.213 196.545 206.64C197.015 207.067 197.591 207.28 198.273 207.28C199.255 207.28 199.948 206.869 200.353 206.048H202.321C202.055 206.859 201.569 207.525 200.865 208.048C200.172 208.56 199.308 208.816 198.273 208.816C197.431 208.816 196.673 208.629 196.001 208.256C195.34 207.872 194.817 207.339 194.433 206.656C194.06 205.963 193.873 205.163 193.873 204.256C193.873 203.349 194.055 202.555 194.417 201.872C194.791 201.179 195.308 200.645 195.969 200.272C196.641 199.899 197.409 199.712 198.273 199.712C199.105 199.712 199.847 199.893 200.497 200.256C201.148 200.619 201.655 201.131 202.017 201.792C202.38 202.443 202.561 203.195 202.561 204.048ZM200.657 203.472C200.647 202.8 200.407 202.261 199.937 201.856C199.468 201.451 198.887 201.248 198.193 201.248C197.564 201.248 197.025 201.451 196.577 201.856C196.129 202.251 195.863 202.789 195.777 203.472H200.657ZM203.748 204.224C203.748 203.339 203.93 202.555 204.292 201.872C204.666 201.189 205.167 200.661 205.796 200.288C206.436 199.904 207.146 199.712 207.924 199.712C208.5 199.712 209.066 199.84 209.62 200.096C210.186 200.341 210.634 200.672 210.964 201.088V196.832H212.804V208.672H210.964V207.344C210.666 207.771 210.25 208.123 209.716 208.4C209.194 208.677 208.591 208.816 207.908 208.816C207.14 208.816 206.436 208.624 205.796 208.24C205.167 207.845 204.666 207.301 204.292 206.608C203.93 205.904 203.748 205.109 203.748 204.224ZM210.964 204.256C210.964 203.648 210.836 203.12 210.58 202.672C210.335 202.224 210.01 201.883 209.604 201.648C209.199 201.413 208.762 201.296 208.292 201.296C207.823 201.296 207.386 201.413 206.98 201.648C206.575 201.872 206.244 202.208 205.988 202.656C205.743 203.093 205.62 203.616 205.62 204.224C205.62 204.832 205.743 205.365 205.988 205.824C206.244 206.283 206.575 206.635 206.98 206.88C207.396 207.115 207.834 207.232 208.292 207.232C208.762 207.232 209.199 207.115 209.604 206.88C210.01 206.645 210.335 206.304 210.58 205.856C210.836 205.397 210.964 204.864 210.964 204.256ZM223.28 204.048C223.28 204.379 223.259 204.677 223.216 204.944H216.48C216.533 205.648 216.795 206.213 217.264 206.64C217.733 207.067 218.309 207.28 218.992 207.28C219.973 207.28 220.667 206.869 221.072 206.048H223.04C222.773 206.859 222.288 207.525 221.584 208.048C220.891 208.56 220.027 208.816 218.992 208.816C218.149 208.816 217.392 208.629 216.72 208.256C216.059 207.872 215.536 207.339 215.152 206.656C214.779 205.963 214.592 205.163 214.592 204.256C214.592 203.349 214.773 202.555 215.136 201.872C215.509 201.179 216.027 200.645 216.688 200.272C217.36 199.899 218.128 199.712 218.992 199.712C219.824 199.712 220.565 199.893 221.216 200.256C221.867 200.619 222.373 201.131 222.736 201.792C223.099 202.443 223.28 203.195 223.28 204.048ZM221.376 203.472C221.365 202.8 221.125 202.261 220.656 201.856C220.187 201.451 219.605 201.248 218.912 201.248C218.283 201.248 217.744 201.451 217.296 201.856C216.848 202.251 216.581 202.789 216.496 203.472H221.376ZM226.899 201.136C227.166 200.688 227.518 200.341 227.955 200.096C228.403 199.84 228.931 199.712 229.539 199.712V201.6H229.075C228.36 201.6 227.816 201.781 227.443 202.144C227.08 202.507 226.899 203.136 226.899 204.032V208.672H225.075V199.856H226.899V201.136ZM237.196 201.152C237.505 200.747 237.927 200.405 238.46 200.128C238.993 199.851 239.596 199.712 240.268 199.712C241.036 199.712 241.735 199.904 242.364 200.288C243.004 200.661 243.505 201.189 243.868 201.872C244.231 202.555 244.412 203.339 244.412 204.224C244.412 205.109 244.231 205.904 243.868 206.608C243.505 207.301 243.004 207.845 242.364 208.24C241.735 208.624 241.036 208.816 240.268 208.816C239.596 208.816 238.999 208.683 238.476 208.416C237.953 208.139 237.527 207.797 237.196 207.392V212.864H235.372V199.856H237.196V201.152ZM242.556 204.224C242.556 203.616 242.428 203.093 242.172 202.656C241.927 202.208 241.596 201.872 241.18 201.648C240.775 201.413 240.337 201.296 239.868 201.296C239.409 201.296 238.972 201.413 238.556 201.648C238.151 201.883 237.82 202.224 237.564 202.672C237.319 203.12 237.196 203.648 237.196 204.256C237.196 204.864 237.319 205.397 237.564 205.856C237.82 206.304 238.151 206.645 238.556 206.88C238.972 207.115 239.409 207.232 239.868 207.232C240.337 207.232 240.775 207.115 241.18 206.88C241.596 206.635 241.927 206.283 242.172 205.824C242.428 205.365 242.556 204.832 242.556 204.224ZM245.608 204.224C245.608 203.339 245.789 202.555 246.152 201.872C246.525 201.189 247.026 200.661 247.656 200.288C248.296 199.904 249 199.712 249.768 199.712C250.461 199.712 251.064 199.851 251.576 200.128C252.098 200.395 252.514 200.731 252.824 201.136V199.856H254.664V208.672H252.824V207.36C252.514 207.776 252.093 208.123 251.56 208.4C251.026 208.677 250.418 208.816 249.736 208.816C248.978 208.816 248.285 208.624 247.656 208.24C247.026 207.845 246.525 207.301 246.152 206.608C245.789 205.904 245.608 205.109 245.608 204.224ZM252.824 204.256C252.824 203.648 252.696 203.12 252.44 202.672C252.194 202.224 251.869 201.883 251.464 201.648C251.058 201.413 250.621 201.296 250.152 201.296C249.682 201.296 249.245 201.413 248.84 201.648C248.434 201.872 248.104 202.208 247.848 202.656C247.602 203.093 247.48 203.616 247.48 204.224C247.48 204.832 247.602 205.365 247.848 205.824C248.104 206.283 248.434 206.635 248.84 206.88C249.256 207.115 249.693 207.232 250.152 207.232C250.621 207.232 251.058 207.115 251.464 206.88C251.869 206.645 252.194 206.304 252.44 205.856C252.696 205.397 252.824 204.864 252.824 204.256ZM260.547 204.272L264.611 208.672H262.147L258.883 204.88V208.672H257.059V196.832H258.883V203.712L262.083 199.856H264.611L260.547 204.272ZM271.899 201.152C272.208 200.747 272.63 200.405 273.163 200.128C273.696 199.851 274.299 199.712 274.971 199.712C275.739 199.712 276.438 199.904 277.067 200.288C277.707 200.661 278.208 201.189 278.571 201.872C278.934 202.555 279.115 203.339 279.115 204.224C279.115 205.109 278.934 205.904 278.571 206.608C278.208 207.301 277.707 207.845 277.067 208.24C276.438 208.624 275.739 208.816 274.971 208.816C274.299 208.816 273.702 208.683 273.179 208.416C272.656 208.139 272.23 207.797 271.899 207.392V212.864H270.075V199.856H271.899V201.152ZM277.259 204.224C277.259 203.616 277.131 203.093 276.875 202.656C276.63 202.208 276.299 201.872 275.883 201.648C275.478 201.413 275.04 201.296 274.571 201.296C274.112 201.296 273.675 201.413 273.259 201.648C272.854 201.883 272.523 202.224 272.267 202.672C272.022 203.12 271.899 203.648 271.899 204.256C271.899 204.864 272.022 205.397 272.267 205.856C272.523 206.304 272.854 206.645 273.259 206.88C273.675 207.115 274.112 207.232 274.571 207.232C275.04 207.232 275.478 207.115 275.883 206.88C276.299 206.635 276.63 206.283 276.875 205.824C277.131 205.365 277.259 204.832 277.259 204.224ZM284.743 208.816C283.911 208.816 283.159 208.629 282.487 208.256C281.815 207.872 281.287 207.339 280.903 206.656C280.519 205.963 280.327 205.163 280.327 204.256C280.327 203.36 280.524 202.565 280.919 201.872C281.313 201.179 281.852 200.645 282.535 200.272C283.217 199.899 283.98 199.712 284.823 199.712C285.665 199.712 286.428 199.899 287.111 200.272C287.793 200.645 288.332 201.179 288.727 201.872C289.121 202.565 289.319 203.36 289.319 204.256C289.319 205.152 289.116 205.947 288.711 206.64C288.305 207.333 287.751 207.872 287.047 208.256C286.353 208.629 285.585 208.816 284.743 208.816ZM284.743 207.232C285.212 207.232 285.649 207.12 286.055 206.896C286.471 206.672 286.807 206.336 287.063 205.888C287.319 205.44 287.447 204.896 287.447 204.256C287.447 203.616 287.324 203.077 287.079 202.64C286.833 202.192 286.508 201.856 286.103 201.632C285.697 201.408 285.26 201.296 284.791 201.296C284.321 201.296 283.884 201.408 283.479 201.632C283.084 201.856 282.769 202.192 282.535 202.64C282.3 203.077 282.183 203.616 282.183 204.256C282.183 205.205 282.423 205.941 282.903 206.464C283.393 206.976 284.007 207.232 284.743 207.232ZM295.682 199.712C296.354 199.712 296.951 199.856 297.474 200.144C298.007 200.432 298.423 200.859 298.722 201.424C299.031 201.989 299.186 202.672 299.186 203.472V208.672H297.378V203.744C297.378 202.955 297.181 202.352 296.786 201.936C296.391 201.509 295.853 201.296 295.17 201.296C294.487 201.296 293.943 201.509 293.538 201.936C293.143 202.352 292.946 202.955 292.946 203.744V208.672H291.122V196.832H292.946V200.88C293.255 200.507 293.645 200.219 294.114 200.016C294.594 199.813 295.117 199.712 295.682 199.712Z" fill="black" fill-opacity="0.36"/>
<path d="M45 211.672C42.7 211.672 40.696 210.91 38.988 209.385C37.28 207.86 36.3007 205.956 36.05 203.672H38.1C38.3333 205.405 39.1043 206.839 40.413 207.972C41.7217 209.105 43.2507 209.672 45 209.672C46.95 209.672 48.6043 208.993 49.963 207.635C51.3217 206.277 52.0007 204.623 52 202.672C51.9993 200.721 51.3203 199.067 49.963 197.71C48.6057 196.353 46.9513 195.673 45 195.672C43.85 195.672 42.775 195.939 41.775 196.472C40.775 197.005 39.9333 197.739 39.25 198.672H42V200.672H36V194.672H38V197.022C38.85 195.955 39.8877 195.13 41.113 194.547C42.3383 193.964 43.634 193.672 45 193.672C46.25 193.672 47.421 193.91 48.513 194.385C49.605 194.86 50.555 195.502 51.363 196.309C52.171 197.116 52.8127 198.066 53.288 199.159C53.7633 200.252 54.0007 201.423 54 202.672C53.9993 203.921 53.762 205.092 53.288 206.185C52.814 207.278 52.1723 208.228 51.363 209.035C50.5537 209.842 49.6037 210.484 48.513 210.96C47.4223 211.436 46.2513 211.673 45 211.672ZM47.8 206.872L44 203.072V197.672H46V202.272L49.2 205.472L47.8 206.872Z" fill="black" fill-opacity="0.54"/>
</g>
<defs>
<filter id="filter0_d_199_3262" x="17" y="84" width="325" height="51" filterUnits="userSpaceOnUse" color-interpolation-filters="sRGB">
<feFlood flood-opacity="0" result="BackgroundImageFix"/>
<feColorMatrix in="SourceAlpha" type="matrix" values="0 0 0 0 0 0 0 0 0 0 0 0 0 0 0 0 0 0 127 0" result="hardAlpha"/>
<feOffset dy="4"/>
<feGaussianBlur stdDeviation="2"/>
<feComposite in2="hardAlpha" operator="out"/>
<feColorMatrix type="matrix" values="0 0 0 0 0 0 0 0 0 0 0 0 0 0 0 0 0 0 0.25 0"/>
<feBlend mode="normal" in2="BackgroundImageFix" result="effect1_dropShadow_199_3262"/>
<feBlend mode="normal" in="SourceGraphic" in2="effect1_dropShadow_199_3262" result="shape"/>
</filter>
<clipPath id="clip0_199_3262">
<rect width="360" height="800" fill="white"/>
</clipPath>
</defs>
</svg>
