<svg width="360" height="800" viewBox="0 0 360 800" fill="none" xmlns="http://www.w3.org/2000/svg">
<g clip-path="url(#clip0_199_2842)">
<path d="M360 0H0V800H360V0Z" fill="white"/>
<path d="M151.758 422.5H146.371V405.045H151.996C153.69 405.045 155.138 405.395 156.343 406.094C157.548 406.787 158.471 407.784 159.113 409.085C159.755 410.381 160.076 411.932 160.076 413.739C160.076 415.557 159.752 417.122 159.104 418.435C158.457 419.741 157.513 420.747 156.275 421.452C155.036 422.151 153.531 422.5 151.758 422.5ZM148.485 420.625H151.621C153.065 420.625 154.261 420.347 155.21 419.79C156.158 419.233 156.866 418.44 157.332 417.412C157.798 416.384 158.031 415.159 158.031 413.739C158.031 412.33 157.8 411.116 157.34 410.099C156.88 409.077 156.192 408.293 155.278 407.747C154.363 407.196 153.224 406.92 151.86 406.92H148.485V420.625ZM168.667 422.773C167.485 422.773 166.448 422.491 165.556 421.929C164.67 421.366 163.977 420.58 163.477 419.568C162.982 418.557 162.735 417.375 162.735 416.023C162.735 414.659 162.982 413.469 163.477 412.452C163.977 411.435 164.67 410.645 165.556 410.082C166.448 409.52 167.485 409.239 168.667 409.239C169.849 409.239 170.883 409.52 171.769 410.082C172.661 410.645 173.354 411.435 173.849 412.452C174.349 413.469 174.599 414.659 174.599 416.023C174.599 417.375 174.349 418.557 173.849 419.568C173.354 420.58 172.661 421.366 171.769 421.929C170.883 422.491 169.849 422.773 168.667 422.773ZM168.667 420.966C169.565 420.966 170.303 420.736 170.883 420.276C171.462 419.815 171.891 419.21 172.17 418.46C172.448 417.71 172.587 416.898 172.587 416.023C172.587 415.148 172.448 414.332 172.17 413.577C171.891 412.821 171.462 412.21 170.883 411.744C170.303 411.278 169.565 411.045 168.667 411.045C167.769 411.045 167.031 411.278 166.451 411.744C165.871 412.21 165.442 412.821 165.164 413.577C164.886 414.332 164.746 415.148 164.746 416.023C164.746 416.898 164.886 417.71 165.164 418.46C165.442 419.21 165.871 419.815 166.451 420.276C167.031 420.736 167.769 420.966 168.667 420.966ZM191.987 410.5H189.874C189.749 409.892 189.53 409.358 189.217 408.898C188.911 408.438 188.536 408.051 188.092 407.739C187.655 407.42 187.169 407.182 186.635 407.023C186.101 406.864 185.544 406.784 184.964 406.784C183.908 406.784 182.95 407.051 182.092 407.585C181.24 408.119 180.561 408.906 180.055 409.946C179.555 410.986 179.305 412.261 179.305 413.773C179.305 415.284 179.555 416.56 180.055 417.599C180.561 418.639 181.24 419.426 182.092 419.96C182.95 420.494 183.908 420.761 184.964 420.761C185.544 420.761 186.101 420.682 186.635 420.523C187.169 420.364 187.655 420.128 188.092 419.815C188.536 419.497 188.911 419.108 189.217 418.648C189.53 418.182 189.749 417.648 189.874 417.045H191.987C191.828 417.937 191.538 418.736 191.118 419.44C190.697 420.145 190.175 420.744 189.55 421.239C188.925 421.727 188.223 422.099 187.445 422.355C186.672 422.611 185.845 422.739 184.964 422.739C183.476 422.739 182.152 422.375 180.993 421.648C179.834 420.92 178.922 419.886 178.257 418.545C177.592 417.205 177.26 415.614 177.26 413.773C177.26 411.932 177.592 410.341 178.257 409C178.922 407.659 179.834 406.625 180.993 405.898C182.152 405.17 183.476 404.807 184.964 404.807C185.845 404.807 186.672 404.935 187.445 405.19C188.223 405.446 188.925 405.821 189.55 406.315C190.175 406.804 190.697 407.401 191.118 408.105C191.538 408.804 191.828 409.602 191.987 410.5ZM198.982 422.807C198.153 422.807 197.4 422.651 196.724 422.338C196.048 422.02 195.511 421.562 195.113 420.966C194.715 420.364 194.516 419.636 194.516 418.784C194.516 418.034 194.664 417.426 194.96 416.96C195.255 416.489 195.65 416.119 196.144 415.852C196.638 415.585 197.184 415.386 197.781 415.256C198.383 415.119 198.988 415.011 199.596 414.932C200.391 414.83 201.036 414.753 201.531 414.702C202.031 414.645 202.394 414.551 202.621 414.42C202.854 414.29 202.971 414.062 202.971 413.739V413.67C202.971 412.83 202.741 412.176 202.281 411.71C201.826 411.244 201.136 411.011 200.21 411.011C199.249 411.011 198.496 411.222 197.951 411.642C197.406 412.062 197.022 412.511 196.8 412.989L194.891 412.307C195.232 411.511 195.687 410.892 196.255 410.449C196.829 410 197.454 409.687 198.13 409.511C198.812 409.33 199.482 409.239 200.141 409.239C200.562 409.239 201.045 409.29 201.59 409.392C202.141 409.489 202.673 409.69 203.184 409.997C203.701 410.304 204.13 410.767 204.471 411.386C204.812 412.006 204.982 412.835 204.982 413.875V422.5H202.971V420.727H202.869C202.732 421.011 202.505 421.315 202.187 421.639C201.869 421.963 201.445 422.239 200.917 422.466C200.388 422.693 199.744 422.807 198.982 422.807ZM199.289 421C200.085 421 200.755 420.844 201.3 420.531C201.852 420.219 202.266 419.815 202.545 419.321C202.829 418.827 202.971 418.307 202.971 417.761V415.92C202.886 416.023 202.698 416.116 202.408 416.202C202.124 416.281 201.795 416.352 201.42 416.415C201.05 416.472 200.69 416.523 200.337 416.568C199.991 416.608 199.71 416.642 199.494 416.67C198.971 416.739 198.482 416.849 198.028 417.003C197.579 417.151 197.215 417.375 196.937 417.676C196.664 417.972 196.528 418.375 196.528 418.886C196.528 419.585 196.786 420.114 197.303 420.472C197.826 420.824 198.488 421 199.289 421ZM208.653 422.5V409.409H210.597V411.386H210.733C210.972 410.739 211.403 410.213 212.028 409.81C212.653 409.406 213.358 409.205 214.142 409.205C214.29 409.205 214.474 409.207 214.696 409.213C214.918 409.219 215.085 409.227 215.199 409.239V411.284C215.131 411.267 214.974 411.241 214.73 411.207C214.491 411.168 214.239 411.148 213.972 411.148C213.335 411.148 212.767 411.281 212.267 411.548C211.773 411.81 211.381 412.173 211.091 412.639C210.807 413.099 210.665 413.625 210.665 414.216V422.5H208.653Z" fill="black"/>
<path d="M94.5698 470.83C94.5186 470.398 94.3113 470.062 93.9476 469.824C93.584 469.585 93.138 469.466 92.6096 469.466C92.2232 469.466 91.8851 469.528 91.5953 469.653C91.3084 469.778 91.084 469.95 90.9221 470.169C90.763 470.388 90.6834 470.636 90.6834 470.915C90.6834 471.148 90.7388 471.348 90.8496 471.516C90.9632 471.68 91.1081 471.818 91.2843 471.929C91.4604 472.037 91.6451 472.126 91.8382 472.197C92.0314 472.266 92.209 472.321 92.3709 472.364L93.2573 472.602C93.4846 472.662 93.7374 472.744 94.0158 472.849C94.2971 472.955 94.5655 473.098 94.8212 473.28C95.0797 473.459 95.2928 473.689 95.4604 473.97C95.628 474.251 95.7118 474.597 95.7118 475.006C95.7118 475.477 95.5882 475.903 95.3411 476.284C95.0968 476.665 94.7388 476.967 94.2672 477.192C93.7985 477.416 93.2289 477.528 92.5584 477.528C91.9334 477.528 91.3922 477.428 90.9348 477.226C90.4803 477.024 90.1223 476.743 89.861 476.382C89.6025 476.021 89.4561 475.602 89.4221 475.125H90.513C90.5414 475.455 90.6522 475.727 90.8453 475.943C91.0414 476.156 91.2885 476.315 91.5868 476.42C91.888 476.523 92.2118 476.574 92.5584 476.574C92.9618 476.574 93.324 476.509 93.6451 476.378C93.9661 476.244 94.2203 476.06 94.4078 475.824C94.5953 475.585 94.6891 475.307 94.6891 474.989C94.6891 474.699 94.6081 474.463 94.4462 474.281C94.2843 474.099 94.0712 473.952 93.807 473.838C93.5428 473.724 93.2573 473.625 92.9505 473.54L91.8766 473.233C91.1948 473.037 90.655 472.757 90.2573 472.393C89.8596 472.03 89.6607 471.554 89.6607 470.966C89.6607 470.477 89.7928 470.051 90.057 469.688C90.324 469.321 90.682 469.037 91.1309 468.835C91.5826 468.631 92.0868 468.528 92.6436 468.528C93.2061 468.528 93.7061 468.629 94.1436 468.831C94.5811 469.03 94.9277 469.303 95.1834 469.649C95.4419 469.996 95.5783 470.389 95.5925 470.83H94.5698ZM99.2392 477.528C98.8244 477.528 98.448 477.45 98.1099 477.294C97.7718 477.135 97.5034 476.906 97.3045 476.608C97.1056 476.307 97.0062 475.943 97.0062 475.517C97.0062 475.142 97.0801 474.838 97.2278 474.605C97.3755 474.369 97.573 474.185 97.8201 474.051C98.0673 473.918 98.34 473.818 98.6383 473.753C98.9395 473.685 99.242 473.631 99.546 473.591C99.9437 473.54 100.266 473.501 100.513 473.476C100.763 473.447 100.945 473.401 101.059 473.335C101.175 473.27 101.233 473.156 101.233 472.994V472.96C101.233 472.54 101.118 472.213 100.888 471.98C100.661 471.747 100.316 471.631 99.8528 471.631C99.3727 471.631 98.9963 471.736 98.7235 471.946C98.4508 472.156 98.2591 472.381 98.1483 472.619L97.1937 472.278C97.3642 471.881 97.5914 471.571 97.8755 471.349C98.1625 471.125 98.475 470.969 98.813 470.881C99.1539 470.79 99.4892 470.744 99.8187 470.744C100.029 470.744 100.27 470.77 100.543 470.821C100.819 470.869 101.084 470.97 101.34 471.124C101.599 471.277 101.813 471.509 101.983 471.818C102.154 472.128 102.239 472.543 102.239 473.062V477.375H101.233V476.489H101.182C101.114 476.631 101.001 476.783 100.841 476.945C100.682 477.107 100.471 477.244 100.206 477.358C99.9423 477.472 99.6199 477.528 99.2392 477.528ZM99.3926 476.625C99.7903 476.625 100.126 476.547 100.398 476.391C100.674 476.234 100.881 476.033 101.02 475.786C101.162 475.538 101.233 475.278 101.233 475.006V474.085C101.191 474.136 101.097 474.183 100.952 474.226C100.81 474.266 100.645 474.301 100.458 474.332C100.273 474.361 100.093 474.386 99.9167 474.409C99.7434 474.429 99.6028 474.446 99.4949 474.46C99.2335 474.494 98.9892 474.55 98.7619 474.626C98.5375 474.7 98.3556 474.812 98.2164 474.963C98.0801 475.111 98.0119 475.312 98.0119 475.568C98.0119 475.918 98.1412 476.182 98.3997 476.361C98.661 476.537 98.992 476.625 99.3926 476.625ZM106.921 470.83V471.682H103.529V470.83H106.921ZM104.518 469.261H105.524V475.5C105.524 475.784 105.565 475.997 105.647 476.139C105.732 476.278 105.84 476.372 105.971 476.42C106.105 476.466 106.245 476.489 106.393 476.489C106.504 476.489 106.595 476.483 106.666 476.472C106.737 476.457 106.794 476.446 106.836 476.438L107.041 477.341C106.972 477.366 106.877 477.392 106.755 477.418C106.633 477.446 106.478 477.46 106.291 477.46C106.007 477.46 105.728 477.399 105.455 477.277C105.186 477.155 104.961 476.969 104.782 476.719C104.606 476.469 104.518 476.153 104.518 475.773V469.261ZM112.559 474.699V470.83H113.565V477.375H112.559V476.267H112.491C112.338 476.599 112.099 476.882 111.775 477.115C111.451 477.345 111.042 477.46 110.548 477.46C110.139 477.46 109.775 477.371 109.457 477.192C109.139 477.01 108.889 476.737 108.707 476.374C108.525 476.007 108.434 475.545 108.434 474.989V470.83H109.44V474.92C109.44 475.398 109.573 475.778 109.84 476.062C110.11 476.347 110.454 476.489 110.872 476.489C111.122 476.489 111.376 476.425 111.634 476.297C111.896 476.169 112.115 475.973 112.291 475.709C112.47 475.445 112.559 475.108 112.559 474.699ZM119.276 477.375H118.168L121.373 468.648H122.464L125.668 477.375H124.56L121.952 470.028H121.884L119.276 477.375ZM119.685 473.966H124.151V474.903H119.685V473.966ZM126.891 479.83V470.83H127.863V471.869H127.982C128.056 471.756 128.158 471.611 128.289 471.435C128.422 471.256 128.613 471.097 128.86 470.957C129.11 470.815 129.448 470.744 129.874 470.744C130.425 470.744 130.911 470.882 131.331 471.158C131.752 471.433 132.08 471.824 132.316 472.33C132.552 472.835 132.67 473.432 132.67 474.119C132.67 474.812 132.552 475.413 132.316 475.922C132.08 476.428 131.753 476.82 131.336 477.098C130.918 477.374 130.437 477.511 129.891 477.511C129.471 477.511 129.134 477.442 128.881 477.303C128.628 477.161 128.434 477 128.297 476.821C128.161 476.639 128.056 476.489 127.982 476.369H127.897V479.83H126.891ZM127.88 474.102C127.88 474.597 127.952 475.033 128.097 475.411C128.242 475.786 128.454 476.08 128.732 476.293C129.01 476.503 129.351 476.608 129.755 476.608C130.175 476.608 130.526 476.497 130.807 476.276C131.091 476.051 131.305 475.75 131.447 475.372C131.591 474.991 131.664 474.568 131.664 474.102C131.664 473.642 131.593 473.227 131.451 472.858C131.312 472.486 131.1 472.192 130.816 471.976C130.535 471.757 130.181 471.648 129.755 471.648C129.346 471.648 129.002 471.751 128.724 471.959C128.445 472.163 128.235 472.45 128.093 472.82C127.951 473.186 127.88 473.614 127.88 474.102ZM135.209 468.648V477.375H134.204V468.648H135.209ZM137.051 477.375V470.83H138.057V477.375H137.051ZM137.563 469.739C137.367 469.739 137.198 469.672 137.056 469.538C136.916 469.405 136.847 469.244 136.847 469.057C136.847 468.869 136.916 468.709 137.056 468.575C137.198 468.442 137.367 468.375 137.563 468.375C137.759 468.375 137.926 468.442 138.066 468.575C138.208 468.709 138.279 468.869 138.279 469.057C138.279 469.244 138.208 469.405 138.066 469.538C137.926 469.672 137.759 469.739 137.563 469.739ZM140.836 474.989L140.819 473.744H141.024L143.888 470.83H145.132L142.081 473.915H141.996L140.836 474.989ZM139.899 477.375V468.648H140.905V477.375H139.899ZM144.058 477.375L141.501 474.136L142.217 473.438L145.336 477.375H144.058ZM148.352 477.528C147.938 477.528 147.561 477.45 147.223 477.294C146.885 477.135 146.617 476.906 146.418 476.608C146.219 476.307 146.119 475.943 146.119 475.517C146.119 475.142 146.193 474.838 146.341 474.605C146.489 474.369 146.686 474.185 146.933 474.051C147.181 473.918 147.453 473.818 147.752 473.753C148.053 473.685 148.355 473.631 148.659 473.591C149.057 473.54 149.379 473.501 149.627 473.476C149.877 473.447 150.058 473.401 150.172 473.335C150.289 473.27 150.347 473.156 150.347 472.994V472.96C150.347 472.54 150.232 472.213 150.002 471.98C149.774 471.747 149.429 471.631 148.966 471.631C148.486 471.631 148.11 471.736 147.837 471.946C147.564 472.156 147.372 472.381 147.262 472.619L146.307 472.278C146.477 471.881 146.705 471.571 146.989 471.349C147.276 471.125 147.588 470.969 147.926 470.881C148.267 470.79 148.602 470.744 148.932 470.744C149.142 470.744 149.384 470.77 149.656 470.821C149.932 470.869 150.198 470.97 150.453 471.124C150.712 471.277 150.926 471.509 151.097 471.818C151.267 472.128 151.352 472.543 151.352 473.062V477.375H150.347V476.489H150.296C150.227 476.631 150.114 476.783 149.955 476.945C149.796 477.107 149.584 477.244 149.32 477.358C149.056 477.472 148.733 477.528 148.352 477.528ZM148.506 476.625C148.904 476.625 149.239 476.547 149.512 476.391C149.787 476.234 149.994 476.033 150.134 475.786C150.276 475.538 150.347 475.278 150.347 475.006V474.085C150.304 474.136 150.21 474.183 150.066 474.226C149.923 474.266 149.759 474.301 149.571 474.332C149.387 474.361 149.206 474.386 149.03 474.409C148.857 474.429 148.716 474.446 148.608 474.46C148.347 474.494 148.102 474.55 147.875 474.626C147.651 474.7 147.469 474.812 147.33 474.963C147.193 475.111 147.125 475.312 147.125 475.568C147.125 475.918 147.254 476.182 147.513 476.361C147.774 476.537 148.105 476.625 148.506 476.625ZM157.824 472.295L156.921 472.551C156.864 472.401 156.78 472.254 156.67 472.112C156.562 471.967 156.414 471.848 156.226 471.754C156.039 471.661 155.799 471.614 155.506 471.614C155.106 471.614 154.772 471.706 154.505 471.891C154.241 472.072 154.108 472.304 154.108 472.585C154.108 472.835 154.199 473.033 154.381 473.178C154.563 473.322 154.847 473.443 155.233 473.54L156.205 473.778C156.79 473.92 157.226 474.138 157.513 474.43C157.8 474.72 157.944 475.094 157.944 475.551C157.944 475.926 157.836 476.261 157.62 476.557C157.407 476.852 157.108 477.085 156.725 477.256C156.341 477.426 155.895 477.511 155.387 477.511C154.719 477.511 154.167 477.366 153.729 477.077C153.292 476.787 153.015 476.364 152.898 475.807L153.853 475.568C153.944 475.92 154.116 476.185 154.368 476.361C154.624 476.537 154.958 476.625 155.37 476.625C155.839 476.625 156.211 476.526 156.486 476.327C156.765 476.125 156.904 475.884 156.904 475.602C156.904 475.375 156.824 475.185 156.665 475.031C156.506 474.875 156.262 474.759 155.932 474.682L154.841 474.426C154.242 474.284 153.802 474.064 153.52 473.766C153.242 473.464 153.103 473.088 153.103 472.636C153.103 472.267 153.206 471.94 153.414 471.656C153.624 471.372 153.91 471.149 154.27 470.987C154.634 470.825 155.046 470.744 155.506 470.744C156.154 470.744 156.662 470.886 157.032 471.17C157.404 471.455 157.668 471.83 157.824 472.295ZM159.458 477.375V470.83H160.463V477.375H159.458ZM159.969 469.739C159.773 469.739 159.604 469.672 159.462 469.538C159.323 469.405 159.253 469.244 159.253 469.057C159.253 468.869 159.323 468.709 159.462 468.575C159.604 468.442 159.773 468.375 159.969 468.375C160.165 468.375 160.333 468.442 160.472 468.575C160.614 468.709 160.685 468.869 160.685 469.057C160.685 469.244 160.614 469.405 160.472 469.538C160.333 469.672 160.165 469.739 159.969 469.739ZM163.805 476.182L163.737 476.642C163.689 476.966 163.615 477.312 163.515 477.682C163.419 478.051 163.318 478.399 163.213 478.726C163.108 479.053 163.021 479.313 162.953 479.506H162.186C162.223 479.324 162.271 479.084 162.331 478.786C162.39 478.487 162.45 478.153 162.51 477.784C162.572 477.418 162.623 477.043 162.663 476.659L162.714 476.182H163.805ZM173.953 470.83C173.901 470.398 173.694 470.062 173.33 469.824C172.967 469.585 172.521 469.466 171.992 469.466C171.606 469.466 171.268 469.528 170.978 469.653C170.691 469.778 170.467 469.95 170.305 470.169C170.146 470.388 170.066 470.636 170.066 470.915C170.066 471.148 170.122 471.348 170.232 471.516C170.346 471.68 170.491 471.818 170.667 471.929C170.843 472.037 171.028 472.126 171.221 472.197C171.414 472.266 171.592 472.321 171.754 472.364L172.64 472.602C172.867 472.662 173.12 472.744 173.399 472.849C173.68 472.955 173.948 473.098 174.204 473.28C174.463 473.459 174.676 473.689 174.843 473.97C175.011 474.251 175.095 474.597 175.095 475.006C175.095 475.477 174.971 475.903 174.724 476.284C174.48 476.665 174.122 476.967 173.65 477.192C173.181 477.416 172.612 477.528 171.941 477.528C171.316 477.528 170.775 477.428 170.318 477.226C169.863 477.024 169.505 476.743 169.244 476.382C168.985 476.021 168.839 475.602 168.805 475.125H169.896C169.924 475.455 170.035 475.727 170.228 475.943C170.424 476.156 170.671 476.315 170.97 476.42C171.271 476.523 171.595 476.574 171.941 476.574C172.345 476.574 172.707 476.509 173.028 476.378C173.349 476.244 173.603 476.06 173.791 475.824C173.978 475.585 174.072 475.307 174.072 474.989C174.072 474.699 173.991 474.463 173.829 474.281C173.667 474.099 173.454 473.952 173.19 473.838C172.926 473.724 172.64 473.625 172.333 473.54L171.259 473.233C170.578 473.037 170.038 472.757 169.64 472.393C169.242 472.03 169.044 471.554 169.044 470.966C169.044 470.477 169.176 470.051 169.44 469.688C169.707 469.321 170.065 469.037 170.514 468.835C170.965 468.631 171.47 468.528 172.026 468.528C172.589 468.528 173.089 468.629 173.526 468.831C173.964 469.03 174.311 469.303 174.566 469.649C174.825 469.996 174.961 470.389 174.975 470.83H173.953ZM179.44 477.511C178.809 477.511 178.265 477.372 177.808 477.094C177.354 476.812 177.003 476.42 176.756 475.918C176.511 475.412 176.389 474.824 176.389 474.153C176.389 473.483 176.511 472.892 176.756 472.381C177.003 471.866 177.346 471.466 177.787 471.179C178.23 470.889 178.747 470.744 179.338 470.744C179.679 470.744 180.015 470.801 180.348 470.915C180.68 471.028 180.983 471.213 181.256 471.469C181.528 471.722 181.746 472.057 181.907 472.474C182.069 472.892 182.15 473.406 182.15 474.017V474.443H177.105V473.574H181.128C181.128 473.205 181.054 472.875 180.906 472.585C180.761 472.295 180.554 472.067 180.284 471.899C180.017 471.732 179.702 471.648 179.338 471.648C178.937 471.648 178.591 471.747 178.298 471.946C178.008 472.142 177.785 472.398 177.629 472.713C177.473 473.028 177.395 473.366 177.395 473.727V474.307C177.395 474.801 177.48 475.22 177.65 475.564C177.824 475.905 178.064 476.165 178.371 476.344C178.677 476.52 179.034 476.608 179.44 476.608C179.704 476.608 179.943 476.571 180.156 476.497C180.372 476.42 180.558 476.307 180.714 476.156C180.871 476.003 180.991 475.812 181.077 475.585L182.048 475.858C181.946 476.188 181.774 476.477 181.532 476.727C181.291 476.974 180.993 477.168 180.638 477.307C180.282 477.443 179.883 477.511 179.44 477.511ZM183.68 477.375V470.83H184.652V471.852H184.737C184.873 471.503 185.094 471.232 185.398 471.038C185.702 470.842 186.067 470.744 186.493 470.744C186.925 470.744 187.284 470.842 187.571 471.038C187.861 471.232 188.086 471.503 188.248 471.852H188.317C188.484 471.514 188.736 471.246 189.071 471.047C189.406 470.845 189.808 470.744 190.277 470.744C190.862 470.744 191.341 470.928 191.713 471.294C192.085 471.658 192.271 472.224 192.271 472.994V477.375H191.265V472.994C191.265 472.511 191.133 472.166 190.869 471.959C190.605 471.751 190.294 471.648 189.936 471.648C189.476 471.648 189.119 471.787 188.866 472.065C188.613 472.341 188.487 472.69 188.487 473.114V477.375H187.464V472.892C187.464 472.52 187.344 472.22 187.102 471.993C186.861 471.763 186.55 471.648 186.169 471.648C185.907 471.648 185.663 471.717 185.436 471.857C185.211 471.996 185.03 472.189 184.89 472.436C184.754 472.68 184.686 472.963 184.686 473.284V477.375H183.68ZM198.235 474.699V470.83H199.241V477.375H198.235V476.267H198.167C198.013 476.599 197.775 476.882 197.451 477.115C197.127 477.345 196.718 477.46 196.224 477.46C195.814 477.46 195.451 477.371 195.133 477.192C194.814 477.01 194.564 476.737 194.383 476.374C194.201 476.007 194.11 475.545 194.11 474.989V470.83H195.116V474.92C195.116 475.398 195.249 475.778 195.516 476.062C195.786 476.347 196.13 476.489 196.547 476.489C196.797 476.489 197.052 476.425 197.31 476.297C197.572 476.169 197.79 475.973 197.966 475.709C198.145 475.445 198.235 475.108 198.235 474.699ZM203.009 477.528C202.594 477.528 202.218 477.45 201.879 477.294C201.541 477.135 201.273 476.906 201.074 476.608C200.875 476.307 200.776 475.943 200.776 475.517C200.776 475.142 200.85 474.838 200.997 474.605C201.145 474.369 201.343 474.185 201.59 474.051C201.837 473.918 202.11 473.818 202.408 473.753C202.709 473.685 203.012 473.631 203.316 473.591C203.713 473.54 204.036 473.501 204.283 473.476C204.533 473.447 204.715 473.401 204.828 473.335C204.945 473.27 205.003 473.156 205.003 472.994V472.96C205.003 472.54 204.888 472.213 204.658 471.98C204.431 471.747 204.085 471.631 203.622 471.631C203.142 471.631 202.766 471.736 202.493 471.946C202.22 472.156 202.029 472.381 201.918 472.619L200.963 472.278C201.134 471.881 201.361 471.571 201.645 471.349C201.932 471.125 202.244 470.969 202.583 470.881C202.923 470.79 203.259 470.744 203.588 470.744C203.798 470.744 204.04 470.77 204.313 470.821C204.588 470.869 204.854 470.97 205.11 471.124C205.368 471.277 205.583 471.509 205.753 471.818C205.923 472.128 206.009 472.543 206.009 473.062V477.375H205.003V476.489H204.952C204.884 476.631 204.77 476.783 204.611 476.945C204.452 477.107 204.24 477.244 203.976 477.358C203.712 477.472 203.389 477.528 203.009 477.528ZM203.162 476.625C203.56 476.625 203.895 476.547 204.168 476.391C204.443 476.234 204.651 476.033 204.79 475.786C204.932 475.538 205.003 475.278 205.003 475.006V474.085C204.96 474.136 204.867 474.183 204.722 474.226C204.58 474.266 204.415 474.301 204.227 474.332C204.043 474.361 203.862 474.386 203.686 474.409C203.513 474.429 203.372 474.446 203.264 474.46C203.003 474.494 202.759 474.55 202.531 474.626C202.307 474.7 202.125 474.812 201.986 474.963C201.85 475.111 201.781 475.312 201.781 475.568C201.781 475.918 201.911 476.182 202.169 476.361C202.431 476.537 202.762 476.625 203.162 476.625ZM211.356 477.375V468.648H212.412V472.977H212.515L216.435 468.648H217.816L214.151 472.585L217.816 477.375H216.537L213.503 473.318L212.412 474.545V477.375H211.356ZM221.311 477.511C220.681 477.511 220.137 477.372 219.679 477.094C219.225 476.812 218.874 476.42 218.627 475.918C218.382 475.412 218.26 474.824 218.26 474.153C218.26 473.483 218.382 472.892 218.627 472.381C218.874 471.866 219.218 471.466 219.658 471.179C220.101 470.889 220.618 470.744 221.209 470.744C221.55 470.744 221.887 470.801 222.219 470.915C222.551 471.028 222.854 471.213 223.127 471.469C223.399 471.722 223.617 472.057 223.779 472.474C223.941 472.892 224.021 473.406 224.021 474.017V474.443H218.976V473.574H222.999C222.999 473.205 222.925 472.875 222.777 472.585C222.632 472.295 222.425 472.067 222.155 471.899C221.888 471.732 221.573 471.648 221.209 471.648C220.808 471.648 220.462 471.747 220.169 471.946C219.879 472.142 219.656 472.398 219.5 472.713C219.344 473.028 219.266 473.366 219.266 473.727V474.307C219.266 474.801 219.351 475.22 219.521 475.564C219.695 475.905 219.935 476.165 220.242 476.344C220.548 476.52 220.905 476.608 221.311 476.608C221.575 476.608 221.814 476.571 222.027 476.497C222.243 476.42 222.429 476.307 222.585 476.156C222.742 476.003 222.862 475.812 222.948 475.585L223.919 475.858C223.817 476.188 223.645 476.477 223.404 476.727C223.162 476.974 222.864 477.168 222.509 477.307C222.154 477.443 221.754 477.511 221.311 477.511ZM225.688 477.375V468.648H226.693V471.869H226.779C226.852 471.756 226.955 471.611 227.085 471.435C227.219 471.256 227.409 471.097 227.656 470.957C227.906 470.815 228.244 470.744 228.671 470.744C229.222 470.744 229.708 470.882 230.128 471.158C230.548 471.433 230.877 471.824 231.112 472.33C231.348 472.835 231.466 473.432 231.466 474.119C231.466 474.812 231.348 475.413 231.112 475.922C230.877 476.428 230.55 476.82 230.132 477.098C229.715 477.374 229.233 477.511 228.688 477.511C228.267 477.511 227.931 477.442 227.678 477.303C227.425 477.161 227.23 477 227.094 476.821C226.958 476.639 226.852 476.489 226.779 476.369H226.659V477.375H225.688ZM226.676 474.102C226.676 474.597 226.749 475.033 226.894 475.411C227.039 475.786 227.25 476.08 227.529 476.293C227.807 476.503 228.148 476.608 228.551 476.608C228.972 476.608 229.323 476.497 229.604 476.276C229.888 476.051 230.101 475.75 230.243 475.372C230.388 474.991 230.46 474.568 230.46 474.102C230.46 473.642 230.389 473.227 230.247 472.858C230.108 472.486 229.896 472.192 229.612 471.976C229.331 471.757 228.977 471.648 228.551 471.648C228.142 471.648 227.798 471.751 227.52 471.959C227.242 472.163 227.031 472.45 226.889 472.82C226.747 473.186 226.676 473.614 226.676 474.102ZM237.129 474.699V470.83H238.135V477.375H237.129V476.267H237.061C236.908 476.599 236.669 476.882 236.345 477.115C236.021 477.345 235.612 477.46 235.118 477.46C234.709 477.46 234.345 477.371 234.027 477.192C233.709 477.01 233.459 476.737 233.277 476.374C233.095 476.007 233.004 475.545 233.004 474.989V470.83H234.01V474.92C234.01 475.398 234.144 475.778 234.411 476.062C234.681 476.347 235.024 476.489 235.442 476.489C235.692 476.489 235.946 476.425 236.205 476.297C236.466 476.169 236.685 475.973 236.861 475.709C237.04 475.445 237.129 475.108 237.129 474.699ZM242.824 470.83V471.682H239.432V470.83H242.824ZM240.42 469.261H241.426V475.5C241.426 475.784 241.467 475.997 241.55 476.139C241.635 476.278 241.743 476.372 241.873 476.42C242.007 476.466 242.148 476.489 242.295 476.489C242.406 476.489 242.497 476.483 242.568 476.472C242.639 476.457 242.696 476.446 242.738 476.438L242.943 477.341C242.875 477.366 242.78 477.392 242.657 477.418C242.535 477.446 242.381 477.46 242.193 477.46C241.909 477.46 241.631 477.399 241.358 477.277C241.088 477.155 240.863 476.969 240.684 476.719C240.508 476.469 240.42 476.153 240.42 475.773V469.261ZM248.461 474.699V470.83H249.467V477.375H248.461V476.267H248.393C248.24 476.599 248.001 476.882 247.677 477.115C247.354 477.345 246.944 477.46 246.45 477.46C246.041 477.46 245.677 477.371 245.359 477.192C245.041 477.01 244.791 476.737 244.609 476.374C244.427 476.007 244.336 475.545 244.336 474.989V470.83H245.342V474.92C245.342 475.398 245.476 475.778 245.743 476.062C246.013 476.347 246.356 476.489 246.774 476.489C247.024 476.489 247.278 476.425 247.537 476.297C247.798 476.169 248.017 475.973 248.193 475.709C248.372 475.445 248.461 475.108 248.461 474.699ZM252.315 473.438V477.375H251.309V468.648H252.315V471.852H252.4C252.553 471.514 252.784 471.246 253.09 471.047C253.4 470.845 253.812 470.744 254.326 470.744C254.772 470.744 255.163 470.834 255.498 471.013C255.833 471.189 256.093 471.46 256.278 471.827C256.465 472.19 256.559 472.653 256.559 473.216V477.375H255.553V473.284C255.553 472.764 255.419 472.362 255.149 472.078C254.882 471.791 254.511 471.648 254.036 471.648C253.707 471.648 253.411 471.717 253.15 471.857C252.892 471.996 252.687 472.199 252.536 472.466C252.389 472.733 252.315 473.057 252.315 473.438ZM260.325 477.528C259.91 477.528 259.534 477.45 259.196 477.294C258.858 477.135 258.589 476.906 258.39 476.608C258.192 476.307 258.092 475.943 258.092 475.517C258.092 475.142 258.166 474.838 258.314 474.605C258.461 474.369 258.659 474.185 258.906 474.051C259.153 473.918 259.426 473.818 259.724 473.753C260.025 473.685 260.328 473.631 260.632 473.591C261.03 473.54 261.352 473.501 261.599 473.476C261.849 473.447 262.031 473.401 262.145 473.335C262.261 473.27 262.319 473.156 262.319 472.994V472.96C262.319 472.54 262.204 472.213 261.974 471.98C261.747 471.747 261.402 471.631 260.939 471.631C260.459 471.631 260.082 471.736 259.809 471.946C259.537 472.156 259.345 472.381 259.234 472.619L258.28 472.278C258.45 471.881 258.677 471.571 258.961 471.349C259.248 471.125 259.561 470.969 259.899 470.881C260.24 470.79 260.575 470.744 260.905 470.744C261.115 470.744 261.356 470.77 261.629 470.821C261.905 470.869 262.17 470.97 262.426 471.124C262.684 471.277 262.899 471.509 263.069 471.818C263.24 472.128 263.325 472.543 263.325 473.062V477.375H262.319V476.489H262.268C262.2 476.631 262.086 476.783 261.927 476.945C261.768 477.107 261.557 477.244 261.292 477.358C261.028 477.472 260.706 477.528 260.325 477.528ZM260.479 476.625C260.876 476.625 261.211 476.547 261.484 476.391C261.76 476.234 261.967 476.033 262.106 475.786C262.248 475.538 262.319 475.278 262.319 475.006V474.085C262.277 474.136 262.183 474.183 262.038 474.226C261.896 474.266 261.731 474.301 261.544 474.332C261.359 474.361 261.179 474.386 261.003 474.409C260.829 474.429 260.689 474.446 260.581 474.46C260.319 474.494 260.075 474.55 259.848 474.626C259.623 474.7 259.442 474.812 259.302 474.963C259.166 475.111 259.098 475.312 259.098 475.568C259.098 475.918 259.227 476.182 259.486 476.361C259.747 476.537 260.078 476.625 260.479 476.625ZM266.166 473.438V477.375H265.161V470.83H266.132V471.852H266.218C266.371 471.52 266.604 471.253 266.916 471.051C267.229 470.847 267.632 470.744 268.127 470.744C268.57 470.744 268.958 470.835 269.29 471.017C269.622 471.196 269.881 471.469 270.066 471.835C270.25 472.199 270.343 472.659 270.343 473.216V477.375H269.337V473.284C269.337 472.77 269.203 472.369 268.936 472.082C268.669 471.793 268.303 471.648 267.837 471.648C267.516 471.648 267.229 471.717 266.976 471.857C266.726 471.996 266.529 472.199 266.384 472.466C266.239 472.733 266.166 473.057 266.166 473.438Z" fill="black"/>
<path d="M221.644 365.534C221.346 366.113 220.979 366.661 220.828 366.753C220.681 366.846 219.606 366.318 218.441 365.579C217.28 364.839 216.191 364.233 216.024 364.233C215.726 364.233 212.695 362.699 212.02 362.205C211.239 361.633 208.462 360.859 206.572 360.688C203.743 360.431 203.469 360.072 204.157 357.531C204.948 354.62 205.116 347.175 204.421 345.87C204.133 345.325 203.544 343.88 203.116 342.657C201.537 338.161 199.897 335.243 198.459 334.366C197.849 333.996 196.472 332.815 195.394 331.736C193.859 330.202 192.75 329.483 190.229 328.387C185.524 326.342 184.147 326.048 179.315 326.048C176.024 326.048 174.27 326.229 171.722 326.839C168.233 327.675 168.027 327.791 163.113 331.709C161.572 332.942 159.965 334.185 159.544 334.476C158.606 335.13 157.352 336.949 156.746 338.548C156.493 339.209 156.075 340.233 155.815 340.825C155.554 341.418 155.342 342.014 155.342 342.144C155.342 342.274 155.12 342.87 154.849 343.462C153.541 346.329 153.257 347.486 153.058 350.75C152.88 353.64 152.948 354.555 153.435 355.829C153.763 356.685 154.133 357.383 154.257 357.383C154.561 357.383 154.493 359.373 154.174 359.692C154.041 359.829 149.938 359.966 145.061 359.996C138.435 360.038 136.051 359.945 135.613 359.623C134.928 359.123 134.503 356.842 134.236 352.246C134.013 348.37 135.027 341.459 136.144 339.274C136.53 338.514 136.849 337.688 136.849 337.445C136.849 337.199 137.144 336.445 137.507 335.77C137.87 335.096 138.328 333.931 138.53 333.181C139.092 331.096 142.178 326.264 144.291 324.164C145.332 323.127 146.435 321.897 146.739 321.425C148.02 319.449 151.459 316.62 155.277 314.404C155.602 314.216 156.404 313.661 157.061 313.168C158.304 312.236 163.14 310.123 164.024 310.123C164.304 310.123 164.969 309.907 165.503 309.64C167.52 308.64 171.417 307.764 175.599 307.366C179.356 307.01 180.469 307.034 183.989 307.541C187.904 308.106 190.335 308.692 192.5 309.603C194.979 310.644 195.486 310.808 196.202 310.808C196.616 310.808 197.726 311.209 198.667 311.702C200.907 312.87 205 315.613 205 315.945C205 316.089 205.462 316.397 206.027 316.63C206.592 316.863 207.054 317.171 207.054 317.315C207.054 317.459 207.479 317.75 207.996 317.966C208.513 318.181 209.479 318.996 210.137 319.777C210.794 320.558 212.205 322.133 213.27 323.281C215.209 325.366 218.356 329.781 218.356 330.414C218.356 330.599 218.897 331.901 219.554 333.308C220.212 334.719 220.753 335.959 220.753 336.068C220.753 336.178 220.962 336.51 221.219 336.808C221.856 337.551 222.493 339.966 222.808 342.829C222.955 344.147 223.253 345.918 223.476 346.767C224.147 349.336 223.948 358.647 223.202 359.548C222.993 359.798 222.678 361.014 222.503 362.246C222.332 363.476 221.941 364.959 221.644 365.534ZM214.897 394.428L214.575 395.685H178.366C158.452 395.685 142.003 395.633 141.815 395.572C141.626 395.507 141.061 395.366 140.558 395.257C138.89 394.89 138.935 392.188 140.623 391.284C141.267 390.938 158.472 390.733 159.034 391.065C159.171 391.144 159.62 391.079 160.03 390.925C161.719 390.284 162.626 387.298 161.685 385.479C160.75 383.675 159.493 383.377 152.123 383.219C145.959 383.086 145.548 383.034 144.983 382.349C144.27 381.486 144.212 380.353 144.832 379.503C145.236 378.952 146.051 378.883 153.308 378.808C164.678 378.685 163.688 378.805 165.085 377.366C166.048 376.373 166.301 375.842 166.301 374.801C166.301 372.859 164.894 371.418 162.688 371.099C161.757 370.966 153.52 370.887 144.383 370.925C126.414 371 126.233 370.983 126.233 369.209C126.233 368.753 126.578 367.993 127.003 367.52C127.702 366.74 128.034 366.657 130.513 366.64C132.02 366.63 148.602 366.613 167.366 366.606C200.698 366.592 201.541 366.606 204.239 367.294C205.757 367.681 207.517 368 208.147 368C209.746 368 215.609 371.034 217.671 372.928C220.181 375.24 222.698 376.562 224.582 376.562C225.746 376.562 231.202 377.818 232.082 378.288C232.394 378.455 233.479 378.743 234.493 378.928C240.585 380.041 241.328 380.527 244.044 385.13C244.876 386.541 245.068 387.253 245.068 388.938C245.068 391.346 244.483 392.781 242.859 394.353C241.859 395.322 241.411 395.496 239.459 395.651C236.715 395.873 235.431 395.253 235.534 393.76C235.661 391.921 233.972 389.647 230.147 386.514C228.894 385.483 227.061 384.781 225.637 384.781C223.804 384.781 220.304 386.479 217.599 388.681C215.965 390.014 215.644 390.466 215.448 391.709C215.322 392.514 215.075 393.736 214.897 394.428ZM180.572 428.531C179.64 429.829 178.63 430.445 178.63 429.719C178.63 429.575 178.051 428.668 177.346 427.705C174.64 424.024 170.239 417.938 166.12 412.178C163.76 408.883 161.28 405.452 160.606 404.555C159.907 403.623 159.465 402.702 159.578 402.411C159.75 401.962 162.198 401.911 179.048 401.986L198.322 402.075V402.931C198.322 403.486 196.633 406.13 193.507 410.466C190.856 414.14 187.993 418.144 187.144 419.37C186.291 420.596 184.702 422.829 183.606 424.336C182.513 425.842 181.147 427.729 180.572 428.531ZM167.394 391.723C168.017 391.801 171.459 391.887 175.041 391.918C180.76 391.966 182.034 391.87 185.486 391.14C187.65 390.685 190.02 389.996 190.753 389.613C192.253 388.825 194.835 386.065 196.027 383.976C197.12 382.058 197.178 377.973 196.14 376.017C195.065 373.996 194.763 373.726 192.027 372.318C189.448 370.993 186.585 370.449 183.253 370.654C182.5 370.699 180.058 370.781 177.825 370.832C173.859 370.921 173.746 370.949 172.945 371.88C171.828 373.175 171.828 374.983 172.945 375.716C174.007 376.411 175.637 376.452 179.705 375.883C182.602 375.479 183.253 375.49 185.013 375.959C186.116 376.253 187.455 376.592 187.986 376.712C190.661 377.312 190.524 383.397 187.804 384.63C187.185 384.911 186.061 385.517 185.308 385.973C184.099 386.705 183.524 386.808 180.452 386.822C175.904 386.839 175.205 386.579 175.205 384.853C175.205 384.127 175.448 382.723 175.743 381.726C176.52 379.113 176.38 378.959 173.246 378.966C171.78 378.966 170.411 379.082 170.205 379.223C169.616 379.616 169.041 380.887 169.041 381.801C169.041 382.26 168.513 383.695 167.866 384.993C166.578 387.575 165.774 390.308 166.072 391.086C166.174 391.359 166.77 391.647 167.394 391.723ZM227.435 400.877C226.554 401.253 225.654 401.541 225.435 401.517C222.188 401.171 221.198 400.623 220.263 398.654C219.496 397.034 219.596 395.633 220.62 393.671C221.907 391.216 222.825 390.603 225.222 390.603C227.894 390.603 229.058 391.315 229.962 393.5C230.507 394.818 230.626 395.633 230.469 396.949C230.219 399.068 229.507 399.986 227.435 400.877ZM139.171 382.877C138.602 383.277 137.52 383.411 134.89 383.411C130.959 383.411 129.996 382.955 130.007 381.099C130.013 379.743 130.411 379.291 131.917 378.942C133.777 378.51 138.582 378.918 139.332 379.572C140.209 380.332 140.116 382.216 139.171 382.877ZM121.661 369.853C121.209 370.541 120.873 370.627 118.64 370.623C117.26 370.62 115.876 370.562 115.565 370.49C114.798 370.315 114.527 369.075 115.03 368.024C115.589 366.863 116.825 366.49 119.161 366.781C120.863 366.993 121.171 367.151 121.637 368.051C122.106 368.962 122.109 369.168 121.661 369.853Z" fill="#35CB48"/>
<path d="M222.178 366.497C221.822 367.401 221.394 368.178 221.23 368.226C221.062 368.271 220.075 367.685 219.041 366.925C215.024 363.969 209.716 361.87 204.88 361.319C203.966 361.216 203.432 361.229 203.195 360.969C202.89 360.637 203.069 359.86 203.545 357.812C203.62 357.476 203.706 357.106 203.798 356.699C204.702 352.726 204.37 347.462 202.983 343.706C201.483 339.634 199.62 336.685 196.89 334.051C192.569 329.884 188.308 327.774 182.411 326.877C172.623 325.387 161.795 330.962 157.103 339.911C154.134 345.572 153.401 351.456 154.89 357.654C155.175 358.836 155.319 360.031 155.212 360.308C155.051 360.733 153.469 360.808 144.914 360.808H134.808L134.634 360.038C132.257 349.551 134.843 336.637 141.206 327.223C142.99 324.582 146.973 320.038 149.349 317.925C151.154 316.322 156.418 312.853 159.089 311.503C161.812 310.13 167.363 308.281 171.096 307.507C175.093 306.678 183.168 306.678 187.363 307.51C196.966 309.408 204.781 313.569 211.507 320.366C215.438 324.343 217.952 327.75 220.017 331.911C225.469 342.89 226.288 356.027 222.178 366.497ZM221.644 365.534C221.942 364.959 222.332 363.476 222.504 362.247C222.678 361.014 222.993 359.798 223.202 359.548C223.949 358.647 224.147 349.336 223.476 346.767C223.254 345.918 222.956 344.147 222.808 342.829C222.493 339.966 221.856 337.551 221.219 336.808C220.962 336.51 220.754 336.178 220.754 336.069C220.754 335.959 220.212 334.719 219.555 333.308C218.897 331.901 218.356 330.599 218.356 330.414C218.356 329.781 215.209 325.366 213.271 323.281C212.206 322.134 210.795 320.558 210.137 319.777C209.48 318.997 208.514 318.182 207.997 317.966C207.48 317.75 207.055 317.459 207.055 317.315C207.055 317.171 206.593 316.863 206.027 316.63C205.462 316.397 205 316.089 205 315.945C205 315.613 200.908 312.87 198.668 311.702C197.726 311.209 196.617 310.808 196.202 310.808C195.486 310.808 194.98 310.644 192.5 309.603C190.336 308.692 187.904 308.106 183.99 307.541C180.469 307.034 179.356 307.01 175.599 307.366C171.418 307.764 167.521 308.64 165.504 309.64C164.969 309.908 164.305 310.123 164.024 310.123C163.14 310.123 158.305 312.236 157.062 313.168C156.404 313.661 155.603 314.216 155.277 314.404C151.459 316.62 148.021 319.449 146.74 321.425C146.435 321.897 145.332 323.127 144.291 324.164C142.178 326.264 139.093 331.096 138.531 333.182C138.329 333.932 137.87 335.096 137.507 335.771C137.144 336.445 136.849 337.199 136.849 337.445C136.849 337.688 136.531 338.514 136.144 339.274C135.027 341.459 134.014 348.37 134.236 352.247C134.504 356.843 134.928 359.123 135.613 359.623C136.051 359.945 138.435 360.038 145.062 359.997C149.938 359.966 154.041 359.829 154.175 359.692C154.493 359.373 154.562 357.384 154.257 357.384C154.134 357.384 153.764 356.685 153.435 355.829C152.949 354.555 152.88 353.64 153.058 350.75C153.257 347.486 153.541 346.329 154.849 343.462C155.12 342.87 155.343 342.274 155.343 342.144C155.343 342.014 155.555 341.418 155.815 340.825C156.075 340.233 156.493 339.209 156.747 338.548C157.353 336.949 158.606 335.13 159.545 334.476C159.966 334.185 161.572 332.942 163.113 331.709C168.027 327.791 168.233 327.675 171.723 326.839C174.271 326.229 176.024 326.048 179.315 326.048C184.147 326.048 185.524 326.343 190.23 328.387C192.75 329.483 193.86 330.202 195.394 331.736C196.473 332.815 197.849 333.997 198.459 334.366C199.897 335.243 201.538 338.161 203.117 342.658C203.545 343.88 204.134 345.325 204.421 345.87C205.117 347.175 204.949 354.62 204.158 357.531C203.469 360.072 203.743 360.432 206.572 360.688C208.462 360.86 211.24 361.634 212.021 362.206C212.695 362.699 215.726 364.233 216.024 364.233C216.192 364.233 217.281 364.839 218.442 365.579C219.606 366.319 220.682 366.846 220.829 366.753C220.98 366.661 221.346 366.113 221.644 365.534ZM215.791 394.199L215.411 396.253L177.702 396.339L139.997 396.428L139.075 395.336C138.353 394.476 138.202 394.024 138.37 393.195C138.819 390.942 138.747 390.956 149.593 390.86L159.408 390.774L160.459 389.767C161.305 388.956 161.507 388.483 161.507 387.315C161.507 386.12 161.322 385.716 160.452 384.983L159.401 384.096H152.456C145.589 384.096 145.5 384.086 144.62 383.271C142.891 381.664 143.212 379.387 145.281 378.603C145.754 378.421 150.048 378.274 154.825 378.274H163.51L164.562 377.219C166.045 375.74 166.045 373.901 164.562 372.654L163.51 371.767H127.23L126.387 370.928C125.319 369.856 125.25 367.956 126.24 366.966C126.932 366.274 127.164 366.271 166.223 366.377C202.973 366.473 205.647 366.521 207.569 367.099C210.983 368.13 214.37 369.863 218.959 372.928C223.212 375.767 223.404 375.853 226.575 376.394C231.569 377.243 237.61 378.801 239.914 379.836C243.777 381.569 245.754 384.706 245.754 389.103C245.754 392.14 245.254 393.493 243.586 394.959C242.137 396.229 240.99 396.503 237.709 396.36L235.315 396.253L235.048 394.387C234.144 388.072 227.24 384.339 221.438 387.031C218.051 388.603 216.452 390.63 215.791 394.199ZM214.897 394.428C215.075 393.736 215.322 392.514 215.449 391.709C215.644 390.466 215.966 390.014 217.599 388.682C220.305 386.479 223.805 384.781 225.637 384.781C227.062 384.781 228.894 385.483 230.147 386.514C233.973 389.647 235.661 391.921 235.534 393.76C235.432 395.253 236.716 395.873 239.459 395.651C241.411 395.497 241.86 395.322 242.86 394.353C244.483 392.781 245.069 391.346 245.069 388.938C245.069 387.253 244.877 386.541 244.045 385.13C241.329 380.527 240.586 380.041 234.493 378.928C233.48 378.743 232.394 378.456 232.082 378.288C231.202 377.819 225.747 376.562 224.582 376.562C222.699 376.562 220.182 375.24 217.671 372.928C215.61 371.034 209.747 368 208.147 368C207.517 368 205.757 367.682 204.24 367.295C201.541 366.606 200.699 366.593 167.367 366.606C148.603 366.613 132.021 366.63 130.514 366.64C128.034 366.658 127.702 366.74 127.004 367.521C126.579 367.993 126.233 368.753 126.233 369.209C126.233 370.983 126.414 371 144.384 370.925C153.521 370.887 161.757 370.966 162.688 371.099C164.894 371.418 166.301 372.86 166.301 374.801C166.301 375.843 166.048 376.373 165.086 377.366C163.688 378.805 164.678 378.685 153.308 378.808C146.051 378.884 145.236 378.952 144.832 379.503C144.212 380.353 144.271 381.486 144.983 382.349C145.548 383.034 145.959 383.086 152.123 383.219C159.493 383.377 160.75 383.675 161.685 385.479C162.627 387.298 161.719 390.284 160.031 390.925C159.62 391.079 159.171 391.144 159.034 391.065C158.473 390.733 141.267 390.938 140.623 391.284C138.935 392.188 138.891 394.89 140.558 395.257C141.062 395.366 141.627 395.507 141.815 395.572C142.004 395.634 158.452 395.685 178.367 395.685H214.575L214.897 394.428ZM167.394 391.723C166.771 391.647 166.175 391.36 166.072 391.086C165.774 390.308 166.579 387.575 167.867 384.993C168.514 383.695 169.041 382.26 169.041 381.801C169.041 380.887 169.617 379.616 170.206 379.223C170.411 379.082 171.781 378.966 173.247 378.966C176.38 378.959 176.521 379.113 175.743 381.726C175.449 382.723 175.206 384.127 175.206 384.853C175.206 386.579 175.904 386.839 180.452 386.822C183.524 386.808 184.099 386.706 185.308 385.973C186.062 385.517 187.185 384.911 187.805 384.63C190.524 383.397 190.661 377.312 187.986 376.712C187.456 376.593 186.117 376.253 185.014 375.959C183.254 375.49 182.603 375.479 179.706 375.884C175.637 376.452 174.007 376.411 172.945 375.716C171.829 374.983 171.829 373.175 172.945 371.88C173.747 370.949 173.86 370.921 177.825 370.832C180.058 370.781 182.5 370.699 183.254 370.654C186.586 370.449 189.449 370.993 192.027 372.319C194.764 373.726 195.065 373.997 196.14 376.017C197.178 377.973 197.12 382.058 196.027 383.976C194.836 386.065 192.254 388.825 190.754 389.613C190.021 389.997 187.651 390.685 185.486 391.14C182.034 391.87 180.76 391.966 175.041 391.918C171.459 391.887 168.017 391.801 167.394 391.723ZM166.921 391.11C167.051 391.243 171.089 391.281 175.89 391.199C183.301 391.069 184.966 390.945 186.89 390.37C192.63 388.654 196.219 384.675 196.25 379.986C196.271 377.12 195.418 375.404 193.223 373.918C190.637 372.164 189.702 372 181.497 371.856L173.914 371.719L173.377 373.301C172.973 374.493 172.942 374.914 173.25 375.014C173.48 375.086 176.675 375.206 180.353 375.277C186.675 375.397 187.123 375.452 188.521 376.236C190.26 377.216 190.959 378.39 190.959 380.346C190.959 382.271 190.12 383.901 188.432 385.257C185.956 387.24 184.736 387.521 178.582 387.521C173.493 387.521 173.086 387.476 173.247 386.921C173.346 386.593 173.825 385.243 174.315 383.925C174.805 382.61 175.206 381.106 175.206 380.586C175.206 379.654 175.182 379.644 172.98 379.644C171.757 379.644 170.754 379.692 170.754 379.753C170.754 379.87 168.932 384.873 167.534 388.596C167.065 389.846 166.791 390.979 166.921 391.11ZM227.788 401.945C225.404 403.027 223.25 402.64 221.137 400.75C218.877 398.726 218.815 393.962 221.017 391.527C223.031 389.301 227.921 389.483 230.072 391.863C230.836 392.709 231.712 394.822 231.709 395.815C231.706 398.38 230.093 400.897 227.788 401.945ZM227.435 400.877C229.507 399.986 230.219 399.069 230.469 396.949C230.627 395.634 230.507 394.819 229.962 393.5C229.058 391.315 227.894 390.603 225.223 390.603C222.825 390.603 221.908 391.216 220.62 393.671C219.596 395.634 219.497 397.034 220.264 398.654C221.199 400.623 222.188 401.171 225.435 401.517C225.654 401.541 226.555 401.253 227.435 400.877ZM140.12 383.188C139.305 384.069 139.158 384.096 135.37 384.096C130.997 384.096 129.918 383.661 129.49 381.719C129.243 380.589 129.997 378.822 130.87 378.486C131.178 378.37 133.192 378.274 135.353 378.274C139.065 378.274 139.322 378.319 140.12 379.113C141.247 380.243 141.247 381.973 140.12 383.188ZM122.192 370.846C121.308 371.692 121.004 371.767 118.408 371.767C115.867 371.767 115.5 371.682 114.743 370.928C113.541 369.723 113.569 367.627 114.805 366.654C115.548 366.072 116.195 365.945 118.428 365.945C120.98 365.945 121.212 366.007 122.151 366.945C123.459 368.257 123.476 369.616 122.192 370.846ZM139.171 382.877C140.117 382.216 140.209 380.332 139.332 379.572C138.582 378.918 133.777 378.51 131.918 378.942C130.411 379.291 130.014 379.743 130.007 381.099C129.997 382.956 130.959 383.411 134.89 383.411C137.521 383.411 138.603 383.277 139.171 382.877ZM121.661 369.853C122.11 369.168 122.106 368.962 121.637 368.051C121.171 367.151 120.863 366.993 119.161 366.781C116.825 366.49 115.589 366.863 115.031 368.024C114.527 369.075 114.798 370.315 115.565 370.49C115.877 370.562 117.26 370.62 118.641 370.623C120.873 370.627 121.209 370.541 121.661 369.853ZM198.538 403.692C197.75 404.593 194.442 409.154 186.284 420.593C186.61 420.13 186.904 419.712 187.144 419.37C187.993 418.144 190.856 414.14 193.507 410.466C196.634 406.13 198.322 403.486 198.322 402.932V402.103C199.113 402.14 199.521 402.185 199.521 402.236C199.521 402.418 199.079 403.072 198.538 403.692ZM197.623 402.072L179.048 401.986C169.305 401.942 164.377 401.942 161.921 402.034C164.438 401.928 169.527 401.904 179.647 401.904C188.452 401.904 194.688 401.966 197.623 402.072ZM178.925 430.024C178.733 430.086 178.63 429.986 178.63 429.719C178.63 429.962 178.743 430.055 178.925 430.024Z" fill="#52C662"/>
<path d="M105 368V293H180H255V368V443H180H105V368ZM181.551 427.161C182.688 425.606 184.277 423.411 185.082 422.281C194.12 409.599 197.712 404.637 198.538 403.692C199.079 403.072 199.521 402.418 199.521 402.236C199.521 402.027 192.188 401.904 179.647 401.904C162.37 401.904 159.747 401.969 159.579 402.414C159.466 402.702 159.914 403.63 160.606 404.555C161.281 405.452 163.76 408.884 166.12 412.178C170.24 417.938 174.64 424.024 177.346 427.705C178.051 428.668 178.63 429.575 178.63 429.719C178.63 430.606 179.753 429.623 181.551 427.161ZM227.788 401.945C230.092 400.897 231.705 398.38 231.709 395.815C231.712 394.822 230.836 392.709 230.072 391.863C227.921 389.483 223.031 389.301 221.017 391.527C218.815 393.962 218.877 398.726 221.137 400.75C223.25 402.64 225.404 403.027 227.788 401.945ZM215.791 394.199C216.452 390.63 218.051 388.603 221.438 387.031C227.24 384.339 234.144 388.072 235.048 394.387L235.315 396.253L237.709 396.36C240.99 396.503 242.137 396.229 243.586 394.959C245.253 393.493 245.753 392.14 245.753 389.103C245.753 384.705 243.777 381.568 239.914 379.836C237.61 378.801 231.568 377.243 226.575 376.394C223.404 375.853 223.212 375.767 218.959 372.928C214.37 369.863 210.983 368.13 207.568 367.099C205.647 366.521 202.973 366.473 166.223 366.377C127.164 366.271 126.932 366.274 126.24 366.966C125.25 367.955 125.318 369.856 126.387 370.928L127.229 371.767H145.37H163.51L164.562 372.654C166.045 373.901 166.045 375.74 164.562 377.219L163.51 378.274H154.825C150.048 378.274 145.753 378.421 145.281 378.603C143.212 379.387 142.89 381.664 144.62 383.271C145.5 384.086 145.589 384.096 152.455 384.096H159.401L160.452 384.983C161.322 385.716 161.507 386.12 161.507 387.315C161.507 388.483 161.305 388.955 160.459 389.767L159.408 390.774L149.592 390.86C138.747 390.955 138.818 390.942 138.37 393.195C138.202 394.024 138.353 394.476 139.075 395.336L139.997 396.428L177.702 396.339L215.411 396.253L215.791 394.199ZM140.12 383.188C141.247 381.973 141.247 380.243 140.12 379.113C139.322 378.318 139.065 378.274 135.353 378.274C133.192 378.274 131.178 378.37 130.87 378.486C129.997 378.822 129.243 380.589 129.49 381.719C129.918 383.661 130.997 384.096 135.37 384.096C139.158 384.096 139.305 384.068 140.12 383.188ZM122.192 370.846C123.476 369.616 123.459 368.257 122.151 366.945C121.212 366.007 120.979 365.945 118.428 365.945C116.195 365.945 115.548 366.072 114.805 366.654C113.568 367.627 113.541 369.723 114.743 370.928C115.5 371.682 115.866 371.767 118.408 371.767C121.003 371.767 121.308 371.692 122.192 370.846ZM222.178 366.497C226.288 356.027 225.469 342.89 220.017 331.911C217.952 327.75 215.438 324.342 211.507 320.366C204.781 313.568 196.966 309.408 187.363 307.51C183.168 306.678 175.092 306.678 171.096 307.507C167.363 308.281 161.812 310.13 159.089 311.503C156.418 312.853 151.154 316.322 149.349 317.925C146.973 320.038 142.99 324.582 141.205 327.223C134.842 336.637 132.257 349.551 134.634 360.038L134.808 360.808H144.914C153.469 360.808 155.051 360.733 155.212 360.308C155.318 360.031 155.175 358.836 154.89 357.654C153.401 351.455 154.134 345.572 157.103 339.911C161.795 330.962 172.623 325.387 182.411 326.877C188.308 327.774 192.568 329.884 196.89 334.051C199.62 336.685 201.483 339.634 202.983 343.705C204.37 347.462 204.702 352.726 203.798 356.699C202.702 361.527 202.592 361.062 204.88 361.318C209.716 361.87 215.024 363.969 219.041 366.925C220.075 367.685 221.062 368.271 221.229 368.226C221.394 368.178 221.822 367.401 222.178 366.497ZM166.921 391.11C166.791 390.979 167.065 389.846 167.534 388.596C168.932 384.873 170.753 379.87 170.753 379.753C170.753 379.692 171.757 379.644 172.979 379.644C175.182 379.644 175.205 379.654 175.205 380.586C175.205 381.106 174.805 382.61 174.315 383.925C173.825 385.243 173.346 386.592 173.247 386.921C173.086 387.476 173.493 387.521 178.582 387.521C184.736 387.521 185.955 387.24 188.432 385.257C190.12 383.901 190.959 382.271 190.959 380.346C190.959 378.39 190.26 377.216 188.521 376.236C187.123 375.452 186.675 375.397 180.353 375.277C176.675 375.205 173.479 375.086 173.25 375.014C172.942 374.914 172.973 374.493 173.377 373.301L173.914 371.719L181.497 371.856C189.702 372 190.637 372.164 193.223 373.918C195.418 375.404 196.271 377.12 196.25 379.986C196.219 384.675 192.63 388.654 186.89 390.37C184.966 390.945 183.301 391.068 175.89 391.199C171.089 391.281 167.051 391.243 166.921 391.11Z" fill="#FDFEFD"/>
</g>
<defs>
<clipPath id="clip0_199_2842">
<rect width="360" height="800" fill="white"/>
</clipPath>
</defs>
</svg>
