<svg width="360" height="800" viewBox="0 0 360 800" fill="none" xmlns="http://www.w3.org/2000/svg">
<g clip-path="url(#clip0_199_2827)">
<path d="M0 0H338.316C350.292 0 360 9.70819 360 21.6839V778.316C360 790.292 350.292 800 338.316 800H0V0Z" fill="white"/>
<ellipse cx="179.5" cy="22" rx="182.5" ry="204" fill="#00AA13"/>
<path d="M114.68 53H111.464L116.364 38.8069H120.231L125.124 53H121.908L118.353 42.0503H118.242L114.68 53ZM114.479 47.4212H122.074V49.7636H114.479V47.4212ZM129.367 46.846V53H126.415V38.8069H129.284V44.2333H129.409C129.649 43.6049 130.037 43.1129 130.573 42.7572C131.109 42.3968 131.782 42.2166 132.59 42.2166C133.329 42.2166 133.974 42.3783 134.524 42.7017C135.078 43.0205 135.508 43.4802 135.813 44.0808C136.122 44.6768 136.275 45.3906 136.27 46.2223V53H133.318V46.749C133.322 46.0929 133.156 45.5824 132.819 45.2174C132.486 44.8524 132.019 44.6699 131.419 44.6699C131.017 44.6699 130.661 44.7554 130.352 44.9263C130.047 45.0973 129.806 45.3467 129.631 45.6748C129.46 45.9982 129.372 46.3886 129.367 46.846ZM138.232 53V42.3552H141.046V44.2333H141.17C141.392 43.6096 141.762 43.1175 142.279 42.7572C142.797 42.3968 143.416 42.2166 144.136 42.2166C144.866 42.2166 145.488 42.3991 146.001 42.7641C146.514 43.1245 146.855 43.6142 147.026 44.2333H147.137C147.354 43.6234 147.747 43.136 148.315 42.771C148.888 42.4014 149.565 42.2166 150.346 42.2166C151.339 42.2166 152.145 42.5331 152.765 43.166C153.388 43.7944 153.7 44.6861 153.7 45.8411V53H150.755V46.4232C150.755 45.8319 150.598 45.3883 150.284 45.0926C149.969 44.7969 149.577 44.6491 149.105 44.6491C148.569 44.6491 148.151 44.82 147.851 45.1619C147.551 45.4992 147.401 45.945 147.401 46.4995V53H144.538V46.3609C144.538 45.8388 144.388 45.423 144.088 45.1134C143.792 44.8039 143.402 44.6491 142.917 44.6491C142.589 44.6491 142.293 44.7323 142.03 44.8986C141.771 45.0603 141.565 45.289 141.413 45.5847C141.26 45.8757 141.184 46.2176 141.184 46.6103V53H138.232ZM158.706 53.201C158.027 53.201 157.422 53.0832 156.89 52.8475C156.359 52.6073 155.939 52.2538 155.629 51.7872C155.324 51.316 155.172 50.7292 155.172 50.0269C155.172 49.4356 155.28 48.9389 155.498 48.5369C155.715 48.135 156.01 47.8116 156.385 47.5667C156.759 47.3218 157.184 47.137 157.66 47.0123C158.14 46.8876 158.644 46.7998 159.171 46.749C159.79 46.6843 160.289 46.6242 160.667 46.5688C161.046 46.5087 161.321 46.4209 161.492 46.3054C161.663 46.1899 161.749 46.019 161.749 45.7926V45.751C161.749 45.3121 161.61 44.9725 161.333 44.7323C161.06 44.492 160.672 44.3719 160.168 44.3719C159.637 44.3719 159.214 44.4897 158.9 44.7253C158.586 44.9563 158.378 45.2474 158.277 45.5985L155.546 45.3768C155.685 44.73 155.957 44.1709 156.364 43.6997C156.77 43.2238 157.295 42.8588 157.937 42.6047C158.584 42.346 159.332 42.2166 160.182 42.2166C160.774 42.2166 161.34 42.2859 161.88 42.4245C162.425 42.5631 162.908 42.7779 163.329 43.069C163.754 43.3601 164.089 43.7343 164.334 44.1917C164.578 44.6445 164.701 45.1873 164.701 45.8203V53H161.901V51.5239H161.818C161.647 51.8565 161.418 52.1499 161.132 52.404C160.845 52.6535 160.501 52.8498 160.099 52.9931C159.697 53.1317 159.233 53.201 158.706 53.201ZM159.552 51.1635C159.986 51.1635 160.369 51.078 160.702 50.9071C161.035 50.7315 161.296 50.4959 161.485 50.2002C161.675 49.9045 161.769 49.5695 161.769 49.1953V48.0657C161.677 48.1258 161.55 48.1812 161.388 48.232C161.231 48.2782 161.053 48.3221 160.855 48.3637C160.656 48.4007 160.457 48.4353 160.259 48.4676C160.06 48.4954 159.88 48.5208 159.718 48.5439C159.372 48.5947 159.069 48.6755 158.81 48.7864C158.551 48.8973 158.35 49.0475 158.207 49.2369C158.064 49.4217 157.992 49.6527 157.992 49.9299C157.992 50.3319 158.138 50.6391 158.429 50.8516C158.725 51.0595 159.099 51.1635 159.552 51.1635ZM170.552 53.1733C169.744 53.1733 169.012 52.9653 168.355 52.5495C167.704 52.1291 167.187 51.5123 166.803 50.6992C166.424 49.8814 166.235 48.8788 166.235 47.6915C166.235 46.4717 166.431 45.4576 166.824 44.6491C167.217 43.836 167.739 43.2284 168.39 42.8265C169.046 42.4199 169.765 42.2166 170.545 42.2166C171.141 42.2166 171.638 42.3182 172.035 42.5215C172.437 42.7202 172.761 42.9697 173.006 43.27C173.255 43.5657 173.445 43.8567 173.574 44.1432H173.664V38.8069H176.609V53H173.699V51.2952H173.574C173.435 51.5909 173.239 51.8842 172.985 52.1753C172.735 52.4618 172.41 52.6997 172.008 52.8891C171.61 53.0785 171.125 53.1733 170.552 53.1733ZM171.488 50.8239C171.964 50.8239 172.366 50.6946 172.694 50.4358C173.026 50.1725 173.281 49.8052 173.456 49.3339C173.636 48.8627 173.726 48.3106 173.726 47.6776C173.726 47.0446 173.639 46.4948 173.463 46.0282C173.287 45.5616 173.033 45.2012 172.701 44.9471C172.368 44.693 171.964 44.5659 171.488 44.5659C171.003 44.5659 170.594 44.6976 170.261 44.961C169.929 45.2243 169.677 45.5893 169.506 46.0559C169.335 46.5226 169.249 47.0631 169.249 47.6776C169.249 48.2967 169.335 48.8442 169.506 49.3201C169.681 49.7913 169.933 50.1609 170.261 50.4289C170.594 50.6922 171.003 50.8239 171.488 50.8239ZM187.917 53H182.886V38.8069H187.959C189.387 38.8069 190.616 39.0911 191.646 39.6593C192.676 40.223 193.469 41.0338 194.023 42.0919C194.582 43.1499 194.861 44.4158 194.861 45.8896C194.861 47.3681 194.582 48.6386 194.023 49.7012C193.469 50.7639 192.672 51.5793 191.632 52.1476C190.597 52.7159 189.359 53 187.917 53ZM185.887 50.4289H187.793C188.68 50.4289 189.426 50.2718 190.031 49.9576C190.641 49.6388 191.098 49.1468 191.403 48.4815C191.713 47.8116 191.868 46.9476 191.868 45.8896C191.868 44.8408 191.713 43.9838 191.403 43.3185C191.098 42.6532 190.643 42.1635 190.038 41.8493C189.433 41.5351 188.687 41.378 187.8 41.378H185.887V50.4289ZM199.703 53.201C199.024 53.201 198.419 53.0832 197.887 52.8475C197.356 52.6073 196.935 52.2538 196.626 51.7872C196.321 51.316 196.169 50.7292 196.169 50.0269C196.169 49.4356 196.277 48.9389 196.494 48.5369C196.711 48.135 197.007 47.8116 197.381 47.5667C197.756 47.3218 198.181 47.137 198.656 47.0123C199.137 46.8876 199.641 46.7998 200.167 46.749C200.786 46.6843 201.285 46.6242 201.664 46.5688C202.043 46.5087 202.318 46.4209 202.489 46.3054C202.66 46.1899 202.745 46.019 202.745 45.7926V45.751C202.745 45.3121 202.607 44.9725 202.329 44.7323C202.057 44.492 201.669 44.3719 201.165 44.3719C200.634 44.3719 200.211 44.4897 199.897 44.7253C199.583 44.9563 199.375 45.2474 199.273 45.5985L196.543 45.3768C196.681 44.73 196.954 44.1709 197.361 43.6997C197.767 43.2238 198.291 42.8588 198.934 42.6047C199.581 42.346 200.329 42.2166 201.179 42.2166C201.77 42.2166 202.336 42.2859 202.877 42.4245C203.422 42.5631 203.905 42.7779 204.325 43.069C204.75 43.3601 205.085 43.7343 205.33 44.1917C205.575 44.6445 205.698 45.1873 205.698 45.8203V53H202.898V51.5239H202.815C202.644 51.8565 202.415 52.1499 202.129 52.404C201.842 52.6535 201.498 52.8498 201.096 52.9931C200.694 53.1317 200.23 53.201 199.703 53.201ZM200.548 51.1635C200.983 51.1635 201.366 51.078 201.699 50.9071C202.031 50.7315 202.293 50.4959 202.482 50.2002C202.671 49.9045 202.766 49.5695 202.766 49.1953V48.0657C202.674 48.1258 202.547 48.1812 202.385 48.232C202.228 48.2782 202.05 48.3221 201.851 48.3637C201.653 48.4007 201.454 48.4353 201.255 48.4676C201.057 48.4954 200.876 48.5208 200.715 48.5439C200.368 48.5947 200.066 48.6755 199.807 48.7864C199.548 48.8973 199.347 49.0475 199.204 49.2369C199.061 49.4217 198.989 49.6527 198.989 49.9299C198.989 50.3319 199.135 50.6391 199.426 50.8516C199.721 51.0595 200.096 51.1635 200.548 51.1635ZM207.627 53V42.3552H210.44V44.2333H210.565C210.787 43.6096 211.156 43.1175 211.674 42.7572C212.191 42.3968 212.81 42.2166 213.531 42.2166C214.261 42.2166 214.883 42.3991 215.395 42.7641C215.908 43.1245 216.25 43.6142 216.421 44.2333H216.532C216.749 43.6234 217.142 43.136 217.71 42.771C218.283 42.4014 218.96 42.2166 219.741 42.2166C220.734 42.2166 221.54 42.5331 222.159 43.166C222.783 43.7944 223.095 44.6861 223.095 45.8411V53H220.149V46.4232C220.149 45.8319 219.992 45.3883 219.678 45.0926C219.364 44.7969 218.971 44.6491 218.5 44.6491C217.964 44.6491 217.546 44.82 217.246 45.1619C216.945 45.4992 216.795 45.945 216.795 46.4995V53H213.933V46.3609C213.933 45.8388 213.783 45.423 213.483 45.1134C213.187 44.8039 212.797 44.6491 212.311 44.6491C211.983 44.6491 211.688 44.7323 211.424 44.8986C211.166 45.0603 210.96 45.289 210.808 45.5847C210.655 45.8757 210.579 46.2176 210.579 46.6103V53H207.627ZM228.018 46.846V53H225.065V38.8069H227.935V44.2333H228.059C228.3 43.6049 228.688 43.1129 229.224 42.7572C229.76 42.3968 230.432 42.2166 231.24 42.2166C231.979 42.2166 232.624 42.3783 233.174 42.7017C233.728 43.0205 234.158 43.4802 234.463 44.0808C234.772 44.6768 234.925 45.3906 234.92 46.2223V53H231.968V46.749C231.973 46.0929 231.806 45.5824 231.469 45.2174C231.136 44.8524 230.67 44.6699 230.069 44.6699C229.667 44.6699 229.311 44.7554 229.002 44.9263C228.697 45.0973 228.457 45.3467 228.281 45.6748C228.11 45.9982 228.022 46.3886 228.018 46.846ZM239.918 53.201C239.238 53.201 238.633 53.0832 238.102 52.8475C237.571 52.6073 237.15 52.2538 236.841 51.7872C236.536 51.316 236.383 50.7292 236.383 50.0269C236.383 49.4356 236.492 48.9389 236.709 48.5369C236.926 48.135 237.222 47.8116 237.596 47.5667C237.97 47.3218 238.395 47.137 238.871 47.0123C239.352 46.8876 239.855 46.7998 240.382 46.749C241.001 46.6843 241.5 46.6242 241.879 46.5688C242.258 46.5087 242.533 46.4209 242.704 46.3054C242.874 46.1899 242.96 46.019 242.96 45.7926V45.751C242.96 45.3121 242.821 44.9725 242.544 44.7323C242.272 44.492 241.883 44.3719 241.38 44.3719C240.849 44.3719 240.426 44.4897 240.112 44.7253C239.797 44.9563 239.59 45.2474 239.488 45.5985L236.757 45.3768C236.896 44.73 237.169 44.1709 237.575 43.6997C237.982 43.2238 238.506 42.8588 239.148 42.6047C239.795 42.346 240.544 42.2166 241.394 42.2166C241.985 42.2166 242.551 42.2859 243.092 42.4245C243.637 42.5631 244.12 42.7779 244.54 43.069C244.965 43.3601 245.3 43.7343 245.545 44.1917C245.79 44.6445 245.912 45.1873 245.912 45.8203V53H243.112V51.5239H243.029C242.858 51.8565 242.63 52.1499 242.343 52.404C242.057 52.6535 241.713 52.8498 241.311 52.9931C240.909 53.1317 240.444 53.201 239.918 53.201ZM240.763 51.1635C241.197 51.1635 241.581 51.078 241.913 50.9071C242.246 50.7315 242.507 50.4959 242.697 50.2002C242.886 49.9045 242.981 49.5695 242.981 49.1953V48.0657C242.888 48.1258 242.761 48.1812 242.6 48.232C242.442 48.2782 242.265 48.3221 242.066 48.3637C241.867 48.4007 241.669 48.4353 241.47 48.4676C241.271 48.4954 241.091 48.5208 240.929 48.5439C240.583 48.5947 240.28 48.6755 240.022 48.7864C239.763 48.8973 239.562 49.0475 239.419 49.2369C239.275 49.4217 239.204 49.6527 239.204 49.9299C239.204 50.3319 239.349 50.6391 239.64 50.8516C239.936 51.0595 240.31 51.1635 240.763 51.1635Z" fill="black"/>
<path d="M125.114 292V274.545H131.011C132.375 274.545 133.494 274.778 134.369 275.244C135.244 275.705 135.892 276.338 136.312 277.145C136.733 277.952 136.943 278.869 136.943 279.898C136.943 280.926 136.733 281.838 136.312 282.634C135.892 283.429 135.247 284.054 134.378 284.509C133.509 284.957 132.398 285.182 131.045 285.182H126.273V283.273H130.977C131.909 283.273 132.659 283.136 133.227 282.864C133.801 282.591 134.216 282.205 134.472 281.705C134.733 281.199 134.864 280.597 134.864 279.898C134.864 279.199 134.733 278.588 134.472 278.065C134.21 277.543 133.793 277.139 133.219 276.855C132.645 276.565 131.886 276.42 130.943 276.42H127.227V292H125.114ZM133.33 284.159L137.625 292H135.17L130.943 284.159H133.33ZM139.831 292V278.909H141.842V292H139.831ZM140.854 276.727C140.462 276.727 140.124 276.594 139.84 276.327C139.561 276.06 139.422 275.739 139.422 275.364C139.422 274.989 139.561 274.668 139.84 274.401C140.124 274.134 140.462 274 140.854 274C141.246 274 141.581 274.134 141.859 274.401C142.144 274.668 142.286 274.989 142.286 275.364C142.286 275.739 142.144 276.06 141.859 276.327C141.581 276.594 141.246 276.727 140.854 276.727ZM148.131 292L144.142 278.909H146.256L149.085 288.932H149.222L152.017 278.909H154.165L156.926 288.898H157.063L159.892 278.909H162.006L158.017 292H156.04L153.176 281.943H152.972L150.108 292H148.131ZM168.156 292.307C167.326 292.307 166.573 292.151 165.897 291.838C165.221 291.52 164.684 291.062 164.287 290.466C163.889 289.864 163.69 289.136 163.69 288.284C163.69 287.534 163.838 286.926 164.133 286.46C164.429 285.989 164.823 285.619 165.318 285.352C165.812 285.085 166.358 284.886 166.954 284.756C167.556 284.619 168.162 284.511 168.769 284.432C169.565 284.33 170.21 284.253 170.704 284.202C171.204 284.145 171.568 284.051 171.795 283.92C172.028 283.79 172.144 283.562 172.144 283.239V283.17C172.144 282.33 171.914 281.676 171.454 281.21C171 280.744 170.309 280.511 169.383 280.511C168.423 280.511 167.67 280.722 167.125 281.142C166.579 281.562 166.196 282.011 165.974 282.489L164.065 281.807C164.406 281.011 164.86 280.392 165.429 279.949C166.002 279.5 166.627 279.187 167.304 279.011C167.985 278.83 168.656 278.739 169.315 278.739C169.735 278.739 170.218 278.79 170.764 278.892C171.315 278.989 171.846 279.19 172.358 279.497C172.875 279.804 173.304 280.267 173.644 280.886C173.985 281.506 174.156 282.335 174.156 283.375V292H172.144V290.227H172.042C171.906 290.511 171.679 290.815 171.36 291.139C171.042 291.463 170.619 291.739 170.091 291.966C169.562 292.193 168.917 292.307 168.156 292.307ZM168.463 290.5C169.258 290.5 169.929 290.344 170.474 290.031C171.025 289.719 171.44 289.315 171.718 288.821C172.002 288.327 172.144 287.807 172.144 287.261V285.42C172.059 285.523 171.872 285.616 171.582 285.702C171.298 285.781 170.968 285.852 170.593 285.915C170.224 285.972 169.863 286.023 169.511 286.068C169.164 286.108 168.883 286.142 168.667 286.17C168.144 286.239 167.656 286.349 167.201 286.503C166.752 286.651 166.389 286.875 166.11 287.176C165.838 287.472 165.701 287.875 165.701 288.386C165.701 289.085 165.96 289.614 166.477 289.972C167 290.324 167.662 290.5 168.463 290.5ZM178.292 296.909C177.951 296.909 177.647 296.881 177.38 296.824C177.113 296.773 176.929 296.722 176.826 296.67L177.338 294.898C177.826 295.023 178.258 295.068 178.633 295.034C179.008 295 179.341 294.832 179.63 294.531C179.926 294.236 180.196 293.756 180.44 293.091L180.815 292.068L175.974 278.909H178.156L181.77 289.341H181.906L185.52 278.909H187.701L182.145 293.909C181.895 294.585 181.585 295.145 181.216 295.588C180.846 296.037 180.417 296.369 179.929 296.585C179.446 296.801 178.9 296.909 178.292 296.909ZM193.449 292.307C192.619 292.307 191.866 292.151 191.19 291.838C190.514 291.52 189.977 291.062 189.579 290.466C189.182 289.864 188.983 289.136 188.983 288.284C188.983 287.534 189.131 286.926 189.426 286.46C189.721 285.989 190.116 285.619 190.611 285.352C191.105 285.085 191.65 284.886 192.247 284.756C192.849 284.619 193.454 284.511 194.062 284.432C194.858 284.33 195.503 284.253 195.997 284.202C196.497 284.145 196.861 284.051 197.088 283.92C197.321 283.79 197.437 283.562 197.437 283.239V283.17C197.437 282.33 197.207 281.676 196.747 281.21C196.292 280.744 195.602 280.511 194.676 280.511C193.716 280.511 192.963 280.722 192.417 281.142C191.872 281.562 191.488 282.011 191.267 282.489L189.358 281.807C189.699 281.011 190.153 280.392 190.721 279.949C191.295 279.5 191.92 279.187 192.596 279.011C193.278 278.83 193.949 278.739 194.608 278.739C195.028 278.739 195.511 278.79 196.057 278.892C196.608 278.989 197.139 279.19 197.65 279.497C198.167 279.804 198.596 280.267 198.937 280.886C199.278 281.506 199.449 282.335 199.449 283.375V292H197.437V290.227H197.335C197.199 290.511 196.971 290.815 196.653 291.139C196.335 291.463 195.912 291.739 195.383 291.966C194.855 292.193 194.21 292.307 193.449 292.307ZM193.756 290.5C194.551 290.5 195.221 290.344 195.767 290.031C196.318 289.719 196.733 289.315 197.011 288.821C197.295 288.327 197.437 287.807 197.437 287.261V285.42C197.352 285.523 197.165 285.616 196.875 285.702C196.591 285.781 196.261 285.852 195.886 285.915C195.517 285.972 195.156 286.023 194.804 286.068C194.457 286.108 194.176 286.142 193.96 286.17C193.437 286.239 192.949 286.349 192.494 286.503C192.045 286.651 191.682 286.875 191.403 287.176C191.131 287.472 190.994 287.875 190.994 288.386C190.994 289.085 191.253 289.614 191.77 289.972C192.292 290.324 192.954 290.5 193.756 290.5ZM208.452 278.909V280.614H201.668V278.909H208.452ZM203.645 275.773H205.656V288.25C205.656 288.818 205.739 289.244 205.903 289.528C206.074 289.807 206.29 289.994 206.551 290.091C206.818 290.182 207.099 290.227 207.395 290.227C207.616 290.227 207.798 290.216 207.94 290.193C208.082 290.165 208.196 290.142 208.281 290.125L208.69 291.932C208.554 291.983 208.364 292.034 208.119 292.085C207.875 292.142 207.565 292.17 207.19 292.17C206.622 292.17 206.065 292.048 205.52 291.804C204.98 291.56 204.531 291.188 204.173 290.688C203.821 290.188 203.645 289.557 203.645 288.795V275.773ZM213.272 287.227L213.238 284.739H213.647L219.374 278.909H221.863L215.761 285.08H215.59L213.272 287.227ZM211.397 292V274.545H213.408V292H211.397ZM219.715 292L214.602 285.523L216.033 284.125L222.272 292H219.715ZM232.34 286.648V278.909H234.352V292H232.34V289.784H232.204C231.897 290.449 231.42 291.014 230.772 291.48C230.124 291.94 229.306 292.17 228.318 292.17C227.499 292.17 226.772 291.991 226.136 291.634C225.499 291.27 224.999 290.724 224.636 289.997C224.272 289.264 224.09 288.341 224.09 287.227V278.909H226.102V287.091C226.102 288.045 226.369 288.807 226.903 289.375C227.443 289.943 228.13 290.227 228.965 290.227C229.465 290.227 229.974 290.099 230.491 289.844C231.014 289.588 231.451 289.196 231.803 288.668C232.161 288.139 232.34 287.466 232.34 286.648Z" fill="black"/>
<path d="M135.159 345.42V343.545H148.25V345.42H142.761V361H140.648V345.42H135.159ZM154.468 361.273C153.207 361.273 152.119 360.994 151.204 360.438C150.295 359.875 149.593 359.091 149.099 358.085C148.61 357.074 148.366 355.898 148.366 354.557C148.366 353.216 148.61 352.034 149.099 351.011C149.593 349.983 150.281 349.182 151.161 348.608C152.048 348.028 153.082 347.739 154.264 347.739C154.945 347.739 155.619 347.852 156.283 348.08C156.948 348.307 157.553 348.676 158.099 349.188C158.644 349.693 159.079 350.364 159.403 351.199C159.727 352.034 159.889 353.062 159.889 354.284V355.136H149.798V353.398H157.843C157.843 352.659 157.695 352 157.4 351.42C157.11 350.841 156.695 350.384 156.156 350.048C155.622 349.713 154.991 349.545 154.264 349.545C153.462 349.545 152.769 349.744 152.184 350.142C151.605 350.534 151.158 351.045 150.846 351.676C150.533 352.307 150.377 352.983 150.377 353.705V354.864C150.377 355.852 150.548 356.69 150.889 357.378C151.235 358.06 151.715 358.58 152.329 358.938C152.943 359.29 153.656 359.466 154.468 359.466C154.997 359.466 155.474 359.392 155.9 359.244C156.332 359.091 156.704 358.864 157.016 358.562C157.329 358.256 157.57 357.875 157.741 357.42L159.684 357.966C159.48 358.625 159.136 359.205 158.653 359.705C158.17 360.199 157.573 360.585 156.863 360.864C156.153 361.136 155.355 361.273 154.468 361.273ZM164.598 353.125V361H162.587V347.909H164.53V349.955H164.701C165.007 349.29 165.473 348.756 166.098 348.352C166.723 347.943 167.53 347.739 168.519 347.739C169.405 347.739 170.181 347.92 170.845 348.284C171.51 348.642 172.027 349.188 172.397 349.92C172.766 350.648 172.951 351.568 172.951 352.682V361H170.939V352.818C170.939 351.79 170.672 350.989 170.138 350.415C169.604 349.835 168.871 349.545 167.939 349.545C167.297 349.545 166.723 349.685 166.218 349.963C165.718 350.241 165.323 350.648 165.033 351.182C164.743 351.716 164.598 352.364 164.598 353.125ZM181.958 347.909V349.614H175.174V347.909H181.958ZM177.151 344.773H179.162V357.25C179.162 357.818 179.245 358.244 179.409 358.528C179.58 358.807 179.796 358.994 180.057 359.091C180.324 359.182 180.605 359.227 180.901 359.227C181.122 359.227 181.304 359.216 181.446 359.193C181.588 359.165 181.702 359.142 181.787 359.125L182.196 360.932C182.06 360.983 181.87 361.034 181.625 361.085C181.381 361.142 181.071 361.17 180.696 361.17C180.128 361.17 179.571 361.048 179.026 360.804C178.486 360.56 178.037 360.188 177.679 359.688C177.327 359.188 177.151 358.557 177.151 357.795V344.773ZM188.474 361.307C187.645 361.307 186.892 361.151 186.216 360.838C185.539 360.52 185.003 360.062 184.605 359.466C184.207 358.864 184.008 358.136 184.008 357.284C184.008 356.534 184.156 355.926 184.451 355.46C184.747 354.989 185.142 354.619 185.636 354.352C186.13 354.085 186.676 353.886 187.272 353.756C187.875 353.619 188.48 353.511 189.088 353.432C189.883 353.33 190.528 353.253 191.022 353.202C191.522 353.145 191.886 353.051 192.113 352.92C192.346 352.79 192.463 352.562 192.463 352.239V352.17C192.463 351.33 192.233 350.676 191.772 350.21C191.318 349.744 190.628 349.511 189.701 349.511C188.741 349.511 187.988 349.722 187.443 350.142C186.897 350.562 186.514 351.011 186.292 351.489L184.383 350.807C184.724 350.011 185.179 349.392 185.747 348.949C186.321 348.5 186.946 348.187 187.622 348.011C188.304 347.83 188.974 347.739 189.633 347.739C190.054 347.739 190.537 347.79 191.082 347.892C191.633 347.989 192.164 348.19 192.676 348.497C193.193 348.804 193.622 349.267 193.963 349.886C194.304 350.506 194.474 351.335 194.474 352.375V361H192.463V359.227H192.361C192.224 359.511 191.997 359.815 191.679 360.139C191.361 360.463 190.937 360.739 190.409 360.966C189.88 361.193 189.236 361.307 188.474 361.307ZM188.781 359.5C189.576 359.5 190.247 359.344 190.792 359.031C191.343 358.719 191.758 358.315 192.037 357.821C192.321 357.327 192.463 356.807 192.463 356.261V354.42C192.378 354.523 192.19 354.616 191.9 354.702C191.616 354.781 191.287 354.852 190.912 354.915C190.542 354.972 190.182 355.023 189.829 355.068C189.483 355.108 189.201 355.142 188.986 355.17C188.463 355.239 187.974 355.349 187.52 355.503C187.071 355.651 186.707 355.875 186.429 356.176C186.156 356.472 186.02 356.875 186.02 357.386C186.02 358.085 186.278 358.614 186.795 358.972C187.318 359.324 187.98 359.5 188.781 359.5ZM199.795 353.125V361H197.784V347.909H199.727V349.955H199.898C200.204 349.29 200.67 348.756 201.295 348.352C201.92 347.943 202.727 347.739 203.716 347.739C204.602 347.739 205.378 347.92 206.042 348.284C206.707 348.642 207.224 349.188 207.594 349.92C207.963 350.648 208.148 351.568 208.148 352.682V361H206.136V352.818C206.136 351.79 205.869 350.989 205.335 350.415C204.801 349.835 204.068 349.545 203.136 349.545C202.494 349.545 201.92 349.685 201.415 349.963C200.915 350.241 200.52 350.648 200.23 351.182C199.94 351.716 199.795 352.364 199.795 353.125ZM216.746 366.182C215.774 366.182 214.939 366.057 214.24 365.807C213.541 365.562 212.959 365.239 212.493 364.835C212.033 364.438 211.666 364.011 211.393 363.557L212.996 362.432C213.177 362.67 213.408 362.943 213.686 363.25C213.964 363.562 214.345 363.832 214.828 364.06C215.317 364.293 215.956 364.409 216.746 364.409C217.802 364.409 218.675 364.153 219.362 363.642C220.05 363.131 220.393 362.33 220.393 361.239V358.58H220.223C220.075 358.818 219.865 359.114 219.592 359.466C219.325 359.812 218.939 360.122 218.433 360.395C217.933 360.662 217.257 360.795 216.405 360.795C215.348 360.795 214.399 360.545 213.558 360.045C212.723 359.545 212.061 358.818 211.572 357.864C211.089 356.909 210.848 355.75 210.848 354.386C210.848 353.045 211.084 351.878 211.555 350.884C212.027 349.884 212.683 349.111 213.524 348.565C214.365 348.014 215.337 347.739 216.439 347.739C217.291 347.739 217.967 347.881 218.467 348.165C218.973 348.443 219.359 348.761 219.626 349.119C219.899 349.472 220.109 349.761 220.257 349.989H220.462V347.909H222.405V361.375C222.405 362.5 222.149 363.415 221.638 364.119C221.132 364.83 220.45 365.349 219.592 365.679C218.74 366.014 217.791 366.182 216.746 366.182ZM216.677 358.989C217.484 358.989 218.166 358.804 218.723 358.435C219.28 358.065 219.703 357.534 219.993 356.841C220.283 356.148 220.427 355.318 220.427 354.352C220.427 353.409 220.285 352.577 220.001 351.855C219.717 351.134 219.297 350.568 218.74 350.159C218.183 349.75 217.496 349.545 216.677 349.545C215.825 349.545 215.115 349.761 214.547 350.193C213.984 350.625 213.561 351.205 213.277 351.932C212.999 352.659 212.859 353.466 212.859 354.352C212.859 355.261 213.001 356.065 213.285 356.764C213.575 357.457 214.001 358.003 214.564 358.401C215.132 358.793 215.837 358.989 216.677 358.989Z" fill="black"/>
<path d="M89.1136 430V412.545H91.2273V421.205H91.4318L99.2727 412.545H102.034L94.7045 420.42L102.034 430H99.4773L93.4091 421.886L91.2273 424.341V430H89.1136ZM108.663 430.273C107.402 430.273 106.314 429.994 105.399 429.438C104.49 428.875 103.788 428.091 103.294 427.085C102.806 426.074 102.561 424.898 102.561 423.557C102.561 422.216 102.806 421.034 103.294 420.011C103.788 418.983 104.476 418.182 105.357 417.608C106.243 417.028 107.277 416.739 108.459 416.739C109.141 416.739 109.814 416.852 110.479 417.08C111.144 417.307 111.749 417.676 112.294 418.188C112.84 418.693 113.274 419.364 113.598 420.199C113.922 421.034 114.084 422.062 114.084 423.284V424.136H103.993V422.398H112.038C112.038 421.659 111.891 421 111.595 420.42C111.306 419.841 110.891 419.384 110.351 419.048C109.817 418.713 109.186 418.545 108.459 418.545C107.658 418.545 106.965 418.744 106.379 419.142C105.8 419.534 105.354 420.045 105.041 420.676C104.729 421.307 104.573 421.983 104.573 422.705V423.864C104.573 424.852 104.743 425.69 105.084 426.378C105.431 427.06 105.911 427.58 106.524 427.938C107.138 428.29 107.851 428.466 108.663 428.466C109.192 428.466 109.669 428.392 110.095 428.244C110.527 428.091 110.899 427.864 111.212 427.562C111.524 427.256 111.766 426.875 111.936 426.42L113.879 426.966C113.675 427.625 113.331 428.205 112.848 428.705C112.365 429.199 111.769 429.585 111.058 429.864C110.348 430.136 109.55 430.273 108.663 430.273ZM117.055 430V412.545H119.066V418.989H119.237C119.384 418.761 119.589 418.472 119.85 418.119C120.117 417.761 120.498 417.443 120.992 417.165C121.492 416.881 122.169 416.739 123.021 416.739C124.123 416.739 125.095 417.014 125.936 417.565C126.776 418.116 127.433 418.898 127.904 419.909C128.376 420.92 128.612 422.114 128.612 423.489C128.612 424.875 128.376 426.077 127.904 427.094C127.433 428.105 126.779 428.889 125.944 429.446C125.109 429.997 124.146 430.273 123.055 430.273C122.214 430.273 121.541 430.134 121.035 429.855C120.529 429.571 120.14 429.25 119.867 428.892C119.595 428.528 119.384 428.227 119.237 427.989H118.998V430H117.055ZM119.032 423.455C119.032 424.443 119.177 425.315 119.467 426.071C119.757 426.821 120.18 427.409 120.737 427.835C121.294 428.256 121.975 428.466 122.782 428.466C123.623 428.466 124.325 428.244 124.887 427.801C125.455 427.352 125.882 426.75 126.166 425.994C126.455 425.233 126.6 424.386 126.6 423.455C126.6 422.534 126.458 421.705 126.174 420.966C125.896 420.222 125.473 419.634 124.904 419.202C124.342 418.764 123.634 418.545 122.782 418.545C121.964 418.545 121.276 418.753 120.72 419.168C120.163 419.577 119.742 420.151 119.458 420.889C119.174 421.622 119.032 422.477 119.032 423.455ZM131.327 430V416.909H133.338V430H131.327ZM132.35 414.727C131.958 414.727 131.62 414.594 131.336 414.327C131.057 414.06 130.918 413.739 130.918 413.364C130.918 412.989 131.057 412.668 131.336 412.401C131.62 412.134 131.958 412 132.35 412C132.742 412 133.077 412.134 133.355 412.401C133.64 412.668 133.782 412.989 133.782 413.364C133.782 413.739 133.64 414.06 133.355 414.327C133.077 414.594 132.742 414.727 132.35 414.727ZM136.661 416.909H138.672V430.955C138.672 431.761 138.533 432.46 138.255 433.051C137.982 433.642 137.567 434.099 137.01 434.423C136.459 434.747 135.763 434.909 134.922 434.909C134.854 434.909 134.786 434.909 134.718 434.909C134.65 434.909 134.581 434.909 134.513 434.909V433.034C134.581 433.034 134.644 433.034 134.701 433.034C134.758 433.034 134.82 433.034 134.888 433.034C135.502 433.034 135.951 432.852 136.235 432.489C136.519 432.131 136.661 431.619 136.661 430.955V416.909ZM137.65 414.727C137.258 414.727 136.919 414.594 136.635 414.327C136.357 414.06 136.218 413.739 136.218 413.364C136.218 412.989 136.357 412.668 136.635 412.401C136.919 412.134 137.258 412 137.65 412C138.042 412 138.377 412.134 138.655 412.401C138.939 412.668 139.081 412.989 139.081 413.364C139.081 413.739 138.939 414.06 138.655 414.327C138.377 414.594 138.042 414.727 137.65 414.727ZM145.847 430.307C145.018 430.307 144.265 430.151 143.589 429.838C142.912 429.52 142.376 429.062 141.978 428.466C141.58 427.864 141.381 427.136 141.381 426.284C141.381 425.534 141.529 424.926 141.824 424.46C142.12 423.989 142.515 423.619 143.009 423.352C143.503 423.085 144.049 422.886 144.645 422.756C145.248 422.619 145.853 422.511 146.461 422.432C147.256 422.33 147.901 422.253 148.395 422.202C148.895 422.145 149.259 422.051 149.486 421.92C149.719 421.79 149.836 421.562 149.836 421.239V421.17C149.836 420.33 149.606 419.676 149.145 419.21C148.691 418.744 148.001 418.511 147.074 418.511C146.114 418.511 145.361 418.722 144.816 419.142C144.27 419.562 143.887 420.011 143.665 420.489L141.756 419.807C142.097 419.011 142.552 418.392 143.12 417.949C143.694 417.5 144.319 417.187 144.995 417.011C145.677 416.83 146.347 416.739 147.006 416.739C147.427 416.739 147.91 416.79 148.455 416.892C149.006 416.989 149.537 417.19 150.049 417.497C150.566 417.804 150.995 418.267 151.336 418.886C151.677 419.506 151.847 420.335 151.847 421.375V430H149.836V428.227H149.733C149.597 428.511 149.37 428.815 149.052 429.139C148.733 429.463 148.31 429.739 147.782 429.966C147.253 430.193 146.608 430.307 145.847 430.307ZM146.154 428.5C146.949 428.5 147.62 428.344 148.165 428.031C148.716 427.719 149.131 427.315 149.41 426.821C149.694 426.327 149.836 425.807 149.836 425.261V423.42C149.751 423.523 149.563 423.616 149.273 423.702C148.989 423.781 148.66 423.852 148.285 423.915C147.915 423.972 147.555 424.023 147.202 424.068C146.856 424.108 146.574 424.142 146.358 424.17C145.836 424.239 145.347 424.349 144.893 424.503C144.444 424.651 144.08 424.875 143.802 425.176C143.529 425.472 143.393 425.875 143.393 426.386C143.393 427.085 143.651 427.614 144.168 427.972C144.691 428.324 145.353 428.5 146.154 428.5ZM157.032 425.227L156.998 422.739H157.407L163.134 416.909H165.623L159.521 423.08H159.35L157.032 425.227ZM155.157 430V412.545H157.168V430H155.157ZM163.475 430L158.361 423.523L159.793 422.125L166.032 430H163.475ZM171.702 430.307C170.873 430.307 170.12 430.151 169.444 429.838C168.768 429.52 168.231 429.062 167.833 428.466C167.435 427.864 167.237 427.136 167.237 426.284C167.237 425.534 167.384 424.926 167.68 424.46C167.975 423.989 168.37 423.619 168.864 423.352C169.359 423.085 169.904 422.886 170.501 422.756C171.103 422.619 171.708 422.511 172.316 422.432C173.112 422.33 173.756 422.253 174.251 422.202C174.751 422.145 175.114 422.051 175.342 421.92C175.575 421.79 175.691 421.562 175.691 421.239V421.17C175.691 420.33 175.461 419.676 175.001 419.21C174.546 418.744 173.856 418.511 172.93 418.511C171.97 418.511 171.217 418.722 170.671 419.142C170.126 419.562 169.742 420.011 169.521 420.489L167.612 419.807C167.952 419.011 168.407 418.392 168.975 417.949C169.549 417.5 170.174 417.187 170.85 417.011C171.532 416.83 172.202 416.739 172.862 416.739C173.282 416.739 173.765 416.79 174.31 416.892C174.862 416.989 175.393 417.19 175.904 417.497C176.421 417.804 176.85 418.267 177.191 418.886C177.532 419.506 177.702 420.335 177.702 421.375V430H175.691V428.227H175.589C175.452 428.511 175.225 428.815 174.907 429.139C174.589 429.463 174.166 429.739 173.637 429.966C173.109 430.193 172.464 430.307 171.702 430.307ZM172.009 428.5C172.805 428.5 173.475 428.344 174.021 428.031C174.572 427.719 174.987 427.315 175.265 426.821C175.549 426.327 175.691 425.807 175.691 425.261V423.42C175.606 423.523 175.418 423.616 175.129 423.702C174.845 423.781 174.515 423.852 174.14 423.915C173.771 423.972 173.41 424.023 173.058 424.068C172.711 424.108 172.43 424.142 172.214 424.17C171.691 424.239 171.202 424.349 170.748 424.503C170.299 424.651 169.935 424.875 169.657 425.176C169.384 425.472 169.248 425.875 169.248 426.386C169.248 427.085 169.506 427.614 170.023 427.972C170.546 428.324 171.208 428.5 172.009 428.5ZM183.024 422.125V430H181.012V416.909H182.955V418.955H183.126C183.433 418.29 183.899 417.756 184.524 417.352C185.149 416.943 185.955 416.739 186.944 416.739C187.83 416.739 188.606 416.92 189.271 417.284C189.936 417.642 190.453 418.188 190.822 418.92C191.191 419.648 191.376 420.568 191.376 421.682V430H189.365V421.818C189.365 420.79 189.097 419.989 188.563 419.415C188.029 418.835 187.296 418.545 186.364 418.545C185.722 418.545 185.149 418.685 184.643 418.963C184.143 419.241 183.748 419.648 183.458 420.182C183.168 420.716 183.024 421.364 183.024 422.125ZM201.351 430V412.545H207.249C208.618 412.545 209.738 412.793 210.607 413.287C211.482 413.776 212.13 414.438 212.55 415.273C212.971 416.108 213.181 417.04 213.181 418.068C213.181 419.097 212.971 420.031 212.55 420.872C212.135 421.713 211.493 422.384 210.624 422.884C209.755 423.378 208.641 423.625 207.283 423.625H203.056V421.75H207.215C208.152 421.75 208.905 421.588 209.473 421.264C210.042 420.94 210.453 420.503 210.709 419.952C210.971 419.395 211.101 418.767 211.101 418.068C211.101 417.369 210.971 416.744 210.709 416.193C210.453 415.642 210.039 415.21 209.465 414.898C208.891 414.58 208.13 414.42 207.181 414.42H203.465V430H201.351ZM215.951 430V416.909H217.895V418.886H218.031C218.27 418.239 218.701 417.713 219.326 417.31C219.951 416.906 220.656 416.705 221.44 416.705C221.588 416.705 221.772 416.707 221.994 416.713C222.216 416.719 222.383 416.727 222.497 416.739V418.784C222.429 418.767 222.272 418.741 222.028 418.707C221.79 418.668 221.537 418.648 221.27 418.648C220.633 418.648 220.065 418.781 219.565 419.048C219.071 419.31 218.679 419.673 218.389 420.139C218.105 420.599 217.963 421.125 217.963 421.716V430H215.951ZM224.52 430V416.909H226.531V430H224.52ZM225.542 414.727C225.15 414.727 224.812 414.594 224.528 414.327C224.25 414.06 224.111 413.739 224.111 413.364C224.111 412.989 224.25 412.668 224.528 412.401C224.812 412.134 225.15 412 225.542 412C225.935 412 226.27 412.134 226.548 412.401C226.832 412.668 226.974 412.989 226.974 413.364C226.974 413.739 226.832 414.06 226.548 414.327C226.27 414.594 225.935 414.727 225.542 414.727ZM240.558 416.909L235.717 430H233.672L228.831 416.909H231.013L234.626 427.341H234.763L238.376 416.909H240.558ZM246.305 430.307C245.476 430.307 244.723 430.151 244.047 429.838C243.371 429.52 242.834 429.062 242.436 428.466C242.038 427.864 241.84 427.136 241.84 426.284C241.84 425.534 241.987 424.926 242.283 424.46C242.578 423.989 242.973 423.619 243.467 423.352C243.962 423.085 244.507 422.886 245.104 422.756C245.706 422.619 246.311 422.511 246.919 422.432C247.715 422.33 248.359 422.253 248.854 422.202C249.354 422.145 249.717 422.051 249.945 421.92C250.178 421.79 250.294 421.562 250.294 421.239V421.17C250.294 420.33 250.064 419.676 249.604 419.21C249.149 418.744 248.459 418.511 247.533 418.511C246.573 418.511 245.82 418.722 245.274 419.142C244.729 419.562 244.345 420.011 244.124 420.489L242.215 419.807C242.555 419.011 243.01 418.392 243.578 417.949C244.152 417.5 244.777 417.187 245.453 417.011C246.135 416.83 246.805 416.739 247.465 416.739C247.885 416.739 248.368 416.79 248.913 416.892C249.465 416.989 249.996 417.19 250.507 417.497C251.024 417.804 251.453 418.267 251.794 418.886C252.135 419.506 252.305 420.335 252.305 421.375V430H250.294V428.227H250.192C250.055 428.511 249.828 428.815 249.51 429.139C249.192 429.463 248.769 429.739 248.24 429.966C247.712 430.193 247.067 430.307 246.305 430.307ZM246.612 428.5C247.408 428.5 248.078 428.344 248.624 428.031C249.175 427.719 249.59 427.315 249.868 426.821C250.152 426.327 250.294 425.807 250.294 425.261V423.42C250.209 423.523 250.021 423.616 249.732 423.702C249.448 423.781 249.118 423.852 248.743 423.915C248.374 423.972 248.013 424.023 247.661 424.068C247.314 424.108 247.033 424.142 246.817 424.17C246.294 424.239 245.805 424.349 245.351 424.503C244.902 424.651 244.538 424.875 244.26 425.176C243.987 425.472 243.851 425.875 243.851 426.386C243.851 427.085 244.109 427.614 244.627 427.972C245.149 428.324 245.811 428.5 246.612 428.5ZM264.888 419.841L263.081 420.352C262.968 420.051 262.8 419.759 262.578 419.474C262.362 419.185 262.067 418.946 261.692 418.759C261.317 418.571 260.837 418.477 260.252 418.477C259.45 418.477 258.783 418.662 258.249 419.031C257.72 419.395 257.456 419.858 257.456 420.42C257.456 420.92 257.638 421.315 258.002 421.605C258.365 421.895 258.933 422.136 259.706 422.33L261.649 422.807C262.82 423.091 263.692 423.526 264.266 424.111C264.84 424.69 265.127 425.437 265.127 426.352C265.127 427.102 264.911 427.773 264.479 428.364C264.053 428.955 263.456 429.42 262.689 429.761C261.922 430.102 261.03 430.273 260.013 430.273C258.678 430.273 257.573 429.983 256.698 429.403C255.823 428.824 255.269 427.977 255.036 426.864L256.945 426.386C257.127 427.091 257.47 427.619 257.976 427.972C258.487 428.324 259.155 428.5 259.979 428.5C260.916 428.5 261.661 428.301 262.212 427.903C262.769 427.5 263.047 427.017 263.047 426.455C263.047 426 262.888 425.619 262.57 425.312C262.252 425 261.763 424.767 261.104 424.614L258.922 424.102C257.723 423.818 256.843 423.378 256.28 422.781C255.723 422.179 255.445 421.426 255.445 420.523C255.445 419.784 255.652 419.131 256.067 418.562C256.487 417.994 257.058 417.548 257.78 417.224C258.507 416.901 259.331 416.739 260.252 416.739C261.547 416.739 262.564 417.023 263.303 417.591C264.047 418.159 264.575 418.909 264.888 419.841ZM267.793 430V416.909H269.804V430H267.793ZM268.816 414.727C268.424 414.727 268.086 414.594 267.801 414.327C267.523 414.06 267.384 413.739 267.384 413.364C267.384 412.989 267.523 412.668 267.801 412.401C268.086 412.134 268.424 412 268.816 412C269.208 412 269.543 412.134 269.821 412.401C270.105 412.668 270.247 412.989 270.247 413.364C270.247 413.739 270.105 414.06 269.821 414.327C269.543 414.594 269.208 414.727 268.816 414.727Z" fill="black"/>
<path d="M118.114 499V481.545H124.011C125.381 481.545 126.5 481.793 127.369 482.287C128.244 482.776 128.892 483.438 129.312 484.273C129.733 485.108 129.943 486.04 129.943 487.068C129.943 488.097 129.733 489.031 129.312 489.872C128.898 490.713 128.256 491.384 127.386 491.884C126.517 492.378 125.403 492.625 124.045 492.625H119.818V490.75H123.977C124.915 490.75 125.668 490.588 126.236 490.264C126.804 489.94 127.216 489.503 127.472 488.952C127.733 488.395 127.864 487.767 127.864 487.068C127.864 486.369 127.733 485.744 127.472 485.193C127.216 484.642 126.801 484.21 126.227 483.898C125.653 483.58 124.892 483.42 123.943 483.42H120.227V499H118.114ZM138.062 499.273C136.801 499.273 135.712 498.994 134.798 498.438C133.889 497.875 133.187 497.091 132.693 496.085C132.204 495.074 131.96 493.898 131.96 492.557C131.96 491.216 132.204 490.034 132.693 489.011C133.187 487.983 133.874 487.182 134.755 486.608C135.641 486.028 136.676 485.739 137.857 485.739C138.539 485.739 139.212 485.852 139.877 486.08C140.542 486.307 141.147 486.676 141.693 487.188C142.238 487.693 142.673 488.364 142.997 489.199C143.32 490.034 143.482 491.062 143.482 492.284V493.136H133.391V491.398H141.437C141.437 490.659 141.289 490 140.994 489.42C140.704 488.841 140.289 488.384 139.749 488.048C139.215 487.713 138.585 487.545 137.857 487.545C137.056 487.545 136.363 487.744 135.778 488.142C135.198 488.534 134.752 489.045 134.44 489.676C134.127 490.307 133.971 490.983 133.971 491.705V492.864C133.971 493.852 134.141 494.69 134.482 495.378C134.829 496.06 135.309 496.58 135.923 496.938C136.536 497.29 137.249 497.466 138.062 497.466C138.59 497.466 139.068 497.392 139.494 497.244C139.926 497.091 140.298 496.864 140.61 496.562C140.923 496.256 141.164 495.875 141.335 495.42L143.278 495.966C143.073 496.625 142.73 497.205 142.247 497.705C141.764 498.199 141.167 498.585 140.457 498.864C139.747 499.136 138.948 499.273 138.062 499.273ZM148.192 491.125V499H146.181V485.909H148.124V487.955H148.294C148.601 487.29 149.067 486.756 149.692 486.352C150.317 485.943 151.124 485.739 152.112 485.739C152.999 485.739 153.774 485.92 154.439 486.284C155.104 486.642 155.621 487.188 155.99 487.92C156.36 488.648 156.544 489.568 156.544 490.682V499H154.533V490.818C154.533 489.79 154.266 488.989 153.732 488.415C153.198 487.835 152.465 487.545 151.533 487.545C150.891 487.545 150.317 487.685 149.811 487.963C149.311 488.241 148.916 488.648 148.627 489.182C148.337 489.716 148.192 490.364 148.192 491.125ZM165.142 504.182C164.171 504.182 163.336 504.057 162.637 503.807C161.938 503.562 161.355 503.239 160.89 502.835C160.429 502.438 160.063 502.011 159.79 501.557L161.392 500.432C161.574 500.67 161.804 500.943 162.083 501.25C162.361 501.562 162.742 501.832 163.225 502.06C163.713 502.293 164.353 502.409 165.142 502.409C166.199 502.409 167.071 502.153 167.759 501.642C168.446 501.131 168.79 500.33 168.79 499.239V496.58H168.62C168.472 496.818 168.262 497.114 167.989 497.466C167.722 497.812 167.336 498.122 166.83 498.395C166.33 498.662 165.654 498.795 164.801 498.795C163.745 498.795 162.796 498.545 161.955 498.045C161.12 497.545 160.458 496.818 159.969 495.864C159.486 494.909 159.245 493.75 159.245 492.386C159.245 491.045 159.48 489.878 159.952 488.884C160.424 487.884 161.08 487.111 161.921 486.565C162.762 486.014 163.733 485.739 164.836 485.739C165.688 485.739 166.364 485.881 166.864 486.165C167.37 486.443 167.756 486.761 168.023 487.119C168.296 487.472 168.506 487.761 168.654 487.989H168.858V485.909H170.801V499.375C170.801 500.5 170.546 501.415 170.034 502.119C169.529 502.83 168.847 503.349 167.989 503.679C167.137 504.014 166.188 504.182 165.142 504.182ZM165.074 496.989C165.881 496.989 166.563 496.804 167.12 496.435C167.676 496.065 168.1 495.534 168.39 494.841C168.679 494.148 168.824 493.318 168.824 492.352C168.824 491.409 168.682 490.577 168.398 489.855C168.114 489.134 167.694 488.568 167.137 488.159C166.58 487.75 165.892 487.545 165.074 487.545C164.222 487.545 163.512 487.761 162.944 488.193C162.381 488.625 161.958 489.205 161.674 489.932C161.395 490.659 161.256 491.466 161.256 492.352C161.256 493.261 161.398 494.065 161.682 494.764C161.972 495.457 162.398 496.003 162.961 496.401C163.529 496.793 164.233 496.989 165.074 496.989ZM177.974 499.307C177.145 499.307 176.392 499.151 175.716 498.838C175.039 498.52 174.503 498.062 174.105 497.466C173.707 496.864 173.508 496.136 173.508 495.284C173.508 494.534 173.656 493.926 173.951 493.46C174.247 492.989 174.642 492.619 175.136 492.352C175.63 492.085 176.176 491.886 176.772 491.756C177.375 491.619 177.98 491.511 178.588 491.432C179.383 491.33 180.028 491.253 180.522 491.202C181.022 491.145 181.386 491.051 181.613 490.92C181.846 490.79 181.963 490.562 181.963 490.239V490.17C181.963 489.33 181.733 488.676 181.272 488.21C180.818 487.744 180.128 487.511 179.201 487.511C178.241 487.511 177.488 487.722 176.943 488.142C176.397 488.562 176.014 489.011 175.792 489.489L173.883 488.807C174.224 488.011 174.679 487.392 175.247 486.949C175.821 486.5 176.446 486.187 177.122 486.011C177.804 485.83 178.474 485.739 179.133 485.739C179.554 485.739 180.037 485.79 180.582 485.892C181.133 485.989 181.664 486.19 182.176 486.497C182.693 486.804 183.122 487.267 183.463 487.886C183.804 488.506 183.974 489.335 183.974 490.375V499H181.963V497.227H181.861C181.724 497.511 181.497 497.815 181.179 498.139C180.861 498.463 180.437 498.739 179.909 498.966C179.38 499.193 178.736 499.307 177.974 499.307ZM178.281 497.5C179.076 497.5 179.747 497.344 180.292 497.031C180.843 496.719 181.258 496.315 181.537 495.821C181.821 495.327 181.963 494.807 181.963 494.261V492.42C181.878 492.523 181.69 492.616 181.4 492.702C181.116 492.781 180.787 492.852 180.412 492.915C180.042 492.972 179.682 493.023 179.329 493.068C178.983 493.108 178.701 493.142 178.486 493.17C177.963 493.239 177.474 493.349 177.02 493.503C176.571 493.651 176.207 493.875 175.929 494.176C175.656 494.472 175.52 494.875 175.52 495.386C175.52 496.085 175.778 496.614 176.295 496.972C176.818 497.324 177.48 497.5 178.281 497.5ZM192.977 485.909V487.614H186.193V485.909H192.977ZM188.17 482.773H190.182V495.25C190.182 495.818 190.264 496.244 190.429 496.528C190.599 496.807 190.815 496.994 191.077 497.091C191.344 497.182 191.625 497.227 191.92 497.227C192.142 497.227 192.324 497.216 192.466 497.193C192.608 497.165 192.721 497.142 192.807 497.125L193.216 498.932C193.079 498.983 192.889 499.034 192.645 499.085C192.4 499.142 192.091 499.17 191.716 499.17C191.148 499.17 190.591 499.048 190.045 498.804C189.506 498.56 189.057 498.188 188.699 497.688C188.346 497.188 188.17 496.557 188.17 495.795V482.773ZM203.891 493.648V485.909H205.903V499H203.891V496.784H203.755C203.448 497.449 202.971 498.014 202.323 498.48C201.675 498.94 200.857 499.17 199.869 499.17C199.05 499.17 198.323 498.991 197.687 498.634C197.05 498.27 196.55 497.724 196.187 496.997C195.823 496.264 195.641 495.341 195.641 494.227V485.909H197.653V494.091C197.653 495.045 197.92 495.807 198.454 496.375C198.994 496.943 199.681 497.227 200.516 497.227C201.016 497.227 201.525 497.099 202.042 496.844C202.565 496.588 203.002 496.196 203.354 495.668C203.712 495.139 203.891 494.466 203.891 493.648ZM209.225 499V485.909H211.168V487.886H211.305C211.543 487.239 211.975 486.713 212.6 486.31C213.225 485.906 213.93 485.705 214.714 485.705C214.862 485.705 215.046 485.707 215.268 485.713C215.489 485.719 215.657 485.727 215.771 485.739V487.784C215.702 487.767 215.546 487.741 215.302 487.707C215.063 487.668 214.81 487.648 214.543 487.648C213.907 487.648 213.339 487.781 212.839 488.048C212.345 488.31 211.952 488.673 211.663 489.139C211.379 489.599 211.237 490.125 211.237 490.716V499H209.225ZM221.646 499.307C220.816 499.307 220.063 499.151 219.387 498.838C218.711 498.52 218.174 498.062 217.776 497.466C217.379 496.864 217.18 496.136 217.18 495.284C217.18 494.534 217.328 493.926 217.623 493.46C217.918 492.989 218.313 492.619 218.808 492.352C219.302 492.085 219.847 491.886 220.444 491.756C221.046 491.619 221.651 491.511 222.259 491.432C223.055 491.33 223.7 491.253 224.194 491.202C224.694 491.145 225.058 491.051 225.285 490.92C225.518 490.79 225.634 490.562 225.634 490.239V490.17C225.634 489.33 225.404 488.676 224.944 488.21C224.49 487.744 223.799 487.511 222.873 487.511C221.913 487.511 221.16 487.722 220.615 488.142C220.069 488.562 219.686 489.011 219.464 489.489L217.555 488.807C217.896 488.011 218.35 487.392 218.918 486.949C219.492 486.5 220.117 486.187 220.793 486.011C221.475 485.83 222.146 485.739 222.805 485.739C223.225 485.739 223.708 485.79 224.254 485.892C224.805 485.989 225.336 486.19 225.847 486.497C226.365 486.804 226.793 487.267 227.134 487.886C227.475 488.506 227.646 489.335 227.646 490.375V499H225.634V497.227H225.532C225.396 497.511 225.168 497.815 224.85 498.139C224.532 498.463 224.109 498.739 223.58 498.966C223.052 499.193 222.407 499.307 221.646 499.307ZM221.953 497.5C222.748 497.5 223.418 497.344 223.964 497.031C224.515 496.719 224.93 496.315 225.208 495.821C225.492 495.327 225.634 494.807 225.634 494.261V492.42C225.549 492.523 225.362 492.616 225.072 492.702C224.788 492.781 224.458 492.852 224.083 492.915C223.714 492.972 223.353 493.023 223.001 493.068C222.654 493.108 222.373 493.142 222.157 493.17C221.634 493.239 221.146 493.349 220.691 493.503C220.242 493.651 219.879 493.875 219.6 494.176C219.328 494.472 219.191 494.875 219.191 495.386C219.191 496.085 219.45 496.614 219.967 496.972C220.49 497.324 221.151 497.5 221.953 497.5ZM232.967 491.125V499H230.956V485.909H232.899V487.955H233.069C233.376 487.29 233.842 486.756 234.467 486.352C235.092 485.943 235.899 485.739 236.887 485.739C237.774 485.739 238.549 485.92 239.214 486.284C239.879 486.642 240.396 487.188 240.765 487.92C241.134 488.648 241.319 489.568 241.319 490.682V499H239.308V490.818C239.308 489.79 239.041 488.989 238.507 488.415C237.973 487.835 237.24 487.545 236.308 487.545C235.666 487.545 235.092 487.685 234.586 487.963C234.086 488.241 233.691 488.648 233.402 489.182C233.112 489.716 232.967 490.364 232.967 491.125Z" fill="black"/>
<path d="M21.1136 774V756.545H23.2273V772.125H31.3409V774H21.1136ZM39.2977 774.273C38.1159 774.273 37.0789 773.991 36.1869 773.429C35.3005 772.866 34.6074 772.08 34.1074 771.068C33.613 770.057 33.3659 768.875 33.3659 767.523C33.3659 766.159 33.613 764.969 34.1074 763.952C34.6074 762.935 35.3005 762.145 36.1869 761.582C37.0789 761.02 38.1159 760.739 39.2977 760.739C40.4795 760.739 41.5136 761.02 42.4 761.582C43.292 762.145 43.9852 762.935 44.4795 763.952C44.9795 764.969 45.2295 766.159 45.2295 767.523C45.2295 768.875 44.9795 770.057 44.4795 771.068C43.9852 772.08 43.292 772.866 42.4 773.429C41.5136 773.991 40.4795 774.273 39.2977 774.273ZM39.2977 772.466C40.1954 772.466 40.9341 772.236 41.5136 771.776C42.0931 771.315 42.5221 770.71 42.8005 769.96C43.0789 769.21 43.2181 768.398 43.2181 767.523C43.2181 766.648 43.0789 765.832 42.8005 765.077C42.5221 764.321 42.0931 763.71 41.5136 763.244C40.9341 762.778 40.1954 762.545 39.2977 762.545C38.4 762.545 37.6613 762.778 37.0818 763.244C36.5022 763.71 36.0733 764.321 35.7949 765.077C35.5164 765.832 35.3772 766.648 35.3772 767.523C35.3772 768.398 35.5164 769.21 35.7949 769.96C36.0733 770.71 36.5022 771.315 37.0818 771.776C37.6613 772.236 38.4 772.466 39.2977 772.466ZM53.2225 779.182C52.2509 779.182 51.4157 779.057 50.7168 778.807C50.018 778.562 49.4356 778.239 48.9697 777.835C48.5094 777.438 48.143 777.011 47.8702 776.557L49.4725 775.432C49.6543 775.67 49.8844 775.943 50.1629 776.25C50.4413 776.562 50.8219 776.832 51.3049 777.06C51.7935 777.293 52.4327 777.409 53.2225 777.409C54.2793 777.409 55.1515 777.153 55.839 776.642C56.5265 776.131 56.8702 775.33 56.8702 774.239V771.58H56.6998C56.5521 771.818 56.3418 772.114 56.0691 772.466C55.8021 772.812 55.4157 773.122 54.91 773.395C54.41 773.662 53.7339 773.795 52.8816 773.795C51.8248 773.795 50.8759 773.545 50.035 773.045C49.1998 772.545 48.5379 771.818 48.0492 770.864C47.5663 769.909 47.3248 768.75 47.3248 767.386C47.3248 766.045 47.5606 764.878 48.0322 763.884C48.5038 762.884 49.16 762.111 50.0009 761.565C50.8418 761.014 51.8134 760.739 52.9157 760.739C53.768 760.739 54.4441 760.881 54.9441 761.165C55.4498 761.443 55.8362 761.761 56.1032 762.119C56.3759 762.472 56.5862 762.761 56.7339 762.989H56.9384V760.909H58.8816V774.375C58.8816 775.5 58.6259 776.415 58.1146 777.119C57.6089 777.83 56.9271 778.349 56.0691 778.679C55.2168 779.014 54.268 779.182 53.2225 779.182ZM53.1543 771.989C53.9612 771.989 54.643 771.804 55.1998 771.435C55.7566 771.065 56.1799 770.534 56.4697 769.841C56.7594 769.148 56.9043 768.318 56.9043 767.352C56.9043 766.409 56.7623 765.577 56.4782 764.855C56.1941 764.134 55.7737 763.568 55.2168 763.159C54.66 762.75 53.9725 762.545 53.1543 762.545C52.3021 762.545 51.5918 762.761 51.0237 763.193C50.4612 763.625 50.0379 764.205 49.7538 764.932C49.4754 765.659 49.3362 766.466 49.3362 767.352C49.3362 768.261 49.4782 769.065 49.7623 769.764C50.0521 770.457 50.4782 771.003 51.0407 771.401C51.6089 771.793 52.3134 771.989 53.1543 771.989ZM83.5906 765.273C83.5906 767.114 83.2582 768.705 82.5935 770.045C81.9287 771.386 81.0168 772.42 79.8577 773.148C78.6986 773.875 77.3747 774.239 75.8861 774.239C74.3974 774.239 73.0736 773.875 71.9145 773.148C70.7554 772.42 69.8435 771.386 69.1787 770.045C68.5139 768.705 68.1815 767.114 68.1815 765.273C68.1815 763.432 68.5139 761.841 69.1787 760.5C69.8435 759.159 70.7554 758.125 71.9145 757.398C73.0736 756.67 74.3974 756.307 75.8861 756.307C77.3747 756.307 78.6986 756.67 79.8577 757.398C81.0168 758.125 81.9287 759.159 82.5935 760.5C83.2582 761.841 83.5906 763.432 83.5906 765.273ZM81.5452 765.273C81.5452 763.761 81.2923 762.486 80.7867 761.446C80.2867 760.406 79.6077 759.619 78.7497 759.085C77.8974 758.551 76.9429 758.284 75.8861 758.284C74.8293 758.284 73.8719 758.551 73.0139 759.085C72.1617 759.619 71.4827 760.406 70.977 761.446C70.477 762.486 70.227 763.761 70.227 765.273C70.227 766.784 70.477 768.06 70.977 769.099C71.4827 770.139 72.1617 770.926 73.0139 771.46C73.8719 771.994 74.8293 772.261 75.8861 772.261C76.9429 772.261 77.8974 771.994 78.7497 771.46C79.6077 770.926 80.2867 770.139 80.7867 769.099C81.2923 768.06 81.5452 766.784 81.5452 765.273ZM94.7605 768.648V760.909H96.7718V774H94.7605V771.784H94.6241C94.3173 772.449 93.84 773.014 93.1923 773.48C92.5446 773.94 91.7264 774.17 90.7378 774.17C89.9196 774.17 89.1923 773.991 88.5559 773.634C87.9196 773.27 87.4196 772.724 87.0559 771.997C86.6923 771.264 86.5105 770.341 86.5105 769.227V760.909H88.5218V769.091C88.5218 770.045 88.7889 770.807 89.323 771.375C89.8628 771.943 90.5503 772.227 91.3855 772.227C91.8855 772.227 92.394 772.099 92.911 771.844C93.4338 771.588 93.8713 771.196 94.2235 770.668C94.5815 770.139 94.7605 769.466 94.7605 768.648ZM105.788 760.909V762.614H99.0035V760.909H105.788ZM100.981 757.773H102.992V770.25C102.992 770.818 103.075 771.244 103.239 771.528C103.41 771.807 103.626 771.994 103.887 772.091C104.154 772.182 104.435 772.227 104.731 772.227C104.952 772.227 105.134 772.216 105.276 772.193C105.418 772.165 105.532 772.142 105.617 772.125L106.026 773.932C105.89 773.983 105.7 774.034 105.455 774.085C105.211 774.142 104.901 774.17 104.526 774.17C103.958 774.17 103.401 774.048 102.856 773.804C102.316 773.56 101.867 773.188 101.509 772.688C101.157 772.188 100.981 771.557 100.981 770.795V757.773Z" fill="black"/>
<path d="M26.2935 50.2935C26.684 49.9029 27.317 49.9029 27.7075 50.2935C28.0976 50.684 28.0979 51.3171 27.7075 51.7075L22.4146 57.0005H34.0005C34.5526 57.0007 35.0005 57.4483 35.0005 58.0005C35.0003 58.5525 34.5525 59.0003 34.0005 59.0005H22.4146L27.7075 64.2935C28.0976 64.684 28.0979 65.3171 27.7075 65.7075C27.3171 66.0979 26.684 66.0976 26.2935 65.7075L19.2935 58.7075C18.9029 58.317 18.9029 57.684 19.2935 57.2935L26.2935 50.2935Z" fill="black"/>
<circle cx="180.189" cy="137.187" r="71.3523" fill="white"/>
<path fill-rule="evenodd" clip-rule="evenodd" d="M180.312 203.292C216.751 203.292 246.292 173.751 246.292 137.312C246.292 100.872 216.751 71.3312 180.312 71.3312C143.872 71.3312 114.331 100.872 114.331 137.312C114.331 173.751 143.872 203.292 180.312 203.292ZM180.312 210.623C220.802 210.623 253.623 177.802 253.623 137.312C253.623 96.8216 220.802 64 180.312 64C139.822 64 107 96.8216 107 137.312C107 177.802 139.822 210.623 180.312 210.623Z" fill="#004808"/>
<path d="M136.325 179.937C136.325 176.151 139.155 172.951 142.923 172.533C171.203 169.402 189.549 169.685 217.767 172.602C219.176 172.75 220.511 173.306 221.61 174.2C222.709 175.094 223.523 176.29 223.954 177.639C224.385 178.989 224.413 180.435 224.036 181.801C223.658 183.166 222.891 184.392 221.828 185.329C188.526 214.357 169.495 213.958 138.671 185.359C137.168 183.966 136.325 181.986 136.325 179.941V179.937Z" fill="#004808"/>
<path fill-rule="evenodd" clip-rule="evenodd" d="M217.385 176.246C189.391 173.35 171.308 173.079 143.318 176.176C142.397 176.284 141.547 176.727 140.932 177.422C140.318 178.116 139.981 179.013 139.986 179.941C139.986 180.989 140.422 181.983 141.159 182.672C156.437 196.843 168.013 203.247 179.329 203.287C190.685 203.327 202.884 196.975 219.415 182.569C219.941 182.102 220.319 181.492 220.504 180.813C220.689 180.135 220.673 179.418 220.458 178.748C220.243 178.079 219.838 177.486 219.292 177.043C218.747 176.599 218.084 176.324 217.385 176.25V176.246ZM142.515 168.889C171.092 165.726 189.706 166.012 218.144 168.955C220.263 169.176 222.273 170.011 223.925 171.357C225.578 172.702 226.803 174.501 227.449 176.531C228.096 178.562 228.136 180.738 227.565 182.791C226.995 184.845 225.838 186.687 224.236 188.093C207.466 202.711 193.5 210.673 179.307 210.618C165.073 210.567 151.723 202.47 136.177 188.045C135.064 187.009 134.177 185.754 133.571 184.358C132.965 182.963 132.653 181.458 132.655 179.937C132.649 177.204 133.653 174.565 135.472 172.526C137.291 170.487 139.799 169.191 142.515 168.885V168.889Z" fill="#004808"/>
<path d="M209.64 122.648C209.64 130.426 206.55 137.884 201.051 143.384C195.552 148.883 188.093 151.973 180.315 151.973C172.538 151.973 165.079 148.883 159.58 143.384C154.08 137.884 150.991 130.426 150.991 122.648C150.991 114.871 154.08 107.412 159.58 101.912C165.079 96.413 172.538 93.3235 180.315 93.3235C188.093 93.3235 195.552 96.413 201.051 101.912C206.55 107.412 209.64 114.871 209.64 122.648Z" fill="#004808"/>
<path fill-rule="evenodd" clip-rule="evenodd" d="M180.315 144.642C186.148 144.642 191.743 142.324 195.867 138.2C199.992 134.075 202.309 128.481 202.309 122.648C202.309 116.815 199.992 111.221 195.867 107.096C191.743 102.972 186.148 100.655 180.315 100.655C174.482 100.655 168.888 102.972 164.764 107.096C160.639 111.221 158.322 116.815 158.322 122.648C158.322 128.481 160.639 134.075 164.764 138.2C168.888 142.324 174.482 144.642 180.315 144.642ZM180.315 151.973C188.093 151.973 195.552 148.883 201.051 143.384C206.55 137.884 209.64 130.426 209.64 122.648C209.64 114.871 206.55 107.412 201.051 101.912C195.552 96.413 188.093 93.3235 180.315 93.3235C172.538 93.3235 165.079 96.413 159.58 101.912C154.08 107.412 150.991 114.871 150.991 122.648C150.991 130.426 154.08 137.884 159.58 143.384C165.079 148.883 172.538 151.973 180.315 151.973Z" fill="#004808"/>
<rect opacity="0.35" x="322.449" y="9.33482" width="22.768" height="11.2033" rx="2.34908" stroke="black" stroke-width="1.08419"/>
<path opacity="0.4" d="M346.844 12.7681V17.1048C347.72 16.7375 348.289 15.8831 348.289 14.9365C348.289 13.9898 347.72 13.1354 346.844 12.7681Z" fill="black"/>
<rect x="324.076" y="10.9612" width="19.5155" height="7.95075" rx="1.44559" fill="black"/>
<path d="M305.483 17.9714C306.878 16.8162 308.921 16.816 310.316 17.9714C310.387 18.0336 310.428 18.122 310.43 18.2146C310.431 18.3071 310.394 18.3959 310.326 18.4607L308.142 20.6199C308.078 20.6832 307.99 20.7185 307.899 20.7185C307.808 20.7185 307.721 20.6833 307.657 20.6199L305.473 18.4607C305.405 18.3959 305.368 18.307 305.37 18.2146C305.372 18.122 305.413 18.0335 305.483 17.9714ZM302.586 14.866C305.581 12.0694 310.218 12.0695 313.213 14.866C313.28 14.9315 313.319 15.0216 313.32 15.116C313.321 15.2102 313.285 15.3011 313.219 15.3679L311.96 16.6443C311.83 16.7744 311.621 16.7768 311.488 16.6501C310.505 15.7562 309.225 15.2614 307.898 15.2615C306.573 15.262 305.294 15.7569 304.312 16.6501C304.179 16.777 303.969 16.7745 303.839 16.6443L302.581 15.3679C302.515 15.3011 302.478 15.2103 302.479 15.116C302.479 15.0216 302.518 14.9315 302.586 14.866ZM299.692 12.0242C304.281 7.71552 311.519 7.71534 316.107 12.0242C316.174 12.0882 316.211 12.176 316.212 12.2673C316.212 12.3586 316.176 12.4467 316.11 12.5115L314.852 13.7556C314.722 13.8832 314.511 13.8842 314.38 13.7585C312.632 12.1302 310.312 11.2226 307.9 11.2224C305.488 11.2224 303.167 12.1298 301.419 13.7585C301.287 13.8845 301.077 13.8835 300.947 13.7556L299.688 12.5115C299.623 12.4467 299.586 12.3585 299.587 12.2673C299.588 12.176 299.626 12.0881 299.692 12.0242Z" fill="black"/>
<path d="M278.178 16.3818C278.777 16.3818 279.262 16.868 279.262 17.4668V19.6348C279.262 20.2335 278.777 20.7188 278.178 20.7188H277.094C276.495 20.7187 276.01 20.2335 276.01 19.6348V17.4668C276.01 16.868 276.495 16.3819 277.094 16.3818H278.178ZM283.238 14.2139C283.837 14.2139 284.322 14.6992 284.322 15.2979V19.6348C284.322 20.2335 283.837 20.7188 283.238 20.7188H282.154C281.555 20.7187 281.07 20.2335 281.07 19.6348V15.2979C281.07 14.6992 281.555 14.2139 282.154 14.2139H283.238ZM288.297 11.6836C288.896 11.6836 289.381 12.1698 289.381 12.7686V19.6348C289.381 20.2335 288.896 20.7188 288.297 20.7188H287.213C286.615 20.7187 286.129 20.2335 286.129 19.6348V12.7686C286.129 12.1698 286.615 11.6836 287.213 11.6836H288.297ZM293.357 9.1543C293.956 9.1543 294.441 9.63959 294.441 10.2383V19.6348C294.441 20.2335 293.956 20.7188 293.357 20.7188H292.273C291.674 20.7187 291.189 20.2335 291.189 19.6348V10.2383C291.189 9.63961 291.674 9.15432 292.273 9.1543H293.357Z" fill="black"/>
<path d="M20.044 21.4602C22.9959 21.4602 24.7494 19.1518 24.7494 15.2427C24.7494 13.7707 24.4679 12.532 23.9289 11.5749C23.1487 10.0868 21.8055 9.2825 20.1083 9.2825C17.5827 9.2825 15.7971 10.9797 15.7971 13.3605C15.7971 15.5966 17.4057 17.2214 19.6177 17.2214C20.977 17.2214 22.079 16.5859 22.6259 15.484H22.65C22.65 15.484 22.6822 15.484 22.6903 15.484C22.7063 15.484 22.7627 15.484 22.7627 15.484C22.7627 18.1383 21.7572 19.7229 20.0601 19.7229C19.0627 19.7229 18.2905 19.1759 18.0251 18.2992H15.9579C16.3038 20.2055 17.9205 21.4602 20.044 21.4602ZM20.1164 15.5725C18.7812 15.5725 17.832 14.6233 17.832 13.2962C17.832 12.0012 18.8294 11.0118 20.1244 11.0118C21.4194 11.0118 22.4168 12.0173 22.4168 13.3283C22.4168 14.6233 21.4435 15.5725 20.1164 15.5725ZM28.027 19.9481C28.7911 19.9481 29.3139 19.4011 29.3139 18.6772C29.3139 17.9453 28.7911 17.4063 28.027 17.4063C27.2709 17.4063 26.74 17.9453 26.74 18.6772C26.74 19.4011 27.2709 19.9481 28.027 19.9481ZM28.027 13.9155C28.7911 13.9155 29.3139 13.3766 29.3139 12.6527C29.3139 11.9207 28.7911 11.3818 28.027 11.3818C27.2709 11.3818 26.74 11.9207 26.74 12.6527C26.74 13.3766 27.2709 13.9155 28.027 13.9155ZM31.5378 12.9664V12.9986H33.4843V12.9664C33.4843 11.784 34.3048 10.9877 35.5193 10.9877C36.6615 10.9877 37.498 11.7277 37.498 12.7492C37.498 13.5696 37.1039 14.1729 35.5193 15.7816L31.6504 19.7389V21.1787H39.7099V19.4172H34.4978V19.2805L36.9269 16.8433C38.8976 14.8968 39.533 13.8672 39.533 12.6205C39.533 10.6821 37.876 9.2825 35.5837 9.2825C33.2028 9.2825 31.5378 10.7947 31.5378 12.9664ZM42.1671 21.1787H44.3388L49.3016 11.3416V9.57206H41.226V11.3175H47.2103V11.4462L42.1671 21.1787Z" fill="black"/>
</g>
<defs>
<clipPath id="clip0_199_2827">
<path d="M0 0H338.316C350.292 0 360 9.70819 360 21.6839V778.316C360 790.292 350.292 800 338.316 800H0V0Z" fill="white"/>
</clipPath>
</defs>
</svg>
