<svg width="360" height="800" viewBox="0 0 360 800" fill="none" xmlns="http://www.w3.org/2000/svg">
<g clip-path="url(#clip0_199_2890)">
<rect width="360" height="800" fill="white"/>
<rect width="360" height="800" fill="#E6F8E8"/>
<g filter="url(#filter0_d_199_2890)">
<rect x="21" y="205" width="318.753" height="390.309" rx="17.3471" fill="white" shape-rendering="crispEdges"/>
<path d="M134.048 246.84L137.859 258.821H138.006L141.825 246.84H145.521L140.085 262.61H135.788L130.344 246.84H134.048ZM151.414 262.841C150.197 262.841 149.15 262.594 148.272 262.102C147.399 261.604 146.727 260.9 146.254 259.992C145.782 259.078 145.546 257.997 145.546 256.75C145.546 255.533 145.782 254.466 146.254 253.547C146.727 252.628 147.392 251.912 148.249 251.398C149.111 250.885 150.123 250.628 151.283 250.628C152.063 250.628 152.789 250.754 153.462 251.006C154.14 251.252 154.73 251.624 155.233 252.122C155.741 252.62 156.136 253.246 156.419 254.001C156.701 254.75 156.842 255.628 156.842 256.634V257.535H146.855V255.503H153.755C153.755 255.03 153.652 254.612 153.447 254.247C153.241 253.883 152.956 253.598 152.592 253.393C152.232 253.182 151.814 253.077 151.337 253.077C150.839 253.077 150.397 253.192 150.012 253.423C149.632 253.649 149.335 253.955 149.119 254.34C148.903 254.72 148.793 255.143 148.788 255.61V257.543C148.788 258.128 148.896 258.634 149.111 259.06C149.332 259.486 149.643 259.815 150.043 260.046C150.443 260.277 150.918 260.392 151.468 260.392C151.832 260.392 152.166 260.341 152.469 260.238C152.771 260.136 153.031 259.982 153.246 259.776C153.462 259.571 153.626 259.319 153.739 259.022L156.773 259.222C156.619 259.951 156.303 260.587 155.826 261.131C155.354 261.67 154.743 262.091 153.993 262.394C153.249 262.692 152.389 262.841 151.414 262.841ZM158.983 262.61V250.782H162.163V252.846H162.286C162.502 252.112 162.864 251.557 163.372 251.183C163.88 250.803 164.466 250.613 165.128 250.613C165.292 250.613 165.469 250.623 165.659 250.644C165.849 250.664 166.016 250.692 166.16 250.728V253.639C166.006 253.593 165.793 253.552 165.52 253.516C165.248 253.48 164.999 253.462 164.774 253.462C164.291 253.462 163.86 253.567 163.48 253.778C163.105 253.983 162.807 254.271 162.587 254.64C162.371 255.01 162.263 255.436 162.263 255.918V262.61H158.983ZM167.856 262.61V250.782H171.136V262.61H167.856ZM169.503 249.258C169.016 249.258 168.597 249.096 168.248 248.773C167.904 248.444 167.732 248.051 167.732 247.594C167.732 247.143 167.904 246.755 168.248 246.432C168.597 246.103 169.016 245.939 169.503 245.939C169.991 245.939 170.407 246.103 170.751 246.432C171.1 246.755 171.274 247.143 171.274 247.594C171.274 248.051 171.1 248.444 170.751 248.773C170.407 249.096 169.991 249.258 169.503 249.258ZM180.124 250.782V253.246H172.824V250.782H180.124ZM174.495 262.61V249.928C174.495 249.07 174.662 248.359 174.996 247.795C175.334 247.23 175.796 246.806 176.382 246.524C176.967 246.242 177.632 246.101 178.376 246.101C178.879 246.101 179.339 246.139 179.754 246.216C180.175 246.293 180.488 246.362 180.694 246.424L180.109 248.888C179.98 248.847 179.821 248.808 179.631 248.773C179.446 248.737 179.256 248.719 179.061 248.719C178.579 248.719 178.243 248.832 178.053 249.057C177.863 249.278 177.768 249.589 177.768 249.989V262.61H174.495ZM182.128 262.61V250.782H185.408V262.61H182.128ZM183.776 249.258C183.288 249.258 182.87 249.096 182.521 248.773C182.177 248.444 182.005 248.051 182.005 247.594C182.005 247.143 182.177 246.755 182.521 246.432C182.87 246.103 183.288 245.939 183.776 245.939C184.263 245.939 184.679 246.103 185.023 246.432C185.372 246.755 185.547 247.143 185.547 247.594C185.547 248.051 185.372 248.444 185.023 248.773C184.679 249.096 184.263 249.258 183.776 249.258ZM191.008 259.206L191.016 255.272H191.493L195.282 250.782H199.047L193.957 256.727H193.18L191.008 259.206ZM188.036 262.61V246.84H191.316V262.61H188.036ZM195.428 262.61L191.948 257.458L194.135 255.141L199.271 262.61H195.428ZM204.029 262.833C203.275 262.833 202.602 262.702 202.012 262.44C201.422 262.174 200.954 261.781 200.61 261.262C200.272 260.739 200.102 260.087 200.102 259.306C200.102 258.649 200.223 258.098 200.464 257.651C200.705 257.204 201.034 256.845 201.45 256.573C201.866 256.301 202.338 256.095 202.867 255.957C203.4 255.818 203.96 255.721 204.545 255.664C205.233 255.592 205.788 255.526 206.209 255.464C206.629 255.397 206.935 255.3 207.125 255.171C207.315 255.043 207.41 254.853 207.41 254.602V254.555C207.41 254.068 207.256 253.69 206.948 253.423C206.645 253.157 206.214 253.023 205.654 253.023C205.064 253.023 204.594 253.154 204.245 253.416C203.896 253.672 203.665 253.996 203.552 254.386L200.518 254.14C200.672 253.421 200.975 252.8 201.427 252.276C201.878 251.747 202.461 251.342 203.175 251.06C203.893 250.772 204.725 250.628 205.669 250.628C206.327 250.628 206.955 250.705 207.556 250.859C208.162 251.013 208.698 251.252 209.165 251.575C209.638 251.899 210.01 252.315 210.282 252.823C210.554 253.326 210.69 253.929 210.69 254.632V262.61H207.579V260.97H207.487C207.297 261.339 207.043 261.665 206.724 261.948C206.406 262.225 206.024 262.443 205.577 262.602C205.13 262.756 204.615 262.833 204.029 262.833ZM204.969 260.569C205.451 260.569 205.877 260.474 206.247 260.284C206.617 260.089 206.907 259.828 207.117 259.499C207.328 259.17 207.433 258.798 207.433 258.382V257.127C207.33 257.194 207.189 257.256 207.009 257.312C206.835 257.363 206.637 257.412 206.416 257.458C206.196 257.499 205.975 257.538 205.754 257.574C205.533 257.605 205.333 257.633 205.154 257.659C204.769 257.715 204.432 257.805 204.145 257.928C203.857 258.051 203.634 258.218 203.475 258.429C203.316 258.634 203.236 258.891 203.236 259.199C203.236 259.645 203.398 259.987 203.721 260.223C204.05 260.454 204.466 260.569 204.969 260.569ZM223.076 254.155L220.073 254.34C220.021 254.083 219.911 253.852 219.742 253.647C219.572 253.436 219.349 253.269 219.072 253.146C218.8 253.018 218.474 252.954 218.094 252.954C217.586 252.954 217.157 253.062 216.808 253.277C216.459 253.488 216.284 253.77 216.284 254.124C216.284 254.407 216.397 254.645 216.623 254.84C216.849 255.035 217.237 255.192 217.786 255.31L219.926 255.741C221.076 255.977 221.934 256.357 222.498 256.881C223.063 257.405 223.345 258.092 223.345 258.945C223.345 259.72 223.117 260.4 222.66 260.985C222.208 261.57 221.587 262.027 220.797 262.356C220.011 262.679 219.105 262.841 218.078 262.841C216.513 262.841 215.265 262.515 214.336 261.863C213.412 261.206 212.87 260.313 212.711 259.183L215.938 259.014C216.035 259.491 216.271 259.856 216.646 260.107C217.021 260.354 217.501 260.477 218.086 260.477C218.661 260.477 219.123 260.367 219.472 260.146C219.826 259.92 220.006 259.63 220.011 259.276C220.006 258.978 219.88 258.734 219.634 258.544C219.387 258.349 219.008 258.2 218.494 258.098L216.446 257.689C215.291 257.458 214.431 257.058 213.866 256.488C213.307 255.918 213.027 255.192 213.027 254.309C213.027 253.549 213.232 252.895 213.643 252.345C214.059 251.796 214.642 251.373 215.391 251.075C216.146 250.777 217.029 250.628 218.04 250.628C219.534 250.628 220.709 250.944 221.567 251.575C222.429 252.207 222.932 253.067 223.076 254.155ZM225.411 262.61V250.782H228.691V262.61H225.411ZM227.059 249.258C226.571 249.258 226.153 249.096 225.804 248.773C225.46 248.444 225.288 248.051 225.288 247.594C225.288 247.143 225.46 246.755 225.804 246.432C226.153 246.103 226.571 245.939 227.059 245.939C227.546 245.939 227.962 246.103 228.306 246.432C228.655 246.755 228.83 247.143 228.83 247.594C228.83 248.051 228.655 248.444 228.306 248.773C227.962 249.096 227.546 249.258 227.059 249.258Z" fill="black"/>
<rect x="69.7891" y="371.966" width="35.7784" height="35.7784" rx="8.67354" fill="#E0E0E0"/>
<path d="M90.5134 381.585V397.355H87.1792V384.75H87.0868L83.4753 387.014V384.057L87.3794 381.585H90.5134Z" fill="black"/>
<rect x="131.588" y="371.966" width="35.7784" height="35.7784" rx="8.67354" fill="#E0E0E0"/>
<path d="M152.312 381.585V397.355H148.978V384.75H148.886L145.274 387.014V384.057L149.178 381.585H152.312Z" fill="black"/>
<rect x="193.387" y="371.966" width="35.7784" height="35.7784" rx="8.67354" fill="#E0E0E0"/>
<path d="M214.111 381.585V397.355H210.777V384.75H210.684L207.073 387.014V384.057L210.977 381.585H214.111Z" fill="black"/>
<rect x="255.186" y="371.966" width="35.7784" height="35.7784" rx="8.67354" fill="#E0E0E0"/>
<path d="M275.91 381.585V397.355H272.576V384.75H272.483L268.872 387.014V384.057L272.776 381.585H275.91Z" fill="black"/>
<path d="M89.4527 309.623H91.474L94.9884 318.204H95.1178L98.6321 309.623H100.653V320.662H99.0687V312.673H98.9663L95.7107 320.645H94.3955L91.1398 312.668H91.0374V320.662H89.4527V309.623ZM105.355 320.845C104.83 320.845 104.356 320.748 103.932 320.554C103.508 320.356 103.172 320.07 102.924 319.697C102.68 319.323 102.558 318.865 102.558 318.322C102.558 317.855 102.647 317.471 102.827 317.169C103.007 316.867 103.249 316.628 103.555 316.452C103.86 316.276 104.202 316.143 104.579 316.053C104.956 315.963 105.341 315.895 105.732 315.848C106.228 315.791 106.631 315.744 106.94 315.708C107.249 315.669 107.473 315.606 107.614 315.519C107.754 315.433 107.824 315.293 107.824 315.099V315.061C107.824 314.591 107.691 314.226 107.425 313.967C107.163 313.708 106.771 313.579 106.25 313.579C105.707 313.579 105.28 313.699 104.967 313.94C104.658 314.177 104.444 314.441 104.326 314.732L102.811 314.387C102.991 313.884 103.253 313.478 103.598 313.169C103.946 312.857 104.347 312.63 104.8 312.49C105.253 312.346 105.729 312.275 106.228 312.275C106.559 312.275 106.909 312.314 107.279 312.393C107.653 312.469 108.002 312.609 108.325 312.814C108.652 313.018 108.92 313.311 109.128 313.692C109.337 314.069 109.441 314.56 109.441 315.164V320.662H107.867V319.53H107.802C107.698 319.738 107.542 319.943 107.333 320.144C107.125 320.345 106.857 320.512 106.53 320.645C106.203 320.778 105.811 320.845 105.355 320.845ZM105.705 319.551C106.151 319.551 106.532 319.463 106.848 319.287C107.168 319.111 107.41 318.881 107.576 318.597C107.745 318.31 107.829 318.002 107.829 317.675V316.608C107.772 316.666 107.66 316.72 107.495 316.77C107.333 316.817 107.148 316.858 106.94 316.894C106.731 316.926 106.528 316.957 106.331 316.986C106.133 317.011 105.968 317.032 105.835 317.05C105.522 317.09 105.236 317.156 104.978 317.25C104.723 317.343 104.518 317.478 104.363 317.654C104.212 317.826 104.137 318.056 104.137 318.344C104.137 318.743 104.284 319.045 104.579 319.249C104.874 319.451 105.249 319.551 105.705 319.551ZM117.791 314.404L116.331 314.662C116.27 314.476 116.173 314.298 116.04 314.129C115.91 313.96 115.734 313.822 115.511 313.714C115.289 313.606 115.01 313.552 114.676 313.552C114.22 313.552 113.839 313.654 113.533 313.859C113.228 314.06 113.075 314.321 113.075 314.641C113.075 314.918 113.177 315.14 113.382 315.309C113.587 315.478 113.918 315.616 114.374 315.724L115.689 316.026C116.451 316.202 117.019 316.473 117.393 316.84C117.766 317.207 117.953 317.683 117.953 318.268C117.953 318.764 117.809 319.206 117.522 319.594C117.238 319.979 116.841 320.281 116.331 320.5C115.824 320.719 115.237 320.829 114.568 320.829C113.641 320.829 112.885 320.631 112.299 320.236C111.713 319.837 111.354 319.271 111.221 318.538L112.779 318.301C112.876 318.707 113.075 319.014 113.377 319.222C113.679 319.427 114.072 319.53 114.557 319.53C115.086 319.53 115.508 319.42 115.824 319.201C116.14 318.978 116.298 318.707 116.298 318.387C116.298 318.128 116.201 317.911 116.007 317.735C115.817 317.559 115.524 317.426 115.129 317.336L113.727 317.029C112.955 316.853 112.383 316.572 112.013 316.188C111.647 315.803 111.463 315.316 111.463 314.727C111.463 314.238 111.6 313.811 111.873 313.444C112.146 313.078 112.523 312.792 113.005 312.587C113.487 312.379 114.038 312.275 114.66 312.275C115.555 312.275 116.259 312.469 116.773 312.857C117.287 313.241 117.626 313.757 117.791 314.404ZM124.97 317.228V312.382H126.587V320.662H125.002V319.228H124.916C124.725 319.67 124.42 320.038 124 320.333C123.583 320.624 123.064 320.769 122.442 320.769C121.91 320.769 121.439 320.653 121.03 320.419C120.624 320.182 120.304 319.832 120.07 319.368C119.84 318.904 119.725 318.331 119.725 317.649V312.382H121.337V317.454C121.337 318.019 121.493 318.468 121.806 318.802C122.118 319.136 122.524 319.303 123.024 319.303C123.326 319.303 123.626 319.228 123.924 319.077C124.226 318.926 124.476 318.698 124.673 318.392C124.875 318.087 124.973 317.699 124.97 317.228ZM130.235 317.853L130.224 315.886H130.504L133.803 312.382H135.733L131.97 316.371H131.717L130.235 317.853ZM128.752 320.662V309.623H130.364V320.662H128.752ZM133.981 320.662L131.016 316.727L132.127 315.6L135.959 320.662H133.981ZM138.684 317.853L138.673 315.886H138.953L142.252 312.382H144.182L140.419 316.371H140.166L138.684 317.853ZM137.201 320.662V309.623H138.813V320.662H137.201ZM142.43 320.662L139.465 316.727L140.576 315.6L144.408 320.662H142.43ZM148.06 320.845C147.535 320.845 147.061 320.748 146.637 320.554C146.213 320.356 145.877 320.07 145.629 319.697C145.385 319.323 145.262 318.865 145.262 318.322C145.262 317.855 145.352 317.471 145.532 317.169C145.712 316.867 145.954 316.628 146.26 316.452C146.565 316.276 146.906 316.143 147.284 316.053C147.661 315.963 148.046 315.895 148.437 315.848C148.933 315.791 149.336 315.744 149.645 315.708C149.954 315.669 150.178 315.606 150.318 315.519C150.459 315.433 150.529 315.293 150.529 315.099V315.061C150.529 314.591 150.396 314.226 150.13 313.967C149.867 313.708 149.476 313.579 148.955 313.579C148.412 313.579 147.984 313.699 147.672 313.94C147.363 314.177 147.149 314.441 147.03 314.732L145.516 314.387C145.695 313.884 145.958 313.478 146.303 313.169C146.651 312.857 147.052 312.63 147.505 312.49C147.958 312.346 148.434 312.275 148.933 312.275C149.264 312.275 149.614 312.314 149.984 312.393C150.358 312.469 150.707 312.609 151.03 312.814C151.357 313.018 151.625 313.311 151.833 313.692C152.041 314.069 152.146 314.56 152.146 315.164V320.662H150.572V319.53H150.507C150.403 319.738 150.247 319.943 150.038 320.144C149.83 320.345 149.562 320.512 149.235 320.645C148.908 320.778 148.516 320.845 148.06 320.845ZM148.41 319.551C148.856 319.551 149.237 319.463 149.553 319.287C149.873 319.111 150.115 318.881 150.281 318.597C150.45 318.31 150.534 318.002 150.534 317.675V316.608C150.477 316.666 150.365 316.72 150.2 316.77C150.038 316.817 149.853 316.858 149.645 316.894C149.436 316.926 149.233 316.957 149.036 316.986C148.838 317.011 148.673 317.032 148.54 317.05C148.227 317.09 147.941 317.156 147.683 317.25C147.427 317.343 147.223 317.478 147.068 317.654C146.917 317.826 146.842 318.056 146.842 318.344C146.842 318.743 146.989 319.045 147.284 319.249C147.578 319.451 147.954 319.551 148.41 319.551ZM155.904 315.746V320.662H154.292V312.382H155.839V313.73H155.942C156.132 313.291 156.43 312.939 156.836 312.673C157.246 312.407 157.762 312.275 158.383 312.275C158.948 312.275 159.442 312.393 159.866 312.63C160.29 312.864 160.619 313.212 160.852 313.676C161.086 314.14 161.202 314.713 161.202 315.395V320.662H159.591V315.589C159.591 314.989 159.435 314.52 159.122 314.183C158.809 313.841 158.38 313.671 157.834 313.671C157.46 313.671 157.128 313.751 156.836 313.913C156.549 314.075 156.321 314.312 156.152 314.625C155.987 314.934 155.904 315.307 155.904 315.746ZM168.863 317.853L168.852 315.886H169.133L172.432 312.382H174.361L170.599 316.371H170.346L168.863 317.853ZM167.381 320.662V309.623H168.993V320.662H167.381ZM172.609 320.662L169.645 316.727L170.755 315.6L174.588 320.662H172.609ZM178.977 320.829C178.2 320.829 177.523 320.651 176.944 320.295C176.366 319.939 175.917 319.442 175.597 318.802C175.277 318.162 175.117 317.415 175.117 316.56C175.117 315.701 175.277 314.95 175.597 314.307C175.917 313.663 176.366 313.164 176.944 312.808C177.523 312.452 178.2 312.275 178.977 312.275C179.753 312.275 180.43 312.452 181.009 312.808C181.587 313.164 182.036 313.663 182.356 314.307C182.676 314.95 182.836 315.701 182.836 316.56C182.836 317.415 182.676 318.162 182.356 318.802C182.036 319.442 181.587 319.939 181.009 320.295C180.43 320.651 179.753 320.829 178.977 320.829ZM178.982 319.476C179.485 319.476 179.902 319.343 180.232 319.077C180.563 318.811 180.807 318.457 180.966 318.015C181.127 317.573 181.208 317.086 181.208 316.554C181.208 316.026 181.127 315.541 180.966 315.099C180.807 314.653 180.563 314.296 180.232 314.026C179.902 313.757 179.485 313.622 178.982 313.622C178.475 313.622 178.055 313.757 177.721 314.026C177.39 314.296 177.144 314.653 176.982 315.099C176.824 315.541 176.745 316.026 176.745 316.554C176.745 317.086 176.824 317.573 176.982 318.015C177.144 318.457 177.39 318.811 177.721 319.077C178.055 319.343 178.475 319.476 178.982 319.476ZM187.734 320.823C187.066 320.823 186.469 320.653 185.945 320.311C185.424 319.966 185.014 319.476 184.716 318.84C184.421 318.2 184.274 317.433 184.274 316.538C184.274 315.643 184.423 314.878 184.721 314.242C185.023 313.606 185.436 313.119 185.961 312.781C186.485 312.443 187.08 312.275 187.745 312.275C188.259 312.275 188.672 312.361 188.985 312.533C189.301 312.702 189.545 312.9 189.718 313.126C189.894 313.353 190.03 313.552 190.127 313.724H190.224V309.623H191.836V320.662H190.262V319.373H190.127C190.03 319.549 189.89 319.751 189.707 319.977C189.527 320.203 189.279 320.401 188.963 320.57C188.647 320.739 188.237 320.823 187.734 320.823ZM188.09 319.449C188.554 319.449 188.945 319.327 189.265 319.082C189.588 318.834 189.833 318.491 189.998 318.053C190.167 317.614 190.251 317.104 190.251 316.522C190.251 315.947 190.169 315.444 190.003 315.013C189.838 314.582 189.596 314.246 189.276 314.005C188.956 313.764 188.561 313.644 188.09 313.644C187.605 313.644 187.201 313.769 186.877 314.021C186.554 314.272 186.309 314.616 186.144 315.05C185.982 315.485 185.902 315.976 185.902 316.522C185.902 317.075 185.984 317.573 186.15 318.015C186.315 318.457 186.559 318.807 186.883 319.066C187.21 319.321 187.612 319.449 188.09 319.449ZM197.705 320.829C196.889 320.829 196.186 320.654 195.597 320.306C195.011 319.954 194.559 319.46 194.239 318.824C193.923 318.184 193.764 317.435 193.764 316.576C193.764 315.728 193.923 314.98 194.239 314.334C194.559 313.687 195.004 313.182 195.576 312.819C196.151 312.456 196.822 312.275 197.591 312.275C198.059 312.275 198.511 312.352 198.95 312.506C199.388 312.661 199.782 312.903 200.13 313.234C200.479 313.565 200.754 313.994 200.955 314.522C201.156 315.047 201.257 315.685 201.257 316.436V317.007H194.675V315.8H199.677C199.677 315.376 199.591 315 199.419 314.673C199.246 314.343 199.004 314.082 198.691 313.892C198.382 313.701 198.019 313.606 197.602 313.606C197.149 313.606 196.754 313.717 196.416 313.94C196.082 314.159 195.824 314.447 195.64 314.803C195.461 315.155 195.371 315.537 195.371 315.951V316.894C195.371 317.447 195.468 317.918 195.662 318.306C195.859 318.694 196.134 318.991 196.486 319.195C196.839 319.397 197.25 319.497 197.721 319.497C198.026 319.497 198.305 319.454 198.556 319.368C198.808 319.278 199.025 319.145 199.209 318.969C199.392 318.793 199.532 318.576 199.629 318.317L201.154 318.592C201.032 319.041 200.813 319.434 200.497 319.772C200.184 320.106 199.791 320.367 199.316 320.554C198.846 320.737 198.308 320.829 197.705 320.829ZM214.145 312.382L211.142 320.662H209.418L206.41 312.382H208.14L210.237 318.754H210.323L212.414 312.382H214.145ZM218.946 320.829C218.13 320.829 217.428 320.654 216.838 320.306C216.253 319.954 215.8 319.46 215.48 318.824C215.164 318.184 215.006 317.435 215.006 316.576C215.006 315.728 215.164 314.98 215.48 314.334C215.8 313.687 216.245 313.182 216.817 312.819C217.392 312.456 218.064 312.275 218.833 312.275C219.3 312.275 219.753 312.352 220.191 312.506C220.629 312.661 221.023 312.903 221.372 313.234C221.72 313.565 221.995 313.994 222.196 314.522C222.397 315.047 222.498 315.685 222.498 316.436V317.007H215.917V315.8H220.919C220.919 315.376 220.833 315 220.66 314.673C220.488 314.343 220.245 314.082 219.932 313.892C219.623 313.701 219.26 313.606 218.844 313.606C218.391 313.606 217.995 313.717 217.658 313.94C217.324 314.159 217.065 314.447 216.882 314.803C216.702 315.155 216.612 315.537 216.612 315.951V316.894C216.612 317.447 216.709 317.918 216.903 318.306C217.101 318.694 217.376 318.991 217.728 319.195C218.08 319.397 218.491 319.497 218.962 319.497C219.268 319.497 219.546 319.454 219.798 319.368C220.049 319.278 220.267 319.145 220.45 318.969C220.633 318.793 220.773 318.576 220.87 318.317L222.396 318.592C222.273 319.041 222.054 319.434 221.738 319.772C221.425 320.106 221.032 320.367 220.558 320.554C220.087 320.737 219.55 320.829 218.946 320.829ZM224.286 320.662V312.382H225.844V313.698H225.93C226.081 313.252 226.347 312.902 226.728 312.646C227.112 312.388 227.547 312.258 228.032 312.258C228.133 312.258 228.252 312.262 228.388 312.269C228.528 312.276 228.638 312.285 228.717 312.296V313.838C228.652 313.82 228.537 313.8 228.372 313.778C228.207 313.753 228.041 313.741 227.876 313.741C227.495 313.741 227.156 313.822 226.857 313.983C226.563 314.141 226.329 314.362 226.157 314.646C225.984 314.926 225.898 315.246 225.898 315.606V320.662H224.286ZM230.112 320.662V312.382H231.723V320.662H230.112ZM230.926 311.105C230.645 311.105 230.405 311.011 230.203 310.825C230.006 310.634 229.907 310.408 229.907 310.145C229.907 309.879 230.006 309.653 230.203 309.466C230.405 309.276 230.645 309.181 230.926 309.181C231.206 309.181 231.445 309.276 231.642 309.466C231.844 309.653 231.944 309.879 231.944 310.145C231.944 310.408 231.844 310.634 231.642 310.825C231.445 311.011 231.206 311.105 230.926 311.105ZM237.832 312.382V313.676H233.153V312.382H237.832ZM234.436 320.662V311.423C234.436 310.905 234.549 310.476 234.776 310.135C235.002 309.79 235.302 309.533 235.676 309.364C236.049 309.191 236.455 309.105 236.894 309.105C237.217 309.105 237.494 309.132 237.724 309.186C237.954 309.236 238.125 309.283 238.236 309.326L237.859 310.631C237.783 310.609 237.686 310.584 237.568 310.555C237.449 310.523 237.305 310.507 237.136 310.507C236.745 310.507 236.464 310.604 236.296 310.798C236.13 310.992 236.048 311.272 236.048 311.638V320.662H234.436ZM239.495 320.662V312.382H241.106V320.662H239.495ZM240.309 311.105C240.028 311.105 239.787 311.011 239.586 310.825C239.389 310.634 239.29 310.408 239.29 310.145C239.29 309.879 239.389 309.653 239.586 309.466C239.787 309.276 240.028 309.181 240.309 309.181C240.589 309.181 240.828 309.276 241.025 309.466C241.227 309.653 241.327 309.879 241.327 310.145C241.327 310.408 241.227 310.634 241.025 310.825C240.828 311.011 240.589 311.105 240.309 311.105ZM244.757 317.853L244.746 315.886H245.026L248.325 312.382H250.255L246.492 316.371H246.239L244.757 317.853ZM243.274 320.662V309.623H244.886V320.662H243.274ZM248.503 320.662L245.538 316.727L246.649 315.6L250.481 320.662H248.503ZM254.133 320.845C253.608 320.845 253.134 320.748 252.71 320.554C252.286 320.356 251.95 320.07 251.702 319.697C251.458 319.323 251.335 318.865 251.335 318.322C251.335 317.855 251.425 317.471 251.605 317.169C251.785 316.867 252.027 316.628 252.333 316.452C252.638 316.276 252.979 316.143 253.357 316.053C253.734 315.963 254.119 315.895 254.51 315.848C255.006 315.791 255.409 315.744 255.718 315.708C256.027 315.669 256.251 315.606 256.391 315.519C256.532 315.433 256.602 315.293 256.602 315.099V315.061C256.602 314.591 256.469 314.226 256.203 313.967C255.94 313.708 255.549 313.579 255.028 313.579C254.485 313.579 254.057 313.699 253.745 313.94C253.436 314.177 253.222 314.441 253.103 314.732L251.589 314.387C251.768 313.884 252.031 313.478 252.376 313.169C252.724 312.857 253.125 312.63 253.578 312.49C254.031 312.346 254.507 312.275 255.006 312.275C255.337 312.275 255.687 312.314 256.057 312.393C256.431 312.469 256.78 312.609 257.103 312.814C257.43 313.018 257.698 313.311 257.906 313.692C258.114 314.069 258.219 314.56 258.219 315.164V320.662H256.645V319.53H256.58C256.476 319.738 256.32 319.943 256.111 320.144C255.903 320.345 255.635 320.512 255.308 320.645C254.981 320.778 254.589 320.845 254.133 320.845ZM254.483 319.551C254.929 319.551 255.31 319.463 255.626 319.287C255.946 319.111 256.188 318.881 256.354 318.597C256.523 318.31 256.607 318.002 256.607 317.675V316.608C256.55 316.666 256.438 316.72 256.273 316.77C256.111 316.817 255.926 316.858 255.718 316.894C255.509 316.926 255.306 316.957 255.109 316.986C254.911 317.011 254.746 317.032 254.613 317.05C254.3 317.09 254.014 317.156 253.756 317.25C253.5 317.343 253.296 317.478 253.141 317.654C252.99 317.826 252.915 318.056 252.915 318.344C252.915 318.743 253.062 319.045 253.357 319.249C253.651 319.451 254.027 319.551 254.483 319.551ZM266.569 314.404L265.109 314.662C265.048 314.476 264.951 314.298 264.818 314.129C264.688 313.96 264.512 313.822 264.289 313.714C264.067 313.606 263.788 313.552 263.454 313.552C262.998 313.552 262.617 313.654 262.311 313.859C262.006 314.06 261.853 314.321 261.853 314.641C261.853 314.918 261.955 315.14 262.16 315.309C262.365 315.478 262.696 315.616 263.152 315.724L264.467 316.026C265.229 316.202 265.797 316.473 266.171 316.84C266.544 317.207 266.731 317.683 266.731 318.268C266.731 318.764 266.587 319.206 266.3 319.594C266.016 319.979 265.619 320.281 265.109 320.5C264.602 320.719 264.014 320.829 263.346 320.829C262.419 320.829 261.663 320.631 261.077 320.236C260.491 319.837 260.132 319.271 259.999 318.538L261.557 318.301C261.654 318.707 261.853 319.014 262.155 319.222C262.457 319.427 262.85 319.53 263.335 319.53C263.864 319.53 264.286 319.42 264.602 319.201C264.918 318.978 265.076 318.707 265.076 318.387C265.076 318.128 264.979 317.911 264.785 317.735C264.595 317.559 264.302 317.426 263.907 317.336L262.505 317.029C261.733 316.853 261.161 316.572 260.791 316.188C260.425 315.803 260.241 315.316 260.241 314.727C260.241 314.238 260.378 313.811 260.651 313.444C260.924 313.078 261.301 312.792 261.783 312.587C262.264 312.379 262.816 312.275 263.438 312.275C264.332 312.275 265.037 312.469 265.551 312.857C266.065 313.241 266.404 313.757 266.569 314.404ZM268.503 320.662V312.382H270.115V320.662H268.503ZM269.317 311.105C269.037 311.105 268.796 311.011 268.595 310.825C268.397 310.634 268.298 310.408 268.298 310.145C268.298 309.879 268.397 309.653 268.595 309.466C268.796 309.276 269.037 309.181 269.317 309.181C269.597 309.181 269.836 309.276 270.034 309.466C270.235 309.653 270.336 309.879 270.336 310.145C270.336 310.408 270.235 310.634 270.034 310.825C269.836 311.011 269.597 311.105 269.317 311.105Z" fill="black"/>
<path d="M81.8877 350.103H78.9677V340.641H82.017C82.9349 340.641 83.7203 340.83 84.3733 341.209C85.0263 341.585 85.5268 342.126 85.8748 342.831C86.2229 343.533 86.3969 344.374 86.3969 345.354C86.3969 346.339 86.2214 347.188 85.8702 347.899C85.5191 348.608 85.0078 349.153 84.3363 349.535C83.6649 349.914 82.8487 350.103 81.8877 350.103ZM80.1135 349.087H81.8137C82.5961 349.087 83.2444 348.936 83.7588 348.634C84.2732 348.332 84.6567 347.902 84.9092 347.345C85.1618 346.787 85.2881 346.124 85.2881 345.354C85.2881 344.59 85.1633 343.932 84.9139 343.381C84.6644 342.826 84.2917 342.401 83.7958 342.106C83.2999 341.807 82.6823 341.657 81.9431 341.657H80.1135V349.087ZM88.1711 350.103V343.006H89.2614V350.103H88.1711ZM88.7255 341.824C88.5129 341.824 88.3297 341.751 88.1757 341.607C88.0248 341.462 87.9493 341.288 87.9493 341.085C87.9493 340.881 88.0248 340.707 88.1757 340.562C88.3297 340.418 88.5129 340.345 88.7255 340.345C88.938 340.345 89.1197 340.418 89.2706 340.562C89.4247 340.707 89.5017 340.881 89.5017 341.085C89.5017 341.288 89.4247 341.462 89.2706 341.607C89.1197 341.751 88.938 341.824 88.7255 341.824ZM92.2749 347.516L92.2564 346.167H92.4782L95.5829 343.006H96.932L93.624 346.351H93.5316L92.2749 347.516ZM91.2585 350.103V340.641H92.3488V350.103H91.2585ZM95.7677 350.103L92.9956 346.592L93.7718 345.834L97.1538 350.103H95.7677ZM98.3354 350.103V343.006H99.4257V350.103H98.3354ZM98.8898 341.824C98.6773 341.824 98.494 341.751 98.34 341.607C98.1891 341.462 98.1136 341.288 98.1136 341.085C98.1136 340.881 98.1891 340.707 98.34 340.562C98.494 340.418 98.6773 340.345 98.8898 340.345C99.1023 340.345 99.284 340.418 99.435 340.562C99.589 340.707 99.666 340.881 99.666 341.085C99.666 341.288 99.589 341.462 99.435 341.607C99.284 341.751 99.1023 341.824 98.8898 341.824ZM101.423 350.103V343.006H102.476V344.078H102.55C102.679 343.727 102.914 343.442 103.252 343.224C103.591 343.005 103.973 342.896 104.398 342.896C104.478 342.896 104.578 342.897 104.698 342.9C104.819 342.903 104.909 342.908 104.971 342.914V344.023C104.934 344.014 104.849 344 104.717 343.981C104.588 343.96 104.451 343.949 104.306 343.949C103.961 343.949 103.653 344.021 103.382 344.166C103.114 344.308 102.901 344.505 102.744 344.758C102.59 345.007 102.513 345.292 102.513 345.612V350.103H101.423ZM106.264 350.103V343.006H107.354V350.103H106.264ZM106.818 341.824C106.605 341.824 106.422 341.751 106.268 341.607C106.117 341.462 106.042 341.288 106.042 341.085C106.042 340.881 106.117 340.707 106.268 340.562C106.422 340.418 106.605 340.345 106.818 340.345C107.03 340.345 107.212 340.418 107.363 340.562C107.517 340.707 107.594 340.881 107.594 341.085C107.594 341.288 107.517 341.462 107.363 341.607C107.212 341.751 107.03 341.824 106.818 341.824ZM109.351 350.103V343.006H110.404V344.115H110.497C110.645 343.736 110.883 343.442 111.213 343.233C111.542 343.02 111.938 342.914 112.4 342.914C112.868 342.914 113.258 343.02 113.569 343.233C113.883 343.442 114.128 343.736 114.304 344.115H114.378C114.559 343.749 114.832 343.458 115.195 343.242C115.559 343.023 115.995 342.914 116.503 342.914C117.137 342.914 117.656 343.113 118.06 343.51C118.463 343.904 118.665 344.519 118.665 345.354V350.103H117.575V345.354C117.575 344.83 117.432 344.456 117.145 344.231C116.859 344.006 116.521 343.894 116.133 343.894C115.634 343.894 115.248 344.044 114.974 344.346C114.7 344.645 114.562 345.024 114.562 345.483V350.103H113.454V345.243C113.454 344.839 113.323 344.514 113.061 344.268C112.799 344.018 112.462 343.894 112.049 343.894C111.766 343.894 111.501 343.969 111.254 344.12C111.011 344.271 110.814 344.48 110.663 344.748C110.515 345.013 110.441 345.32 110.441 345.668V350.103H109.351ZM125.334 347.516L125.316 346.167H125.538L128.642 343.006H129.991L126.683 346.351H126.591L125.334 347.516ZM124.318 350.103V340.641H125.408V350.103H124.318ZM128.827 350.103L126.055 346.592L126.831 345.834L130.213 350.103H128.827ZM134.078 350.251C133.394 350.251 132.804 350.1 132.308 349.798C131.816 349.493 131.435 349.068 131.167 348.523C130.902 347.975 130.77 347.337 130.77 346.61C130.77 345.883 130.902 345.243 131.167 344.688C131.435 344.131 131.808 343.696 132.285 343.385C132.766 343.071 133.326 342.914 133.967 342.914C134.337 342.914 134.702 342.976 135.062 343.099C135.422 343.222 135.75 343.422 136.046 343.7C136.342 343.974 136.577 344.337 136.753 344.79C136.929 345.243 137.016 345.8 137.016 346.462V346.924H131.546V345.982H135.907C135.907 345.581 135.827 345.224 135.667 344.91C135.51 344.596 135.285 344.348 134.993 344.166C134.703 343.984 134.361 343.894 133.967 343.894C133.533 343.894 133.157 344.001 132.84 344.217C132.526 344.429 132.284 344.707 132.114 345.049C131.945 345.39 131.86 345.757 131.86 346.148V346.777C131.86 347.312 131.953 347.767 132.137 348.139C132.325 348.509 132.586 348.791 132.918 348.985C133.251 349.176 133.637 349.271 134.078 349.271C134.364 349.271 134.623 349.231 134.854 349.151C135.088 349.068 135.29 348.945 135.459 348.782C135.629 348.615 135.76 348.409 135.852 348.163L136.905 348.458C136.795 348.816 136.608 349.13 136.346 349.401C136.085 349.669 135.761 349.878 135.376 350.029C134.991 350.177 134.558 350.251 134.078 350.251ZM143.424 345.834V350.103H142.334V343.006H143.387V344.115H143.48C143.646 343.755 143.899 343.465 144.238 343.247C144.576 343.025 145.014 342.914 145.55 342.914C146.03 342.914 146.451 343.013 146.811 343.21C147.171 343.404 147.452 343.7 147.652 344.097C147.852 344.491 147.952 344.99 147.952 345.594V350.103H146.862V345.668C146.862 345.11 146.717 344.676 146.428 344.365C146.138 344.051 145.741 343.894 145.236 343.894C144.887 343.894 144.576 343.969 144.302 344.12C144.031 344.271 143.817 344.491 143.66 344.781C143.503 345.07 143.424 345.421 143.424 345.834ZM152.828 350.251C152.187 350.251 151.625 350.098 151.141 349.793C150.661 349.489 150.285 349.062 150.014 348.514C149.746 347.965 149.612 347.325 149.612 346.592C149.612 345.852 149.746 345.207 150.014 344.656C150.285 344.105 150.661 343.676 151.141 343.371C151.625 343.067 152.187 342.914 152.828 342.914C153.468 342.914 154.029 343.067 154.509 343.371C154.993 343.676 155.369 344.105 155.637 344.656C155.908 345.207 156.043 345.852 156.043 346.592C156.043 347.325 155.908 347.965 155.637 348.514C155.369 349.062 154.993 349.489 154.509 349.793C154.029 350.098 153.468 350.251 152.828 350.251ZM152.828 349.271C153.314 349.271 153.715 349.147 154.029 348.897C154.343 348.648 154.576 348.32 154.726 347.913C154.877 347.507 154.953 347.066 154.953 346.592C154.953 346.117 154.877 345.675 154.726 345.266C154.576 344.856 154.343 344.525 154.029 344.272C153.715 344.02 153.314 343.894 152.828 343.894C152.341 343.894 151.941 344.02 151.626 344.272C151.312 344.525 151.08 344.856 150.929 345.266C150.778 345.675 150.702 346.117 150.702 346.592C150.702 347.066 150.778 347.507 150.929 347.913C151.08 348.32 151.312 348.648 151.626 348.897C151.941 349.147 152.341 349.271 152.828 349.271ZM157.708 350.103V343.006H158.761V344.078H158.835C158.964 343.727 159.198 343.442 159.537 343.224C159.876 343.005 160.258 342.896 160.683 342.896C160.763 342.896 160.863 342.897 160.983 342.9C161.103 342.903 161.194 342.908 161.256 342.914V344.023C161.219 344.014 161.134 344 161.002 343.981C160.872 343.96 160.735 343.949 160.591 343.949C160.246 343.949 159.938 344.021 159.667 344.166C159.399 344.308 159.186 344.505 159.029 344.758C158.875 345.007 158.798 345.292 158.798 345.612V350.103H157.708ZM164.359 345.963L164.433 343.931L162.715 345.021L162.271 344.245L164.082 343.302L162.271 342.36L162.715 341.583L164.433 342.674L164.359 340.641H165.247L165.173 342.674L166.891 341.583L167.335 342.36L165.524 343.302L167.335 344.245L166.891 345.021L165.173 343.931L165.247 345.963H164.359ZM170.865 345.963L170.939 343.931L169.22 345.021L168.776 344.245L170.587 343.302L168.776 342.36L169.22 341.583L170.939 342.674L170.865 340.641H171.752L171.678 342.674L173.396 341.583L173.84 342.36L172.029 343.302L173.84 344.245L173.396 345.021L171.678 343.931L171.752 345.963H170.865ZM177.37 345.963L177.444 343.931L175.725 345.021L175.281 344.245L177.093 343.302L175.281 342.36L175.725 341.583L177.444 342.674L177.37 340.641H178.257L178.183 342.674L179.902 341.583L180.345 342.36L178.534 343.302L180.345 344.245L179.902 345.021L178.183 343.931L178.257 345.963H177.37ZM183.875 345.963L183.949 343.931L182.23 345.021L181.787 344.245L183.598 343.302L181.787 342.36L182.23 341.583L183.949 342.674L183.875 340.641H184.762L184.688 342.674L186.407 341.583L186.85 342.36L185.039 343.302L186.85 344.245L186.407 345.021L184.688 343.931L184.762 345.963H183.875ZM190.38 345.963L190.454 343.931L188.735 345.021L188.292 344.245L190.103 343.302L188.292 342.36L188.735 341.583L190.454 342.674L190.38 340.641H191.267L191.193 342.674L192.912 341.583L193.355 342.36L191.544 343.302L193.355 344.245L192.912 345.021L191.193 343.931L191.267 345.963H190.38ZM196.885 345.963L196.959 343.931L195.24 345.021L194.797 344.245L196.608 343.302L194.797 342.36L195.24 341.583L196.959 342.674L196.885 340.641H197.772L197.698 342.674L199.417 341.583L199.861 342.36L198.05 343.302L199.861 344.245L199.417 345.021L197.698 343.931L197.772 345.963H196.885ZM203.39 345.963L203.464 343.931L201.746 345.021L201.302 344.245L203.113 343.302L201.302 342.36L201.746 341.583L203.464 342.674L203.39 340.641H204.277L204.204 342.674L205.922 341.583L206.366 342.36L204.555 343.302L206.366 344.245L205.922 345.021L204.204 343.931L204.277 345.963H203.39ZM213.536 352.598C212.594 352.598 211.761 352.469 211.037 352.21C210.313 351.954 209.705 351.577 209.212 351.078C208.719 350.579 208.346 349.968 208.094 349.244C207.841 348.52 207.715 347.691 207.715 346.758C207.715 345.856 207.843 345.049 208.098 344.337C208.357 343.626 208.731 343.022 209.221 342.526C209.714 342.027 210.311 341.647 211.014 341.385C211.719 341.123 212.517 340.992 213.407 340.992C214.272 340.992 215.03 341.134 215.68 341.417C216.333 341.697 216.878 342.078 217.315 342.558C217.756 343.036 218.086 343.573 218.304 344.171C218.526 344.768 218.637 345.384 218.637 346.019C218.637 346.465 218.615 346.918 218.572 347.377C218.529 347.836 218.438 348.258 218.3 348.643C218.161 349.025 217.947 349.333 217.657 349.567C217.371 349.801 216.983 349.918 216.493 349.918C216.277 349.918 216.04 349.884 215.782 349.817C215.523 349.749 215.293 349.636 215.093 349.479C214.893 349.322 214.774 349.111 214.737 348.846H214.682C214.608 349.025 214.494 349.194 214.34 349.355C214.189 349.515 213.991 349.643 213.744 349.738C213.501 349.834 213.204 349.875 212.852 349.863C212.452 349.847 212.099 349.758 211.794 349.595C211.489 349.428 211.234 349.204 211.027 348.92C210.824 348.634 210.67 348.303 210.565 347.927C210.464 347.548 210.413 347.14 210.413 346.703C210.413 346.287 210.475 345.906 210.598 345.561C210.721 345.216 210.892 344.915 211.111 344.656C211.332 344.397 211.591 344.191 211.887 344.037C212.186 343.88 212.507 343.783 212.852 343.746C213.16 343.715 213.441 343.729 213.693 343.787C213.946 343.843 214.154 343.927 214.317 344.041C214.48 344.152 214.583 344.275 214.627 344.411H214.682V343.894H215.661V348.07C215.661 348.329 215.734 348.557 215.879 348.754C216.023 348.951 216.234 349.05 216.512 349.05C216.826 349.05 217.066 348.942 217.232 348.726C217.402 348.511 217.517 348.178 217.579 347.728C217.644 347.279 217.676 346.703 217.676 346C217.676 345.588 217.619 345.181 217.505 344.781C217.394 344.377 217.225 344 216.997 343.649C216.772 343.298 216.487 342.988 216.142 342.72C215.797 342.452 215.392 342.243 214.927 342.092C214.465 341.938 213.94 341.861 213.351 341.861C212.628 341.861 211.979 341.973 211.406 342.198C210.837 342.42 210.351 342.745 209.951 343.173C209.554 343.598 209.25 344.115 209.041 344.725C208.834 345.332 208.731 346.022 208.731 346.795C208.731 347.58 208.834 348.278 209.041 348.888C209.25 349.498 209.558 350.012 209.965 350.431C210.375 350.85 210.881 351.167 211.485 351.383C212.089 351.601 212.785 351.711 213.573 351.711C213.912 351.711 214.246 351.678 214.576 351.614C214.905 351.549 215.196 351.478 215.449 351.401C215.702 351.324 215.883 351.267 215.994 351.23L216.253 352.08C216.062 352.161 215.812 352.241 215.504 352.321C215.199 352.401 214.873 352.467 214.525 352.519C214.18 352.572 213.85 352.598 213.536 352.598ZM213 348.92C213.413 348.92 213.747 348.837 214.003 348.671C214.258 348.504 214.445 348.253 214.562 347.918C214.679 347.582 214.737 347.158 214.737 346.647C214.737 346.13 214.673 345.726 214.543 345.437C214.414 345.147 214.223 344.944 213.971 344.827C213.718 344.71 213.407 344.651 213.037 344.651C212.686 344.651 212.386 344.744 212.136 344.928C211.89 345.11 211.7 345.354 211.568 345.658C211.439 345.96 211.374 346.29 211.374 346.647C211.374 347.041 211.426 347.413 211.531 347.761C211.636 348.106 211.807 348.386 212.044 348.601C212.281 348.814 212.6 348.92 213 348.92ZM223.133 352.912C222.607 352.912 222.154 352.844 221.775 352.709C221.396 352.576 221.081 352.401 220.828 352.182C220.578 351.966 220.38 351.735 220.232 351.489L221.101 350.879C221.199 351.009 221.324 351.156 221.475 351.323C221.626 351.492 221.832 351.638 222.094 351.762C222.359 351.888 222.705 351.951 223.133 351.951C223.706 351.951 224.179 351.812 224.552 351.535C224.924 351.258 225.111 350.824 225.111 350.232V348.791H225.018C224.938 348.92 224.824 349.08 224.677 349.271C224.532 349.459 224.322 349.627 224.048 349.775C223.777 349.92 223.411 349.992 222.949 349.992C222.376 349.992 221.861 349.857 221.405 349.586C220.953 349.315 220.594 348.92 220.329 348.403C220.067 347.885 219.936 347.257 219.936 346.518C219.936 345.791 220.064 345.158 220.32 344.619C220.575 344.077 220.931 343.658 221.387 343.362C221.843 343.063 222.37 342.914 222.967 342.914C223.429 342.914 223.796 342.991 224.067 343.145C224.341 343.296 224.55 343.469 224.695 343.663C224.843 343.854 224.957 344.011 225.037 344.134H225.148V343.006H226.201V350.306C226.201 350.916 226.063 351.412 225.785 351.794C225.511 352.179 225.142 352.461 224.677 352.639C224.215 352.821 223.7 352.912 223.133 352.912ZM223.096 349.013C223.534 349.013 223.903 348.913 224.205 348.712C224.507 348.512 224.737 348.224 224.894 347.848C225.051 347.473 225.129 347.023 225.129 346.499C225.129 345.988 225.052 345.537 224.898 345.146C224.744 344.754 224.516 344.448 224.215 344.226C223.913 344.004 223.54 343.894 223.096 343.894C222.634 343.894 222.249 344.011 221.941 344.245C221.636 344.479 221.407 344.793 221.253 345.187C221.102 345.581 221.027 346.019 221.027 346.499C221.027 346.992 221.104 347.428 221.258 347.807C221.415 348.183 221.646 348.478 221.951 348.694C222.259 348.906 222.641 349.013 223.096 349.013ZM228.197 350.103V343.006H229.25V344.115H229.343C229.491 343.736 229.729 343.442 230.059 343.233C230.389 343.02 230.784 342.914 231.246 342.914C231.715 342.914 232.104 343.02 232.415 343.233C232.729 343.442 232.974 343.736 233.15 344.115H233.224C233.406 343.749 233.678 343.458 234.042 343.242C234.405 343.023 234.841 342.914 235.349 342.914C235.984 342.914 236.503 343.113 236.906 343.51C237.31 343.904 237.511 344.519 237.511 345.354V350.103H236.421V345.354C236.421 344.83 236.278 344.456 235.991 344.231C235.705 344.006 235.368 343.894 234.979 343.894C234.48 343.894 234.094 344.044 233.82 344.346C233.546 344.645 233.409 345.024 233.409 345.483V350.103H232.3V345.243C232.3 344.839 232.169 344.514 231.907 344.268C231.645 344.018 231.308 343.894 230.895 343.894C230.612 343.894 230.347 343.969 230.101 344.12C229.857 344.271 229.66 344.48 229.509 344.748C229.361 345.013 229.287 345.32 229.287 345.668V350.103H228.197ZM241.593 350.269C241.143 350.269 240.735 350.185 240.369 350.015C240.002 349.843 239.711 349.595 239.496 349.271C239.28 348.945 239.172 348.551 239.172 348.089C239.172 347.682 239.252 347.353 239.412 347.1C239.573 346.844 239.787 346.644 240.055 346.499C240.323 346.355 240.618 346.247 240.942 346.176C241.268 346.102 241.596 346.043 241.926 346C242.357 345.945 242.707 345.903 242.975 345.876C243.246 345.845 243.443 345.794 243.566 345.723C243.692 345.652 243.755 345.529 243.755 345.354V345.317C243.755 344.861 243.631 344.506 243.381 344.254C243.135 344.001 242.761 343.875 242.258 343.875C241.738 343.875 241.33 343.989 241.034 344.217C240.738 344.445 240.531 344.688 240.41 344.947L239.375 344.577C239.56 344.146 239.807 343.81 240.115 343.57C240.426 343.327 240.765 343.157 241.131 343.062C241.501 342.963 241.864 342.914 242.222 342.914C242.449 342.914 242.711 342.942 243.007 342.997C243.306 343.05 243.594 343.159 243.871 343.325C244.151 343.492 244.384 343.743 244.569 344.078C244.753 344.414 244.846 344.864 244.846 345.427V350.103H243.755V349.142H243.7C243.626 349.296 243.503 349.461 243.33 349.636C243.158 349.812 242.928 349.961 242.642 350.085C242.355 350.208 242.006 350.269 241.593 350.269ZM241.759 349.29C242.191 349.29 242.554 349.205 242.85 349.036C243.149 348.866 243.373 348.648 243.524 348.38C243.678 348.112 243.755 347.83 243.755 347.534V346.536C243.709 346.592 243.608 346.643 243.45 346.689C243.296 346.732 243.118 346.77 242.915 346.804C242.714 346.835 242.519 346.863 242.328 346.887C242.14 346.909 241.987 346.927 241.87 346.943C241.587 346.98 241.322 347.04 241.076 347.123C240.832 347.203 240.635 347.325 240.484 347.488C240.336 347.648 240.263 347.867 240.263 348.144C240.263 348.523 240.403 348.809 240.683 349.003C240.966 349.194 241.325 349.29 241.759 349.29ZM246.836 350.103V343.006H247.926V350.103H246.836ZM247.39 341.824C247.178 341.824 246.994 341.751 246.84 341.607C246.69 341.462 246.614 341.288 246.614 341.085C246.614 340.881 246.69 340.707 246.84 340.562C246.994 340.418 247.178 340.345 247.39 340.345C247.603 340.345 247.785 340.418 247.935 340.562C248.089 340.707 248.166 340.881 248.166 341.085C248.166 341.288 248.089 341.462 247.935 341.607C247.785 341.751 247.603 341.824 247.39 341.824ZM251.014 340.641V350.103H249.923V340.641H251.014ZM253.805 350.177C253.577 350.177 253.382 350.095 253.219 349.932C253.055 349.769 252.974 349.573 252.974 349.345C252.974 349.117 253.055 348.922 253.219 348.759C253.382 348.595 253.577 348.514 253.805 348.514C254.033 348.514 254.229 348.595 254.392 348.759C254.555 348.922 254.637 349.117 254.637 349.345C254.637 349.496 254.598 349.635 254.521 349.761C254.448 349.887 254.347 349.989 254.221 350.066C254.098 350.14 253.959 350.177 253.805 350.177ZM259.477 350.251C258.811 350.251 258.238 350.094 257.758 349.78C257.277 349.465 256.908 349.033 256.649 348.481C256.39 347.93 256.261 347.3 256.261 346.592C256.261 345.871 256.393 345.235 256.658 344.684C256.926 344.129 257.299 343.696 257.776 343.385C258.257 343.071 258.817 342.914 259.458 342.914C259.957 342.914 260.407 343.006 260.807 343.191C261.208 343.376 261.536 343.635 261.791 343.967C262.047 344.3 262.206 344.688 262.267 345.132H261.177C261.094 344.808 260.909 344.522 260.622 344.272C260.339 344.02 259.957 343.894 259.477 343.894C259.052 343.894 258.679 344.004 258.359 344.226C258.041 344.445 257.793 344.754 257.615 345.155C257.439 345.552 257.351 346.019 257.351 346.555C257.351 347.103 257.438 347.58 257.61 347.987C257.786 348.394 258.032 348.709 258.349 348.934C258.67 349.159 259.045 349.271 259.477 349.271C259.76 349.271 260.017 349.222 260.248 349.124C260.479 349.025 260.675 348.883 260.835 348.699C260.995 348.514 261.109 348.292 261.177 348.033H262.267C262.206 348.452 262.053 348.829 261.81 349.165C261.569 349.498 261.251 349.763 260.853 349.96C260.459 350.154 260 350.251 259.477 350.251ZM266.744 350.251C266.103 350.251 265.541 350.098 265.058 349.793C264.577 349.489 264.201 349.062 263.93 348.514C263.662 347.965 263.528 347.325 263.528 346.592C263.528 345.852 263.662 345.207 263.93 344.656C264.201 344.105 264.577 343.676 265.058 343.371C265.541 343.067 266.103 342.914 266.744 342.914C267.385 342.914 267.945 343.067 268.426 343.371C268.909 343.676 269.285 344.105 269.553 344.656C269.824 345.207 269.96 345.852 269.96 346.592C269.96 347.325 269.824 347.965 269.553 348.514C269.285 349.062 268.909 349.489 268.426 349.793C267.945 350.098 267.385 350.251 266.744 350.251ZM266.744 349.271C267.231 349.271 267.631 349.147 267.945 348.897C268.259 348.648 268.492 348.32 268.643 347.913C268.794 347.507 268.869 347.066 268.869 346.592C268.869 346.117 268.794 345.675 268.643 345.266C268.492 344.856 268.259 344.525 267.945 344.272C267.631 344.02 267.231 343.894 266.744 343.894C266.257 343.894 265.857 344.02 265.543 344.272C265.229 344.525 264.996 344.856 264.845 345.266C264.694 345.675 264.619 346.117 264.619 346.592C264.619 347.066 264.694 347.507 264.845 347.913C264.996 348.32 265.229 348.648 265.543 348.897C265.857 349.147 266.257 349.271 266.744 349.271ZM271.624 350.103V343.006H272.677V344.115H272.77C272.918 343.736 273.156 343.442 273.486 343.233C273.816 343.02 274.211 342.914 274.673 342.914C275.142 342.914 275.531 343.02 275.842 343.233C276.156 343.442 276.401 343.736 276.577 344.115H276.651C276.833 343.749 277.105 343.458 277.469 343.242C277.832 343.023 278.268 342.914 278.776 342.914C279.411 342.914 279.93 343.113 280.333 343.51C280.737 343.904 280.938 344.519 280.938 345.354V350.103H279.848V345.354C279.848 344.83 279.705 344.456 279.418 344.231C279.132 344.006 278.795 343.894 278.406 343.894C277.907 343.894 277.521 344.044 277.247 344.346C276.973 344.645 276.836 345.024 276.836 345.483V350.103H275.727V345.243C275.727 344.839 275.596 344.514 275.334 344.268C275.072 344.018 274.735 343.894 274.322 343.894C274.039 343.894 273.774 343.969 273.528 344.12C273.284 344.271 273.087 344.48 272.936 344.748C272.788 345.013 272.714 345.32 272.714 345.668V350.103H271.624Z" fill="black"/>
<path d="M70.951 521.406V511.944H74.2591C74.9182 511.944 75.4618 512.058 75.89 512.286C76.3181 512.51 76.6369 512.814 76.8463 513.196C77.0558 513.575 77.1605 513.995 77.1605 514.457C77.1605 514.864 77.0881 515.199 76.9434 515.464C76.8017 515.729 76.6138 515.939 76.3797 516.093C76.1487 516.247 75.8977 516.361 75.6266 516.434V516.527C75.9162 516.545 76.2072 516.647 76.4998 516.832C76.7924 517.017 77.0373 517.282 77.2344 517.626C77.4316 517.971 77.5301 518.393 77.5301 518.892C77.5301 519.367 77.4223 519.793 77.2067 520.172C76.9911 520.551 76.6508 520.851 76.1857 521.073C75.7206 521.295 75.1153 521.406 74.3699 521.406H70.951ZM72.0968 520.389H74.3699C75.1184 520.389 75.6497 520.245 75.9639 519.955C76.2811 519.662 76.4398 519.308 76.4398 518.892C76.4398 518.572 76.3581 518.276 76.1949 518.005C76.0317 517.731 75.7991 517.513 75.4973 517.349C75.1954 517.183 74.8381 517.1 74.4254 517.1H72.0968V520.389ZM72.0968 516.102H74.2221C74.5671 516.102 74.8782 516.034 75.1554 515.899C75.4357 515.763 75.6574 515.572 75.8207 515.326C75.987 515.079 76.0702 514.79 76.0702 514.457C76.0702 514.041 75.9254 513.689 75.6359 513.399C75.3463 513.106 74.8874 512.96 74.2591 512.96H72.0968V516.102ZM82.2404 521.554C81.5566 521.554 80.9667 521.403 80.4708 521.101C79.978 520.796 79.5976 520.371 79.3297 519.826C79.0648 519.277 78.9323 518.64 78.9323 517.913C78.9323 517.186 79.0648 516.545 79.3297 515.991C79.5976 515.433 79.9703 514.999 80.4477 514.688C80.9282 514.374 81.4888 514.217 82.1295 514.217C82.4991 514.217 82.8641 514.278 83.2244 514.402C83.5848 514.525 83.9128 514.725 84.2085 515.002C84.5042 515.276 84.7399 515.64 84.9154 516.093C85.091 516.545 85.1788 517.103 85.1788 517.765V518.227H79.7085V517.285H84.0699C84.0699 516.884 83.9898 516.527 83.8297 516.213C83.6726 515.899 83.4478 515.651 83.1551 515.469C82.8656 515.287 82.5237 515.196 82.1295 515.196C81.6952 515.196 81.3194 515.304 81.0022 515.52C80.688 515.732 80.4462 516.009 80.2768 516.351C80.1074 516.693 80.0227 517.06 80.0227 517.451V518.079C80.0227 518.615 80.1151 519.07 80.2999 519.442C80.4878 519.812 80.7481 520.094 81.0807 520.288C81.4134 520.479 81.7999 520.574 82.2404 520.574C82.5268 520.574 82.7855 520.534 83.0165 520.454C83.2506 520.371 83.4524 520.248 83.6218 520.084C83.7912 519.918 83.9221 519.712 84.0145 519.465L85.0679 519.761C84.957 520.118 84.7707 520.432 84.5088 520.704C84.247 520.971 83.9236 521.181 83.5386 521.332C83.1536 521.48 82.7209 521.554 82.2404 521.554ZM87.9277 511.944V521.406H86.8374V511.944H87.9277ZM94.3971 518.504V514.309H95.4874V521.406H94.3971V520.205H94.3232C94.1568 520.565 93.8981 520.871 93.547 521.124C93.1959 521.373 92.7523 521.498 92.2164 521.498C91.7729 521.498 91.3786 521.401 91.0336 521.207C90.6887 521.01 90.4176 520.714 90.2205 520.32C90.0234 519.923 89.9248 519.422 89.9248 518.818V514.309H91.0152V518.745C91.0152 519.262 91.1599 519.675 91.4494 519.983C91.7421 520.291 92.1147 520.445 92.5675 520.445C92.8386 520.445 93.1142 520.375 93.3945 520.237C93.6779 520.098 93.9151 519.886 94.106 519.599C94.3001 519.313 94.3971 518.948 94.3971 518.504ZM97.4845 521.406V514.309H98.5379V515.418H98.6303C98.7781 515.039 99.0169 514.745 99.3464 514.536C99.676 514.323 100.072 514.217 100.534 514.217C101.002 514.217 101.392 514.323 101.703 514.536C102.017 514.745 102.262 515.039 102.437 515.418H102.511C102.693 515.052 102.966 514.76 103.329 514.545C103.692 514.326 104.128 514.217 104.636 514.217C105.271 514.217 105.79 514.415 106.193 514.813C106.597 515.207 106.799 515.822 106.799 516.656V521.406H105.708V516.656C105.708 516.133 105.565 515.758 105.279 515.534C104.992 515.309 104.655 515.196 104.267 515.196C103.768 515.196 103.381 515.347 103.107 515.649C102.833 515.948 102.696 516.327 102.696 516.786V521.406H101.587V516.545C101.587 516.142 101.456 515.817 101.194 515.571C100.933 515.321 100.595 515.196 100.183 515.196C99.8993 515.196 99.6344 515.272 99.388 515.423C99.1447 515.574 98.9475 515.783 98.7966 516.051C98.6488 516.316 98.5749 516.622 98.5749 516.97V521.406H97.4845ZM112.451 521.406V514.309H113.505V515.418H113.597C113.745 515.039 113.984 514.745 114.313 514.536C114.643 514.323 115.039 514.217 115.501 514.217C115.969 514.217 116.359 514.323 116.67 514.536C116.984 514.745 117.229 515.039 117.404 515.418H117.478C117.66 515.052 117.932 514.76 118.296 514.545C118.659 514.326 119.095 514.217 119.603 514.217C120.238 514.217 120.757 514.415 121.16 514.813C121.564 515.207 121.766 515.822 121.766 516.656V521.406H120.675V516.656C120.675 516.133 120.532 515.758 120.246 515.534C119.959 515.309 119.622 515.196 119.234 515.196C118.735 515.196 118.348 515.347 118.074 515.649C117.8 515.948 117.663 516.327 117.663 516.786V521.406H116.554V516.545C116.554 516.142 116.423 515.817 116.161 515.571C115.9 515.321 115.562 515.196 115.15 515.196C114.866 515.196 114.601 515.272 114.355 515.423C114.112 515.574 113.914 515.783 113.764 516.051C113.616 516.316 113.542 516.622 113.542 516.97V521.406H112.451ZM126.735 521.554C126.051 521.554 125.461 521.403 124.965 521.101C124.472 520.796 124.092 520.371 123.824 519.826C123.559 519.277 123.427 518.64 123.427 517.913C123.427 517.186 123.559 516.545 123.824 515.991C124.092 515.433 124.465 514.999 124.942 514.688C125.422 514.374 125.983 514.217 126.624 514.217C126.993 514.217 127.358 514.278 127.719 514.402C128.079 514.525 128.407 514.725 128.703 515.002C128.998 515.276 129.234 515.64 129.41 516.093C129.585 516.545 129.673 517.103 129.673 517.765V518.227H124.203V517.285H128.564C128.564 516.884 128.484 516.527 128.324 516.213C128.167 515.899 127.942 515.651 127.649 515.469C127.36 515.287 127.018 515.196 126.624 515.196C126.189 515.196 125.814 515.304 125.496 515.52C125.182 515.732 124.94 516.009 124.771 516.351C124.602 516.693 124.517 517.06 124.517 517.451V518.079C124.517 518.615 124.609 519.07 124.794 519.442C124.982 519.812 125.242 520.094 125.575 520.288C125.908 520.479 126.294 520.574 126.735 520.574C127.021 520.574 127.28 520.534 127.511 520.454C127.745 520.371 127.947 520.248 128.116 520.084C128.285 519.918 128.416 519.712 128.509 519.465L129.562 519.761C129.451 520.118 129.265 520.432 129.003 520.704C128.741 520.971 128.418 521.181 128.033 521.332C127.648 521.48 127.215 521.554 126.735 521.554ZM132.422 517.137V521.406H131.332V514.309H132.385V515.418H132.477C132.644 515.058 132.896 514.768 133.235 514.549C133.574 514.328 134.011 514.217 134.547 514.217C135.028 514.217 135.448 514.315 135.809 514.513C136.169 514.707 136.449 515.002 136.649 515.4C136.85 515.794 136.95 516.293 136.95 516.897V521.406H135.859V516.97C135.859 516.413 135.715 515.979 135.425 515.668C135.136 515.353 134.738 515.196 134.233 515.196C133.885 515.196 133.574 515.272 133.3 515.423C133.029 515.574 132.815 515.794 132.658 516.083C132.501 516.373 132.422 516.724 132.422 517.137ZM141.918 521.554C141.234 521.554 140.644 521.403 140.148 521.101C139.655 520.796 139.275 520.371 139.007 519.826C138.742 519.277 138.61 518.64 138.61 517.913C138.61 517.186 138.742 516.545 139.007 515.991C139.275 515.433 139.648 514.999 140.125 514.688C140.605 514.374 141.166 514.217 141.807 514.217C142.176 514.217 142.541 514.278 142.902 514.402C143.262 514.525 143.59 514.725 143.886 515.002C144.181 515.276 144.417 515.64 144.593 516.093C144.768 516.545 144.856 517.103 144.856 517.765V518.227H139.386V517.285H143.747C143.747 516.884 143.667 516.527 143.507 516.213C143.35 515.899 143.125 515.651 142.832 515.469C142.543 515.287 142.201 515.196 141.807 515.196C141.372 515.196 140.997 515.304 140.679 515.52C140.365 515.732 140.123 516.009 139.954 516.351C139.785 516.693 139.7 517.06 139.7 517.451V518.079C139.7 518.615 139.792 519.07 139.977 519.442C140.165 519.812 140.425 520.094 140.758 520.288C141.091 520.479 141.477 520.574 141.918 520.574C142.204 520.574 142.463 520.534 142.694 520.454C142.928 520.371 143.13 520.248 143.299 520.084C143.468 519.918 143.599 519.712 143.692 519.465L144.745 519.761C144.634 520.118 144.448 520.432 144.186 520.704C143.924 520.971 143.601 521.181 143.216 521.332C142.831 521.48 142.398 521.554 141.918 521.554ZM146.515 521.406V514.309H147.568V515.381H147.642C147.771 515.03 148.005 514.745 148.344 514.526C148.683 514.308 149.065 514.198 149.49 514.198C149.57 514.198 149.67 514.2 149.79 514.203C149.91 514.206 150.001 514.211 150.063 514.217V515.326C150.026 515.316 149.941 515.303 149.809 515.284C149.679 515.263 149.542 515.252 149.398 515.252C149.053 515.252 148.745 515.324 148.474 515.469C148.206 515.611 147.993 515.808 147.836 516.06C147.682 516.31 147.605 516.595 147.605 516.915V521.406H146.515ZM151.355 521.406V514.309H152.446V521.406H151.355ZM151.91 513.126C151.697 513.126 151.514 513.054 151.36 512.909C151.209 512.765 151.134 512.591 151.134 512.387C151.134 512.184 151.209 512.01 151.36 511.865C151.514 511.72 151.697 511.648 151.91 511.648C152.122 511.648 152.304 511.72 152.455 511.865C152.609 512.01 152.686 512.184 152.686 512.387C152.686 512.591 152.609 512.765 152.455 512.909C152.304 513.054 152.122 513.126 151.91 513.126ZM154.443 521.406V514.309H155.496V515.418H155.589C155.736 515.039 155.975 514.745 156.305 514.536C156.634 514.323 157.03 514.217 157.492 514.217C157.96 514.217 158.35 514.323 158.661 514.536C158.975 514.745 159.22 515.039 159.396 515.418H159.469C159.651 515.052 159.924 514.76 160.287 514.545C160.651 514.326 161.086 514.217 161.595 514.217C162.229 514.217 162.748 514.415 163.152 514.813C163.555 515.207 163.757 515.822 163.757 516.656V521.406H162.667V516.656C162.667 516.133 162.523 515.758 162.237 515.534C161.95 515.309 161.613 515.196 161.225 515.196C160.726 515.196 160.34 515.347 160.065 515.649C159.791 515.948 159.654 516.327 159.654 516.786V521.406H158.545V516.545C158.545 516.142 158.415 515.817 158.153 515.571C157.891 515.321 157.554 515.196 157.141 515.196C156.858 515.196 156.593 515.272 156.346 515.423C156.103 515.574 155.906 515.783 155.755 516.051C155.607 516.316 155.533 516.622 155.533 516.97V521.406H154.443ZM167.839 521.572C167.389 521.572 166.981 521.487 166.614 521.318C166.248 521.145 165.957 520.898 165.741 520.574C165.526 520.248 165.418 519.853 165.418 519.391C165.418 518.985 165.498 518.655 165.658 518.403C165.818 518.147 166.032 517.947 166.3 517.802C166.568 517.657 166.864 517.549 167.187 517.479C167.514 517.405 167.842 517.346 168.171 517.303C168.603 517.248 168.952 517.206 169.22 517.178C169.491 517.148 169.688 517.097 169.812 517.026C169.938 516.955 170.001 516.832 170.001 516.656V516.619C170.001 516.163 169.876 515.809 169.627 515.557C169.38 515.304 169.006 515.178 168.504 515.178C167.984 515.178 167.575 515.292 167.28 515.52C166.984 515.748 166.776 515.991 166.656 516.25L165.621 515.88C165.806 515.449 166.052 515.113 166.36 514.873C166.671 514.63 167.01 514.46 167.377 514.365C167.746 514.266 168.11 514.217 168.467 514.217C168.695 514.217 168.957 514.245 169.253 514.3C169.551 514.352 169.839 514.462 170.117 514.628C170.397 514.794 170.629 515.045 170.814 515.381C170.999 515.717 171.091 516.167 171.091 516.73V521.406H170.001V520.445H169.946C169.872 520.599 169.748 520.764 169.576 520.939C169.404 521.115 169.174 521.264 168.888 521.387C168.601 521.51 168.252 521.572 167.839 521.572ZM168.005 520.593C168.436 520.593 168.8 520.508 169.096 520.339C169.394 520.169 169.619 519.95 169.77 519.682C169.924 519.414 170.001 519.133 170.001 518.837V517.839C169.955 517.894 169.853 517.945 169.696 517.991C169.542 518.035 169.363 518.073 169.16 518.107C168.96 518.138 168.764 518.166 168.573 518.19C168.386 518.212 168.233 518.23 168.116 518.246C167.833 518.283 167.568 518.343 167.321 518.426C167.078 518.506 166.881 518.628 166.73 518.791C166.582 518.951 166.508 519.17 166.508 519.447C166.508 519.826 166.648 520.112 166.929 520.306C167.212 520.497 167.571 520.593 168.005 520.593ZM177.757 518.818L177.739 517.469H177.96L181.065 514.309H182.414L179.106 517.654H179.014L177.757 518.818ZM176.741 521.406V511.944H177.831V521.406H176.741ZM181.25 521.406L178.478 517.894L179.254 517.137L182.636 521.406H181.25ZM186.408 521.554C185.768 521.554 185.206 521.401 184.722 521.096C184.241 520.791 183.866 520.365 183.595 519.816C183.327 519.268 183.193 518.628 183.193 517.894C183.193 517.155 183.327 516.51 183.595 515.959C183.866 515.407 184.241 514.979 184.722 514.674C185.206 514.369 185.768 514.217 186.408 514.217C187.049 514.217 187.61 514.369 188.09 514.674C188.574 514.979 188.949 515.407 189.217 515.959C189.488 516.51 189.624 517.155 189.624 517.894C189.624 518.628 189.488 519.268 189.217 519.816C188.949 520.365 188.574 520.791 188.09 521.096C187.61 521.401 187.049 521.554 186.408 521.554ZM186.408 520.574C186.895 520.574 187.295 520.449 187.61 520.2C187.924 519.95 188.156 519.622 188.307 519.216C188.458 518.809 188.534 518.369 188.534 517.894C188.534 517.42 188.458 516.978 188.307 516.568C188.156 516.159 187.924 515.828 187.61 515.575C187.295 515.323 186.895 515.196 186.408 515.196C185.922 515.196 185.521 515.323 185.207 515.575C184.893 515.828 184.66 516.159 184.509 516.568C184.359 516.978 184.283 517.42 184.283 517.894C184.283 518.369 184.359 518.809 184.509 519.216C184.66 519.622 184.893 519.95 185.207 520.2C185.521 520.449 185.922 520.574 186.408 520.574ZM193.968 521.554C193.377 521.554 192.855 521.404 192.402 521.105C191.949 520.804 191.595 520.379 191.339 519.83C191.084 519.279 190.956 518.628 190.956 517.876C190.956 517.131 191.084 516.484 191.339 515.936C191.595 515.387 191.951 514.964 192.406 514.665C192.862 514.366 193.389 514.217 193.987 514.217C194.449 514.217 194.814 514.294 195.081 514.448C195.353 514.599 195.559 514.771 195.701 514.965C195.845 515.156 195.958 515.313 196.038 515.437H196.13V511.944H197.221V521.406H196.167V520.315H196.038C195.958 520.445 195.844 520.608 195.696 520.805C195.548 520.999 195.337 521.173 195.063 521.327C194.789 521.478 194.424 521.554 193.968 521.554ZM194.116 520.574C194.553 520.574 194.923 520.46 195.225 520.232C195.527 520.001 195.756 519.682 195.913 519.276C196.07 518.866 196.149 518.393 196.149 517.857C196.149 517.328 196.072 516.864 195.918 516.467C195.764 516.066 195.536 515.755 195.234 515.534C194.932 515.309 194.559 515.196 194.116 515.196C193.654 515.196 193.269 515.315 192.961 515.552C192.656 515.786 192.426 516.105 192.272 516.508C192.122 516.909 192.046 517.359 192.046 517.857C192.046 518.363 192.123 518.822 192.277 519.234C192.434 519.644 192.665 519.97 192.97 520.214C193.278 520.454 193.66 520.574 194.116 520.574ZM202.344 521.554C201.661 521.554 201.071 521.403 200.575 521.101C200.082 520.796 199.702 520.371 199.434 519.826C199.169 519.277 199.036 518.64 199.036 517.913C199.036 517.186 199.169 516.545 199.434 515.991C199.702 515.433 200.074 514.999 200.552 514.688C201.032 514.374 201.593 514.217 202.233 514.217C202.603 514.217 202.968 514.278 203.328 514.402C203.689 514.525 204.017 514.725 204.313 515.002C204.608 515.276 204.844 515.64 205.019 516.093C205.195 516.545 205.283 517.103 205.283 517.765V518.227H199.813V517.285H204.174C204.174 516.884 204.094 516.527 203.934 516.213C203.777 515.899 203.552 515.651 203.259 515.469C202.97 515.287 202.628 515.196 202.233 515.196C201.799 515.196 201.423 515.304 201.106 515.52C200.792 515.732 200.55 516.009 200.381 516.351C200.211 516.693 200.127 517.06 200.127 517.451V518.079C200.127 518.615 200.219 519.07 200.404 519.442C200.592 519.812 200.852 520.094 201.185 520.288C201.517 520.479 201.904 520.574 202.344 520.574C202.631 520.574 202.89 520.534 203.121 520.454C203.355 520.371 203.556 520.248 203.726 520.084C203.895 519.918 204.026 519.712 204.118 519.465L205.172 519.761C205.061 520.118 204.875 520.432 204.613 520.704C204.351 520.971 204.028 521.181 203.643 521.332C203.258 521.48 202.825 521.554 202.344 521.554ZM208.364 518.745V518.689C208.371 518.101 208.432 517.633 208.549 517.285C208.666 516.937 208.833 516.655 209.048 516.439C209.264 516.224 209.522 516.025 209.824 515.843C210.006 515.732 210.169 515.601 210.314 515.45C210.459 515.296 210.573 515.119 210.656 514.919C210.742 514.719 210.785 514.497 210.785 514.254C210.785 513.952 210.714 513.69 210.573 513.468C210.431 513.247 210.242 513.076 210.005 512.956C209.767 512.835 209.504 512.775 209.214 512.775C208.962 512.775 208.719 512.828 208.484 512.932C208.25 513.037 208.055 513.202 207.898 513.427C207.741 513.652 207.65 513.946 207.625 514.309H206.461C206.486 513.786 206.621 513.337 206.867 512.965C207.117 512.592 207.445 512.307 207.852 512.11C208.261 511.913 208.716 511.814 209.214 511.814C209.757 511.814 210.228 511.922 210.628 512.138C211.032 512.353 211.343 512.649 211.562 513.025C211.783 513.401 211.894 513.829 211.894 514.309C211.894 514.648 211.842 514.955 211.737 515.229C211.635 515.503 211.488 515.748 211.294 515.963C211.103 516.179 210.872 516.37 210.601 516.536C210.329 516.706 210.112 516.884 209.949 517.072C209.786 517.257 209.667 517.477 209.593 517.733C209.519 517.988 209.479 518.307 209.473 518.689V518.745H208.364ZM208.956 521.48C208.728 521.48 208.532 521.398 208.369 521.235C208.206 521.072 208.124 520.876 208.124 520.648C208.124 520.42 208.206 520.225 208.369 520.061C208.532 519.898 208.728 519.816 208.956 519.816C209.184 519.816 209.379 519.898 209.543 520.061C209.706 520.225 209.787 520.42 209.787 520.648C209.787 520.799 209.749 520.938 209.672 521.064C209.598 521.19 209.498 521.292 209.372 521.369C209.248 521.443 209.11 521.48 208.956 521.48ZM218.211 518.818L218.193 517.469H218.414L221.519 514.309H222.868L219.56 517.654H219.468L218.211 518.818ZM217.195 521.406V511.944H218.285V521.406H217.195ZM221.704 521.406L218.932 517.894L219.708 517.137L223.09 521.406H221.704ZM224.272 521.406V514.309H225.362V521.406H224.272ZM224.826 513.126C224.613 513.126 224.43 513.054 224.276 512.909C224.125 512.765 224.05 512.591 224.05 512.387C224.05 512.184 224.125 512.01 224.276 511.865C224.43 511.72 224.613 511.648 224.826 511.648C225.038 511.648 225.22 511.72 225.371 511.865C225.525 512.01 225.602 512.184 225.602 512.387C225.602 512.591 225.525 512.765 225.371 512.909C225.22 513.054 225.038 513.126 224.826 513.126ZM227.359 521.406V514.309H228.412V515.381H228.486C228.616 515.03 228.85 514.745 229.188 514.526C229.527 514.308 229.909 514.198 230.334 514.198C230.414 514.198 230.514 514.2 230.635 514.203C230.755 514.206 230.846 514.211 230.907 514.217V515.326C230.87 515.316 230.786 515.303 230.653 515.284C230.524 515.263 230.387 515.252 230.242 515.252C229.897 515.252 229.589 515.324 229.318 515.469C229.05 515.611 228.837 515.808 228.68 516.06C228.526 516.31 228.449 516.595 228.449 516.915V521.406H227.359ZM232.2 521.406V514.309H233.29V521.406H232.2ZM232.754 513.126C232.542 513.126 232.358 513.054 232.204 512.909C232.053 512.765 231.978 512.591 231.978 512.387C231.978 512.184 232.053 512.01 232.204 511.865C232.358 511.72 232.542 511.648 232.754 511.648C232.967 511.648 233.148 511.72 233.299 511.865C233.453 512.01 233.53 512.184 233.53 512.387C233.53 512.591 233.453 512.765 233.299 512.909C233.148 513.054 232.967 513.126 232.754 513.126ZM235.287 521.406V514.309H236.34V515.418H236.433C236.581 515.039 236.819 514.745 237.149 514.536C237.479 514.323 237.874 514.217 238.336 514.217C238.805 514.217 239.194 514.323 239.505 514.536C239.819 514.745 240.064 515.039 240.24 515.418H240.314C240.496 515.052 240.768 514.76 241.132 514.545C241.495 514.326 241.931 514.217 242.439 514.217C243.074 514.217 243.593 514.415 243.996 514.813C244.4 515.207 244.601 515.822 244.601 516.656V521.406H243.511V516.656C243.511 516.133 243.368 515.758 243.081 515.534C242.795 515.309 242.458 515.196 242.069 515.196C241.57 515.196 241.184 515.347 240.91 515.649C240.636 515.948 240.499 516.327 240.499 516.786V521.406H239.39V516.545C239.39 516.142 239.259 515.817 238.997 515.571C238.735 515.321 238.398 515.196 237.985 515.196C237.702 515.196 237.437 515.272 237.191 515.423C236.947 515.574 236.75 515.783 236.599 516.051C236.451 516.316 236.377 516.622 236.377 516.97V521.406H235.287ZM254.726 518.504V514.309H255.817V521.406H254.726V520.205H254.652C254.486 520.565 254.227 520.871 253.876 521.124C253.525 521.373 253.082 521.498 252.546 521.498C252.102 521.498 251.708 521.401 251.363 521.207C251.018 521.01 250.747 520.714 250.55 520.32C250.353 519.923 250.254 519.422 250.254 518.818V514.309H251.344V518.745C251.344 519.262 251.489 519.675 251.779 519.983C252.071 520.291 252.444 520.445 252.897 520.445C253.168 520.445 253.443 520.375 253.724 520.237C254.007 520.098 254.244 519.886 254.435 519.599C254.629 519.313 254.726 518.948 254.726 518.504ZM258.904 511.944V521.406H257.814V511.944H258.904ZM262.989 521.572C262.54 521.572 262.132 521.487 261.765 521.318C261.399 521.145 261.107 520.898 260.892 520.574C260.676 520.248 260.568 519.853 260.568 519.391C260.568 518.985 260.649 518.655 260.809 518.403C260.969 518.147 261.183 517.947 261.451 517.802C261.719 517.657 262.015 517.549 262.338 517.479C262.664 517.405 262.993 517.346 263.322 517.303C263.753 517.248 264.103 517.206 264.371 517.178C264.642 517.148 264.839 517.097 264.962 517.026C265.089 516.955 265.152 516.832 265.152 516.656V516.619C265.152 516.163 265.027 515.809 264.777 515.557C264.531 515.304 264.157 515.178 263.655 515.178C263.134 515.178 262.726 515.292 262.43 515.52C262.135 515.748 261.927 515.991 261.807 516.25L260.772 515.88C260.957 515.449 261.203 515.113 261.511 514.873C261.822 514.63 262.161 514.46 262.527 514.365C262.897 514.266 263.26 514.217 263.618 514.217C263.846 514.217 264.108 514.245 264.403 514.3C264.702 514.352 264.99 514.462 265.267 514.628C265.547 514.794 265.78 515.045 265.965 515.381C266.15 515.717 266.242 516.167 266.242 516.73V521.406H265.152V520.445H265.096C265.022 520.599 264.899 520.764 264.727 520.939C264.554 521.115 264.325 521.264 264.038 521.387C263.752 521.51 263.402 521.572 262.989 521.572ZM263.156 520.593C263.587 520.593 263.95 520.508 264.246 520.339C264.545 520.169 264.77 519.95 264.921 519.682C265.075 519.414 265.152 519.133 265.152 518.837V517.839C265.105 517.894 265.004 517.945 264.847 517.991C264.693 518.035 264.514 518.073 264.311 518.107C264.111 518.138 263.915 518.166 263.724 518.19C263.536 518.212 263.384 518.23 263.267 518.246C262.983 518.283 262.718 518.343 262.472 518.426C262.229 518.506 262.032 518.628 261.881 518.791C261.733 518.951 261.659 519.17 261.659 519.447C261.659 519.826 261.799 520.112 262.079 520.306C262.363 520.497 262.721 520.593 263.156 520.593ZM269.322 517.137V521.406H268.232V514.309H269.286V515.418H269.378C269.544 515.058 269.797 514.768 270.136 514.549C270.474 514.328 270.912 514.217 271.448 514.217C271.928 514.217 272.349 514.315 272.709 514.513C273.069 514.707 273.35 515.002 273.55 515.4C273.75 515.794 273.85 516.293 273.85 516.897V521.406H272.76V516.97C272.76 516.413 272.615 515.979 272.326 515.668C272.036 515.353 271.639 515.196 271.134 515.196C270.786 515.196 270.474 515.272 270.2 515.423C269.929 515.574 269.715 515.794 269.558 516.083C269.401 516.373 269.322 516.724 269.322 517.137ZM278.707 524.215C278.18 524.215 277.728 524.147 277.349 524.012C276.97 523.879 276.654 523.704 276.402 523.485C276.152 523.269 275.954 523.038 275.806 522.792L276.674 522.182C276.773 522.311 276.898 522.459 277.049 522.625C277.199 522.795 277.406 522.941 277.668 523.064C277.933 523.191 278.279 523.254 278.707 523.254C279.28 523.254 279.753 523.115 280.126 522.838C280.498 522.561 280.685 522.127 280.685 521.535V520.094H280.592C280.512 520.223 280.398 520.383 280.25 520.574C280.106 520.762 279.896 520.93 279.622 521.078C279.351 521.222 278.984 521.295 278.522 521.295C277.949 521.295 277.435 521.159 276.979 520.888C276.526 520.617 276.168 520.223 275.903 519.706C275.641 519.188 275.51 518.56 275.51 517.821C275.51 517.094 275.638 516.461 275.893 515.922C276.149 515.38 276.505 514.961 276.961 514.665C277.417 514.366 277.943 514.217 278.541 514.217C279.003 514.217 279.369 514.294 279.64 514.448C279.915 514.599 280.124 514.771 280.269 514.965C280.417 515.156 280.531 515.313 280.611 515.437H280.722V514.309H281.775V521.609C281.775 522.219 281.636 522.715 281.359 523.097C281.085 523.482 280.715 523.764 280.25 523.942C279.788 524.124 279.274 524.215 278.707 524.215ZM278.67 520.315C279.108 520.315 279.477 520.215 279.779 520.015C280.081 519.815 280.31 519.527 280.467 519.151C280.625 518.775 280.703 518.326 280.703 517.802C280.703 517.291 280.626 516.84 280.472 516.448C280.318 516.057 280.09 515.751 279.788 515.529C279.486 515.307 279.114 515.196 278.67 515.196C278.208 515.196 277.823 515.313 277.515 515.547C277.21 515.782 276.981 516.096 276.827 516.49C276.676 516.884 276.6 517.322 276.6 517.802C276.6 518.295 276.677 518.731 276.831 519.11C276.988 519.485 277.219 519.781 277.524 519.997C277.832 520.209 278.214 520.315 278.67 520.315Z" fill="black"/>
<path d="M216.197 523.993H282.773V524.88H216.197V523.993Z" fill="black"/>
<rect x="42.6836" y="451.112" width="275.385" height="42.6839" rx="21.3419" fill="#00AA13"/>
<path d="M142.593 478.954V466.338H144.496V477.315H150.213V478.954H142.593ZM154.629 479.163C154.029 479.163 153.487 479.052 153.002 478.83C152.518 478.605 152.134 478.278 151.85 477.851C151.571 477.424 151.432 476.9 151.432 476.28C151.432 475.746 151.534 475.307 151.74 474.962C151.945 474.617 152.222 474.344 152.571 474.143C152.92 473.941 153.31 473.789 153.742 473.687C154.173 473.584 154.612 473.506 155.06 473.453C155.627 473.387 156.087 473.333 156.44 473.292C156.793 473.247 157.05 473.175 157.21 473.077C157.37 472.978 157.45 472.818 157.45 472.596V472.553C157.45 472.015 157.298 471.598 156.994 471.303C156.694 471.007 156.247 470.859 155.651 470.859C155.031 470.859 154.542 470.997 154.185 471.272C153.832 471.543 153.588 471.845 153.452 472.177L151.721 471.783C151.926 471.208 152.226 470.744 152.62 470.391C153.019 470.034 153.477 469.775 153.994 469.615C154.512 469.451 155.056 469.368 155.627 469.368C156.004 469.368 156.405 469.414 156.828 469.504C157.255 469.59 157.653 469.75 158.023 469.984C158.397 470.218 158.703 470.553 158.941 470.988C159.179 471.42 159.298 471.98 159.298 472.67V478.954H157.499V477.66H157.425C157.306 477.898 157.128 478.132 156.89 478.362C156.651 478.592 156.345 478.783 155.972 478.935C155.598 479.087 155.15 479.163 154.629 479.163ZM155.029 477.685C155.538 477.685 155.974 477.584 156.335 477.383C156.701 477.182 156.978 476.919 157.167 476.594C157.36 476.266 157.456 475.915 157.456 475.541V474.321C157.391 474.387 157.263 474.448 157.074 474.506C156.89 474.559 156.678 474.607 156.44 474.648C156.202 474.685 155.97 474.72 155.744 474.752C155.518 474.781 155.329 474.806 155.177 474.826C154.82 474.871 154.493 474.947 154.197 475.054C153.906 475.161 153.672 475.315 153.495 475.516C153.323 475.713 153.237 475.976 153.237 476.305C153.237 476.761 153.405 477.106 153.742 477.34C154.078 477.57 154.508 477.685 155.029 477.685ZM163.232 473.336V478.954H161.39V469.492H163.158V471.032H163.275C163.493 470.531 163.834 470.128 164.298 469.824C164.766 469.52 165.355 469.368 166.066 469.368C166.71 469.368 167.275 469.504 167.76 469.775C168.244 470.042 168.62 470.44 168.887 470.97C169.154 471.5 169.287 472.155 169.287 472.935V478.954H167.445V473.157C167.445 472.471 167.267 471.935 166.91 471.549C166.552 471.159 166.062 470.964 165.437 470.964C165.01 470.964 164.63 471.056 164.298 471.241C163.969 471.426 163.708 471.697 163.515 472.054C163.326 472.407 163.232 472.834 163.232 473.336ZM171.396 469.492H173.238V479.57C173.238 480.202 173.123 480.736 172.893 481.171C172.667 481.607 172.331 481.937 171.883 482.163C171.439 482.389 170.891 482.502 170.238 482.502C170.172 482.502 170.111 482.502 170.053 482.502C169.992 482.502 169.928 482.5 169.862 482.496V480.913C169.92 480.913 169.971 480.913 170.016 480.913C170.057 480.913 170.105 480.913 170.158 480.913C170.593 480.913 170.908 480.796 171.101 480.561C171.298 480.331 171.396 479.997 171.396 479.557V469.492ZM172.308 468.032C171.988 468.032 171.712 467.925 171.482 467.711C171.257 467.494 171.144 467.235 171.144 466.935C171.144 466.631 171.257 466.372 171.482 466.159C171.712 465.941 171.988 465.832 172.308 465.832C172.628 465.832 172.901 465.941 173.127 466.159C173.357 466.372 173.472 466.631 173.472 466.935C173.472 467.235 173.357 467.494 173.127 467.711C172.901 467.925 172.628 468.032 172.308 468.032ZM181.349 475.03V469.492H183.197V478.954H181.385V477.315H181.287C181.069 477.82 180.72 478.241 180.24 478.578C179.763 478.91 179.17 479.077 178.459 479.077C177.852 479.077 177.314 478.943 176.845 478.676C176.381 478.405 176.016 478.005 175.749 477.475C175.486 476.945 175.355 476.29 175.355 475.51V469.492H177.197V475.288C177.197 475.933 177.375 476.446 177.732 476.828C178.09 477.21 178.554 477.401 179.125 477.401C179.47 477.401 179.813 477.315 180.153 477.143C180.498 476.97 180.784 476.709 181.01 476.36C181.24 476.011 181.353 475.568 181.349 475.03ZM189.727 469.492V470.97H184.558V469.492H189.727ZM185.945 467.225H187.786V476.175C187.786 476.533 187.84 476.802 187.947 476.982C188.053 477.159 188.191 477.28 188.359 477.346C188.532 477.407 188.719 477.438 188.92 477.438C189.068 477.438 189.197 477.428 189.308 477.407C189.419 477.387 189.505 477.37 189.567 477.358L189.899 478.88C189.793 478.921 189.641 478.962 189.444 479.003C189.246 479.048 189 479.073 188.704 479.077C188.22 479.085 187.768 478.999 187.349 478.818C186.93 478.637 186.591 478.358 186.333 477.98C186.074 477.602 185.945 477.128 185.945 476.557V467.225ZM193.3 475.744L193.288 473.496H193.608L197.378 469.492H199.584L195.284 474.05H194.994L193.3 475.744ZM191.606 478.954V466.338H193.448V478.954H191.606ZM197.582 478.954L194.194 474.457L195.463 473.169L199.842 478.954H197.582ZM203.655 479.163C203.055 479.163 202.513 479.052 202.028 478.83C201.544 478.605 201.16 478.278 200.876 477.851C200.597 477.424 200.457 476.9 200.457 476.28C200.457 475.746 200.56 475.307 200.765 474.962C200.971 474.617 201.248 474.344 201.597 474.143C201.946 473.941 202.336 473.789 202.767 473.687C203.199 473.584 203.638 473.506 204.086 473.453C204.652 473.387 205.112 473.333 205.466 473.292C205.819 473.247 206.075 473.175 206.236 473.077C206.396 472.978 206.476 472.818 206.476 472.596V472.553C206.476 472.015 206.324 471.598 206.02 471.303C205.72 471.007 205.273 470.859 204.677 470.859C204.057 470.859 203.568 470.997 203.211 471.272C202.858 471.543 202.613 471.845 202.478 472.177L200.747 471.783C200.952 471.208 201.252 470.744 201.646 470.391C202.045 470.034 202.503 469.775 203.02 469.615C203.538 469.451 204.082 469.368 204.652 469.368C205.03 469.368 205.431 469.414 205.854 469.504C206.281 469.59 206.679 469.75 207.049 469.984C207.423 470.218 207.728 470.553 207.967 470.988C208.205 471.42 208.324 471.98 208.324 472.67V478.954H206.525V477.66H206.451C206.332 477.898 206.154 478.132 205.915 478.362C205.677 478.592 205.371 478.783 204.997 478.935C204.624 479.087 204.176 479.163 203.655 479.163ZM204.055 477.685C204.564 477.685 205 477.584 205.361 477.383C205.726 477.182 206.004 476.919 206.193 476.594C206.386 476.266 206.482 475.915 206.482 475.541V474.321C206.416 474.387 206.289 474.448 206.1 474.506C205.915 474.559 205.704 474.607 205.466 474.648C205.227 474.685 204.995 474.72 204.77 474.752C204.544 474.781 204.355 474.806 204.203 474.826C203.846 474.871 203.519 474.947 203.223 475.054C202.932 475.161 202.698 475.315 202.521 475.516C202.349 475.713 202.262 475.976 202.262 476.305C202.262 476.761 202.431 477.106 202.767 477.34C203.104 477.57 203.533 477.685 204.055 477.685ZM212.258 473.336V478.954H210.416V469.492H212.184V471.032H212.301C212.519 470.531 212.859 470.128 213.323 469.824C213.792 469.52 214.381 469.368 215.091 469.368C215.736 469.368 216.301 469.504 216.785 469.775C217.27 470.042 217.646 470.44 217.913 470.97C218.18 471.5 218.313 472.155 218.313 472.935V478.954H216.471V473.157C216.471 472.471 216.293 471.935 215.935 471.549C215.578 471.159 215.087 470.964 214.463 470.964C214.036 470.964 213.656 471.056 213.323 471.241C212.995 471.426 212.734 471.697 212.541 472.054C212.352 472.407 212.258 472.834 212.258 473.336Z" fill="white"/>
</g>
</g>
<defs>
<filter id="filter0_d_199_2890" x="17" y="205" width="326.753" height="398.31" filterUnits="userSpaceOnUse" color-interpolation-filters="sRGB">
<feFlood flood-opacity="0" result="BackgroundImageFix"/>
<feColorMatrix in="SourceAlpha" type="matrix" values="0 0 0 0 0 0 0 0 0 0 0 0 0 0 0 0 0 0 127 0" result="hardAlpha"/>
<feOffset dy="4"/>
<feGaussianBlur stdDeviation="2"/>
<feComposite in2="hardAlpha" operator="out"/>
<feColorMatrix type="matrix" values="0 0 0 0 0 0 0 0 0 0 0 0 0 0 0 0 0 0 0.25 0"/>
<feBlend mode="normal" in2="BackgroundImageFix" result="effect1_dropShadow_199_2890"/>
<feBlend mode="normal" in="SourceGraphic" in2="effect1_dropShadow_199_2890" result="shape"/>
</filter>
<clipPath id="clip0_199_2890">
<rect width="360" height="800" fill="white"/>
</clipPath>
</defs>
</svg>
