<svg width="360" height="800" viewBox="0 0 360 800" fill="none" xmlns="http://www.w3.org/2000/svg">
<g clip-path="url(#clip0_255_4014)">
<rect width="360" height="800" fill="white"/>
<rect width="360" height="800" fill="#E6F8E8"/>
<g filter="url(#filter0_d_255_4014)">
<rect x="21" y="205" width="319" height="322" rx="17.3471" fill="white" shape-rendering="crispEdges"/>
<path d="M100.132 262.61V246.84H103.466V259.861H110.227V262.61H100.132ZM119.958 257.574V250.783H123.238V262.61H120.089V260.462H119.965C119.699 261.155 119.254 261.712 118.633 262.133C118.017 262.554 117.265 262.764 116.377 262.764C115.587 262.764 114.891 262.584 114.29 262.225C113.69 261.866 113.22 261.355 112.881 260.693C112.548 260.031 112.378 259.237 112.373 258.313V250.783H115.653V257.728C115.658 258.426 115.846 258.978 116.215 259.384C116.585 259.789 117.08 259.992 117.702 259.992C118.097 259.992 118.466 259.902 118.81 259.723C119.154 259.538 119.432 259.266 119.642 258.906C119.858 258.547 119.963 258.103 119.958 257.574ZM125.862 267.045V250.783H129.096V252.769H129.242C129.386 252.451 129.594 252.128 129.866 251.799C130.143 251.465 130.503 251.188 130.944 250.967C131.391 250.741 131.945 250.629 132.607 250.629C133.47 250.629 134.265 250.854 134.994 251.306C135.723 251.753 136.306 252.428 136.742 253.331C137.179 254.23 137.397 255.356 137.397 256.712C137.397 258.031 137.184 259.145 136.758 260.054C136.337 260.957 135.762 261.642 135.033 262.11C134.309 262.572 133.498 262.803 132.6 262.803C131.963 262.803 131.421 262.697 130.975 262.487C130.533 262.276 130.171 262.012 129.889 261.694C129.607 261.37 129.391 261.044 129.242 260.716H129.142V267.045H125.862ZM129.073 256.696C129.073 257.4 129.17 258.013 129.366 258.537C129.561 259.06 129.843 259.468 130.213 259.761C130.582 260.048 131.031 260.192 131.56 260.192C132.094 260.192 132.546 260.046 132.915 259.753C133.285 259.456 133.565 259.045 133.755 258.521C133.95 257.993 134.047 257.384 134.047 256.696C134.047 256.014 133.952 255.413 133.762 254.894C133.572 254.376 133.293 253.97 132.923 253.678C132.553 253.385 132.099 253.239 131.56 253.239C131.026 253.239 130.574 253.38 130.205 253.662C129.84 253.945 129.561 254.345 129.366 254.864C129.17 255.382 129.073 255.993 129.073 256.696ZM142.956 262.833C142.202 262.833 141.529 262.703 140.939 262.441C140.349 262.174 139.881 261.781 139.538 261.263C139.199 260.739 139.029 260.087 139.029 259.307C139.029 258.65 139.15 258.098 139.391 257.651C139.632 257.205 139.961 256.845 140.377 256.573C140.793 256.301 141.265 256.096 141.794 255.957C142.328 255.819 142.887 255.721 143.472 255.664C144.16 255.593 144.715 255.526 145.136 255.464C145.557 255.398 145.862 255.3 146.052 255.172C146.242 255.043 146.337 254.853 146.337 254.602V254.556C146.337 254.068 146.183 253.691 145.875 253.424C145.572 253.157 145.141 253.023 144.581 253.023C143.991 253.023 143.521 253.154 143.172 253.416C142.823 253.673 142.592 253.996 142.479 254.386L139.445 254.14C139.599 253.421 139.902 252.8 140.354 252.276C140.805 251.748 141.388 251.342 142.102 251.06C142.82 250.772 143.652 250.629 144.597 250.629C145.254 250.629 145.883 250.706 146.483 250.86C147.089 251.014 147.625 251.252 148.092 251.576C148.565 251.899 148.937 252.315 149.209 252.823C149.481 253.326 149.617 253.929 149.617 254.633V262.61H146.506V260.97H146.414C146.224 261.34 145.97 261.666 145.652 261.948C145.333 262.225 144.951 262.443 144.504 262.602C144.058 262.756 143.542 262.833 142.956 262.833ZM143.896 260.57C144.378 260.57 144.804 260.475 145.174 260.285C145.544 260.09 145.834 259.828 146.044 259.499C146.255 259.171 146.36 258.798 146.36 258.383V257.128C146.257 257.194 146.116 257.256 145.936 257.312C145.762 257.364 145.564 257.412 145.343 257.459C145.123 257.5 144.902 257.538 144.681 257.574C144.461 257.605 144.26 257.633 144.081 257.659C143.696 257.715 143.359 257.805 143.072 257.928C142.784 258.052 142.561 258.218 142.402 258.429C142.243 258.634 142.163 258.891 142.163 259.199C142.163 259.646 142.325 259.987 142.648 260.223C142.977 260.454 143.393 260.57 143.896 260.57ZM157.242 262.61V246.84H163.464C164.66 246.84 165.679 247.068 166.521 247.525C167.363 247.977 168.005 248.606 168.446 249.412C168.893 250.213 169.116 251.137 169.116 252.184C169.116 253.231 168.89 254.155 168.438 254.956C167.987 255.757 167.332 256.381 166.475 256.827C165.623 257.274 164.591 257.497 163.379 257.497H159.414V254.825H162.84C163.482 254.825 164.011 254.715 164.427 254.494C164.848 254.268 165.161 253.958 165.366 253.562C165.576 253.162 165.682 252.702 165.682 252.184C165.682 251.66 165.576 251.203 165.366 250.813C165.161 250.418 164.848 250.113 164.427 249.897C164.006 249.676 163.472 249.566 162.825 249.566H160.576V262.61H157.242ZM174.275 262.833C173.521 262.833 172.848 262.703 172.258 262.441C171.667 262.174 171.2 261.781 170.856 261.263C170.517 260.739 170.348 260.087 170.348 259.307C170.348 258.65 170.469 258.098 170.71 257.651C170.951 257.205 171.28 256.845 171.696 256.573C172.111 256.301 172.584 256.096 173.112 255.957C173.646 255.819 174.206 255.721 174.791 255.664C175.479 255.593 176.033 255.526 176.454 255.464C176.875 255.398 177.181 255.3 177.371 255.172C177.561 255.043 177.656 254.853 177.656 254.602V254.556C177.656 254.068 177.502 253.691 177.194 253.424C176.891 253.157 176.459 253.023 175.9 253.023C175.31 253.023 174.84 253.154 174.491 253.416C174.142 253.673 173.911 253.996 173.798 254.386L170.764 254.14C170.918 253.421 171.221 252.8 171.673 252.276C172.124 251.748 172.707 251.342 173.42 251.06C174.139 250.772 174.971 250.629 175.915 250.629C176.572 250.629 177.201 250.706 177.802 250.86C178.408 251.014 178.944 251.252 179.411 251.576C179.884 251.899 180.256 252.315 180.528 252.823C180.8 253.326 180.936 253.929 180.936 254.633V262.61H177.825V260.97H177.733C177.543 261.34 177.289 261.666 176.97 261.948C176.652 262.225 176.27 262.443 175.823 262.602C175.376 262.756 174.86 262.833 174.275 262.833ZM175.215 260.57C175.697 260.57 176.123 260.475 176.493 260.285C176.862 260.09 177.153 259.828 177.363 259.499C177.573 259.171 177.679 258.798 177.679 258.383V257.128C177.576 257.194 177.435 257.256 177.255 257.312C177.081 257.364 176.883 257.412 176.662 257.459C176.442 257.5 176.221 257.538 176 257.574C175.779 257.605 175.579 257.633 175.399 257.659C175.014 257.715 174.678 257.805 174.391 257.928C174.103 258.052 173.88 258.218 173.721 258.429C173.562 258.634 173.482 258.891 173.482 259.199C173.482 259.646 173.644 259.987 173.967 260.223C174.296 260.454 174.712 260.57 175.215 260.57ZM193.322 254.155L190.319 254.34C190.267 254.083 190.157 253.852 189.988 253.647C189.818 253.437 189.595 253.27 189.318 253.147C189.046 253.018 188.72 252.954 188.34 252.954C187.831 252.954 187.403 253.062 187.054 253.277C186.705 253.488 186.53 253.77 186.53 254.124C186.53 254.407 186.643 254.646 186.869 254.841C187.095 255.036 187.482 255.192 188.032 255.31L190.172 255.742C191.322 255.978 192.18 256.358 192.744 256.881C193.309 257.405 193.591 258.093 193.591 258.945C193.591 259.72 193.363 260.4 192.906 260.985C192.454 261.571 191.833 262.027 191.042 262.356C190.257 262.679 189.351 262.841 188.324 262.841C186.759 262.841 185.511 262.515 184.582 261.863C183.658 261.206 183.116 260.313 182.957 259.184L186.184 259.014C186.281 259.492 186.517 259.856 186.892 260.108C187.267 260.354 187.747 260.477 188.332 260.477C188.907 260.477 189.369 260.367 189.718 260.146C190.072 259.92 190.252 259.63 190.257 259.276C190.252 258.978 190.126 258.734 189.88 258.544C189.633 258.349 189.253 258.2 188.74 258.098L186.692 257.69C185.537 257.459 184.677 257.058 184.112 256.488C183.553 255.919 183.273 255.192 183.273 254.309C183.273 253.55 183.478 252.895 183.889 252.346C184.305 251.796 184.887 251.373 185.637 251.075C186.392 250.777 187.274 250.629 188.286 250.629C189.78 250.629 190.955 250.944 191.812 251.576C192.675 252.207 193.178 253.067 193.322 254.155ZM205.498 254.155L202.495 254.34C202.443 254.083 202.333 253.852 202.164 253.647C201.994 253.437 201.771 253.27 201.494 253.147C201.222 253.018 200.896 252.954 200.516 252.954C200.007 252.954 199.579 253.062 199.23 253.277C198.881 253.488 198.706 253.77 198.706 254.124C198.706 254.407 198.819 254.646 199.045 254.841C199.271 255.036 199.658 255.192 200.208 255.31L202.348 255.742C203.498 255.978 204.356 256.358 204.92 256.881C205.485 257.405 205.767 258.093 205.767 258.945C205.767 259.72 205.539 260.4 205.082 260.985C204.63 261.571 204.009 262.027 203.218 262.356C202.433 262.679 201.527 262.841 200.5 262.841C198.935 262.841 197.687 262.515 196.758 261.863C195.834 261.206 195.292 260.313 195.133 259.184L198.36 259.014C198.457 259.492 198.693 259.856 199.068 260.108C199.443 260.354 199.923 260.477 200.508 260.477C201.083 260.477 201.545 260.367 201.894 260.146C202.248 259.92 202.428 259.63 202.433 259.276C202.428 258.978 202.302 258.734 202.056 258.544C201.809 258.349 201.429 258.2 200.916 258.098L198.868 257.69C197.713 257.459 196.853 257.058 196.288 256.488C195.729 255.919 195.449 255.192 195.449 254.309C195.449 253.55 195.654 252.895 196.065 252.346C196.481 251.796 197.063 251.373 197.813 251.075C198.567 250.777 199.45 250.629 200.462 250.629C201.956 250.629 203.131 250.944 203.988 251.576C204.851 252.207 205.354 253.067 205.498 254.155ZM210.166 262.61L206.947 250.783H210.266L212.099 258.729H212.207L214.116 250.783H217.373L219.314 258.683H219.414L221.216 250.783H224.527L221.316 262.61H217.843L215.81 255.172H215.664L213.631 262.61H210.166ZM231.324 262.841C230.128 262.841 229.094 262.587 228.221 262.079C227.354 261.565 226.684 260.852 226.211 259.938C225.739 259.019 225.503 257.954 225.503 256.743C225.503 255.521 225.739 254.453 226.211 253.539C226.684 252.62 227.354 251.907 228.221 251.399C229.094 250.885 230.128 250.629 231.324 250.629C232.52 250.629 233.552 250.885 234.42 251.399C235.292 251.907 235.965 252.62 236.437 253.539C236.91 254.453 237.146 255.521 237.146 256.743C237.146 257.954 236.91 259.019 236.437 259.938C235.965 260.852 235.292 261.565 234.42 262.079C233.552 262.587 232.52 262.841 231.324 262.841ZM231.34 260.3C231.884 260.3 232.338 260.146 232.703 259.838C233.067 259.525 233.342 259.099 233.527 258.56C233.716 258.021 233.811 257.407 233.811 256.719C233.811 256.032 233.716 255.418 233.527 254.879C233.342 254.34 233.067 253.914 232.703 253.601C232.338 253.288 231.884 253.131 231.34 253.131C230.79 253.131 230.328 253.288 229.954 253.601C229.584 253.914 229.304 254.34 229.114 254.879C228.93 255.418 228.837 256.032 228.837 256.719C228.837 257.407 228.93 258.021 229.114 258.56C229.304 259.099 229.584 259.525 229.954 259.838C230.328 260.146 230.79 260.3 231.34 260.3ZM239.279 262.61V250.783H242.459V252.846H242.582C242.798 252.112 243.16 251.558 243.668 251.183C244.176 250.803 244.761 250.613 245.423 250.613C245.588 250.613 245.765 250.623 245.955 250.644C246.145 250.664 246.312 250.693 246.455 250.729V253.639C246.301 253.593 246.088 253.552 245.816 253.516C245.544 253.48 245.295 253.462 245.069 253.462C244.587 253.462 244.155 253.567 243.776 253.778C243.401 253.983 243.103 254.271 242.882 254.64C242.667 255.01 242.559 255.436 242.559 255.919V262.61H239.279ZM251.959 262.803C251.061 262.803 250.247 262.572 249.518 262.11C248.794 261.642 248.219 260.957 247.793 260.054C247.372 259.145 247.162 258.031 247.162 256.712C247.162 255.356 247.38 254.23 247.816 253.331C248.253 252.428 248.833 251.753 249.557 251.306C250.285 250.854 251.084 250.629 251.951 250.629C252.614 250.629 253.165 250.741 253.607 250.967C254.053 251.188 254.413 251.465 254.685 251.799C254.962 252.128 255.173 252.451 255.316 252.769H255.416V246.84H258.689V262.61H255.455V260.716H255.316C255.162 261.044 254.944 261.37 254.662 261.694C254.385 262.012 254.023 262.276 253.576 262.487C253.135 262.697 252.596 262.803 251.959 262.803ZM252.999 260.192C253.527 260.192 253.974 260.048 254.338 259.761C254.708 259.468 254.99 259.06 255.185 258.537C255.386 258.013 255.486 257.4 255.486 256.696C255.486 255.993 255.388 255.382 255.193 254.864C254.998 254.345 254.716 253.945 254.346 253.662C253.976 253.38 253.527 253.239 252.999 253.239C252.459 253.239 252.005 253.385 251.636 253.678C251.266 253.97 250.986 254.376 250.796 254.894C250.606 255.413 250.511 256.014 250.511 256.696C250.511 257.384 250.606 257.993 250.796 258.521C250.991 259.045 251.271 259.456 251.636 259.753C252.005 260.046 252.459 260.192 252.999 260.192Z" fill="black"/>
<rect x="42.6836" y="451.112" width="275.385" height="42.6839" rx="21.3419" fill="#00AA13"/>
<path d="M142.593 478.954V466.338H144.496V477.315H150.213V478.954H142.593ZM154.629 479.163C154.029 479.163 153.487 479.052 153.002 478.831C152.518 478.605 152.134 478.278 151.85 477.851C151.571 477.424 151.432 476.9 151.432 476.28C151.432 475.746 151.534 475.307 151.74 474.962C151.945 474.617 152.222 474.344 152.571 474.143C152.92 473.942 153.31 473.79 153.742 473.687C154.173 473.584 154.612 473.506 155.06 473.453C155.627 473.387 156.087 473.334 156.44 473.293C156.793 473.247 157.05 473.176 157.21 473.077C157.37 472.978 157.45 472.818 157.45 472.597V472.553C157.45 472.015 157.298 471.599 156.994 471.303C156.694 471.007 156.247 470.859 155.651 470.859C155.031 470.859 154.542 470.997 154.185 471.272C153.832 471.543 153.588 471.845 153.452 472.178L151.721 471.783C151.926 471.208 152.226 470.744 152.62 470.391C153.019 470.034 153.477 469.775 153.994 469.615C154.512 469.451 155.056 469.369 155.627 469.369C156.004 469.369 156.405 469.414 156.828 469.504C157.255 469.59 157.653 469.751 158.023 469.985C158.397 470.219 158.703 470.553 158.941 470.989C159.179 471.42 159.298 471.981 159.298 472.67V478.954H157.499V477.66H157.425C157.306 477.898 157.128 478.132 156.89 478.362C156.651 478.592 156.345 478.783 155.972 478.935C155.598 479.087 155.15 479.163 154.629 479.163ZM155.029 477.685C155.538 477.685 155.974 477.584 156.335 477.383C156.701 477.182 156.978 476.919 157.167 476.595C157.36 476.266 157.456 475.915 157.456 475.541V474.321C157.391 474.387 157.263 474.449 157.074 474.506C156.89 474.56 156.678 474.607 156.44 474.648C156.202 474.685 155.97 474.72 155.744 474.753C155.518 474.781 155.329 474.806 155.177 474.827C154.82 474.872 154.493 474.948 154.197 475.054C153.906 475.161 153.672 475.315 153.495 475.516C153.323 475.714 153.237 475.976 153.237 476.305C153.237 476.761 153.405 477.106 153.742 477.34C154.078 477.57 154.508 477.685 155.029 477.685ZM163.232 473.336V478.954H161.39V469.492H163.158V471.032H163.275C163.493 470.531 163.834 470.128 164.298 469.824C164.766 469.521 165.355 469.369 166.066 469.369C166.71 469.369 167.275 469.504 167.76 469.775C168.244 470.042 168.62 470.44 168.887 470.97C169.154 471.5 169.287 472.155 169.287 472.935V478.954H167.445V473.157C167.445 472.471 167.267 471.935 166.91 471.549C166.552 471.159 166.062 470.964 165.437 470.964C165.01 470.964 164.63 471.056 164.298 471.241C163.969 471.426 163.708 471.697 163.515 472.054C163.326 472.408 163.232 472.835 163.232 473.336ZM171.396 469.492H173.238V479.57C173.238 480.202 173.123 480.736 172.893 481.172C172.667 481.607 172.331 481.937 171.883 482.163C171.439 482.389 170.891 482.502 170.238 482.502C170.172 482.502 170.111 482.502 170.053 482.502C169.992 482.502 169.928 482.5 169.862 482.496V480.913C169.92 480.913 169.971 480.913 170.016 480.913C170.057 480.913 170.105 480.913 170.158 480.913C170.593 480.913 170.908 480.796 171.101 480.562C171.298 480.332 171.396 479.997 171.396 479.558V469.492ZM172.308 468.032C171.988 468.032 171.712 467.925 171.482 467.712C171.257 467.494 171.144 467.235 171.144 466.935C171.144 466.631 171.257 466.373 171.482 466.159C171.712 465.941 171.988 465.833 172.308 465.833C172.628 465.833 172.901 465.941 173.127 466.159C173.357 466.373 173.472 466.631 173.472 466.935C173.472 467.235 173.357 467.494 173.127 467.712C172.901 467.925 172.628 468.032 172.308 468.032ZM181.349 475.03V469.492H183.197V478.954H181.385V477.315H181.287C181.069 477.82 180.72 478.241 180.24 478.578C179.763 478.911 179.17 479.077 178.459 479.077C177.852 479.077 177.314 478.944 176.845 478.677C176.381 478.406 176.016 478.005 175.749 477.475C175.486 476.946 175.355 476.291 175.355 475.51V469.492H177.197V475.289C177.197 475.933 177.375 476.447 177.732 476.829C178.09 477.211 178.554 477.401 179.125 477.401C179.47 477.401 179.813 477.315 180.153 477.143C180.498 476.97 180.784 476.709 181.01 476.36C181.24 476.011 181.353 475.568 181.349 475.03ZM189.727 469.492V470.97H184.558V469.492H189.727ZM185.945 467.225H187.786V476.176C187.786 476.533 187.84 476.802 187.947 476.983C188.053 477.159 188.191 477.28 188.359 477.346C188.532 477.408 188.719 477.438 188.92 477.438C189.068 477.438 189.197 477.428 189.308 477.408C189.419 477.387 189.505 477.371 189.567 477.358L189.899 478.88C189.793 478.921 189.641 478.962 189.444 479.003C189.246 479.048 189 479.073 188.704 479.077C188.22 479.085 187.768 478.999 187.349 478.818C186.93 478.638 186.591 478.358 186.333 477.981C186.074 477.603 185.945 477.128 185.945 476.558V467.225ZM193.3 475.744L193.288 473.496H193.608L197.378 469.492H199.584L195.284 474.05H194.994L193.3 475.744ZM191.606 478.954V466.338H193.448V478.954H191.606ZM197.582 478.954L194.194 474.457L195.463 473.169L199.842 478.954H197.582ZM203.655 479.163C203.055 479.163 202.513 479.052 202.028 478.831C201.544 478.605 201.16 478.278 200.876 477.851C200.597 477.424 200.457 476.9 200.457 476.28C200.457 475.746 200.56 475.307 200.765 474.962C200.971 474.617 201.248 474.344 201.597 474.143C201.946 473.942 202.336 473.79 202.767 473.687C203.199 473.584 203.638 473.506 204.086 473.453C204.652 473.387 205.112 473.334 205.466 473.293C205.819 473.247 206.075 473.176 206.236 473.077C206.396 472.978 206.476 472.818 206.476 472.597V472.553C206.476 472.015 206.324 471.599 206.02 471.303C205.72 471.007 205.273 470.859 204.677 470.859C204.057 470.859 203.568 470.997 203.211 471.272C202.858 471.543 202.613 471.845 202.478 472.178L200.747 471.783C200.952 471.208 201.252 470.744 201.646 470.391C202.045 470.034 202.503 469.775 203.02 469.615C203.538 469.451 204.082 469.369 204.652 469.369C205.03 469.369 205.431 469.414 205.854 469.504C206.281 469.59 206.679 469.751 207.049 469.985C207.423 470.219 207.728 470.553 207.967 470.989C208.205 471.42 208.324 471.981 208.324 472.67V478.954H206.525V477.66H206.451C206.332 477.898 206.154 478.132 205.915 478.362C205.677 478.592 205.371 478.783 204.997 478.935C204.624 479.087 204.176 479.163 203.655 479.163ZM204.055 477.685C204.564 477.685 205 477.584 205.361 477.383C205.726 477.182 206.004 476.919 206.193 476.595C206.386 476.266 206.482 475.915 206.482 475.541V474.321C206.416 474.387 206.289 474.449 206.1 474.506C205.915 474.56 205.704 474.607 205.466 474.648C205.227 474.685 204.995 474.72 204.77 474.753C204.544 474.781 204.355 474.806 204.203 474.827C203.846 474.872 203.519 474.948 203.223 475.054C202.932 475.161 202.698 475.315 202.521 475.516C202.349 475.714 202.262 475.976 202.262 476.305C202.262 476.761 202.431 477.106 202.767 477.34C203.104 477.57 203.533 477.685 204.055 477.685ZM212.258 473.336V478.954H210.416V469.492H212.184V471.032H212.301C212.519 470.531 212.859 470.128 213.323 469.824C213.792 469.521 214.381 469.369 215.091 469.369C215.736 469.369 216.301 469.504 216.785 469.775C217.27 470.042 217.646 470.44 217.913 470.97C218.18 471.5 218.313 472.155 218.313 472.935V478.954H216.471V473.157C216.471 472.471 216.293 471.935 215.935 471.549C215.578 471.159 215.087 470.964 214.463 470.964C214.036 470.964 213.656 471.056 213.323 471.241C212.995 471.426 212.734 471.697 212.541 472.054C212.352 472.408 212.258 472.835 212.258 473.336Z" fill="white"/>
<path d="M50.1243 319.538H51.5565V325.761C51.5565 326.424 51.401 327.01 51.0899 327.522C50.7788 328.03 50.3414 328.43 49.7777 328.723C49.2141 329.012 48.5534 329.157 47.7957 329.157C47.0411 329.157 46.3819 329.012 45.8183 328.723C45.2546 328.43 44.8173 328.03 44.5062 327.522C44.1951 327.01 44.0395 326.424 44.0395 325.761V319.538H45.4672V325.646C45.4672 326.074 45.5611 326.454 45.749 326.787C45.9399 327.12 46.2095 327.381 46.5575 327.572C46.9056 327.76 47.3183 327.854 47.7957 327.854C48.2762 327.854 48.6905 327.76 49.0385 327.572C49.3897 327.381 49.6576 327.12 49.8424 326.787C50.0303 326.454 50.1243 326.074 50.1243 325.646V319.538ZM58.839 323.636L57.5869 323.858C57.5346 323.698 57.4514 323.545 57.3374 323.4C57.2266 323.256 57.0756 323.137 56.8847 323.045C56.6937 322.952 56.455 322.906 56.1686 322.906C55.7774 322.906 55.4509 322.994 55.1891 323.169C54.9273 323.342 54.7964 323.565 54.7964 323.839C54.7964 324.076 54.8842 324.267 55.0597 324.412C55.2353 324.557 55.5187 324.676 55.9098 324.768L57.0371 325.027C57.6901 325.178 58.1768 325.41 58.4971 325.724C58.8174 326.038 58.9776 326.447 58.9776 326.949C58.9776 327.374 58.8544 327.753 58.608 328.085C58.3647 328.415 58.0243 328.674 57.5869 328.861C57.1526 329.049 56.649 329.143 56.0761 329.143C55.2815 329.143 54.6331 328.974 54.1311 328.635C53.629 328.293 53.321 327.808 53.207 327.18L54.5423 326.976C54.6254 327.324 54.7964 327.588 55.0551 327.766C55.3138 327.942 55.6511 328.03 56.0669 328.03C56.5197 328.03 56.8816 327.936 57.1526 327.748C57.4237 327.557 57.5592 327.324 57.5592 327.05C57.5592 326.829 57.4761 326.642 57.3097 326.491C57.1465 326.34 56.8955 326.226 56.5566 326.149L55.3554 325.886C54.6932 325.735 54.2035 325.495 53.8862 325.165C53.572 324.836 53.4149 324.418 53.4149 323.913C53.4149 323.494 53.532 323.128 53.7661 322.814C54.0002 322.499 54.3236 322.255 54.7363 322.079C55.149 321.9 55.6218 321.811 56.1547 321.811C56.9216 321.811 57.5253 321.977 57.9658 322.31C58.4062 322.64 58.6973 323.082 58.839 323.636ZM63.555 329.143C62.8558 329.143 62.2537 328.994 61.7485 328.695C61.2465 328.393 60.8584 327.97 60.5842 327.425C60.3132 326.876 60.1777 326.234 60.1777 325.498C60.1777 324.771 60.3132 324.13 60.5842 323.576C60.8584 323.022 61.2403 322.589 61.73 322.278C62.2229 321.967 62.7988 321.811 63.458 321.811C63.8584 321.811 64.2465 321.877 64.6222 322.01C64.998 322.142 65.3353 322.35 65.6341 322.633C65.9328 322.917 66.1685 323.285 66.3409 323.738C66.5134 324.187 66.5997 324.734 66.5997 325.378V325.868H60.9585V324.833H65.246C65.246 324.469 65.172 324.147 65.0242 323.867C64.8764 323.584 64.6685 323.36 64.4005 323.197C64.1356 323.034 63.8245 322.952 63.4672 322.952C63.0791 322.952 62.7403 323.048 62.4508 323.239C62.1643 323.427 61.9426 323.673 61.7855 323.978C61.6315 324.28 61.5545 324.608 61.5545 324.962V325.771C61.5545 326.245 61.6376 326.648 61.804 326.981C61.9734 327.314 62.209 327.568 62.5108 327.743C62.8127 327.916 63.1654 328.002 63.5689 328.002C63.8307 328.002 64.0694 327.965 64.285 327.891C64.5006 327.814 64.6869 327.7 64.844 327.549C65.0011 327.398 65.1212 327.212 65.2044 326.99L66.5119 327.226C66.4072 327.611 66.2193 327.948 65.9482 328.238C65.6803 328.524 65.343 328.747 64.9364 328.908C64.5329 329.065 64.0725 329.143 63.555 329.143ZM68.1324 329V321.903H69.4676V323.031H69.5415C69.6709 322.649 69.8988 322.349 70.2253 322.13C70.5549 321.908 70.9276 321.797 71.3434 321.797C71.4296 321.797 71.5313 321.8 71.6483 321.806C71.7684 321.813 71.8624 321.82 71.9302 321.83V323.151C71.8747 323.136 71.7762 323.119 71.6345 323.1C71.4928 323.079 71.3511 323.068 71.2094 323.068C70.8829 323.068 70.5919 323.137 70.3362 323.276C70.0836 323.411 69.8834 323.601 69.7356 323.844C69.5877 324.084 69.5138 324.358 69.5138 324.666V329H68.1324ZM77.9502 324.786V329H76.5688V321.903H77.8948V323.059H77.9825C78.1458 322.683 78.4014 322.381 78.7495 322.153C79.1006 321.925 79.5426 321.811 80.0755 321.811C80.559 321.811 80.9825 321.913 81.346 322.116C81.7094 322.316 81.9913 322.615 82.1915 323.012C82.3917 323.41 82.4918 323.901 82.4918 324.486V329H81.1104V324.652C81.1104 324.138 80.9764 323.736 80.7084 323.447C80.4404 323.154 80.0724 323.008 79.6042 323.008C79.2839 323.008 78.999 323.077 78.7495 323.216C78.5031 323.354 78.3075 323.557 78.1627 323.825C78.021 324.09 77.9502 324.411 77.9502 324.786ZM86.4097 329.157C85.96 329.157 85.5534 329.074 85.19 328.908C84.8265 328.738 84.5385 328.493 84.326 328.173C84.1165 327.853 84.0118 327.46 84.0118 326.995C84.0118 326.594 84.0888 326.265 84.2428 326.006C84.3968 325.747 84.6047 325.543 84.8665 325.392C85.1284 325.241 85.421 325.127 85.7444 325.05C86.0678 324.973 86.3974 324.914 86.7331 324.874C87.1581 324.825 87.5031 324.785 87.768 324.754C88.0329 324.72 88.2254 324.666 88.3455 324.592C88.4656 324.518 88.5257 324.398 88.5257 324.232V324.2C88.5257 323.796 88.4117 323.484 88.1838 323.262C87.959 323.04 87.6232 322.929 87.1766 322.929C86.7115 322.929 86.345 323.032 86.077 323.239C85.8121 323.442 85.6289 323.668 85.5272 323.918L84.229 323.622C84.383 323.191 84.6078 322.843 84.9035 322.578C85.2023 322.31 85.5457 322.116 85.9338 321.996C86.3219 321.873 86.73 321.811 87.1581 321.811C87.4415 321.811 87.7418 321.845 88.0591 321.913C88.3794 321.977 88.6782 322.098 88.9554 322.273C89.2357 322.449 89.4651 322.7 89.6438 323.026C89.8224 323.35 89.9117 323.77 89.9117 324.287V329H88.5627V328.03H88.5072C88.4179 328.208 88.2839 328.384 88.1053 328.556C87.9266 328.729 87.6971 328.872 87.4169 328.986C87.1366 329.1 86.8008 329.157 86.4097 329.157ZM86.71 328.048C87.0919 328.048 87.4184 327.973 87.6894 327.822C87.9636 327.671 88.1715 327.474 88.3132 327.23C88.4579 326.984 88.5303 326.721 88.5303 326.44V325.526C88.481 325.575 88.3856 325.621 88.2439 325.664C88.1053 325.704 87.9466 325.74 87.768 325.771C87.5893 325.798 87.4153 325.824 87.2459 325.849C87.0765 325.871 86.9348 325.889 86.8209 325.905C86.5529 325.938 86.308 325.995 86.0863 326.075C85.8676 326.156 85.692 326.271 85.5596 326.422C85.4302 326.57 85.3655 326.767 85.3655 327.013C85.3655 327.355 85.4918 327.614 85.7444 327.79C85.9969 327.962 86.3188 328.048 86.71 328.048ZM91.7517 329V321.903H93.0777V323.059H93.1655C93.3133 322.667 93.5551 322.362 93.8908 322.144C94.2266 321.922 94.6285 321.811 95.0967 321.811C95.571 321.811 95.9684 321.922 96.2887 322.144C96.6121 322.365 96.8508 322.67 97.0048 323.059H97.0787C97.2481 322.68 97.5176 322.378 97.8873 322.153C98.2569 321.925 98.6973 321.811 99.2086 321.811C99.8524 321.811 100.378 322.013 100.784 322.416C101.194 322.82 101.399 323.428 101.399 324.241V329H100.017V324.371C100.017 323.89 99.8862 323.542 99.6244 323.326C99.3626 323.111 99.05 323.003 98.6865 323.003C98.2368 323.003 97.8873 323.142 97.6378 323.419C97.3883 323.693 97.2635 324.046 97.2635 324.477V329H95.8867V324.283C95.8867 323.898 95.7666 323.588 95.5264 323.354C95.2861 323.12 94.9735 323.003 94.5885 323.003C94.3267 323.003 94.0849 323.072 93.8631 323.211C93.6444 323.346 93.4673 323.536 93.3318 323.779C93.1994 324.023 93.1331 324.304 93.1331 324.625V329H91.7517ZM106.309 329.143C105.609 329.143 105.007 328.994 104.502 328.695C104 328.393 103.612 327.97 103.338 327.425C103.067 326.876 102.931 326.234 102.931 325.498C102.931 324.771 103.067 324.13 103.338 323.576C103.612 323.022 103.994 322.589 104.484 322.278C104.976 321.967 105.552 321.811 106.212 321.811C106.612 321.811 107 321.877 107.376 322.01C107.752 322.142 108.089 322.35 108.388 322.633C108.686 322.917 108.922 323.285 109.095 323.738C109.267 324.187 109.353 324.734 109.353 325.378V325.868H103.712V324.833H108C108 324.469 107.926 324.147 107.778 323.867C107.63 323.584 107.422 323.36 107.154 323.197C106.889 323.034 106.578 322.952 106.221 322.952C105.833 322.952 105.494 323.048 105.204 323.239C104.918 323.427 104.696 323.673 104.539 323.978C104.385 324.28 104.308 324.608 104.308 324.962V325.771C104.308 326.245 104.391 326.648 104.558 326.981C104.727 327.314 104.963 327.568 105.264 327.743C105.566 327.916 105.919 328.002 106.322 328.002C106.584 328.002 106.823 327.965 107.039 327.891C107.254 327.814 107.441 327.7 107.598 327.549C107.755 327.398 107.875 327.212 107.958 326.99L109.265 327.226C109.161 327.611 108.973 327.948 108.702 328.238C108.434 328.524 108.097 328.747 107.69 328.908C107.287 329.065 106.826 329.143 106.309 329.143Z" fill="black"/>
<rect x="43.5421" y="341.216" width="274.301" height="38.5997" rx="19.2998" stroke="#808080" stroke-width="1.08419"/>
<path d="M58.4558 366.688C57.6832 366.688 57.0148 366.508 56.4506 366.149C55.8865 365.786 55.4499 365.285 55.1408 364.645C54.8354 364.002 54.6827 363.262 54.6827 362.424C54.6827 361.591 54.8354 360.85 55.1408 360.204C55.4499 359.553 55.8757 359.045 56.4183 358.678C56.9645 358.308 57.5951 358.123 58.3102 358.123C58.7594 358.123 59.1924 358.206 59.6093 358.371C60.0261 358.533 60.3998 358.782 60.7304 359.12C61.0646 359.454 61.3287 359.876 61.5228 360.387C61.7168 360.893 61.8138 361.494 61.8138 362.187V362.661H55.3457V361.815H60.8328C60.8328 361.283 60.725 360.805 60.5094 360.381C60.2974 359.954 60.001 359.616 59.6201 359.368C59.2427 359.12 58.8061 358.996 58.3102 358.996C57.7856 358.996 57.3238 359.136 56.925 359.417C56.5261 359.697 56.2135 360.067 55.9871 360.527C55.7643 360.987 55.6511 361.49 55.6475 362.036V362.543C55.6475 363.2 55.7607 363.775 55.9871 364.268C56.2171 364.756 56.5423 365.135 56.9627 365.405C57.3831 365.675 57.8808 365.809 58.4558 365.809C58.8475 365.809 59.1906 365.748 59.4853 365.626C59.7836 365.504 60.0333 365.34 60.2345 365.135C60.4394 364.927 60.5939 364.699 60.6981 364.451L61.609 364.747C61.4833 365.096 61.2766 365.418 60.9892 365.712C60.7053 366.007 60.3495 366.244 59.9219 366.424C59.4979 366.6 59.0092 366.688 58.4558 366.688ZM63.9281 366.515V358.236H64.8606V359.508H64.9469C65.1122 359.081 65.3871 358.745 65.7716 358.5C66.1597 358.252 66.625 358.128 67.1676 358.128C67.739 358.128 68.2079 358.263 68.5745 358.533C68.9446 358.798 69.2213 359.165 69.4045 359.632H69.4746C69.6615 359.172 69.9651 358.807 70.3856 358.538C70.8096 358.265 71.3234 358.128 71.9271 358.128C72.6961 358.128 73.3034 358.371 73.749 358.856C74.1946 359.337 74.4174 360.042 74.4174 360.969V366.515H73.4579V360.969C73.4579 360.315 73.2908 359.824 72.9567 359.497C72.6225 359.17 72.1823 359.007 71.6361 359.007C71.0036 359.007 70.5167 359.201 70.1753 359.589C69.834 359.977 69.6633 360.469 69.6633 361.066V366.515H68.6823V360.883C68.6823 360.322 68.5259 359.869 68.2133 359.524C67.9007 359.179 67.4605 359.007 66.8927 359.007C66.5118 359.007 66.1686 359.1 65.8632 359.287C65.5614 359.474 65.3224 359.735 65.1463 360.069C64.9738 360.399 64.8876 360.78 64.8876 361.211V366.515H63.9281ZM79.2699 366.704C78.7704 366.704 78.314 366.607 77.9008 366.413C77.4875 366.215 77.1587 365.931 76.9144 365.561C76.67 365.188 76.5479 364.735 76.5479 364.203C76.5479 363.793 76.6251 363.448 76.7796 363.168C76.9341 362.888 77.1533 362.658 77.4372 362.478C77.7211 362.298 78.0571 362.157 78.4452 362.052C78.8333 361.948 79.2609 361.867 79.7281 361.81C80.1916 361.752 80.5833 361.702 80.9031 361.659C81.2265 361.616 81.4727 361.547 81.6416 361.454C81.8104 361.361 81.8949 361.21 81.8949 361.001V360.807C81.8949 360.243 81.726 359.799 81.3882 359.476C81.054 359.149 80.5725 358.985 79.9437 358.985C79.3471 358.985 78.8602 359.116 78.4829 359.379C78.1092 359.641 77.8469 359.95 77.696 360.306L76.785 359.977C76.9719 359.524 77.2306 359.163 77.5612 358.894C77.8918 358.621 78.2619 358.425 78.6716 358.306C79.0812 358.184 79.4963 358.123 79.9167 358.123C80.2329 358.123 80.5617 358.164 80.9031 358.247C81.2481 358.33 81.5679 358.473 81.8626 358.678C82.1572 358.879 82.3962 359.161 82.5794 359.524C82.7627 359.884 82.8543 360.34 82.8543 360.893V366.515H81.8949V365.206H81.8356C81.7206 365.45 81.5499 365.687 81.3235 365.917C81.0972 366.147 80.8133 366.336 80.4719 366.483C80.1305 366.63 79.7298 366.704 79.2699 366.704ZM79.3993 365.825C79.9095 365.825 80.3515 365.712 80.7252 365.486C81.0989 365.259 81.3864 364.959 81.5877 364.586C81.7925 364.208 81.8949 363.793 81.8949 363.341V362.144C81.823 362.212 81.7026 362.273 81.5338 362.327C81.3685 362.381 81.1762 362.43 80.957 362.473C80.7414 362.512 80.5258 362.546 80.3102 362.575C80.0946 362.604 79.9005 362.629 79.7281 362.651C79.2609 362.708 78.862 362.798 78.5314 362.92C78.2008 363.042 77.9475 363.211 77.7714 363.427C77.5953 363.639 77.5073 363.912 77.5073 364.246C77.5073 364.749 77.687 365.139 78.0463 365.416C78.4057 365.689 78.8566 365.825 79.3993 365.825ZM85.4174 366.515V358.236H86.3822V366.515H85.4174ZM85.9079 356.813C85.7102 356.813 85.5413 356.747 85.4012 356.614C85.2611 356.477 85.191 356.314 85.191 356.123C85.191 355.933 85.2611 355.771 85.4012 355.638C85.5413 355.501 85.7102 355.433 85.9079 355.433C86.1055 355.433 86.2744 355.501 86.4145 355.638C86.5547 355.771 86.6248 355.933 86.6248 356.123C86.6248 356.314 86.5547 356.477 86.4145 356.614C86.2744 356.747 86.1055 356.813 85.9079 356.813ZM89.8791 355.476V366.515H88.9196V355.476H89.8791ZM98.9992 366.704C98.4997 366.704 98.0434 366.607 97.6301 366.413C97.2169 366.215 96.8881 365.931 96.6437 365.561C96.3994 365.188 96.2772 364.735 96.2772 364.203C96.2772 363.793 96.3545 363.448 96.509 363.168C96.6635 362.888 96.8827 362.658 97.1666 362.478C97.4505 362.298 97.7864 362.157 98.1745 362.052C98.5626 361.948 98.9902 361.867 99.4574 361.81C99.9209 361.752 100.313 361.702 100.632 361.659C100.956 361.616 101.202 361.547 101.371 361.454C101.54 361.361 101.624 361.21 101.624 361.001V360.807C101.624 360.243 101.455 359.799 101.118 359.476C100.783 359.149 100.302 358.985 99.673 358.985C99.0765 358.985 98.5896 359.116 98.2123 359.379C97.8385 359.641 97.5762 359.95 97.4253 360.306L96.5144 359.977C96.7012 359.524 96.9599 359.163 97.2905 358.894C97.6211 358.621 97.9913 358.425 98.4009 358.306C98.8106 358.184 99.2256 358.123 99.646 358.123C99.9623 358.123 100.291 358.164 100.632 358.247C100.977 358.33 101.297 358.473 101.592 358.678C101.887 358.879 102.126 359.161 102.309 359.524C102.492 359.884 102.584 360.34 102.584 360.893V366.515H101.624V365.206H101.565C101.45 365.45 101.279 365.687 101.053 365.917C100.826 366.147 100.543 366.336 100.201 366.483C99.8599 366.63 99.4592 366.704 98.9992 366.704ZM99.1286 365.825C99.6389 365.825 100.081 365.712 100.455 365.486C100.828 365.259 101.116 364.959 101.317 364.586C101.522 364.208 101.624 363.793 101.624 363.341V362.144C101.552 362.212 101.432 362.273 101.263 362.327C101.098 362.381 100.906 362.43 100.686 362.473C100.471 362.512 100.255 362.546 100.04 362.575C99.8239 362.604 99.6299 362.629 99.4574 362.651C98.9902 362.708 98.5914 362.798 98.2608 362.92C97.9302 363.042 97.6768 363.211 97.5008 363.427C97.3247 363.639 97.2366 363.912 97.2366 364.246C97.2366 364.749 97.4163 365.139 97.7757 365.416C98.135 365.689 98.586 365.825 99.1286 365.825ZM108.397 358.236V359.072H104.446V358.236H108.397ZM105.68 356.253H106.645V364.354C106.645 364.699 106.704 364.97 106.823 365.168C106.942 365.362 107.096 365.5 107.287 365.583C107.477 365.662 107.68 365.701 107.896 365.701C108.021 365.701 108.129 365.694 108.219 365.68C108.309 365.662 108.388 365.644 108.456 365.626L108.661 366.494C108.568 366.53 108.453 366.562 108.316 366.591C108.18 366.623 108.011 366.639 107.809 366.639C107.457 366.639 107.118 366.562 106.791 366.408C106.467 366.253 106.201 366.023 105.993 365.718C105.785 365.412 105.68 365.033 105.68 364.58V356.253ZM112.888 366.704C112.389 366.704 111.932 366.607 111.519 366.413C111.106 366.215 110.777 365.931 110.533 365.561C110.288 365.188 110.166 364.735 110.166 364.203C110.166 363.793 110.244 363.448 110.398 363.168C110.553 362.888 110.772 362.658 111.056 362.478C111.34 362.298 111.676 362.157 112.064 362.052C112.452 361.948 112.879 361.867 113.346 361.81C113.81 361.752 114.202 361.702 114.522 361.659C114.845 361.616 115.091 361.547 115.26 361.454C115.429 361.361 115.513 361.21 115.513 361.001V360.807C115.513 360.243 115.344 359.799 115.007 359.476C114.672 359.149 114.191 358.985 113.562 358.985C112.966 358.985 112.479 359.116 112.101 359.379C111.728 359.641 111.465 359.95 111.314 360.306L110.403 359.977C110.59 359.524 110.849 359.163 111.18 358.894C111.51 358.621 111.88 358.425 112.29 358.306C112.7 358.184 113.115 358.123 113.535 358.123C113.851 358.123 114.18 358.164 114.522 358.247C114.867 358.33 115.186 358.473 115.481 358.678C115.776 358.879 116.015 359.161 116.198 359.524C116.381 359.884 116.473 360.34 116.473 360.893V366.515H115.513V365.206H115.454C115.339 365.45 115.168 365.687 114.942 365.917C114.716 366.147 114.432 366.336 114.09 366.483C113.749 366.63 113.348 366.704 112.888 366.704ZM113.018 365.825C113.528 365.825 113.97 365.712 114.344 365.486C114.717 365.259 115.005 364.959 115.206 364.586C115.411 364.208 115.513 363.793 115.513 363.341V362.144C115.441 362.212 115.321 362.273 115.152 362.327C114.987 362.381 114.795 362.43 114.575 362.473C114.36 362.512 114.144 362.546 113.929 362.575C113.713 362.604 113.519 362.629 113.346 362.651C112.879 362.708 112.48 362.798 112.15 362.92C111.819 363.042 111.566 363.211 111.39 363.427C111.214 363.639 111.126 363.912 111.126 364.246C111.126 364.749 111.305 365.139 111.665 365.416C112.024 365.689 112.475 365.825 113.018 365.825ZM124.286 363.351V358.236H125.245V366.515H124.286V365.141H124.21C124.016 365.565 123.709 365.919 123.289 366.203C122.868 366.483 122.354 366.623 121.747 366.623C121.219 366.623 120.75 366.508 120.34 366.278C119.931 366.045 119.609 365.703 119.375 365.254C119.142 364.805 119.025 364.253 119.025 363.599V358.236H119.984V363.54C119.984 364.187 120.175 364.708 120.556 365.103C120.937 365.495 121.425 365.691 122.022 365.691C122.396 365.691 122.755 365.601 123.1 365.421C123.445 365.242 123.729 364.979 123.952 364.634C124.174 364.286 124.286 363.858 124.286 363.351ZM133.014 361.341V366.515H132.054V358.236H132.987V359.535H133.073C133.267 359.111 133.569 358.772 133.979 358.516C134.392 358.258 134.902 358.128 135.509 358.128C136.066 358.128 136.555 358.245 136.976 358.479C137.4 358.709 137.728 359.048 137.962 359.497C138.199 359.947 138.318 360.498 138.318 361.152V366.515H137.358V361.211C137.358 360.532 137.168 359.995 136.787 359.6C136.41 359.205 135.903 359.007 135.267 359.007C134.832 359.007 134.446 359.1 134.108 359.287C133.77 359.474 133.503 359.744 133.305 360.096C133.111 360.444 133.014 360.859 133.014 361.341ZM144.062 366.688C143.347 366.688 142.715 366.506 142.165 366.143C141.619 365.781 141.191 365.279 140.882 364.64C140.573 363.996 140.419 363.254 140.419 362.413C140.419 361.565 140.573 360.82 140.882 360.177C141.191 359.53 141.619 359.027 142.165 358.667C142.715 358.304 143.347 358.123 144.062 358.123C144.777 358.123 145.408 358.304 145.954 358.667C146.5 359.03 146.928 359.533 147.237 360.177C147.55 360.82 147.706 361.565 147.706 362.413C147.706 363.254 147.552 363.996 147.243 364.64C146.933 365.279 146.504 365.781 145.954 366.143C145.408 366.506 144.777 366.688 144.062 366.688ZM144.062 365.809C144.637 365.809 145.124 365.655 145.523 365.346C145.922 365.037 146.224 364.625 146.429 364.111C146.637 363.598 146.741 363.032 146.741 362.413C146.741 361.795 146.637 361.228 146.429 360.71C146.224 360.193 145.922 359.778 145.523 359.465C145.124 359.152 144.637 358.996 144.062 358.996C143.491 358.996 143.004 359.152 142.602 359.465C142.203 359.778 141.899 360.193 141.691 360.71C141.486 361.228 141.383 361.795 141.383 362.413C141.383 363.032 141.486 363.598 141.691 364.111C141.899 364.625 142.203 365.037 142.602 365.346C143 365.655 143.487 365.809 144.062 365.809ZM155.041 361.341V366.515H154.081V355.476H155.041V359.535H155.127C155.321 359.108 155.621 358.766 156.027 358.511C156.437 358.256 156.954 358.128 157.58 358.128C158.14 358.128 158.632 358.243 159.056 358.473C159.48 358.703 159.811 359.043 160.048 359.492C160.285 359.941 160.404 360.495 160.404 361.152V366.515H159.439V361.211C159.439 360.529 159.249 359.991 158.868 359.6C158.49 359.205 157.98 359.007 157.337 359.007C156.895 359.007 156.501 359.1 156.157 359.287C155.812 359.474 155.538 359.744 155.337 360.096C155.14 360.444 155.041 360.859 155.041 361.341ZM162.931 369.62V358.236H163.863V359.815H163.976C164.091 359.567 164.249 359.314 164.451 359.055C164.652 358.793 164.918 358.572 165.248 358.392C165.583 358.213 166.003 358.123 166.51 358.123C167.192 358.123 167.789 358.303 168.299 358.662C168.813 359.018 169.212 359.517 169.496 360.16C169.783 360.8 169.927 361.546 169.927 362.397C169.927 363.253 169.783 364.002 169.496 364.645C169.212 365.288 168.813 365.79 168.299 366.149C167.789 366.508 167.196 366.688 166.52 366.688C166.021 366.688 165.602 366.598 165.265 366.418C164.93 366.239 164.659 366.018 164.451 365.755C164.246 365.489 164.088 365.231 163.976 364.979H163.89V369.62H162.931ZM163.879 362.381C163.879 363.05 163.978 363.642 164.176 364.16C164.377 364.674 164.664 365.078 165.038 365.373C165.415 365.664 165.872 365.809 166.407 365.809C166.957 365.809 167.421 365.658 167.798 365.356C168.179 365.051 168.468 364.64 168.666 364.122C168.867 363.605 168.968 363.024 168.968 362.381C168.968 361.745 168.869 361.172 168.671 360.662C168.477 360.151 168.19 359.747 167.809 359.449C167.428 359.147 166.961 358.996 166.407 358.996C165.868 358.996 165.41 359.142 165.033 359.433C164.655 359.72 164.368 360.119 164.17 360.629C163.976 361.136 163.879 361.72 163.879 362.381ZM178.613 366.704C178.114 366.704 177.657 366.607 177.244 366.413C176.831 366.215 176.502 365.931 176.258 365.561C176.013 365.188 175.891 364.735 175.891 364.203C175.891 363.793 175.968 363.448 176.123 363.168C176.278 362.888 176.497 362.658 176.781 362.478C177.064 362.298 177.4 362.157 177.789 362.052C178.177 361.948 178.604 361.867 179.071 361.81C179.535 361.752 179.927 361.702 180.246 361.659C180.57 361.616 180.816 361.547 180.985 361.454C181.154 361.361 181.238 361.21 181.238 361.001V360.807C181.238 360.243 181.069 359.799 180.732 359.476C180.397 359.149 179.916 358.985 179.287 358.985C178.691 358.985 178.204 359.116 177.826 359.379C177.453 359.641 177.19 359.95 177.039 360.306L176.128 359.977C176.315 359.524 176.574 359.163 176.905 358.894C177.235 358.621 177.605 358.425 178.015 358.306C178.425 358.184 178.84 358.123 179.26 358.123C179.576 358.123 179.905 358.164 180.246 358.247C180.591 358.33 180.911 358.473 181.206 358.678C181.501 358.879 181.74 359.161 181.923 359.524C182.106 359.884 182.198 360.34 182.198 360.893V366.515H181.238V365.206H181.179C181.064 365.45 180.893 365.687 180.667 365.917C180.441 366.147 180.157 366.336 179.815 366.483C179.474 366.63 179.073 366.704 178.613 366.704ZM178.743 365.825C179.253 365.825 179.695 365.712 180.069 365.486C180.442 365.259 180.73 364.959 180.931 364.586C181.136 364.208 181.238 363.793 181.238 363.341V362.144C181.166 362.212 181.046 362.273 180.877 362.327C180.712 362.381 180.52 362.43 180.3 362.473C180.085 362.512 179.869 362.546 179.654 362.575C179.438 362.604 179.244 362.629 179.071 362.651C178.604 362.708 178.205 362.798 177.875 362.92C177.544 363.042 177.291 363.211 177.115 363.427C176.939 363.639 176.851 363.912 176.851 364.246C176.851 364.749 177.03 365.139 177.39 365.416C177.749 365.689 178.2 365.825 178.743 365.825ZM185.709 361.341V366.515H184.75V358.236H185.682V359.535H185.769C185.963 359.111 186.265 358.772 186.674 358.516C187.087 358.258 187.598 358.128 188.205 358.128C188.762 358.128 189.251 358.245 189.671 358.479C190.095 358.709 190.424 359.048 190.658 359.497C190.895 359.947 191.013 360.498 191.013 361.152V366.515H190.054V361.211C190.054 360.532 189.863 359.995 189.483 359.6C189.105 359.205 188.599 359.007 187.963 359.007C187.528 359.007 187.141 359.1 186.804 359.287C186.466 359.474 186.198 359.744 186 360.096C185.806 360.444 185.709 360.859 185.709 361.341ZM196.521 366.688C195.842 366.688 195.247 366.508 194.737 366.149C194.226 365.79 193.827 365.288 193.54 364.645C193.256 364.002 193.114 363.253 193.114 362.397C193.114 361.546 193.256 360.8 193.54 360.16C193.827 359.517 194.228 359.018 194.742 358.662C195.256 358.303 195.854 358.123 196.537 358.123C197.04 358.123 197.459 358.213 197.793 358.392C198.127 358.568 198.395 358.788 198.596 359.05C198.797 359.312 198.953 359.567 199.065 359.815H199.151V355.476H200.116V366.515H199.178V364.979H199.065C198.953 365.231 198.795 365.489 198.591 365.755C198.386 366.018 198.114 366.239 197.777 366.418C197.442 366.598 197.024 366.688 196.521 366.688ZM196.634 365.809C197.169 365.809 197.626 365.664 198.003 365.373C198.38 365.078 198.668 364.674 198.865 364.16C199.067 363.642 199.167 363.05 199.167 362.381C199.167 361.72 199.068 361.136 198.871 360.629C198.673 360.119 198.386 359.72 198.008 359.433C197.631 359.142 197.173 358.996 196.634 358.996C196.081 358.996 195.613 359.147 195.232 359.449C194.855 359.747 194.568 360.151 194.37 360.662C194.176 361.172 194.079 361.745 194.079 362.381C194.079 363.024 194.178 363.605 194.375 364.122C194.573 364.64 194.861 365.051 195.238 365.356C195.619 365.658 196.084 365.809 196.634 365.809ZM205.161 366.704C204.662 366.704 204.205 366.607 203.792 366.413C203.379 366.215 203.05 365.931 202.806 365.561C202.561 365.188 202.439 364.735 202.439 364.203C202.439 363.793 202.516 363.448 202.671 363.168C202.825 362.888 203.045 362.658 203.329 362.478C203.612 362.298 203.948 362.157 204.336 362.052C204.725 361.948 205.152 361.867 205.619 361.81C206.083 361.752 206.475 361.702 206.794 361.659C207.118 361.616 207.364 361.547 207.533 361.454C207.702 361.361 207.786 361.21 207.786 361.001V360.807C207.786 360.243 207.617 359.799 207.279 359.476C206.945 359.149 206.464 358.985 205.835 358.985C205.238 358.985 204.752 359.116 204.374 359.379C204 359.641 203.738 359.95 203.587 360.306L202.676 359.977C202.863 359.524 203.122 359.163 203.452 358.894C203.783 358.621 204.153 358.425 204.563 358.306C204.973 358.184 205.388 358.123 205.808 358.123C206.124 358.123 206.453 358.164 206.794 358.247C207.139 358.33 207.459 358.473 207.754 358.678C208.048 358.879 208.287 359.161 208.471 359.524C208.654 359.884 208.746 360.34 208.746 360.893V366.515H207.786V365.206H207.727C207.612 365.45 207.441 365.687 207.215 365.917C206.988 366.147 206.705 366.336 206.363 366.483C206.022 366.63 205.621 366.704 205.161 366.704ZM205.291 365.825C205.801 365.825 206.243 365.712 206.617 365.486C206.99 365.259 207.278 364.959 207.479 364.586C207.684 364.208 207.786 363.793 207.786 363.341V362.144C207.714 362.212 207.594 362.273 207.425 362.327C207.26 362.381 207.067 362.43 206.848 362.473C206.633 362.512 206.417 362.546 206.201 362.575C205.986 362.604 205.792 362.629 205.619 362.651C205.152 362.708 204.753 362.798 204.423 362.92C204.092 363.042 203.839 363.211 203.663 363.427C203.487 363.639 203.399 363.912 203.399 364.246C203.399 364.749 203.578 365.139 203.938 365.416C204.297 365.689 204.748 365.825 205.291 365.825Z" fill="#808080"/>
</g>
</g>
<defs>
<filter id="filter0_d_255_4014" x="17" y="205" width="327" height="330" filterUnits="userSpaceOnUse" color-interpolation-filters="sRGB">
<feFlood flood-opacity="0" result="BackgroundImageFix"/>
<feColorMatrix in="SourceAlpha" type="matrix" values="0 0 0 0 0 0 0 0 0 0 0 0 0 0 0 0 0 0 127 0" result="hardAlpha"/>
<feOffset dy="4"/>
<feGaussianBlur stdDeviation="2"/>
<feComposite in2="hardAlpha" operator="out"/>
<feColorMatrix type="matrix" values="0 0 0 0 0 0 0 0 0 0 0 0 0 0 0 0 0 0 0.25 0"/>
<feBlend mode="normal" in2="BackgroundImageFix" result="effect1_dropShadow_255_4014"/>
<feBlend mode="normal" in="SourceGraphic" in2="effect1_dropShadow_255_4014" result="shape"/>
</filter>
<clipPath id="clip0_255_4014">
<rect width="360" height="800" fill="white"/>
</clipPath>
</defs>
</svg>
